<svg width="91" height="91" viewBox="0 0 91 91" fill="none" xmlns="http://www.w3.org/2000/svg">
<path d="M44.8365 0.0413202C67.7083 0.0413202 85.905 15.2631 90.1886 37.3112C93.8794 56.308 84.7474 75.6349 67.5181 85.2983C45.7648 97.4919 17.575 89.4497 5.66378 67.6389C2.53944 61.9413 0.655138 55.6056 0.142679 49.0752C-0.36978 42.5448 0.501983 35.9773 2.69699 29.8321C4.89199 23.687 8.35722 18.1125 12.8503 13.4988C17.3434 8.88503 22.7558 5.34338 28.7089 3.12157C34.1724 1.06035 39.7533 -0.253967 44.8365 0.0413202ZM47.9513 54.4668C49.5842 43.4659 51.2675 32.6619 52.7606 21.8289C53.3533 17.5212 50.2273 14.1804 45.9829 14.1572C41.4142 14.1572 38.3609 17.2548 38.8026 21.6841C39.127 25.1292 39.6862 28.5568 40.1839 31.9729C41.3191 39.4361 42.4823 46.8994 43.6902 54.461L47.9513 54.4668ZM51.9888 65.4272C51.9553 61.3163 49.2208 58.3229 45.4629 58.2882C41.7721 58.2708 39.127 61.4437 39.127 65.9251C39.127 70.1112 41.8783 73.2262 45.5188 73.122C49.1592 73.0178 51.9888 69.5844 51.9888 65.4272Z" fill="#E54E4A"/>
</svg>
