<svg width="24" height="29" viewBox="0 0 24 29" fill="none" xmlns="http://www.w3.org/2000/svg">
<path d="M23.1716 9.54365C18.6394 12.3915 19.1485 18.6306 23.9996 21.0454C23.0064 23.7618 21.6404 26.2288 19.2869 28.0056C18.2609 28.779 17.0544 28.8099 15.9151 28.2898C13.65 27.2535 11.4444 27.2748 9.17543 28.3034C7.6884 28.9762 6.27437 28.6475 5.14085 27.4527C1.22922 23.3075 -0.832256 18.4856 0.316639 12.7086C1.08513 8.85922 4.61443 6.37868 8.19368 6.9471C9.12548 7.09404 10.0381 7.44591 10.9276 7.78426C11.746 8.0936 12.5126 8.14387 13.3349 7.80166C14.0738 7.50429 14.8295 7.25122 15.5981 7.04377C18.4684 6.24141 21.5405 7.24484 23.1716 9.54365Z" fill="white"/>
<path d="M17.8988 0C18.5424 3.09343 14.919 7.12262 12.1044 6.64701C11.6567 3.54584 14.5597 0.193339 17.8988 0Z" fill="white"/>
</svg>
