<svg width="5" height="10" viewBox="0 0 5 10" fill="none" xmlns="http://www.w3.org/2000/svg">
<path d="M4.38755 3.25386L1.26282 0.193862C1.13527 0.0696944 0.962725 0 0.782875 0C0.603026 0 0.430483 0.0696944 0.302933 0.193862C0.239125 0.255837 0.18848 0.329571 0.153919 0.41081C0.119357 0.49205 0.101562 0.579187 0.101562 0.667195C0.101562 0.755203 0.119357 0.84234 0.153919 0.92358C0.18848 1.00482 0.239125 1.07855 0.302933 1.14053L3.43447 4.19386C3.49828 4.25584 3.54892 4.32957 3.58349 4.41081C3.61805 4.49205 3.63584 4.57919 3.63584 4.6672C3.63584 4.7552 3.61805 4.84234 3.58349 4.92358C3.54892 5.00482 3.49828 5.07855 3.43447 5.14053L0.302933 8.19386C0.174742 8.31851 0.102366 8.48793 0.101727 8.66484C0.101089 8.84175 0.172241 9.01166 0.29953 9.1372C0.426818 9.26273 0.599817 9.33361 0.780468 9.33423C0.96112 9.33486 1.13463 9.26518 1.26282 9.14053L4.38755 6.08053C4.77001 5.70553 4.98483 5.1972 4.98483 4.6672C4.98483 4.13719 4.77001 3.62886 4.38755 3.25386Z" fill="white"/>
</svg>
