<svg width="10" height="18" viewBox="0 0 10 18" fill="none" xmlns="http://www.w3.org/2000/svg">
<path d="M10 0.990247C9.87395 0.768822 9.78663 0.511446 9.61445 0.336593C9.14651 -0.145476 8.47179 -0.102989 7.94041 0.420751C6.87684 1.46496 5.82398 2.51734 4.76618 3.56564C3.35083 4.96936 1.93493 6.37336 0.518484 7.77762C-0.124107 8.41493 -0.12493 8.83 0.518484 9.46568C2.94056 11.8703 5.38652 14.2521 7.77565 16.6935C8.50392 17.4386 9.60209 17.4705 10 16.2694V15.9426C9.79734 15.6435 9.63669 15.3044 9.38624 15.052C7.65619 13.3092 5.90389 11.5843 4.15819 9.85461C3.75121 9.45179 3.34012 9.0547 2.86229 8.58733C2.98019 8.51847 3.09232 8.44033 3.1976 8.35365C5.24455 6.32515 7.28739 4.29419 9.3261 2.26079C9.5955 1.99034 9.77756 1.6341 10 1.31707V0.990247Z" fill="#1D253D"/>
</svg>
