<svg width="39" height="39" viewBox="0 0 39 39" fill="none" xmlns="http://www.w3.org/2000/svg">
<path d="M31.7505 18.5232C31.9592 19.9786 32.1663 21.4343 32.3718 22.8903C32.3942 23.0484 32.4244 23.142 32.6029 23.2016C35.7203 24.2308 37.5478 26.3673 38.0856 29.6111C38.0856 29.6394 38.1265 29.6618 38.148 29.6872V32.0244C37.91 31.9776 37.9685 31.759 37.9373 31.6165C37.632 30.2454 36.8751 29.1768 35.7544 28.362C34.9529 27.7778 33.9931 27.4508 33.0019 27.4242C32.2664 27.2895 31.5768 27.4964 30.8882 27.7082C28.4498 28.6079 27.0394 30.8963 27.3408 33.4521C27.3612 33.6297 27.4061 33.823 27.1837 33.9245C26.8716 33.9986 26.5546 33.9625 26.2405 33.9645C25.2586 33.9697 24.2764 33.9697 23.2939 33.9645C23.0988 33.9645 22.9037 33.9898 22.7311 33.8669C22.6131 33.7088 22.6336 33.5224 22.6336 33.3419C22.6336 31.489 22.6336 29.6348 22.6336 27.7794C22.6199 27.6218 22.6412 27.4632 22.696 27.3149C22.8238 27.1373 23.0188 27.1724 23.1954 27.1695C23.6567 27.1607 24.1171 27.1763 24.5736 27.0719C25.2788 26.91 25.9098 26.5169 26.3663 25.9552C26.8227 25.3935 27.0785 24.6953 27.093 23.9715C27.1047 23.024 27.0979 22.0754 27.093 21.1269C27.093 20.7268 27.0628 20.7024 26.6746 20.7677C26.434 20.8025 26.1909 20.8169 25.9479 20.8107C24.2839 20.8107 22.6189 20.8029 20.954 20.8165C19.9113 20.8224 18.8686 20.8165 17.8269 20.8165C17.6318 20.8165 17.4367 20.8409 17.267 20.7102C17.1422 20.554 17.1597 20.3667 17.1597 20.1861C17.1597 17.6111 17.1597 15.0351 17.1597 12.4582C17.1457 12.3003 17.1671 12.1413 17.2221 11.9927C17.307 11.8551 17.4445 11.8463 17.586 11.8463C17.7274 11.8463 17.8171 11.9439 17.9351 11.9966C19.5221 12.3596 20.5521 13.6448 20.5687 15.2599C20.5687 15.6063 20.4107 16.0699 20.6389 16.267C20.834 16.4378 21.2866 16.3187 21.625 16.3197C23.3378 16.3197 25.0506 16.309 26.7623 16.3295C27.1174 16.3295 27.2793 16.2553 27.2179 15.8874C27.4334 15.9323 27.4256 16.1362 27.4812 16.2777C27.9338 17.4488 28.7921 18.1319 30.0123 18.3729C30.4308 18.4549 30.857 18.3934 31.2803 18.412C31.4354 18.4276 31.6149 18.3788 31.7505 18.5232Z" fill="#E54F2E"/>
<path d="M31.8636 38.1656C29.7724 37.9353 27.8645 36.1934 27.3486 34.0484C27.332 33.9801 27.3027 33.9137 27.2803 33.8464C27.1584 32.9593 27.1447 32.0752 27.4237 31.2115C27.9865 29.4725 29.1072 28.2605 30.8375 27.6379C30.9545 27.7296 30.9633 27.8692 30.9838 27.998C31.0651 28.5126 31.1392 29.0279 31.2062 29.5438C31.2308 29.6638 31.2099 29.7886 31.1477 29.8941C30.7302 30.2425 30.2903 30.5606 29.984 31.0329C28.8389 32.7993 29.7392 35.2292 31.7641 35.804C33.9256 36.4207 36.0109 34.7705 35.849 32.528C35.7583 31.2798 35.0941 30.3752 33.9548 29.8316C33.7266 29.7233 33.4564 29.7058 33.272 29.5106C33.0623 28.8675 33.038 28.1951 32.9502 27.5325C32.9468 27.4968 32.9514 27.4608 32.9635 27.4271C32.9757 27.3933 32.9951 27.3627 33.0204 27.3373C35.4325 27.3734 37.6437 29.3437 38.0729 31.8371C38.0836 31.9054 38.0621 31.9874 38.148 32.0254V33.1965C38.0719 33.3136 38.1275 33.4443 38.1099 33.5683C38.1012 34.4553 37.7442 35.2214 37.2516 35.9279C36.6152 36.8569 35.7098 37.5687 34.6571 37.9675C34.2835 38.1124 33.8872 38.19 33.4866 38.1968C33.3628 38.2144 33.2311 38.1578 33.1131 38.2349H32.2352C32.124 38.1422 31.9777 38.2378 31.8636 38.1656Z" fill="#333A40"/>
<path d="M11.7961 33.861C11.2977 36.0782 9.43665 37.8045 7.16499 38.1549C7.09964 38.1656 7.01478 38.1354 6.98259 38.23H5.51952C5.03183 38.0592 4.5139 37.9987 4.04279 37.7792C2.3388 36.9819 1.18688 35.7298 0.789896 33.8503C0.824117 33.8139 0.86582 33.7854 0.912128 33.7667C0.958436 33.748 1.00825 33.7396 1.05813 33.742C1.74089 33.742 2.41586 33.6961 3.09277 33.7673C3.24103 33.8103 3.27614 33.9459 3.33467 34.0601C4.37442 36.1426 6.91724 36.5866 8.58514 34.9784C8.83199 34.7269 9.03625 34.4368 9.18988 34.1196C9.26108 33.9811 9.31375 33.8269 9.4825 33.7713C10.1555 33.699 10.8285 33.743 11.5015 33.7439C11.5565 33.7378 11.6121 33.7453 11.6634 33.7657C11.7148 33.7861 11.7603 33.8189 11.7961 33.861Z" fill="#485055"/>
<path d="M38.148 33.5575C38.126 33.5554 38.1037 33.5577 38.0826 33.5644C38.0651 33.4336 38.0514 33.3028 38.148 33.1926V33.5575Z" fill="#87868A"/>
<path d="M31.8636 38.1656C31.9943 38.1471 32.125 38.1344 32.2362 38.231H31.8714C31.8752 38.2202 31.8765 38.2087 31.8751 38.1974C31.8738 38.186 31.8698 38.1752 31.8636 38.1656Z" fill="#86868A"/>
<path d="M33.4837 38.1646C33.4773 38.1743 33.4734 38.1854 33.4722 38.197C33.471 38.2085 33.4726 38.2202 33.4769 38.231H33.1121C33.2233 38.1334 33.353 38.148 33.4837 38.1646Z" fill="#87868A"/>
<path d="M11.7961 33.861H9.39374C9.2484 33.9742 9.07576 33.9674 8.90604 33.9674C7.15946 33.9674 5.41255 33.9674 3.66532 33.9674C3.4956 33.9674 3.32296 33.9723 3.17763 33.8601L0.793798 33.8513C0.662121 31.921 0.974244 30.0942 2.10764 28.4771C3.42343 26.5986 5.22886 25.4978 7.49564 25.1543C7.60294 24.9923 7.77265 25.0284 7.92579 25.0225C10.3642 24.9347 12.8027 24.9972 15.246 24.9874C15.4411 24.9874 15.6362 24.9952 15.8313 24.9806C16.3189 24.9806 16.8066 24.9718 17.2943 24.9806C17.5369 24.9635 17.7804 24.9635 18.0229 24.9806C18.3819 24.9991 18.4589 25.0831 18.4833 25.45C18.4901 25.5476 18.4882 25.6452 18.4882 25.7427C18.4882 28.2332 18.4882 30.7239 18.4882 33.215C18.4882 33.4287 18.536 33.6571 18.3731 33.8435L12.6349 33.8562C12.353 33.8503 12.0799 33.8571 11.7961 33.861Z" fill="#F26A51"/>
<path d="M2.9689 22.8844L2.9806 16.3265C3.11716 16.1928 3.2937 16.2094 3.46147 16.2085C6.82393 16.2085 10.1861 16.2085 13.5479 16.2085C13.6937 16.1942 13.8407 16.2209 13.9722 16.2856C14.0853 16.3831 14.096 16.5149 14.096 16.6466C14.096 17.1258 14.1136 17.6049 14.1351 18.0831C14.0756 18.2968 14.1029 18.5144 14.1039 18.7321C14.1078 19.9773 14.1078 21.2222 14.1039 22.4667C14.1039 22.6229 14.1087 22.7839 14.0063 22.9176C13.8454 23.0327 13.6591 23.0152 13.4786 23.0152C10.1623 23.0152 6.84311 23.0152 3.52096 23.0152C3.32784 23.0132 3.12203 23.0503 2.9689 22.8844Z" fill="#F7911F"/>
<path d="M13.981 16.3217H2.9806C2.9806 14.9476 2.9806 13.5736 2.96207 12.1986C2.96207 11.9439 3.07521 11.9351 3.26834 11.9361C4.53634 11.9419 5.7975 11.9361 7.0616 11.9361H13.3723C13.9897 11.9361 13.9897 11.9361 13.9897 12.5353C13.9897 13.1345 13.9897 13.7063 13.9897 14.2918C13.9897 14.408 13.9419 14.5368 14.0453 14.6373C14.1224 15.2053 14.1955 15.7693 13.981 16.3217Z" fill="#F8BD2B"/>
<path d="M31.7505 18.5232C31.1106 18.4744 30.4639 18.5925 29.827 18.4442C28.5951 18.1514 27.7719 17.4137 27.3476 16.2231C27.3076 16.1109 27.2569 16.0026 27.211 15.8923C27.0989 14.5466 27.4461 13.3882 28.5824 12.5587C29.0921 12.1772 29.7085 11.9653 30.3449 11.9527C31.4013 11.9332 32.4586 11.9527 33.5149 11.939C33.7324 11.939 33.7734 12.0151 33.7724 12.2123C33.7666 14.2291 33.7666 16.2459 33.7724 18.2627C33.7724 18.4803 33.6934 18.5213 33.4983 18.5184C32.917 18.5115 32.3337 18.5184 31.7505 18.5232Z" fill="#F26A51"/>
<path d="M2.9689 22.8844C4.65826 22.8844 6.34859 22.8951 8.04088 22.8961C10.0229 22.8961 12.0061 22.8961 13.9907 22.8961C14.1185 23.0132 14.1068 23.1821 14.1419 23.3304C14.3253 24.1111 14.7837 24.6341 15.5455 24.8918C15.643 24.9269 15.8 24.9103 15.8147 25.0791C13.423 25.0831 11.0314 25.0879 8.63977 25.0938C8.26034 25.0938 7.87994 25.1328 7.50052 25.1533C7.39518 25.0245 7.2518 25.0957 7.12988 25.0948C5.12449 25.0948 3.12008 25.085 1.11567 25.0948C0.842567 25.0948 0.766487 25.0313 0.779167 24.7571C0.802576 24.2243 0.795749 23.6885 0.779167 23.1538C0.773315 22.9449 0.838666 22.8903 1.04252 22.8932C1.6814 22.901 2.32612 22.8883 2.9689 22.8844Z" fill="#333A40"/>
<path d="M13.981 16.3217C14.0219 15.7625 13.9322 15.1975 14.0473 14.6402C14.3565 13.2262 15.2285 12.3625 16.6194 12.0054C16.8193 12.0054 16.9764 11.8102 17.1919 11.8853C17.2268 11.8983 17.2555 11.9241 17.2719 11.9576V20.6926C17.2592 20.7072 17.2475 20.7219 17.2358 20.7375C16.9276 20.8751 16.6389 20.7375 16.358 20.6575C15.8591 20.5249 15.3986 20.2762 15.014 19.9318C14.6294 19.5874 14.3316 19.1569 14.1448 18.6755C14.0636 18.4882 14.033 18.283 14.0561 18.0802C13.9332 17.4995 14.017 16.9082 13.981 16.3217Z" fill="#F26A51"/>
<path d="M17.2768 0.85505C18.9349 0.783811 20.5092 2.23884 20.554 3.89977C20.5667 4.36136 20.554 4.82295 20.554 5.28454C20.4565 5.40262 20.3219 5.4075 20.1893 5.40847C19.329 5.41758 18.4687 5.41758 17.6084 5.40847C17.4861 5.41667 17.3648 5.38218 17.2651 5.31089C17.1373 5.1567 17.1548 4.96933 17.1539 4.78977C17.1539 3.64995 17.1539 2.51143 17.1539 1.37421C17.1587 1.19465 17.1334 1.00533 17.2768 0.85505Z" fill="#E54F2E"/>
<path d="M17.2768 0.85505V5.28551C17.2602 5.3021 17.2436 5.31967 17.228 5.33724C17.1198 5.39315 16.9982 5.41782 16.8769 5.40847C16.0556 5.41368 15.234 5.41368 14.4121 5.40847C14.2677 5.40847 14.1195 5.40847 14.0044 5.29625C13.9975 4.69121 13.9478 4.08421 14.0609 3.4821C14.3399 1.9734 15.7474 0.822846 17.2768 0.85505Z" fill="#F26A51"/>
<path d="M17.6396 11.9371L17.2699 11.9595L17.2758 11.9283C17.1383 11.7936 17.1578 11.617 17.1568 11.4511C17.1529 10.2911 17.1529 9.1311 17.1568 7.97112C17.1568 7.80327 17.147 7.62956 17.2592 7.48318C17.4006 7.36412 17.5733 7.37388 17.741 7.37291C18.5214 7.369 19.3036 7.369 20.0878 7.37291C20.2527 7.37291 20.4302 7.35339 20.5579 7.49977C20.5326 8.259 20.6457 9.02896 20.3453 9.7638C19.8801 10.8968 19.088 11.6384 17.863 11.8746C17.8044 11.9478 17.705 11.8746 17.6396 11.9371Z" fill="#FABEAC"/>
<path d="M17.2709 7.49977C17.2709 8.97594 17.2732 10.4521 17.2777 11.9283L16.6194 12.0073L16.7598 11.9097C15.1017 11.577 13.9917 10.2078 13.9897 8.5059C13.9897 8.16629 13.9897 7.82278 13.9966 7.48611C14.0912 7.4088 14.2124 7.37167 14.334 7.38267C15.2041 7.37583 16.0731 7.37388 16.9432 7.38267C17.0402 7.37948 17.1363 7.40275 17.2212 7.45L17.2709 7.49977Z" fill="#FFE1BA"/>
<path d="M20.5599 7.50172H17.2709L17.2777 7.48123C17.2148 7.42193 17.1777 7.34027 17.1744 7.25385C17.148 6.68296 17.149 6.11208 17.1744 5.54119C17.1755 5.45518 17.2105 5.3731 17.2719 5.31284V5.29039H20.556C21.1998 5.29039 21.8435 5.30601 22.4873 5.29722C22.6911 5.29722 22.7565 5.34895 22.7506 5.55778C22.737 6.11728 22.737 6.67646 22.7506 7.23531C22.7555 7.44122 22.696 7.50075 22.4892 7.49782C21.8474 7.48513 21.2037 7.49782 20.5599 7.50172Z" fill="#333A40"/>
<path d="M17.2748 5.31089V7.47928H13.9936C13.9936 6.75128 13.9936 6.02327 13.9936 5.29527L17.2748 5.31089Z" fill="#485055"/>
<path d="M18.3692 33.8396C18.3692 31.0486 18.3692 28.2576 18.375 25.4675C18.375 25.1748 18.3126 25.0518 18.0015 25.0831C17.7594 25.0957 17.5167 25.0938 17.2748 25.0772C17.1412 24.9396 17.1587 24.763 17.1587 24.5951C17.1548 23.4644 17.1548 22.3334 17.1587 21.202C17.1587 21.0342 17.1412 20.8575 17.2748 20.7199V20.6965L21.0008 20.7199C22.061 20.8702 22.8277 21.6958 22.8481 22.7761C22.8745 24.1501 22.8559 25.5241 22.854 26.8982C22.8684 27.033 22.8337 27.1684 22.7565 27.2797L22.7477 33.8396H18.3692Z" fill="#485055"/>
<path d="M33.0204 27.3363C33.1244 28.0702 33.2285 28.8041 33.3325 29.5379C33.4256 29.6513 33.4815 29.7907 33.4925 29.937C33.5949 30.6943 33.7139 31.4497 33.8095 32.2079C33.8622 32.6207 33.8095 32.6958 33.392 32.7642C32.9131 32.8393 32.4332 32.9096 31.9514 32.9691C31.6119 33.011 31.4939 32.9437 31.4422 32.61C31.3037 31.7112 31.1496 30.8134 31.0696 29.9068C31.2286 29.6218 31.0589 29.3447 31.0365 29.0675C30.9975 28.5894 30.9087 28.1151 30.8414 27.6389C31.5437 27.3705 32.2586 27.1831 33.0204 27.3363Z" fill="#C8D0E1"/>
<path d="M17.2748 20.718V25.0752H15.8117C14.5789 24.6449 14.0405 24.0018 13.9878 22.8922C13.9878 21.4128 13.9878 19.9334 13.9966 18.453C13.9966 18.33 13.9302 18.1866 14.06 18.0821C14.493 19.7128 15.5855 20.6087 17.2748 20.718Z" fill="#586065"/>
</svg>
