<svg width="16" height="14" viewBox="0 0 16 14" fill="none" xmlns="http://www.w3.org/2000/svg">
<path d="M13.4375 0.26355H2.5625C1.42475 0.26355 0.5 1.18905 0.5 2.32755V11.6988C0.5 12.8373 1.42475 13.7635 2.5625 13.7635H13.4375C14.5752 13.7635 15.5 12.8373 15.5 11.6988V2.32755C15.5 1.18905 14.5752 0.26355 13.4375 0.26355ZM2.5625 1.38855H13.4375C13.955 1.38855 14.375 1.80855 14.375 2.32605V2.86155L8.3375 6.8868C8.13275 7.0218 7.868 7.0233 7.6625 6.8853L1.625 2.86155V2.32605C1.625 1.80855 2.045 1.38855 2.5625 1.38855ZM13.4375 12.6371H2.5625C2.045 12.6371 1.625 12.2171 1.625 11.6996V4.18005L7.055 7.80255C7.34225 7.99455 7.6715 8.09055 8 8.09055C8.33 8.09055 8.65775 7.99455 8.945 7.8033L14.375 4.1808V11.6973C14.375 12.2148 13.955 12.6348 13.4375 12.6348V12.6371Z" fill="#A3A3A3"/>
</svg>
