<svg width="21" height="23" viewBox="0 0 21 23" fill="none" xmlns="http://www.w3.org/2000/svg">
<path d="M20.5873 15.7691V20.7331H0.479922V15.7836C0.570421 15.875 0.649951 15.9425 0.713026 16.0212C0.901567 16.2575 1.07845 16.5024 1.26974 16.7361C1.59814 17.1365 2.00607 17.392 2.56004 17.3675C2.87757 17.3658 3.18254 17.2475 3.41293 17.0365C3.63026 16.8281 3.81606 16.5871 4.01215 16.3581C4.14927 16.1953 4.27267 16.0159 4.42351 15.8664C4.85201 15.4467 5.47385 15.4421 5.89824 15.8664C6.10392 16.0689 6.25886 16.3131 6.44672 16.5315C6.59146 16.7153 6.75201 16.8868 6.92664 17.0445C7.18485 17.2658 7.52002 17.3849 7.86521 17.378C8.2104 17.3711 8.5402 17.2388 8.78874 17.0074C9.01978 16.7936 9.2001 16.5276 9.40578 16.2873C9.53731 16.1187 9.68046 15.9588 9.83428 15.8088C10.0147 15.6418 10.2549 15.5486 10.5048 15.5486C10.7547 15.5486 10.9949 15.6418 11.1753 15.8088C11.3652 15.9822 11.5181 16.196 11.682 16.3925C11.8328 16.5713 11.9672 16.7652 12.1338 16.9287C12.7577 17.5402 13.6634 17.5243 14.2592 16.8863C14.4751 16.6553 14.6541 16.3919 14.8536 16.1457C14.9372 16.0381 15.0288 15.9365 15.1278 15.8419C15.5508 15.454 16.1487 15.4487 16.5614 15.8465C16.7534 16.0318 16.9042 16.2595 17.0763 16.4627C17.2484 16.6659 17.4006 16.8684 17.5967 17.0359C17.8548 17.2607 18.1917 17.3825 18.5394 17.3766C18.887 17.3707 19.2193 17.2376 19.469 17.0041C19.7042 16.7864 19.8886 16.5176 20.0964 16.2727C20.2465 16.0954 20.398 15.9193 20.5489 15.7433L20.5873 15.7691Z" fill="#242346"/>
<path d="M10.5384 13.2374C13.3484 13.2374 16.1594 13.2374 18.9713 13.2374C19.7639 13.2374 20.4111 13.7332 20.5598 14.4804C20.6078 14.718 20.5893 14.9682 20.5955 15.2131C20.5941 15.2312 20.5884 15.2488 20.5789 15.2645C20.5694 15.2803 20.5563 15.2937 20.5406 15.3038C20.167 15.497 19.9298 15.8187 19.6878 16.1371C19.5605 16.3152 19.4213 16.485 19.2709 16.6454C18.8273 17.0888 18.2048 17.0928 17.7626 16.65C17.5768 16.464 17.4314 16.2423 17.2614 16.0411C17.1179 15.8568 16.9615 15.6824 16.7931 15.5189C16.5357 15.282 16.1934 15.1504 15.8377 15.1516C15.4821 15.1528 15.1407 15.2868 14.8851 15.5255C14.6568 15.7353 14.4779 15.9961 14.2763 16.2337C14.1573 16.3874 14.03 16.5349 13.8951 16.6758C13.468 17.0809 12.8626 17.0822 12.4409 16.6692C12.2538 16.4852 12.1064 16.2641 11.9384 16.0616C11.8105 15.8953 11.6732 15.736 11.527 15.5844C10.9278 15.0059 10.0571 15.0073 9.46337 15.5937C9.28031 15.7744 9.13634 15.9908 8.96768 16.1894C8.79902 16.3879 8.63859 16.6043 8.43565 16.7692C8.25539 16.9139 8.02625 16.9895 7.79194 16.9816C7.55763 16.9736 7.33454 16.8827 7.16523 16.7261C6.96915 16.5454 6.81694 16.3204 6.63869 16.1205C6.43301 15.8882 6.24378 15.6307 6.00108 15.4395C5.746 15.2411 5.42498 15.1389 5.09772 15.152C4.77046 15.165 4.45924 15.2923 4.22194 15.5103C4.0094 15.7016 3.84006 15.9385 3.65357 16.1569C3.50823 16.327 3.37933 16.5143 3.22027 16.6699C2.7952 17.0842 2.17679 17.0875 1.75651 16.6699C1.54672 16.4601 1.37738 16.2125 1.19363 15.9795C1.00989 15.7466 0.804897 15.5043 0.528599 15.3448C0.512331 15.3357 0.498317 15.3233 0.48754 15.3085C0.476763 15.2936 0.469482 15.2766 0.46621 15.2588C0.484035 14.953 0.46621 14.6366 0.542311 14.3447C0.723996 13.6716 1.35338 13.2374 2.07738 13.2374C4.89749 13.2374 7.71783 13.2374 10.5384 13.2374Z" fill="#242346"/>
<path d="M20.5592 21.0819C20.614 21.0819 20.6689 21.0819 20.7237 21.0819C20.902 21.0905 20.9979 21.1825 20.9979 21.3553C21.0007 21.8119 21.0007 22.2689 20.9979 22.726C20.9979 22.9054 20.8972 22.9954 20.7093 23H0.382566C0.3476 23 0.314006 23 0.278355 23C0.102155 22.994 0.00411361 22.9007 0.00411361 22.728C0.0013712 22.2722 0 21.8157 0 21.3586C0 21.1852 0.0966699 21.0938 0.274241 21.0832C0.342801 21.0799 0.411361 21.0832 0.484035 21.0832L20.5592 21.0819Z" fill="#242346"/>
<path d="M3.14554 12.8866V9.73545L3.17914 9.70765C3.31077 9.84003 3.45338 9.96115 3.57267 10.1048C3.77835 10.347 3.95524 10.6091 4.16229 10.8487C4.45093 11.1843 4.81636 11.3875 5.28394 11.3941C5.49894 11.3997 5.71239 11.3574 5.90773 11.2705C6.10308 11.1836 6.27507 11.0545 6.41038 10.8931C6.62429 10.6528 6.81077 10.3907 7.01097 10.1385C7.21117 9.88636 7.4189 9.67522 7.74662 9.60573C8.11548 9.52829 8.44799 9.61367 8.70235 9.87974C8.9142 10.1015 9.08766 10.3569 9.28648 10.5899C9.42259 10.7615 9.57326 10.9217 9.73693 11.0691C9.99328 11.2886 10.3255 11.4075 10.6681 11.4023C11.0107 11.3972 11.3389 11.2684 11.5881 11.0413C11.828 10.8216 12.0159 10.5502 12.227 10.3014C12.3374 10.169 12.4368 10.0313 12.5575 9.91151C13.0244 9.4482 13.6785 9.46276 14.1166 9.95189C14.3641 10.2272 14.5725 10.535 14.8118 10.8176C15.28 11.3716 15.9588 11.5457 16.5724 11.275C16.8713 11.1426 17.0914 10.9222 17.2847 10.674C17.4664 10.441 17.644 10.2047 17.851 9.93468V12.8866H3.14554Z" fill="#242346"/>
<path d="M10.5062 8.04636C12.4793 8.04636 14.4527 8.04636 16.4263 8.04636C17.1442 8.04636 17.7002 8.4865 17.8442 9.15565C17.8661 9.22521 17.8654 9.29958 17.8421 9.36872C17.8188 9.43785 17.774 9.49841 17.7139 9.54219C17.5151 9.71229 17.3588 9.92938 17.1887 10.1299C17.0338 10.3119 16.9001 10.5118 16.7314 10.6799C16.3071 11.1029 15.703 11.1141 15.267 10.7024C15.0839 10.529 14.9461 10.3113 14.7788 10.1213C14.5793 9.89563 14.3963 9.64742 14.1618 9.45945C13.9111 9.26357 13.596 9.16104 13.2736 9.17051C12.9513 9.17999 12.6431 9.30083 12.4053 9.51108C12.1866 9.70236 12.0124 9.94262 11.8218 10.1637C11.669 10.3404 11.5387 10.5383 11.37 10.6998C10.9498 11.1009 10.3416 11.1002 9.92615 10.6998C9.75201 10.531 9.61352 10.3272 9.4572 10.1405C9.30888 9.94787 9.14981 9.76316 8.98071 9.5872C8.40206 9.03718 7.54848 9.03652 6.97326 9.59117C6.76758 9.78642 6.60921 10.0227 6.42478 10.2391C6.3036 10.3976 6.17336 10.5494 6.03467 10.6938C5.59794 11.1095 4.98364 11.1055 4.55926 10.6786C4.38635 10.4926 4.22604 10.2961 4.07933 10.0902C3.83595 9.77053 3.58639 9.46144 3.19971 9.28671C3.17091 9.27347 3.15034 9.2 3.15857 9.16029C3.28335 8.49842 3.85651 8.04636 4.56954 8.0457C6.38364 8.0457 8.19752 8.0457 10.0112 8.0457L10.5062 8.04636Z" fill="#242346"/>
<path d="M10.0592 3.07505H11.1218V7.70219H10.0592V3.07505Z" fill="#242346"/>
<path d="M13.9177 4.03145H14.9825V7.71212H14.2722C13.9198 7.71212 13.9198 7.71212 13.9198 7.37655V4.03145H13.9177Z" fill="#242346"/>
<path d="M6.19922 4.03211H7.25367V7.70153H6.19922V4.03211Z" fill="#242346"/>
<path d="M10.8935 2.69514C11.1547 2.38406 11.0396 1.95583 10.6193 1.61232C10.1935 1.96245 10.079 2.38803 10.332 2.67859C10.0708 2.65741 9.74172 2.37876 9.67659 2.06371C9.63139 1.85848 9.63467 1.64605 9.68619 1.44222C9.84182 0.881612 10.2155 0.442791 10.6186 0C11.0492 0.481842 11.4557 0.959712 11.5949 1.58849C11.6451 1.82442 11.6007 2.06997 11.4704 2.27543C11.3402 2.48089 11.134 2.63092 10.8935 2.69514Z" fill="#242346"/>
<path d="M6.76004 2.55813C6.32057 2.94003 6.21704 3.31994 6.45495 3.64029C6.10803 3.59528 5.6905 3.14719 5.75906 2.63557C5.82762 2.14512 6.10186 1.74932 6.39667 1.36676C6.50362 1.22909 6.6236 1.10201 6.74701 0.957727C7.18443 1.45612 7.61019 1.93928 7.73017 2.59453C7.8145 3.05453 7.52449 3.50328 7.02811 3.65353C7.30235 3.35635 7.16112 3.09491 6.98766 2.84009C6.91978 2.74279 6.83683 2.65278 6.76004 2.55813Z" fill="#242346"/>
<path d="M14.7713 3.64691C15.0325 3.38216 14.9523 3.036 14.4929 2.56938C14.061 2.9665 13.9232 3.38547 14.1968 3.63698C13.8766 3.60719 13.5859 3.23986 13.5208 2.97511C13.4556 2.71036 13.5125 2.44561 13.6188 2.20271C13.819 1.7394 14.1289 1.34757 14.4916 0.963684C14.9406 1.48325 15.3966 1.98495 15.4795 2.68786C15.5282 3.10351 15.206 3.54299 14.7713 3.64691Z" fill="#242346"/>
</svg>
