<svg width="23" height="23" viewBox="0 0 23 23" fill="none" xmlns="http://www.w3.org/2000/svg">
<path d="M4.63526 3.49252C4.82544 5.84255 5.19116 6.54829 6.32932 6.49767C8.31888 6.40801 8.14333 4.86494 8.15504 3.51276H14.9444C14.9444 3.96686 14.9327 4.39349 14.9444 4.81432C14.9545 5.22643 15.1114 5.62179 15.3877 5.93059C15.6639 6.23939 16.0416 6.44178 16.4542 6.50201C16.8695 6.55492 17.2899 6.4532 17.6336 6.21664C17.9773 5.98008 18.2196 5.62559 18.3135 5.22214C18.4394 4.6914 18.432 4.12883 18.4906 3.52289C19.3815 3.52289 20.309 3.42744 21.2087 3.54747C22.3102 3.69209 22.9905 4.58149 22.9934 5.68781C23.0022 10.7234 23.0022 15.759 22.9934 20.7946C22.9934 22.1149 22.0689 22.9985 20.7274 23C14.5831 23 8.43884 23 2.29459 23C0.910667 23.0029 0.0153606 22.1352 0.00658313 20.7584C-0.00219438 15.745 -0.00219438 10.7316 0.00658313 5.71818C0.00658313 4.51641 0.793633 3.60243 1.96982 3.50264C2.84318 3.43322 3.72093 3.49252 4.63526 3.49252ZM21.1853 20.9913V7.87009H1.84547V20.9985L21.1853 20.9913Z" fill="#242346"/>
<path d="M5.24676 2.90103C5.24676 2.22856 5.22774 1.55464 5.24676 0.876383C5.26577 0.198126 5.57006 0.00867706 6.45659 0.00867706C7.08711 0.00867706 7.49087 0.225604 7.48941 0.918322C7.48941 2.24013 7.48941 3.56338 7.48941 4.88519C7.48941 5.5996 7.02566 5.75289 6.42294 5.76301C5.60956 5.77169 5.27748 5.55477 5.25261 4.91989C5.22628 4.24742 5.25261 3.5735 5.25261 2.89525L5.24676 2.90103Z" fill="#242346"/>
<path d="M15.5135 2.89235C15.5135 2.21844 15.5135 1.54596 15.5135 0.867706C15.5135 0.157633 15.9743 0 16.5858 0C17.1973 0 17.7372 0.0780935 17.743 0.848906C17.7547 2.1953 17.7591 3.54169 17.743 4.88808C17.7342 5.53163 17.4036 5.75578 16.6005 5.75578C16.0153 5.75578 15.5208 5.62563 15.515 4.90254C15.5135 4.23874 15.5135 3.56483 15.5135 2.89235Z" fill="#242346"/>
<path d="M3.13284 19.1937V15.2543H7.4426V19.1937H3.13284Z" fill="#242346"/>
<path d="M15.4243 19.1937V15.2543H19.7326V19.1937H15.4243Z" fill="#242346"/>
<path d="M7.44845 9.26421V13.1848H3.17526V9.26421H7.44845Z" fill="#242346"/>
<path d="M9.52579 19.2023V15.2441H13.7346V19.2023H9.52579Z" fill="#242346"/>
<path d="M19.7384 9.26421V13.1689H15.4448V9.26421H19.7384Z" fill="#242346"/>
<path d="M13.758 13.2108H9.55651V9.24975H13.758V13.2108Z" fill="#242346"/>
</svg>
