<svg width="65" height="52" viewBox="0 0 65 52" fill="none" xmlns="http://www.w3.org/2000/svg">
<path d="M65 11.9541V46.7212C63.934 49.8502 62.0506 51.9913 58.4916 51.9913C41.1128 52.0029 23.7341 52.0029 6.35527 51.9913C3.38563 51.9913 1.1555 50.2124 0.288876 47.3557C0.206385 47.1381 0.109889 46.9262 0 46.7212V11.6644C1.35772 7.74148 4.15981 6.18275 8.20986 6.42902C10.5196 6.54463 12.8337 6.53979 15.1429 6.41453C15.8714 6.35966 16.5622 6.06769 17.1101 5.58302C18.7798 4.05616 20.2935 2.36127 21.9575 0.825719C22.4689 0.363192 23.1218 0.0884245 23.8092 0.0463561C29.5867 -0.015452 35.3642 -0.015452 41.1417 0.0463561C41.8746 0.0957965 42.5691 0.393011 43.1119 0.889458C44.8105 2.45688 46.3733 4.17205 48.0574 5.75685C48.5052 6.1532 49.073 6.3869 49.6693 6.42033C52.0728 6.49276 54.482 6.4522 56.8913 6.4522C61.6866 6.45509 63.3361 7.57343 65 11.9541ZM32.4783 45.5623C41.4133 45.5623 48.8027 38.2293 48.8085 29.3782C48.8085 20.3301 41.3411 12.803 32.4379 12.8841C23.5347 12.9652 16.1799 20.3793 16.1944 29.216C16.1952 33.5496 17.9102 37.7059 20.9631 40.7727C24.016 43.8395 28.1574 45.5662 32.4783 45.5739V45.5623Z" fill="white"/>
<path d="M32.565 38.9681C27.1197 38.9942 22.8241 34.7671 22.8241 29.3666C22.8152 28.0905 23.057 26.8251 23.5356 25.6427C24.0143 24.4604 24.7205 23.3841 25.6139 22.4754C26.5073 21.5668 27.5704 20.8435 28.7425 20.3469C29.9146 19.8503 31.1727 19.5901 32.4451 19.5811C33.7175 19.5722 34.9791 19.8147 36.1581 20.2948C37.337 20.7748 38.4101 21.4831 39.3161 22.3791C40.2221 23.2752 40.9433 24.3414 41.4384 25.5169C41.9336 26.6925 42.193 27.9543 42.2019 29.2304C42.2204 30.5082 41.9843 31.7769 41.5074 32.9619C41.0306 34.147 40.3226 35.2246 39.425 36.1316C38.5274 37.0386 37.4582 37.7567 36.2802 38.2438C35.1023 38.7309 33.8391 38.9771 32.565 38.9681Z" fill="white"/>
</svg>
