<svg width="24" height="19" viewBox="0 0 24 19" fill="none" xmlns="http://www.w3.org/2000/svg">
<path d="M5.95422 16.795C5.95422 17.1896 5.96268 17.5131 5.95422 17.8407C5.93027 18.5799 5.53153 18.9626 4.73124 18.9837C4.0028 19.0034 3.27437 18.9968 2.54593 18.9837C1.60615 18.9719 1.1891 18.5786 1.16373 17.6933C1.16373 17.4092 1.16373 17.1251 1.16373 16.7976C0.202819 16.6371 -0.019798 16.0465 0.0013365 15.2192C0.0450145 13.554 0.0111993 11.8874 0.0154262 10.2209C0.0154262 9.35801 0.315536 9.08442 1.23418 8.93052C1.43144 8.89632 1.66955 8.65298 1.74141 8.45831C2.41349 6.6484 3.02216 4.81876 3.71396 3.01542C3.99859 2.30428 4.3662 1.62454 4.81014 0.98848C5.26524 0.325547 6.00072 0.00723439 6.85033 0.00591904C10.2798 -0.00197301 13.7082 -0.00197301 17.1358 0.00591904C18.1319 0.00591904 18.9393 0.457082 19.3718 1.26339C19.895 2.28224 20.3537 3.32885 20.7456 4.39785C21.2598 5.73292 21.7135 7.08641 22.1813 8.43595C22.2982 8.774 22.4321 8.97656 22.8956 8.97393C23.5184 8.97393 23.9805 9.44482 23.9862 10.0486C24.0073 11.9124 24.0017 13.7762 23.9862 15.6388C23.9862 16.1412 23.7199 16.5595 23.1915 16.691C22.7688 16.7871 22.7449 16.9949 22.7576 17.3C22.771 17.5191 22.771 17.7387 22.7576 17.9577C22.7097 18.5838 22.3137 18.9626 21.6304 18.9837C20.8569 19.0074 20.0805 19.0034 19.3056 18.9837C18.4602 18.9692 18.0657 18.5983 18.0375 17.8183C18.0263 17.4934 18.0375 17.1685 18.0375 16.7923L5.95422 16.795ZM19.9241 8.93052C19.1224 6.8194 18.3503 4.76483 17.5627 2.71684C17.3824 2.24858 16.9526 2.18413 16.4693 2.1907C13.9557 2.20123 11.4421 2.1907 8.92855 2.1907C6.49949 2.1907 6.49245 2.1907 5.73583 4.34787C5.2117 5.85656 4.69742 7.37316 4.16483 8.93052H19.9241ZM4.18597 14.8772C5.32441 14.8772 6.34873 13.9222 6.35296 12.8634C6.35719 11.8045 5.32723 10.843 4.20288 10.8246C3.0433 10.8062 1.99643 11.7874 2.01052 12.8805C2.03296 13.4092 2.27047 13.9101 2.67465 14.2811C3.07883 14.652 3.6193 14.8652 4.18597 14.8772ZM17.6529 12.8897C17.67 13.4128 17.9054 13.9089 18.3089 14.2722C18.7124 14.6355 19.252 14.8372 19.8125 14.8343C20.3731 14.8313 20.9102 14.624 21.3093 14.2566C21.7085 13.8891 21.9379 13.3906 21.9488 12.8673C21.9488 11.7703 20.902 10.7957 19.7494 10.8299C19.184 10.8575 18.6514 11.0865 18.2614 11.4697C17.8713 11.8529 17.6535 12.3611 17.6529 12.8897Z" fill="#242346"/>
</svg>
