<svg width="34" height="34" viewBox="0 0 34 34" fill="none" xmlns="http://www.w3.org/2000/svg">
<path d="M6.36972 33.9999C6.36972 31.5889 6.35474 29.3711 6.3797 27.1532C6.39496 26.9385 6.35237 26.7235 6.25638 26.5308C6.16039 26.3381 6.01451 26.1747 5.83395 26.0576C2.58935 23.5734 0.499502 20.3466 0.0785373 16.2456C-0.382361 11.74 1.19834 7.89212 4.47787 4.81514C8.36306 1.16538 13.0602 -0.298183 18.3381 0.0498087C23.0303 0.359505 27.0735 2.12111 30.2948 5.59937C35.6576 11.387 35.1401 20.1335 29.1301 25.2851C25.0419 28.7816 20.2865 30.1586 14.9604 29.5958C14.1996 29.4871 13.4252 29.658 12.7807 30.077C10.7175 31.3941 8.60433 32.6345 6.36972 33.9999ZM16.972 13.783C19.4357 13.783 21.8999 13.783 24.3647 13.783C25.0087 13.783 25.4396 13.4783 25.4945 12.8206C25.5527 12.113 25.1118 11.77 24.4646 11.6551C24.3271 11.6384 24.1885 11.6334 24.0503 11.6401C19.3448 11.6401 14.6387 11.6401 9.93212 11.6401C8.96539 11.6401 8.49618 12.0314 8.51115 12.764C8.52446 13.46 8.95707 13.7847 9.91381 13.788C12.2677 13.7902 14.6204 13.7886 16.972 13.783ZM16.9837 18.0688C15.3198 18.0688 13.6559 18.0688 11.992 18.0688C11.0952 18.0688 10.6126 18.4568 10.6243 19.1394C10.6376 19.7955 11.1085 20.2067 11.9421 20.21C15.3242 20.22 18.7075 20.22 22.0919 20.21C22.9238 20.21 23.3664 19.7888 23.3631 19.1045C23.3597 18.4201 22.9388 18.0738 22.0586 18.0705C20.3681 18.0638 18.6775 18.0688 16.9854 18.0688H16.9837Z" fill="white"/>
</svg>
