<svg width="20" height="20" viewBox="0 0 20 20" fill="none" xmlns="http://www.w3.org/2000/svg">
<path d="M3.74683 20C3.74683 18.5818 3.73802 17.2772 3.7527 15.9726C3.76168 15.8462 3.73663 15.7198 3.68016 15.6064C3.6237 15.4931 3.53789 15.397 3.43168 15.3281C1.52312 13.8668 0.29382 11.9686 0.0461977 9.55627C-0.224915 6.90592 0.704893 4.64244 2.634 2.83245C4.91937 0.685521 7.68236 -0.175403 10.7869 0.0292994C13.547 0.211474 15.9254 1.24772 17.8202 3.29376C20.9747 6.69828 20.6703 11.8433 17.1351 14.8736C14.7303 16.9304 11.9331 17.7404 8.80009 17.4094C8.35256 17.3454 7.89703 17.446 7.51794 17.6924C6.30429 18.4672 5.06129 19.1969 3.74683 20ZM9.98339 8.10769C11.4326 8.10769 12.8821 8.10769 14.332 8.10769C14.7107 8.10769 14.9642 7.92845 14.9965 7.54157C15.0308 7.12531 14.7714 6.92355 14.3907 6.85597C14.3098 6.84615 14.2283 6.8432 14.147 6.84715C11.3791 6.84715 8.61087 6.84715 5.84232 6.84715C5.27367 6.84715 4.99767 7.07732 5.00648 7.50827C5.01431 7.91768 5.26878 8.10867 5.83156 8.11063C7.21616 8.11193 8.6001 8.11095 9.98339 8.10769ZM9.99024 10.6288C9.0115 10.6288 8.03275 10.6288 7.05401 10.6288C6.52647 10.6288 6.24263 10.857 6.24948 11.2585C6.25731 11.6444 6.5343 11.8864 7.02465 11.8883C9.01411 11.8942 11.0042 11.8942 12.995 11.8883C13.4844 11.8883 13.7447 11.6405 13.7428 11.238C13.7408 10.8354 13.4932 10.6317 12.9754 10.6297C11.981 10.6258 10.9866 10.6288 9.99122 10.6288H9.99024Z" fill="white"/>
</svg>
