<svg width="13" height="13" viewBox="0 0 13 13" fill="none" xmlns="http://www.w3.org/2000/svg">
<path d="M7.6375 6.3359L12.7563 1.68149C13.0813 1.38597 13.0813 0.942694 12.7563 0.647176C12.4313 0.351658 11.9437 0.351658 11.6187 0.647176L6.5 5.30159L1.38125 0.647176C1.05625 0.351658 0.56875 0.351658 0.24375 0.647176C-0.0812498 0.942694 -0.0812498 1.38597 0.24375 1.68149L5.3625 6.3359L0.24375 10.9903C0.0812502 11.1381 0 11.2858 0 11.5075C0 11.9508 0.325 12.2463 0.8125 12.2463C1.05625 12.2463 1.21875 12.1724 1.38125 12.0246L6.5 7.37022L11.6187 12.0246C11.7812 12.1724 11.9438 12.2463 12.1875 12.2463C12.4312 12.2463 12.5938 12.1724 12.7563 12.0246C13.0813 11.7291 13.0813 11.2858 12.7563 10.9903L7.6375 6.3359Z" fill="#50555C"/>
</svg>
