<svg width="18" height="18" viewBox="0 0 18 18" fill="none" xmlns="http://www.w3.org/2000/svg">
<path d="M9 5.72727C7.19182 5.72727 5.72727 7.19182 5.72727 9C5.72727 10.8082 7.19182 12.2727 9 12.2727C10.8082 12.2727 12.2727 10.8082 12.2727 9C12.2727 7.19182 10.8082 5.72727 9 5.72727ZM16.3145 8.18182C16.1292 6.52264 15.3852 4.9758 14.2047 3.7953C13.0242 2.61479 11.4774 1.87078 9.81818 1.68545V0H8.18182V1.68545C6.52264 1.87078 4.9758 2.61479 3.7953 3.7953C2.61479 4.9758 1.87078 6.52264 1.68545 8.18182H0V9.81818H1.68545C1.87078 11.4774 2.61479 13.0242 3.7953 14.2047C4.9758 15.3852 6.52264 16.1292 8.18182 16.3145V18H9.81818V16.3145C11.4774 16.1292 13.0242 15.3852 14.2047 14.2047C15.3852 13.0242 16.1292 11.4774 16.3145 9.81818H18V8.18182H16.3145ZM9 14.7273C5.83364 14.7273 3.27273 12.1664 3.27273 9C3.27273 5.83364 5.83364 3.27273 9 3.27273C12.1664 3.27273 14.7273 5.83364 14.7273 9C14.7273 12.1664 12.1664 14.7273 9 14.7273Z" fill="#78849E"/>
</svg>
