<svg width="39" height="56" viewBox="0 0 39 56" fill="none" xmlns="http://www.w3.org/2000/svg">
<path d="M0.5 18.4596C0.551144 14.104 2.2389 10.0596 5.51211 6.74104C8.83647 3.37067 12.6723 0.985487 17.3775 0.259561C22.5942 -0.518217 27.146 0.985487 31.1353 4.35586C35.8405 8.2966 38.6023 13.2744 38.5 19.6003C38.3977 24.5262 36.5054 28.7781 33.3856 32.4596C30.6238 35.7781 27.4529 38.6818 24.5377 41.7929C23.3102 43.0892 22.0316 44.3855 20.753 45.6818C20.4462 46.0447 20.1904 46.1484 19.7813 45.7336C14.718 40.4447 9.60363 35.3114 4.64266 30.0225C1.7786 26.9114 0.5 23.0744 0.5 18.4596ZM28.3223 21.5188C28.3223 21.3114 28.3223 20.8447 28.2201 20.4299C27.2995 16.1262 24.7423 13.1707 20.8553 11.4596C17.4287 9.95586 13.9509 10.8373 11.3425 13.5336C9.50135 15.504 9.34791 18.667 11.138 20.5855C14.5646 24.2151 18.0424 27.741 21.5202 31.3188C21.8271 31.6299 22.0316 31.6299 22.3385 31.3188C23.6171 29.9707 24.9468 28.6744 26.2254 27.3262C27.6063 25.7188 28.3223 23.904 28.3223 21.5188Z" fill="white"/>
<path d="M20.0892 52.7852C23.0044 52.7852 25.8173 52.4223 28.4768 51.2815C29.3974 50.8667 30.2668 50.4001 30.9317 49.5704C31.8011 48.5334 31.75 47.4963 30.7783 46.5112C29.7042 45.526 28.3745 45.1112 27.0447 44.7482C26.3799 44.5926 25.715 44.4889 25.0501 44.3334C24.8456 44.2815 24.4364 44.3852 24.4875 43.9704C24.5387 43.7112 24.8456 43.6075 25.1013 43.6593C25.6639 43.7112 26.2264 43.763 26.789 43.8667C28.6302 44.2297 30.4714 44.6445 32.0569 45.7334C34.5118 47.3926 34.7675 50.0889 32.6706 52.163C30.8294 54.0297 28.4256 54.8075 25.9707 55.2741C21.0609 56.2593 16.1511 56.1556 11.3435 54.4963C9.80922 53.9778 8.42833 53.2519 7.30316 52.0593C5.35969 49.9852 5.56426 47.3926 7.91689 45.7852C10.0138 44.3334 12.4687 43.8667 14.9236 43.6075C15.2305 43.5556 15.5885 43.6593 15.5885 43.9704C15.6396 44.3852 15.1793 44.2815 14.9748 44.2815C13.287 44.5408 11.6504 44.9038 10.1161 45.8371C8.01918 47.0815 7.91689 48.8445 9.9115 50.2445C11.7527 51.5926 13.9007 52.0593 16.0999 52.4223C17.4297 52.7334 18.7594 52.7852 20.0892 52.7852Z" fill="white"/>
</svg>
