<svg width="24" height="17" viewBox="0 0 24 17" fill="none" xmlns="http://www.w3.org/2000/svg">
<path d="M12.0516 10.7252L0.585938 0.507885C1.36531 0.313509 1.95828 0.0282158 2.55125 0.0250807C8.83877 -0.00836025 15.1279 -0.00836025 21.4186 0.0250807C22.0325 0.0250807 22.6463 0.33859 23.4691 0.554912L12.0516 10.7252Z" fill="white"/>
<path d="M15.8067 9.06784L23.3096 15.7519C22.7873 16.3695 22.1317 16.5435 21.4278 16.5435C15.1334 16.5435 8.83727 16.5607 2.5428 16.5278C1.94019 16.5278 1.33918 16.2378 0.501953 16.023L8.32304 9.0459C9.16027 9.79675 9.98464 10.5304 10.8058 11.2593C11.8696 12.1998 12.2778 12.1998 13.3239 11.2718C14.1419 10.5507 14.9453 9.83281 15.8067 9.06784Z" fill="white"/>
<path d="M7.40328 8.22473L0 14.8178V1.63477L7.40328 8.22473Z" fill="white"/>
<path d="M23.9996 1.74316V14.6989L16.7441 8.2281L23.9996 1.74316Z" fill="white"/>
</svg>
