<svg width="22" height="16" viewBox="0 0 22 16" fill="none" xmlns="http://www.w3.org/2000/svg">
<path d="M0 7.65118V7.55452C0.716908 6.20312 1.53913 4.93002 2.58744 3.80192C4.61449 1.62885 7.05314 0.240717 10.0483 0.0299837C13.7101 -0.22715 16.715 1.18032 19.1836 3.83768C20.2184 4.95128 21.029 6.21762 21.7382 7.55452V7.65118C21.029 8.98808 20.2174 10.2525 19.1845 11.368C17.1556 13.5604 14.7034 14.964 11.6889 15.1748C8.04734 15.43 5.05217 14.0389 2.58744 11.4048C1.53816 10.2796 0.716908 9.00258 0 7.65118ZM10.857 12.4913C11.5001 12.4982 12.1381 12.377 12.734 12.1348C13.3298 11.8925 13.8714 11.534 14.3273 11.0802C14.7833 10.6264 15.1444 10.0863 15.3896 9.49144C15.6348 8.89659 15.7592 8.25886 15.7556 7.61542C15.7589 6.31892 15.2473 5.07421 14.3334 4.15509C13.4194 3.23598 12.178 2.71775 10.8821 2.71442C9.58628 2.71108 8.34219 3.22292 7.42353 4.13732C6.50487 5.05172 5.98691 6.29379 5.98358 7.59028C5.97651 8.23374 6.09756 8.87216 6.33965 9.46832C6.58175 10.0645 6.94006 10.6065 7.39367 11.0626C7.84729 11.5188 8.38715 11.8801 8.98176 12.1254C9.57638 12.3707 10.2138 12.495 10.857 12.4913Z" fill="#BBBEC5"/>
<path d="M13.5645 7.58348C13.5681 8.11768 13.4131 8.64091 13.119 9.08679C12.8249 9.53267 12.405 9.88108 11.9127 10.0878C11.4203 10.2945 10.8777 10.3503 10.3537 10.2479C9.8296 10.1456 9.34774 9.88981 8.96924 9.51302C8.59073 9.13623 8.33264 8.65543 8.22772 8.13164C8.12279 7.60785 8.17576 7.06467 8.37991 6.57105C8.58405 6.07743 8.93017 5.65561 9.37433 5.35913C9.8185 5.06265 10.3407 4.90487 10.8746 4.90581C11.2279 4.90143 11.5786 4.9676 11.906 5.10045C12.2334 5.23329 12.5311 5.43014 12.7816 5.67948C13.0321 5.92883 13.2303 6.22565 13.3648 6.55258C13.4992 6.8795 13.5671 7.22998 13.5645 7.58348Z" fill="#BBBEC5"/>
</svg>
