<svg width="14" height="26" viewBox="0 0 14 26" fill="none" xmlns="http://www.w3.org/2000/svg">
<path d="M3.90945 14.684H1.05046C0.0845104 14.684 0 14.5991 0 13.6391C0 12.5074 0 11.3757 0 10.244C0 9.5047 0.136062 9.3672 0.861161 9.36635C1.84317 9.36635 2.82547 9.36437 3.80804 9.36041C3.84277 9.35307 3.87652 9.34168 3.90861 9.32646C3.90861 9.22885 3.90861 9.11681 3.90861 9.00392C3.91283 7.9667 3.86889 6.92609 3.93058 5.89142C4.0658 3.62771 4.94471 1.78075 7.04817 0.695155C8.00314 0.198616 9.03501 0 10.1058 0C11.1554 0 12.1974 0 13.2428 0C13.8504 0 13.9966 0.145991 13.9975 0.742687C13.9975 1.91854 13.9975 3.09411 13.9975 4.26939C13.9975 4.85505 13.8377 5.01293 13.2369 5.01972C12.4661 5.02905 11.6946 5.02651 10.9238 5.03754C10.713 5.03972 10.5028 5.05903 10.2951 5.09526C9.80321 5.18523 9.44996 5.51965 9.43559 6.01534C9.40601 7.09245 9.42629 8.17126 9.42629 9.28147C9.53109 9.28656 9.6418 9.2959 9.75335 9.2959C10.8731 9.2959 11.992 9.2959 13.1118 9.2959C13.6898 9.2959 13.8656 9.47584 13.8665 10.0598C13.8665 11.3517 13.8665 12.6435 13.8665 13.9354C13.8665 14.4854 13.7287 14.6297 13.1718 14.6331C12.041 14.6416 10.9111 14.6373 9.78124 14.6382H9.39925V15.0761C9.39925 18.3694 9.39925 21.6624 9.39925 24.9551C9.39925 25.8948 9.29615 25.9992 8.37329 25.9992C7.14789 25.9992 5.92249 25.9992 4.69709 25.9992C4.07256 25.9992 3.90945 25.8396 3.90861 25.2123C3.90861 21.8449 3.90861 18.4781 3.90861 15.1118L3.90945 14.684Z" fill="white"/>
</svg>
