<svg width="25" height="26" viewBox="0 0 25 26" fill="none" xmlns="http://www.w3.org/2000/svg">
<rect x="0.380859" y="0.712891" width="24.5732" height="24.5732" rx="5" fill="#5B015B"/>
<path d="M10.3476 15.3954L16.2884 9.17721C16.7148 8.73 17.1416 8.28365 17.5686 7.83815C18.2272 7.15528 18.8249 7.15959 19.4893 7.85021C19.6062 7.97077 19.7247 8.09047 19.8375 8.21619C20.3521 8.78626 20.3685 9.45019 19.8375 10.0091C16.8847 13.108 13.9272 16.2017 10.9651 19.2903C10.5493 19.7209 10.1566 19.7209 9.74498 19.2963C8.324 17.8215 6.90824 16.3409 5.49769 14.8546C4.96091 14.288 4.98479 13.6103 5.52651 13.0308C5.66097 12.8872 5.79654 12.7452 5.9332 12.6045C6.49386 12.031 7.14342 12.0267 7.70737 12.614C8.58169 13.5233 9.4453 14.4439 10.3476 15.3954Z" fill="white"/>
</svg>
