<svg width="24" height="25" viewBox="0 0 24 25" fill="none" xmlns="http://www.w3.org/2000/svg">
<path d="M20.4385 3.23498L17.1388 6.39723C15.6373 4.99744 13.8786 4.42735 11.882 4.53551C10.2201 4.62149 8.63149 5.24692 7.35702 6.31702C6.08254 7.38712 5.19167 8.84354 4.81944 10.4655C3.82432 14.7998 6.49792 19.0869 10.8627 19.8823C14.7605 20.5936 18.0678 18.7179 19.1049 15.2375C19.1456 15.1001 19.1571 14.9538 19.1953 14.7438H12.3236V10.5381H12.9688C16.3193 10.5381 19.6699 10.5521 23.0218 10.5253C23.6313 10.5253 23.882 10.6246 23.9393 11.3207C24.2281 14.8507 23.4786 18.0575 21.1397 20.7832C19.3352 22.8829 16.9734 24.0104 14.268 24.3972C10.8322 24.891 7.62284 24.1885 4.85126 22.0532C1.27289 19.2829 -0.381405 15.5595 0.0767073 11.0445C0.636622 5.58917 4.2239 1.60996 9.51891 0.317061C13.3696 -0.623342 17.924 0.580475 20.4385 3.23498Z" fill="white"/>
</svg>


