<svg width="11" height="17" viewBox="0 0 11 17" fill="none" xmlns="http://www.w3.org/2000/svg">
<path d="M11 0.972874C10.8608 0.755334 10.7644 0.502473 10.5743 0.330688C10.0577 -0.142924 9.31285 -0.101182 8.72622 0.41337C7.55203 1.43926 6.38967 2.47318 5.22186 3.50309C3.65931 4.88218 2.09616 6.26154 0.532407 7.64117C-0.177014 8.2673 -0.177924 8.67509 0.532407 9.29962C3.20638 11.6621 5.90672 14.002 8.54431 16.4006C9.34832 17.1327 10.5607 17.164 11 15.984V15.6629C10.7763 15.3691 10.5989 15.0359 10.3224 14.7879C8.41243 13.0757 6.4779 11.3811 4.55064 9.68172C4.10134 9.28597 3.64749 8.89584 3.11997 8.43668C3.25013 8.36903 3.37392 8.29225 3.49014 8.2071C5.74998 6.21418 8.00527 4.21886 10.256 2.22112C10.5534 1.95542 10.7544 1.60543 11 1.29397V0.972874Z" fill="#78849E"/>
</svg>
