<svg width="37" height="30" viewBox="0 0 37 30" fill="none" xmlns="http://www.w3.org/2000/svg">
<path d="M0 17.3511V14.7866C0.0965175 14.1445 0.165045 13.4986 0.289553 12.8622C1.30878 7.662 4.28827 3.93396 9.10933 1.63541C12.2838 0.1214 15.6542 -0.264226 19.1307 0.163192C22.4886 0.576362 25.5598 1.70569 28.3163 3.64142C28.8346 4.00615 29.3269 4.40887 29.876 4.82774C29.7467 4.87713 29.7042 4.89423 29.6598 4.90943C24.7336 6.56907 19.8067 8.22745 14.8791 9.88457C12.6496 10.6321 11.142 12.5545 11.0368 14.6811C10.9763 15.8055 11.2742 16.9204 11.8888 17.87C12.5035 18.8197 13.4041 19.5568 14.4651 19.9783C15.4119 20.3478 16.4157 20.3658 17.4031 20.4769C19.3016 20.6897 21.2039 20.873 23.1044 21.0734C25.2278 21.2985 27.3579 21.5331 29.4851 21.7573C31.6124 21.9814 33.7416 22.1999 35.8688 22.4221C36.195 22.4563 36.5193 22.5029 36.8803 22.5485C36.7452 22.9037 36.6458 23.2076 36.5164 23.4983C35.4374 25.9346 33.6923 27.8181 31.5149 29.3463C30.9064 29.7789 30.173 30.0079 29.4224 29.9998C22.1514 29.9998 14.8804 29.9998 7.60944 29.9998C7.42916 29.9997 7.24903 29.9895 7.06991 29.9694C6.01594 29.8545 5.27565 29.2352 4.60389 28.4953C2.23631 25.8823 0.937185 22.7821 0.297274 19.3827C0.170836 18.7103 0.0965175 18.0283 0 17.3511Z" fill="url(#paint0_linear_4389_563)"/>
<path d="M37 20.4066L20.4424 18.659C21.5196 17.4033 22.0388 16.0147 21.8506 14.4095C21.6624 12.8043 20.8671 11.5705 19.5197 10.576L31.0487 6.69413L37 20.4066Z" fill="url(#paint1_linear_4389_563)"/>
<path d="M13.1949 15.0212C13.192 14.6002 13.2735 14.1828 13.4347 13.7928C13.596 13.4029 13.8338 13.0481 14.1346 12.7487C14.4354 12.4494 14.7932 12.2113 15.1876 12.0483C15.5821 11.8852 16.0053 11.8003 16.4331 11.7984C18.2254 11.7871 19.705 13.1975 19.7214 14.9328C19.7378 16.747 18.3229 18.1888 16.5045 18.2097C16.0737 18.217 15.6457 18.14 15.2453 17.9832C14.845 17.8264 14.4803 17.5929 14.1724 17.2963C13.8645 16.9996 13.6195 16.6458 13.4517 16.2552C13.2839 15.8647 13.1966 15.4452 13.1949 15.0212ZM15.383 15.005C15.384 15.2863 15.4974 15.5559 15.6988 15.7555C15.9002 15.9551 16.1733 16.0687 16.4591 16.0717C16.6043 16.0759 16.7488 16.0515 16.8841 15.9998C17.0195 15.9481 17.1429 15.8701 17.2471 15.7706C17.3513 15.6711 17.4341 15.552 17.4906 15.4205C17.5472 15.2889 17.5763 15.1474 17.5763 15.0046C17.5763 14.8617 17.5472 14.7203 17.4906 14.5887C17.4341 14.4571 17.3513 14.338 17.2471 14.2385C17.1429 14.139 17.0195 14.061 16.8841 14.0093C16.7488 13.9576 16.6043 13.9332 16.4591 13.9374C16.1732 13.9404 15.8999 14.0541 15.6985 14.254C15.4971 14.4538 15.3837 14.7236 15.383 15.005Z" fill="url(#paint2_linear_4389_563)"/>
<defs>
<linearGradient id="paint0_linear_4389_563" x1="-9.40678" y1="-5.625" x2="14.1879" y2="40.4071" gradientUnits="userSpaceOnUse">
<stop stop-color="#E200B2"/>
<stop offset="1" stop-color="#5B015B"/>
</linearGradient>
<linearGradient id="paint1_linear_4389_563" x1="-9.40678" y1="-5.625" x2="14.1879" y2="40.4071" gradientUnits="userSpaceOnUse">
<stop stop-color="#E200B2"/>
<stop offset="1" stop-color="#5B015B"/>
</linearGradient>
<linearGradient id="paint2_linear_4389_563" x1="-9.40678" y1="-5.625" x2="14.1879" y2="40.4071" gradientUnits="userSpaceOnUse">
<stop stop-color="#E200B2"/>
<stop offset="1" stop-color="#5B015B"/>
</linearGradient>
</defs>
</svg>
