<svg width="24" height="20" viewBox="0 0 27 20" fill="none" xmlns="http://www.w3.org/2000/svg">
<path d="M0 17.6926V2.31541C0.763594 0.567821 2.10938 -0.0202507 4.00781 0.000529224C10.3359 0.0753369 16.6641 0.0753369 22.9922 0.000529224C24.8906 -0.0202507 26.2427 0.567821 27 2.31126V17.6884C26.2322 19.4214 24.8906 20.022 22.9922 19.9991C16.6641 19.9243 10.3402 19.9243 4.02047 19.9991C2.10937 20.0261 0.765703 19.4298 0 17.6926ZM8.46914 15.573C9.76852 15.573 11.0679 15.573 12.3694 15.573C13.133 15.573 13.5042 15.2135 13.5148 14.4176C13.5337 12.7552 12.5529 11.3671 10.8738 11.1988C9.23411 11.0412 7.58235 11.0489 5.94422 11.2217C4.35375 11.3858 3.41297 12.7075 3.36023 14.2763C3.32859 15.2135 3.75258 15.5855 4.67227 15.5855C5.93789 15.5626 7.20352 15.5855 8.46914 15.573ZM11.2092 7.2735C11.21 6.73457 11.049 6.20745 10.7464 5.75843C10.4439 5.30941 10.0133 4.95856 9.50886 4.74999C9.00442 4.54143 8.44863 4.48446 7.91141 4.58627C7.37419 4.68808 6.87952 4.9441 6.48962 5.32215C6.09973 5.7002 5.83202 6.18338 5.72016 6.71093C5.60831 7.23848 5.65731 7.78683 5.86099 8.28702C6.06468 8.7872 6.41395 9.21689 6.86489 9.52202C7.31583 9.82716 7.8483 9.99412 8.39531 10.0019C8.76266 10.0074 9.12745 9.94093 9.46847 9.8063C9.8095 9.67168 10.12 9.47162 10.3818 9.21774C10.6436 8.96386 10.8516 8.66124 10.9937 8.32746C11.1357 7.99369 11.209 7.63542 11.2092 7.2735ZM19.6172 5.01057C18.6701 5.01057 17.7188 4.93576 16.7822 5.05005C16.4257 5.09369 16.122 5.56747 15.795 5.84592C16.1241 6.12437 16.4531 6.62725 16.7822 6.6501C18.7059 6.72699 20.6381 6.72699 22.5619 6.6501C22.9226 6.63556 23.2664 6.16385 23.6166 5.90411C23.2664 5.60903 22.9416 5.10616 22.5619 5.05836C21.5937 4.92953 20.6023 5.01057 19.6172 5.01057ZM19.7205 13.9106C18.7397 13.9106 17.7525 13.84 16.7843 13.948C16.4278 13.9875 16.122 14.4488 15.7929 14.7189C16.122 15.0016 16.4384 15.5169 16.778 15.5314C18.6996 15.6104 20.6297 15.6166 22.5513 15.5314C22.9184 15.5148 23.2622 14.9725 23.606 14.6732C23.2537 14.4197 22.9205 13.9875 22.5513 13.9439C21.6211 13.8379 20.6719 13.9085 19.7227 13.9106H19.7205ZM19.6362 11.0804C20.6508 11.0804 21.6738 11.1427 22.6779 11.043C23.0133 11.0097 23.3107 10.5588 23.6166 10.2991C23.3234 10.0102 23.0407 9.48241 22.737 9.46786C20.7098 9.39513 18.6764 9.39513 16.6493 9.46786C16.354 9.47825 16.0777 10.0061 15.7929 10.2991C16.0924 10.5588 16.373 11.0097 16.6999 11.0451C17.6702 11.1448 18.6574 11.0804 19.6383 11.0804H19.6362Z" fill="#242346"/>
</svg>
