<svg width="18" height="72" viewBox="0 0 18 72" fill="none" xmlns="http://www.w3.org/2000/svg">
<line x1="9.25" y1="23" x2="9.25" y2="48" stroke="white" stroke-width="0.5" stroke-dasharray="1 1"/>
<path d="M18 8.75C18 7.60093 17.7672 6.46312 17.3149 5.40152C16.8626 4.33992 16.1997 3.37533 15.364 2.56282C14.5282 1.7503 13.5361 1.10578 12.4442 0.666054C11.3522 0.226325 10.1819 0 9 0C7.8181 0 6.64778 0.226325 5.55585 0.666054C4.46392 1.10578 3.47177 1.7503 2.63604 2.56282C1.80031 3.37533 1.13738 4.33992 0.685084 5.40152C0.232792 6.46312 -1.76116e-08 7.60093 0 8.75C0 10.4838 0.527143 12.0963 1.42071 13.4563H1.41043C4.44471 18.075 9 25 9 25L16.5896 13.4563H16.5806C17.5068 12.0517 17.9994 10.4184 18 8.75ZM9 12.5C7.97702 12.5 6.99594 12.1049 6.27259 11.4017C5.54923 10.6984 5.14286 9.74456 5.14286 8.75C5.14286 7.75544 5.54923 6.80161 6.27259 6.09835C6.99594 5.39509 7.97702 5 9 5C10.023 5 11.0041 5.39509 11.7274 6.09835C12.4508 6.80161 12.8571 7.75544 12.8571 8.75C12.8571 9.74456 12.4508 10.6984 11.7274 11.4017C11.0041 12.1049 10.023 12.5 9 12.5Z" fill="#47A82E"/>
<path d="M18 55.75C18 54.6009 17.7672 53.4631 17.3149 52.4015C16.8626 51.3399 16.1997 50.3753 15.364 49.5628C14.5282 48.7503 13.5361 48.1058 12.4442 47.6661C11.3522 47.2263 10.1819 47 9 47C7.8181 47 6.64778 47.2263 5.55585 47.6661C4.46392 48.1058 3.47177 48.7503 2.63604 49.5628C1.80031 50.3753 1.13738 51.3399 0.685084 52.4015C0.232792 53.4631 -1.76116e-08 54.6009 0 55.75C0 57.4838 0.527143 59.0963 1.42071 60.4563H1.41043C4.44471 65.075 9 72 9 72L16.5896 60.4563H16.5806C17.5068 59.0517 17.9994 57.4184 18 55.75ZM9 59.5C7.97702 59.5 6.99594 59.1049 6.27259 58.4017C5.54923 57.6984 5.14286 56.7446 5.14286 55.75C5.14286 54.7554 5.54923 53.8016 6.27259 53.0983C6.99594 52.3951 7.97702 52 9 52C10.023 52 11.0041 52.3951 11.7274 53.0983C12.4508 53.8016 12.8571 54.7554 12.8571 55.75C12.8571 56.7446 12.4508 57.6984 11.7274 58.4017C11.0041 59.1049 10.023 59.5 9 59.5Z" fill="#F13C68"/>
</svg>
