<svg width="14" height="86" viewBox="0 0 14 86" fill="none" xmlns="http://www.w3.org/2000/svg">
<path d="M3.20484 1.55753C3.20484 1.1114 3.16497 0.756588 3.22353 0.421341C3.25095 0.262197 3.47274 0.139577 3.59735 0C3.72195 0.144795 3.91634 0.276546 3.9425 0.436995C3.99733 0.770937 3.9587 1.12184 3.9587 1.51057H9.86374C9.86374 1.18184 9.81514 0.858336 9.88118 0.550483C9.92479 0.346987 10.1304 0.182625 10.2625 0C10.3871 0.191756 10.5765 0.369163 10.6226 0.580485C10.6849 0.866162 10.6388 1.17793 10.6388 1.55753C11.2444 1.55753 11.7989 1.55753 12.3533 1.55753C13.339 1.56666 13.9807 2.17193 13.9857 3.19723C14.0048 6.58883 14.0048 9.98043 13.9857 13.372C13.9857 14.3582 13.3377 14.9896 12.3895 14.9922C8.7967 15.0026 5.20434 15.0026 1.61239 14.9922C0.637978 14.9896 0.0149526 14.3491 0.0112145 13.3055C-0.00373815 9.95826 -0.00373815 6.61014 0.0112145 3.26115C0.0112145 2.16671 0.645454 1.55753 1.70584 1.551C2.1781 1.55492 2.6516 1.55753 3.20484 1.55753ZM0.837346 5.39264C0.811622 5.47779 0.792863 5.56506 0.781274 5.65354C0.781274 8.17375 0.766321 10.694 0.781274 13.2194C0.781274 13.9447 1.09279 14.1991 1.87655 14.2004C5.28242 14.2004 8.68829 14.2004 12.0942 14.2004C12.9901 14.2004 13.2293 13.9499 13.2306 12.995C13.2355 10.6705 13.2355 8.34551 13.2306 6.02009C13.2306 5.81398 13.1994 5.60788 13.182 5.39003L0.837346 5.39264Z" fill="#242346"/>
<path d="M8.0308 6.93582V9.02296H5.98727V6.93582H8.0308Z" fill="#242346"/>
<path d="M11.268 6.9306V9.02818H9.22077V6.9306H11.268Z" fill="#242346"/>
<path d="M4.80726 10.3287V12.4537H2.78492V10.3287H4.80726Z" fill="#242346"/>
<path d="M5.96983 12.4667V10.3483H8.01709V12.4667H5.96983Z" fill="#242346"/>
<path d="M4.79106 9.03992H2.77495V6.9306H4.79106V9.03992Z" fill="#242346"/>
<line x1="7.25" y1="15" x2="7.25" y2="35" stroke="#191919" stroke-opacity="0.3" stroke-width="0.5" stroke-dasharray="1 1"/>
<line x1="7.25" y1="50" x2="7.25" y2="70" stroke="#191919" stroke-opacity="0.3" stroke-width="0.5" stroke-dasharray="1 1"/>
<path d="M13.2691 39.95C13.2691 39.1686 13.1105 38.3949 12.8022 37.673C12.4939 36.9511 12.042 36.2952 11.4724 35.7427C10.9027 35.1902 10.2264 34.7519 9.48217 34.4529C8.73789 34.1539 7.94017 34 7.13457 34C6.32897 34 5.53125 34.1539 4.78697 34.4529C4.04269 34.7519 3.36642 35.1902 2.79677 35.7427C2.22713 36.2952 1.77526 36.9511 1.46697 37.673C1.15868 38.3949 1 39.1686 1 39.95C1 41.129 1.35931 42.2255 1.96839 43.1503H1.96137C4.0296 46.291 7.13457 51 7.13457 51L12.3078 43.1503H12.3016C12.933 42.1952 13.2687 41.0845 13.2691 39.95V39.95ZM7.13457 42.5C6.43729 42.5 5.76857 42.2313 5.27551 41.7531C4.78246 41.2749 4.50547 40.6263 4.50547 39.95C4.50547 39.2737 4.78246 38.6251 5.27551 38.1469C5.76857 37.6687 6.43729 37.4 7.13457 37.4C7.83185 37.4 8.50057 37.6687 8.99363 38.1469C9.48668 38.6251 9.76367 39.2737 9.76367 39.95C9.76367 40.6263 9.48668 41.2749 8.99363 41.7531C8.50057 42.2313 7.83185 42.5 7.13457 42.5Z" fill="#47A82E"/>
<path d="M13.2691 74.95C13.2691 74.1686 13.1105 73.3949 12.8022 72.673C12.4939 71.9511 12.042 71.2952 11.4724 70.7427C10.9027 70.1902 10.2264 69.7519 9.48217 69.4529C8.73789 69.1539 7.94017 69 7.13457 69C6.32897 69 5.53125 69.1539 4.78697 69.4529C4.04269 69.7519 3.36642 70.1902 2.79677 70.7427C2.22713 71.2952 1.77526 71.9511 1.46697 72.673C1.15868 73.3949 1 74.1686 1 74.95C1 76.129 1.35931 77.2255 1.96839 78.1503H1.96137C4.0296 81.291 7.13457 86 7.13457 86L12.3078 78.1503H12.3016C12.933 77.1952 13.2687 76.0845 13.2691 74.95V74.95ZM7.13457 77.5C6.43729 77.5 5.76857 77.2313 5.27551 76.7531C4.78246 76.2749 4.50547 75.6263 4.50547 74.95C4.50547 74.2737 4.78246 73.6251 5.27551 73.1469C5.76857 72.6687 6.43729 72.4 7.13457 72.4C7.83185 72.4 8.50057 72.6687 8.99363 73.1469C9.48668 73.6251 9.76367 74.2737 9.76367 74.95C9.76367 75.6263 9.48668 76.2749 8.99363 76.7531C8.50057 77.2313 7.83185 77.5 7.13457 77.5Z" fill="#F13C68"/>
</svg>
