<svg width="25" height="35" viewBox="0 0 25 35" fill="none" xmlns="http://www.w3.org/2000/svg">
<path d="M25 12.25C25 10.6413 24.6767 9.04837 24.0485 7.56213C23.4203 6.07589 22.4996 4.72546 21.3388 3.58794C20.1781 2.45042 18.8001 1.5481 17.2835 0.932476C15.767 0.316855 14.1415 0 12.5 0C10.8585 0 9.23303 0.316855 7.71646 0.932476C6.19989 1.5481 4.8219 2.45042 3.66116 3.58794C2.50043 4.72546 1.57969 6.07589 0.951506 7.56213C0.323322 9.04837 -2.44606e-08 10.6413 0 12.25C0 14.6772 0.732143 16.9347 1.97321 18.8388H1.95893C6.17321 25.305 12.5 35 12.5 35L23.0411 18.8388H23.0286C24.315 16.8724 24.9992 14.5858 25 12.25ZM12.5 17.5C11.0792 17.5 9.71659 16.9469 8.71193 15.9623C7.70727 14.9777 7.14286 13.6424 7.14286 12.25C7.14286 10.8576 7.70727 9.52226 8.71193 8.53769C9.71659 7.55312 11.0792 7 12.5 7C13.9208 7 15.2834 7.55312 16.2881 8.53769C17.2927 9.52226 17.8571 10.8576 17.8571 12.25C17.8571 13.6424 17.2927 14.9777 16.2881 15.9623C15.2834 16.9469 13.9208 17.5 12.5 17.5Z" fill="url(#paint0_linear_4301_5236)"/>
<defs>
<linearGradient id="paint0_linear_4301_5236" x1="-6.35593" y1="-6.5625" x2="27.2996" y2="31.4648" gradientUnits="userSpaceOnUse">
<stop stop-color="#E200B2"/>
<stop offset="1" stop-color="#5B015B"/>
</linearGradient>
</defs>
</svg>
