<svg width="43" height="18" viewBox="0 0 43 18" fill="none" xmlns="http://www.w3.org/2000/svg">
<path d="M1.80416 6.05269C2.90642 4.8817 4.5543 3.85104 6.37613 3.06642C11.0988 1.01859 16.2708 0.0183104 21.5517 0.131445C25.3845 0.193384 29.1783 0.726062 32.9012 1.93776C34.7903 2.55177 36.638 3.28231 38.3466 4.35217C39.4322 5.03118 40.4408 5.82445 41.2032 6.88317C41.726 7.60476 42.0373 8.44773 42.0996 9.31069C42.2152 10.713 42.3232 12.1173 42.4237 13.5237C42.4877 14.4293 42.2693 15.2295 41.5966 15.8428C41.1061 16.2843 40.4619 16.5274 39.7791 16.5288C37.5414 16.5792 35.302 16.6441 33.0594 16.6353C31.232 16.6292 30.0714 15.5071 29.8991 13.6718C29.7769 12.3755 29.6778 11.0789 29.5863 9.78219C29.5522 9.3567 29.5066 9.29235 29.0924 9.13837C27.3585 8.49498 25.5729 8.25074 23.7697 8.13029C20.8983 7.93945 18.0649 8.04669 15.3135 8.7165C14.5206 8.90962 13.7605 9.20848 12.9846 9.4559C12.7057 9.54477 12.6889 9.76142 12.7106 10.0129C12.824 11.3188 12.9338 12.6251 13.0402 13.9318C13.1935 15.8279 12.1407 16.9923 10.2342 17.0296C8.11239 17.0718 5.98943 17.1082 3.86535 17.1389C3.20846 17.1736 2.54334 17.0091 1.95728 16.6669C1.11661 16.1514 0.682799 15.3745 0.569847 14.4582C0.4409 13.4177 0.392217 12.372 0.303399 11.329C0.257369 10.7936 0.162179 10.2561 0.153795 9.72298C0.135675 8.45375 0.592036 7.38251 1.80416 6.05269Z" fill="white"/>
</svg>
