<svg width="29" height="35" viewBox="0 0 29 35" fill="none" xmlns="http://www.w3.org/2000/svg">
<path d="M14.5421 0C17.9441 0 20.6826 1.86903 21.7546 4.91741C22.1192 5.96406 21.9077 6.28927 20.8321 6.30796C20.3161 6.30796 19.7509 6.19209 19.2988 6.36964C18.8995 6.52851 18.4145 6.98268 18.3452 7.37518C18.2431 7.95832 18.6643 8.42183 19.3334 8.44239C19.9095 8.46108 20.4875 8.43118 21.0636 8.46295C21.7181 8.49846 22.1994 8.83676 22.2049 9.53951C22.2104 10.2423 21.7163 10.5806 21.0709 10.6292C20.5555 10.6609 20.0388 10.6647 19.523 10.6404C18.7937 10.6161 18.3106 10.988 18.3179 11.7132C18.3252 12.4384 18.8284 12.786 19.5522 12.7617C20.0381 12.7364 20.5249 12.7364 21.0107 12.7617C21.6871 12.8103 22.2359 13.1355 22.2049 13.8831C22.1739 14.6307 21.6434 14.9522 20.9451 14.9522C20.3981 14.9522 19.8512 14.9522 19.3042 14.9634C18.6789 14.984 18.2614 15.4269 18.3434 15.9652C18.4059 16.1989 18.5185 16.4154 18.6731 16.5988C18.8277 16.7821 19.0203 16.9277 19.2368 17.025C19.7491 17.2119 20.3726 17.081 20.9487 17.1091C21.8312 17.1539 22.0171 17.4548 21.709 18.3034C20.5732 21.4433 17.2969 23.4451 13.8693 23.1012C9.43538 22.6582 6.75896 19.6248 6.75896 15.0288C6.75896 12.6614 6.75896 10.294 6.75896 7.92654C6.76078 3.20164 9.91305 0 14.5421 0Z" fill="white"/>
<path d="M12.8611 29.9717C9.82919 29.5306 7.16553 28.4092 4.92302 26.3757C1.76345 23.5105 0.0861295 19.9089 0.00044015 15.5634C-0.0196148 14.4607 0.647668 13.6944 1.59207 13.6944C2.53648 13.6944 3.26575 14.4102 3.28216 15.4998C3.3168 21.7013 8.44904 26.8224 14.7572 26.7383C20.637 26.6598 25.5833 21.6751 25.7182 15.6325C25.7455 14.4401 26.3782 13.6925 27.359 13.685C28.3399 13.6775 28.9999 14.4532 28.9999 15.6176C29.0272 22.2863 23.8768 28.5662 17.4191 29.7362C17.0326 29.8054 16.6479 29.8913 16.1428 29.9941C16.1428 31.0931 16.1811 32.2052 16.1319 33.3135C16.0809 34.4948 15.1237 35.2349 14.0808 34.9321C13.2349 34.6854 12.8794 34.0424 12.8794 33.1677L12.8611 29.9717Z" fill="white"/>
</svg>
