<svg width="28" height="17" viewBox="0 0 28 17" fill="none" xmlns="http://www.w3.org/2000/svg">
<path d="M0 0L28 0.00293752V16.9971H0.355481C0.235183 16.9971 0.118494 16.9971 0 17V0ZM27.0286 0.974081H0.993663V16.0212H27.0286V0.974081Z" fill="#242346"/>
<path d="M1.9374 15.103V1.90175H26.0746V15.103H1.9374ZM7.27323 9.45469C7.25458 9.53107 7.23954 9.58159 7.23052 9.63094C7.09759 10.4059 6.4961 10.8859 5.69612 10.853C4.97072 10.823 4.37825 10.2496 4.34457 9.49229C4.3163 8.83429 4.3175 8.17335 4.34457 7.51534C4.37524 6.75746 4.96591 6.17877 5.6889 6.14764C6.50332 6.11239 7.0994 6.59003 7.23533 7.38551C7.24707 7.43518 7.26214 7.48405 7.28044 7.53179H8.1893C8.19765 7.50341 8.20308 7.47428 8.20554 7.44484C8.17005 6.22636 7.08255 5.21233 5.80619 5.19941C4.52983 5.18648 3.41526 6.22342 3.39241 7.45366C3.37978 8.12165 3.38519 8.78964 3.39241 9.45822C3.39474 9.94236 3.5501 10.414 3.83726 10.8086C4.12442 11.2032 4.52935 11.5016 4.99671 11.6629C5.46406 11.8242 5.97101 11.8406 6.44826 11.7098C6.92551 11.579 7.34975 11.3075 7.66299 10.9323C8.01717 10.5181 8.20904 9.99434 8.20433 9.45469H7.27323ZM17.848 7.52944C17.8619 7.32029 17.8613 7.12407 17.8901 6.93254C17.9659 6.42611 18.4044 6.10651 18.9482 6.14822C19.4155 6.18347 19.7981 6.58885 19.8059 7.06473C19.8149 7.59348 19.6074 8.03176 19.2285 8.4013C18.5067 9.1063 17.7849 9.81131 17.0631 10.5163C17.0029 10.5751 16.9181 10.6532 16.9151 10.7249C16.8995 11.0774 16.9079 11.4299 16.9079 11.7824H20.7364V10.85H18.0898C18.1885 10.7472 18.2468 10.6826 18.3094 10.6215C18.8369 10.1051 19.3668 9.58982 19.8937 9.07223C20.4892 8.48766 20.8008 7.78795 20.7466 6.95722C20.6973 6.20462 20.2997 5.66471 19.6038 5.36508C18.894 5.06252 18.2077 5.16004 17.6068 5.64297C16.9981 6.13354 16.8417 6.79213 16.926 7.52944H17.848ZM12.0996 11.7877C12.9633 11.7877 13.803 11.8288 14.6361 11.7753C15.4258 11.7248 15.9245 11.125 15.9305 10.3495C15.9305 10.0557 15.9624 9.75726 15.9215 9.46821C15.8768 9.19151 15.7946 8.92184 15.6773 8.66626C15.6207 8.53819 15.6135 8.47004 15.6724 8.33785C15.7913 8.07339 15.8752 7.79522 15.9221 7.51006C15.963 7.24921 15.9317 6.97719 15.9305 6.70988C15.9275 5.79278 15.338 5.20704 14.3985 5.19706C13.6965 5.19001 12.994 5.19706 12.2933 5.19706C12.2314 5.20078 12.1698 5.20764 12.1086 5.21762V6.14294C12.9032 6.14294 13.6767 6.13941 14.4502 6.14294C14.7883 6.14294 14.9741 6.32447 14.9843 6.65406C14.9934 6.94782 14.9952 7.24157 14.9843 7.53532C14.9735 7.82907 14.7864 8.00532 14.4809 8.02354C14.3444 8.03059 14.2078 8.02706 14.0707 8.02706H13.0656V8.96707C13.5281 8.96707 13.9726 8.96237 14.4171 8.96707C14.8027 8.97235 14.9789 9.15037 14.9843 9.52989C14.9885 9.7884 14.9898 10.0469 14.9843 10.3048C14.9765 10.6691 14.7973 10.8459 14.4286 10.8506C14.0911 10.8553 13.7537 10.8506 13.4163 10.8506H12.0996V11.7877ZM21.7517 11.7836H24.6052V10.85H23.6584V5.21703H21.7625V6.14881H22.6924V10.8629H21.7517V11.7836ZM12.0575 8.04292H9.20281V8.95179H12.0557L12.0575 8.04292ZM3.83811 2.84822H2.91482V3.76413H3.83811V2.84822ZM25.1062 2.84822H24.1619C24.1619 3.11906 24.1541 3.37697 24.1685 3.63018C24.178 3.66329 24.1959 3.69349 24.2207 3.71795C24.2454 3.74241 24.2761 3.76032 24.3099 3.77001C24.5709 3.78411 24.8331 3.77647 25.1062 3.77647V2.84822ZM3.84052 14.1535V13.2406H2.92204V14.1535H3.84052ZM24.1841 13.2312V14.1483H25.0984V13.2312H24.1841Z" fill="#242346"/>
</svg>
