<svg width="19" height="22" viewBox="0 0 19 22" fill="none" xmlns="http://www.w3.org/2000/svg">
<path d="M9.5 22C10.8062 22 11.875 20.9846 11.875 19.7436H7.125C7.125 20.342 7.37522 20.916 7.82062 21.3391C8.26602 21.7623 8.87011 22 9.5 22ZM16.625 15.2308V9.58974C16.625 6.12615 14.6775 3.22667 11.2812 2.45949V1.69231C11.2812 0.755897 10.4856 0 9.5 0C8.51437 0 7.71875 0.755897 7.71875 1.69231V2.45949C4.31063 3.22667 2.375 6.11487 2.375 9.58974V15.2308L0 17.4872V18.6154H19V17.4872L16.625 15.2308Z" fill="white"/>
</svg>
