<svg width="18" height="20" viewBox="0 0 18 20" fill="none" xmlns="http://www.w3.org/2000/svg">
<path d="M13.8391 20C12.9834 19.9829 11.9881 19.6894 11.0277 19.2329C8.53262 18.0546 6.29019 16.3019 4.44803 14.09C3.10307 12.4922 1.95772 10.7352 1.10551 8.75458C0.672776 7.74991 0.300764 6.71885 0.112316 5.61869C-0.00773325 4.91993 -0.0551944 4.2103 0.0899809 3.503C0.187819 3.01965 0.409102 2.57803 0.727217 2.23126C1.23905 1.6619 1.75438 1.09487 2.27319 0.530163C2.60752 0.166808 3.00116 -0.0412678 3.48345 0.006869C3.8328 0.0440936 4.15886 0.218291 4.40336 0.498331C5.22277 1.39896 6.04845 2.29492 6.84622 3.21962C7.49671 3.97272 7.46879 4.86714 6.80643 5.62102C6.3388 6.15363 5.86279 6.67693 5.38399 7.19712C5.22835 7.36948 5.21928 7.41218 5.30652 7.63967C5.67225 8.59153 6.21387 9.41607 6.81062 10.2018C7.76124 11.4526 8.81585 12.5768 10.0631 13.458C10.4226 13.7119 10.812 13.913 11.1868 14.1397C11.3215 14.2212 11.413 14.1475 11.5044 14.045C11.979 13.5124 12.455 12.981 12.9324 12.451C13.6255 11.6824 14.4609 11.6816 15.1568 12.451C15.9315 13.3071 16.7044 14.1658 17.4754 15.0271C17.7238 15.2841 17.8966 15.6186 17.971 15.9868C18.068 16.524 17.9165 16.9914 17.5955 17.3788C17.2311 17.8191 16.8361 18.2282 16.4564 18.6529C16.2617 18.8711 16.0837 19.1102 15.8764 19.3121C15.3822 19.7919 14.7967 20.0031 13.8391 20Z" fill="white"/>
</svg>
