<svg width="30" height="32" viewBox="0 0 30 32" fill="none" xmlns="http://www.w3.org/2000/svg">
<path d="M23.0651 31.9999C21.6389 31.9726 19.9801 31.503 18.3795 30.7726C14.221 28.8874 10.4837 26.083 7.41339 22.544C5.17178 19.9875 3.26286 17.1763 1.84252 14.0073C1.12129 12.3999 0.501274 10.7502 0.187193 8.98991C-0.0128887 7.87189 -0.0919907 6.73648 0.149968 5.6048C0.313031 4.83144 0.681836 4.12485 1.21203 3.57001C2.06509 2.65903 2.92396 1.75178 3.78866 0.848261C4.34586 0.266892 5.00194 -0.0660286 5.80576 0.0109904C6.38799 0.0705498 6.93143 0.349266 7.33894 0.797329C8.70461 2.23833 10.0807 3.67188 11.4104 5.15139C12.4945 6.35636 12.448 7.78742 11.3441 8.99364C10.5647 9.84582 9.77132 10.6831 8.97332 11.5154C8.71391 11.7912 8.69879 11.8595 8.8442 12.2235C9.45375 13.7465 10.3564 15.0657 11.351 16.3229C12.9354 18.3241 14.6931 20.1229 16.7718 21.5328C17.3709 21.939 18.02 22.2608 18.6447 22.6235C18.8692 22.7539 19.0216 22.6359 19.174 22.472C19.965 21.6198 20.7583 20.7697 21.554 19.9216C22.7091 18.6918 24.1016 18.6906 25.2613 19.9216C26.5526 21.2914 27.8407 22.6653 29.1257 24.0434C29.5397 24.4546 29.8276 24.9898 29.9516 25.5788C30.1133 26.4384 29.8609 27.1863 29.3258 27.8061C28.7186 28.5105 28.0602 29.1651 27.4273 29.8447C27.1028 30.1937 26.8062 30.5763 26.4607 30.8993C25.6371 31.667 24.6611 32.0049 23.0651 31.9999Z" fill="white"/>
</svg>
