<svg width="48" height="48" viewBox="0 0 48 48" fill="none" xmlns="http://www.w3.org/2000/svg">
<g filter="url(#filter0_d_4301_4339)">
<circle cx="24" cy="23" r="19" fill="url(#paint0_linear_4301_4339)"/>
</g>
<g clip-path="url(#clip0_4301_4339)">
<path d="M26.405 23.6589C26.1997 23.5656 25.9874 23.4887 25.77 23.4289C25.4087 23.3663 25.014 22.9281 24.6833 23.522C24.6396 23.6006 24.3629 23.5613 24.1954 23.5613C22.3746 23.5613 20.5538 23.5395 18.7345 23.5744C18.1038 23.5875 17.8795 23.3765 18.0397 22.6632H22.5552C21.9522 21.8756 22.0571 21.1507 22.3557 20.497C22.9749 19.0814 23.6732 17.7016 24.4474 16.3643C24.695 15.9523 25.3694 15.6874 25.8952 15.5796C26.4211 15.4719 26.8639 15.83 27.0212 16.4021C27.1246 16.7748 27.2164 17.1504 27.3125 17.5274C27.6286 18.8463 27.8951 19.0894 29.225 18.9904C29.7844 18.9482 30.3219 18.6512 30.8812 18.5129C31.2791 18.4388 31.6807 18.3868 32.0843 18.3571C31.9853 19.1127 31.8994 19.775 31.793 20.5232L30.6671 20.4708C31.0807 21.8771 31.458 23.2192 31.8892 24.5468C31.9387 24.7012 32.2839 24.838 32.4966 24.8453C33.3705 24.8817 34.1658 25.0811 34.8534 25.8643L28.5899 29.2124L28.4443 28.4846H20.0528C18.4757 28.4846 16.8987 28.4846 15.3217 28.4846C14.9386 28.4846 14.4477 28.6199 14.6939 27.8149H12.675C13.2897 26.8469 14.5482 27.863 15.2722 26.7624H9.57684L9.52148 26.4757C9.76911 26.4131 10.0153 26.2966 10.2629 26.2937C11.8885 26.2777 13.514 26.301 15.1396 26.2704C15.4309 26.2704 15.731 26.0753 16.0267 25.9705L15.9582 25.7071H12.0705L11.9788 25.4407C12.2016 25.3489 12.423 25.183 12.6488 25.1786C13.9102 25.1524 15.1731 25.1932 16.436 25.1495C16.857 25.1364 17.2721 24.9413 17.6887 24.8293L17.6464 24.5789H14.6779L14.6298 24.3707C14.7929 24.2906 14.9517 24.148 15.1192 24.1407C17.1323 24.0359 19.1468 23.9354 21.1612 23.867C22.2202 23.8321 23.2806 23.867 24.3891 23.867C24.0701 24.5163 23.7074 25.0986 23.5253 25.7303C23.4117 26.1234 23.4088 26.793 23.6448 26.9852C24.0045 27.2763 24.6119 27.285 25.1218 27.3666C25.2048 27.3797 25.381 27.1686 25.4218 27.0332C25.7583 25.9269 26.0715 24.8074 26.405 23.6589ZM26.6672 27.3083C28.1238 27.3593 29.2119 26.4349 29.6198 24.8555C30.0014 23.3794 29.997 21.8858 29.7654 20.3937C29.7378 20.219 29.4566 19.9846 29.2629 19.957C28.6663 19.8566 28.063 19.8011 27.4582 19.791C26.9775 19.7808 26.6876 19.5872 26.5318 19.1403C26.426 18.9027 26.3049 18.6722 26.1691 18.4503L24.7955 20.9352C25.7816 21.3283 26.6789 21.6631 27.563 22.043C28.2797 22.3443 28.453 22.7621 28.2039 23.49C28.1107 23.7637 27.9942 24.0301 27.8849 24.2994C27.4844 25.2893 27.0809 26.2864 26.6672 27.3083Z" fill="white"/>
<path d="M11.9199 21.9907C12.1355 21.9281 12.3496 21.816 12.5681 21.8102C13.3911 21.7883 14.217 21.8189 15.0443 21.7869C15.2352 21.7781 15.4202 21.5962 15.6081 21.4957L15.509 21.2162H13.3794C13.9621 20.2525 15.1784 21.2162 15.8702 20.2715L14.4748 20.0939L14.4486 19.8449C14.6642 19.778 14.8856 19.6309 15.0939 19.6571C15.7537 19.7401 16.0013 19.4577 16.0378 18.8303C16.0683 18.3252 16.1951 17.8273 16.2562 17.3236C16.3291 16.7253 16.5942 16.4298 17.2511 16.4502C18.6553 16.4881 20.0624 16.4735 21.4753 16.4502C22.071 16.4429 22.307 16.6118 22.1774 17.2683C21.9093 18.6192 21.6996 19.9818 21.5029 21.3443C21.4054 22.0198 21.1563 22.3633 20.3901 22.3502C17.8206 22.3095 15.2497 22.3386 12.6803 22.3298C12.4353 22.3138 12.1919 22.2797 11.952 22.2279L11.9199 21.9907Z" fill="white"/>
<path d="M32.9227 27.2487L34.1783 26.5732C34.356 26.9212 34.5789 27.2181 34.6648 27.55C34.9561 28.6447 34.5556 29.5604 33.7588 30.2897C32.962 31.019 32.0298 31.3393 30.949 30.987C30.857 30.957 30.7678 30.919 30.6824 30.8734C30.059 30.5488 29.5638 30.0291 29.6555 29.3493C29.7036 28.9825 30.2644 28.6826 30.6839 28.3856C30.7567 29.1673 30.9286 29.8093 31.7545 29.9214C32.4828 30.0189 33.013 29.6477 33.367 29.0334C33.7748 28.3274 33.5214 27.7509 32.9227 27.2487Z" fill="white"/>
<path d="M27.7299 13.413C27.3686 14.4801 27.3686 14.4801 28.6534 15.9722C28.2965 15.9402 27.9134 15.9838 27.5929 15.8616C27.0307 15.6461 26.5209 15.2997 25.9659 15.0624C25.5085 14.8673 25.3833 14.5587 25.4022 14.0943C25.4127 13.5925 25.6118 13.113 25.96 12.7513C26.3082 12.3895 26.7799 12.1721 27.2812 12.1422C28.3722 12.0607 29.2302 12.7551 29.4152 13.9604L28.5878 13.6896L27.7299 13.413Z" fill="white"/>
<path d="M20.6215 28.6123C20.0942 30.3592 18.6594 31.3447 17.2626 31.1059C16.1555 30.9167 15.4928 30.0593 15.5438 28.8365H16.6085C17.2014 30.2267 18.3055 30.314 19.3004 29.1174C19.5305 28.8409 20.0636 28.8132 20.6215 28.6123Z" fill="white"/>
</g>
<defs>
<filter id="filter0_d_4301_4339" x="0" y="0" width="48" height="48" filterUnits="userSpaceOnUse" color-interpolation-filters="sRGB">
<feFlood flood-opacity="0" result="BackgroundImageFix"/>
<feColorMatrix in="SourceAlpha" type="matrix" values="0 0 0 0 0 0 0 0 0 0 0 0 0 0 0 0 0 0 127 0" result="hardAlpha"/>
<feOffset dy="1"/>
<feGaussianBlur stdDeviation="2.5"/>
<feColorMatrix type="matrix" values="0 0 0 0 0 0 0 0 0 0 0 0 0 0 0 0 0 0 0.36 0"/>
<feBlend mode="normal" in2="BackgroundImageFix" result="effect1_dropShadow_4301_4339"/>
<feBlend mode="normal" in="SourceGraphic" in2="effect1_dropShadow_4301_4339" result="shape"/>
</filter>
<linearGradient id="paint0_linear_4301_4339" x1="-4.66102" y1="-3.125" x2="28.5935" y2="49.4788" gradientUnits="userSpaceOnUse">
<stop stop-color="#E200B2"/>
<stop offset="1" stop-color="#5B015B"/>
</linearGradient>
<clipPath id="clip0_4301_4339">
<rect width="25.3333" height="19" fill="white" transform="translate(9.52148 12.1426)"/>
</clipPath>
</defs>
</svg>
