<svg width="345" height="192" viewBox="0 0 345 192" fill="none" xmlns="http://www.w3.org/2000/svg">
<path d="M30.1766 124.57H81.4531V85.0212H30.1766L30.1766 124.57Z" fill="#F5F5F5"/>
<path d="M43.0225 124.291C43.0915 124.291 43.1505 115.478 43.1505 104.598C43.1505 93.7171 43.0915 84.9043 43.0225 84.9043C42.9536 84.9043 42.8945 93.7171 42.8945 104.598C42.8945 115.478 42.9339 124.291 43.0225 124.291Z" fill="#EBEBEB"/>
<path d="M34.5243 120.013H38.4531V115.567H34.5243V120.013Z" fill="#FAFAFA"/>
<path d="M65.8087 85.1211H59.9844V93.5597H65.8087V85.1211Z" fill="#EBEBEB"/>
<path d="M65.8087 116.014H59.9844V124.452H65.8087V116.014Z" fill="#EBEBEB"/>
<path d="M100.995 125.128H16.3438V190.416H100.995V125.128Z" fill="#EBEBEB"/>
<path d="M79.7846 189.958C79.691 189.958 79.6172 175.404 79.6172 157.464C79.6172 139.523 79.691 124.97 79.7846 124.97C79.8781 124.97 79.952 139.518 79.952 157.464C79.952 175.409 79.8584 189.958 79.7846 189.958Z" fill="#E0E0E0"/>
<path d="M93.8171 175.557H87.3281V182.892H93.8171V175.557Z" fill="#FAFAFA"/>
<path d="M51.7793 125.294H42.1641V139.227H51.7793V125.294Z" fill="#E0E0E0"/>
<path d="M51.7793 176.29H42.1641V190.223H51.7793V176.29Z" fill="#E0E0E0"/>
<path d="M167.13 10.128C166.318 10.2987 165.48 10.2987 164.668 10.128C165.48 9.95733 166.318 9.95733 167.13 10.128Z" fill="#EBEBEB"/>
<path d="M172.055 10.128C171.244 10.2987 170.405 10.2987 169.594 10.128C170.405 9.95733 171.244 9.95733 172.055 10.128Z" fill="#EBEBEB"/>
<path d="M176.977 10.128C176.166 10.2987 175.327 10.2987 174.516 10.128C175.327 9.95733 176.166 9.95733 176.977 10.128Z" fill="#EBEBEB"/>
<path d="M181.903 10.128C181.091 10.2987 180.253 10.2987 179.441 10.128C180.253 9.95733 181.091 9.95733 181.903 10.128Z" fill="#EBEBEB"/>
<path d="M186.825 10.128C186.013 10.2987 185.175 10.2987 184.363 10.128C185.175 9.95733 186.013 9.95733 186.825 10.128Z" fill="#EBEBEB"/>
<path d="M191.747 10.128C190.935 10.2987 190.097 10.2987 189.285 10.128C190.097 9.95733 190.935 9.95733 191.747 10.128Z" fill="#EBEBEB"/>
<path d="M196.669 10.128C195.857 10.2987 195.019 10.2987 194.207 10.128C195.019 9.95733 195.857 9.95733 196.669 10.128Z" fill="#EBEBEB"/>
<path d="M201.594 10.128C200.783 10.2987 199.944 10.2987 199.133 10.128C199.944 9.95733 200.783 9.95733 201.594 10.128Z" fill="#EBEBEB"/>
<path d="M206.516 10.128C205.705 10.2987 204.866 10.2987 204.055 10.128C204.866 9.95733 205.705 9.95733 206.516 10.128Z" fill="#EBEBEB"/>
<path d="M211.442 10.128C210.63 10.2987 209.792 10.2987 208.98 10.128C209.792 9.95733 210.63 9.95733 211.442 10.128Z" fill="#EBEBEB"/>
<path d="M216.364 10.128C215.552 10.2987 214.714 10.2987 213.902 10.128C214.714 9.95733 215.552 9.95733 216.364 10.128Z" fill="#EBEBEB"/>
<path d="M221.286 10.128C220.474 10.2987 219.636 10.2987 218.824 10.128C219.636 9.95733 220.474 9.95733 221.286 10.128Z" fill="#EBEBEB"/>
<path d="M226.212 10.128C225.4 10.2987 224.562 10.2987 223.75 10.128C224.562 9.95733 225.4 9.95733 226.212 10.128Z" fill="#EBEBEB"/>
<path d="M231.134 10.128C230.322 10.2987 229.484 10.2987 228.672 10.128C229.484 9.95733 230.322 9.95733 231.134 10.128Z" fill="#EBEBEB"/>
<path d="M236.055 10.128C235.244 10.2987 234.405 10.2987 233.594 10.128C234.405 9.95733 235.244 9.95733 236.055 10.128Z" fill="#EBEBEB"/>
<path d="M240.981 10.128C240.17 10.2987 239.331 10.2987 238.52 10.128C239.331 9.95733 240.17 9.95733 240.981 10.128Z" fill="#EBEBEB"/>
<path d="M245.903 10.128C245.091 10.2987 244.253 10.2987 243.441 10.128C244.253 9.95733 245.091 9.95733 245.903 10.128Z" fill="#EBEBEB"/>
<path d="M250.829 10.128C250.017 10.2987 249.179 10.2987 248.367 10.128C249.179 9.95733 250.017 9.95733 250.829 10.128Z" fill="#EBEBEB"/>
<path d="M255.751 10.128C254.939 10.2987 254.101 10.2987 253.289 10.128C254.101 9.95733 254.939 9.95733 255.751 10.128Z" fill="#EBEBEB"/>
<path d="M260.673 10.128C259.861 10.2987 259.023 10.2987 258.211 10.128C259.023 9.95733 259.861 9.95733 260.673 10.128Z" fill="#EBEBEB"/>
<path d="M265.598 10.128C264.787 10.2987 263.948 10.2987 263.137 10.128C263.948 9.95733 264.787 9.95733 265.598 10.128Z" fill="#EBEBEB"/>
<path d="M270.52 10.128C269.709 10.2987 268.87 10.2987 268.059 10.128C268.87 9.95733 269.709 9.95733 270.52 10.128Z" fill="#EBEBEB"/>
<path d="M275.442 10.128C274.63 10.2987 273.792 10.2987 272.98 10.128C273.792 9.95733 274.63 9.95733 275.442 10.128Z" fill="#EBEBEB"/>
<path d="M276.705 13.7761C276.58 13.3787 276.537 12.96 276.577 12.5453C276.537 12.1306 276.581 11.712 276.705 11.3145C276.833 11.7114 276.876 12.1306 276.833 12.5453C276.877 12.96 276.833 13.3793 276.705 13.7761Z" fill="#EBEBEB"/>
<path d="M276.705 18.6999C276.58 18.3025 276.537 17.8838 276.577 17.4691C276.537 17.0544 276.581 16.6358 276.705 16.2383C276.833 16.6353 276.876 17.0544 276.833 17.4691C276.877 17.8838 276.833 18.3031 276.705 18.6999Z" fill="#EBEBEB"/>
<path d="M276.705 23.6228C276.58 23.2254 276.537 22.8067 276.577 22.392C276.537 21.9773 276.581 21.5587 276.705 21.1611C276.833 21.5581 276.876 21.9773 276.833 22.392C276.877 22.8067 276.833 23.2259 276.705 23.6228Z" fill="#EBEBEB"/>
<path d="M276.702 28.5466C276.532 27.7349 276.532 26.8966 276.702 26.085C276.873 26.8966 276.873 27.7349 276.702 28.5466Z" fill="#EBEBEB"/>
<path d="M276.702 33.4695C276.532 32.6578 276.532 31.8195 276.702 31.0078C276.873 31.8195 276.873 32.6578 276.702 33.4695Z" fill="#EBEBEB"/>
<path d="M277.664 37.4323C277.664 37.4963 277.255 37.5455 276.704 37.5603H276.581V37.4323C276.581 37.3437 276.581 37.255 276.581 37.1615C276.541 36.7468 276.584 36.3282 276.709 35.9307C276.836 36.3276 276.88 36.7468 276.837 37.1615V37.4323L276.709 37.3092C277.032 37.2819 277.358 37.3239 277.664 37.4323Z" fill="#EBEBEB"/>
<path d="M282.587 37.4327C281.775 37.6034 280.937 37.6034 280.125 37.4327C280.937 37.262 281.775 37.262 282.587 37.4327Z" fill="#EBEBEB"/>
<path d="M287.509 37.4327C286.697 37.6034 285.859 37.6034 285.047 37.4327C285.859 37.262 286.697 37.262 287.509 37.4327Z" fill="#EBEBEB"/>
<path d="M292.434 37.4327C291.623 37.6034 290.784 37.6034 289.973 37.4327C290.784 37.262 291.623 37.262 292.434 37.4327Z" fill="#EBEBEB"/>
<path d="M297.356 37.4327C296.545 37.6034 295.706 37.6034 294.895 37.4327C295.706 37.262 296.545 37.262 297.356 37.4327Z" fill="#EBEBEB"/>
<path d="M302.282 37.4327C301.47 37.6034 300.632 37.6034 299.82 37.4327C300.632 37.262 301.47 37.262 302.282 37.4327Z" fill="#EBEBEB"/>
<path d="M307.204 37.4327C306.392 37.6034 305.554 37.6034 304.742 37.4327C305.554 37.262 306.392 37.262 307.204 37.4327Z" fill="#EBEBEB"/>
<path d="M312.13 37.4327C311.318 37.6034 310.48 37.6034 309.668 37.4327C310.48 37.262 311.318 37.262 312.13 37.4327Z" fill="#EBEBEB"/>
<path d="M317.052 37.4327C316.24 37.6034 315.402 37.6034 314.59 37.4327C315.402 37.262 316.24 37.262 317.052 37.4327Z" fill="#EBEBEB"/>
<path d="M318.968 40.446C318.797 39.6344 318.797 38.7961 318.968 37.9844C319.139 38.7961 319.139 39.6344 318.968 40.446Z" fill="#EBEBEB"/>
<path d="M318.968 45.3689C318.797 44.5572 318.797 43.7189 318.968 42.9072C319.139 43.7189 319.139 44.5572 318.968 45.3689Z" fill="#EBEBEB"/>
<path d="M318.968 50.2927C318.797 49.481 318.797 48.6427 318.968 47.8311C319.139 48.6427 319.139 49.481 318.968 50.2927Z" fill="#EBEBEB"/>
<path d="M318.968 55.2156C318.797 54.4039 318.797 53.5656 318.968 52.7539C319.139 53.5656 319.139 54.4039 318.968 55.2156Z" fill="#EBEBEB"/>
<path d="M318.968 60.1394C318.797 59.3277 318.797 58.4894 318.968 57.6777C319.139 58.4894 319.139 59.3277 318.968 60.1394Z" fill="#EBEBEB"/>
<path d="M318.968 65.0623C318.797 64.2506 318.797 63.4123 318.968 62.6006C319.139 63.4123 319.139 64.2506 318.968 65.0623Z" fill="#EBEBEB"/>
<path d="M318.968 69.9861C318.797 69.1744 318.797 68.3361 318.968 67.5244C319.139 68.3361 319.139 69.1744 318.968 69.9861Z" fill="#EBEBEB"/>
<path d="M318.968 74.9089C318.797 74.0972 318.797 73.2589 318.968 72.4473C319.139 73.2589 319.139 74.0972 318.968 74.9089Z" fill="#EBEBEB"/>
<path d="M318.968 79.8328C318.797 79.0211 318.797 78.1828 318.968 77.3711C319.139 78.1828 319.139 79.0211 318.968 79.8328Z" fill="#EBEBEB"/>
<path d="M318.968 84.7556C318.797 83.9439 318.797 83.1056 318.968 82.2939C319.139 83.1056 319.139 83.9439 318.968 84.7556Z" fill="#EBEBEB"/>
<path d="M318.968 89.6794C318.797 88.8677 318.797 88.0295 318.968 87.2178C319.139 88.0295 319.139 88.8677 318.968 89.6794Z" fill="#EBEBEB"/>
<path d="M226.62 0.21542C226.62 0.21542 222.799 -1.90161 219.053 7.13762C215.306 16.1769 214.026 21.3168 214.026 21.3168C214.026 21.3168 212.997 23.232 211.653 22.139C210.309 21.046 208.33 17.8065 206.237 18.5794C204.081 19.3869 203.549 21.9027 204.268 25.4721C204.987 29.0415 206.237 36.9582 206.341 37.6721C206.444 38.386 206.124 39.4494 205.09 38.8488C204.056 38.2481 197.912 32.4091 195.312 35.4862C192.713 38.5632 196.297 48.2277 196.691 49.2715C197.085 50.3152 196.888 50.8125 196.396 51.1227C195.903 51.4328 194.018 49.2715 192.206 47.6763C190.394 46.0812 188.006 44.5599 186.652 46.4603C185.298 48.3607 185.407 55.8146 193.412 67.3007L197.464 72.3816L203.938 71.5102C217.669 68.8023 222.918 63.5147 223.267 61.2056C223.617 58.8966 220.845 58.3993 218.432 58.3107C216.02 58.2221 213.169 58.4436 213.017 57.8775C212.864 57.3113 213.086 56.8436 214.09 56.3365C215.094 55.8294 224.395 51.3836 224.665 47.3612C224.936 43.3389 216.453 43.2798 215.311 42.9893C214.169 42.6988 214.661 41.7043 215.227 41.276C215.794 40.8477 222.199 36.0228 225.192 33.9353C228.186 31.8478 229.554 29.6668 228.56 27.5891C227.605 25.5903 223.932 26.5454 222.204 26.3977C220.476 26.25 221.066 24.1625 221.066 24.1625C221.066 24.1625 223.715 19.569 227.294 10.4658C230.874 1.36256 226.546 0.225265 226.546 0.225265" fill="#C0009C" fill-opacity="0.25"/>
<path d="M164.051 89.3934C166.704 82.7174 170.451 73.5255 174.626 63.3834C178.801 53.2414 182.563 44.0643 185.256 37.403C186.595 34.0798 187.678 31.3867 188.436 29.5257L189.303 27.3841C189.401 27.1477 189.475 26.9606 189.534 26.8277C189.559 26.764 189.587 26.7015 189.618 26.6406C189.618 26.6406 189.618 26.7096 189.554 26.8376C189.49 26.9656 189.435 27.1576 189.342 27.3988C189.15 27.8912 188.874 28.6297 188.515 29.5602C187.791 31.436 186.728 34.1389 185.398 37.4769C182.745 44.1529 178.998 53.3448 174.828 63.4819C170.658 73.619 166.892 82.806 164.198 89.4672" fill="#E0E0E0"/>
<path d="M175.18 41.5293C175.263 41.6623 175.33 41.8044 175.382 41.9527C175.5 42.2333 175.657 42.642 175.844 43.1441C176.223 44.1584 176.706 45.5714 177.208 47.137C177.71 48.7026 178.139 50.091 178.483 51.1593L178.872 52.3754C178.932 52.5205 178.974 52.6727 178.995 52.8283C178.912 52.6953 178.844 52.5533 178.793 52.4049C178.675 52.1243 178.518 51.7157 178.336 51.2086C177.966 50.1944 177.504 48.7764 176.996 47.2059L175.697 43.1983C175.544 42.706 175.411 42.317 175.303 41.9822C175.243 41.8371 175.201 41.6849 175.18 41.5293Z" fill="#E0E0E0"/>
<path d="M179.602 52.8976C179.602 52.8385 182.447 51.711 186.002 50.3817C189.557 49.0524 192.461 48.0136 192.481 48.0727C192.501 48.1318 189.64 49.2592 186.081 50.5885C182.521 51.9178 179.621 52.9616 179.602 52.8976Z" fill="#E0E0E0"/>
<path d="M172.492 68.1786C172.653 68.1366 172.818 68.1151 172.985 68.1146L174.284 68.0112C175.382 67.9275 176.899 67.8044 178.568 67.6075C180.237 67.4106 181.738 67.189 182.826 67.0167L184.116 66.8148C184.277 66.7756 184.443 66.7606 184.609 66.7705C184.459 66.8309 184.304 66.8755 184.146 66.9035C183.845 66.9724 183.407 67.0659 182.866 67.1742C181.787 67.381 180.281 67.6321 178.607 67.8291C176.933 68.026 175.412 68.1245 174.309 68.1688C173.757 68.1688 173.324 68.2032 173.004 68.1983C172.833 68.2115 172.662 68.2049 172.492 68.1786Z" fill="#E0E0E0"/>
<path d="M166.234 58.7754C166.343 58.8766 166.439 58.9907 166.52 59.1151C166.687 59.3416 166.933 59.6764 167.229 60.0998C167.82 60.9269 168.627 62.0691 169.503 63.3639C170.38 64.6588 171.163 65.8256 171.724 66.6675C172.005 67.0909 172.216 67.4405 172.374 67.6817C172.462 67.8016 172.535 67.9323 172.59 68.0706C172.59 68.0706 172.477 67.9574 172.305 67.7309C172.133 67.5045 171.891 67.1697 171.591 66.7463C171 65.9142 170.198 64.7769 169.316 63.4821C168.435 62.1873 167.657 61.0204 167.096 60.1785C166.82 59.7551 166.604 59.4056 166.446 59.1643C166.358 59.0452 166.286 58.9143 166.234 58.7754Z" fill="#E0E0E0"/>
<path d="M158.242 71.4678C158.377 71.6008 158.497 71.7477 158.602 71.9059C158.843 72.2407 159.153 72.6543 159.517 73.1565C160.28 74.215 161.324 75.6821 162.471 77.3167C163.618 78.9512 164.638 80.4332 165.366 81.5163C165.711 82.0086 165.996 82.4616 166.223 82.8013C166.333 82.9571 166.43 83.1217 166.513 83.2936C166.377 83.1622 166.256 83.0151 166.154 82.8554L165.238 81.6098C164.475 80.5513 163.431 79.0792 162.284 77.4496C161.137 75.82 160.123 74.3332 159.394 73.25L158.538 71.965C158.42 71.8115 158.321 71.6446 158.242 71.4678Z" fill="#E0E0E0"/>
<path d="M166.387 82.9537C166.583 82.9024 166.785 82.8695 166.987 82.8552L168.632 82.6681C170.02 82.5106 171.935 82.289 174.047 81.9838C176.16 81.6786 178.06 81.3536 179.434 81.1124L181.063 80.8268C181.262 80.782 181.465 80.7556 181.669 80.748C181.479 80.8208 181.283 80.8752 181.083 80.9105C180.699 81.0041 180.147 81.1271 179.463 81.265C178.094 81.5506 176.189 81.9001 174.077 82.2004C171.965 82.5008 170.04 82.6928 168.661 82.8257C167.967 82.8848 167.401 82.9242 167.012 82.9438C166.804 82.9664 166.595 82.9697 166.387 82.9537Z" fill="#E0E0E0"/>
<path d="M336.265 101.727C336.27 99.0656 335.661 96.4395 334.486 94.0523C333.31 91.6652 331.6 89.5813 329.488 87.9628C327.376 86.3444 324.919 85.2349 322.308 84.7207C319.697 84.2064 317.003 84.3014 314.435 84.998C311.867 85.6947 309.494 86.9743 307.501 88.7375C305.508 90.5006 303.949 92.6996 302.944 95.1636C301.94 97.6276 301.517 100.29 301.709 102.944C301.901 105.598 302.703 108.172 304.052 110.465L304.101 110.529C304.761 111.647 305.578 112.445 306.435 113.621L316.478 126.914C316.769 127.301 317.145 127.614 317.577 127.83C318.01 128.046 318.486 128.158 318.97 128.158C319.453 128.158 319.929 128.046 320.362 127.83C320.794 127.614 321.17 127.301 321.461 126.914L331.342 113.833C332.24 112.769 333.078 111.657 333.853 110.5L333.887 110.456C335.443 107.81 336.264 104.796 336.265 101.727ZM318.965 109.259C317.458 109.26 315.985 108.814 314.732 107.978C313.479 107.142 312.502 105.953 311.924 104.561C311.347 103.169 311.196 101.638 311.489 100.16C311.782 98.6822 312.507 97.3246 313.572 96.259C314.637 95.1933 315.994 94.4674 317.472 94.1731C318.95 93.8789 320.481 94.0294 321.873 94.6057C323.265 95.1821 324.455 96.1583 325.292 97.4109C326.129 98.6635 326.576 100.136 326.576 101.643C326.576 103.662 325.774 105.598 324.347 107.027C322.92 108.455 320.984 109.258 318.965 109.259Z" fill="#F5F5F5"/>
<path d="M254.59 24.8094V45.1526C254.59 45.3628 254.674 45.5645 254.822 45.7131C254.971 45.8618 255.173 45.9453 255.383 45.9453H298.038C298.144 45.946 298.248 45.9256 298.345 45.8854C298.442 45.8452 298.53 45.7859 298.604 45.7111C298.678 45.6363 298.736 45.5475 298.775 45.4499C298.814 45.3523 298.833 45.2479 298.831 45.1428L298.738 37.6987C298.738 37.5222 298.683 37.35 298.58 37.2064L292.46 29.0287C292.387 28.9312 292.291 28.852 292.182 28.7973C292.073 28.7426 291.952 28.714 291.83 28.7136L284.78 28.6595C284.571 28.6569 284.371 28.5724 284.224 28.4242C284.077 28.2759 283.993 28.0758 283.992 27.8668V24.7897C283.992 24.5795 283.909 24.3779 283.76 24.2292C283.611 24.0806 283.41 23.9971 283.2 23.9971H255.383C255.277 23.997 255.172 24.0182 255.075 24.0592C254.977 24.1003 254.889 24.1604 254.815 24.2362C254.741 24.3119 254.683 24.4016 254.645 24.5C254.606 24.5985 254.587 24.7037 254.59 24.8094Z" fill="#F5F5F5"/>
<path d="M285.973 30.4522V36.9806C285.973 37.0409 285.985 37.1006 286.008 37.1562C286.031 37.2118 286.066 37.2622 286.109 37.3044C286.152 37.3466 286.203 37.3797 286.259 37.4019C286.315 37.4241 286.375 37.4348 286.435 37.4335L295.854 37.2661C295.936 37.2653 296.016 37.2422 296.086 37.1993C296.156 37.1564 296.213 37.0952 296.251 37.0224C296.289 36.9496 296.306 36.8679 296.301 36.7859C296.297 36.704 296.269 36.6249 296.223 36.5572L291.792 30.0633C291.75 29.9999 291.693 29.9481 291.626 29.9128C291.559 29.8775 291.484 29.8598 291.408 29.8614L286.391 29.9993C286.277 30.008 286.171 30.0595 286.093 30.1435C286.015 30.2276 285.972 30.3378 285.973 30.4522Z" fill="#EBEBEB"/>
<path d="M299.68 46.5654H253.73V47.9834H299.68V46.5654Z" fill="#F5F5F5"/>
<path d="M267.593 50.3207C269.368 48.5461 269.368 45.6688 267.593 43.8942C265.818 42.1195 262.941 42.1195 261.166 43.8942C259.392 45.6688 259.392 48.546 261.166 50.3207C262.941 52.0953 265.818 52.0953 267.593 50.3207Z" fill="#EBEBEB"/>
<path d="M267.054 47.107C267.054 47.6357 266.897 48.1526 266.603 48.5922C266.309 49.0318 265.892 49.3745 265.403 49.5768C264.915 49.7792 264.377 49.8321 263.859 49.729C263.34 49.6258 262.864 49.3712 262.49 48.9973C262.116 48.6234 261.862 48.1471 261.758 47.6285C261.655 47.1099 261.708 46.5724 261.911 46.0839C262.113 45.5954 262.456 45.1779 262.895 44.8841C263.335 44.5904 263.852 44.4336 264.38 44.4336C265.089 44.4349 265.768 44.717 266.269 45.218C266.77 45.7191 267.052 46.3983 267.054 47.107Z" fill="#FAFAFA"/>
<path d="M283.957 45.9451C283.844 45.9451 283.75 41.0218 283.75 34.9809C283.75 28.9399 283.844 24.0166 283.957 24.0166C284.07 24.0166 284.164 28.9399 284.164 34.9809C284.164 41.0218 284.07 45.9451 283.957 45.9451Z" fill="#EBEBEB"/>
<path d="M292.362 50.3187C294.137 48.5441 294.137 45.6668 292.362 43.8922C290.588 42.1176 287.711 42.1176 285.936 43.8922C284.161 45.6669 284.161 48.5441 285.936 50.3187C287.711 52.0934 290.588 52.0934 292.362 50.3187Z" fill="#EBEBEB"/>
<path d="M291.825 47.107C291.826 47.6371 291.67 48.1556 291.376 48.5968C291.082 49.038 290.664 49.382 290.174 49.5854C289.685 49.7887 289.146 49.8421 288.626 49.739C288.106 49.6358 287.628 49.3806 287.253 49.0057C286.878 48.6309 286.623 48.1532 286.52 47.6332C286.417 47.1132 286.47 46.5743 286.674 46.0847C286.877 45.5951 287.221 45.1768 287.662 44.8829C288.103 44.589 288.622 44.4326 289.152 44.4336C289.861 44.4349 290.54 44.717 291.041 45.2181C291.542 45.7191 291.824 46.3983 291.825 47.107Z" fill="#FAFAFA"/>
<path d="M289.16 38.7224C289.16 38.8356 288.51 38.9292 287.683 38.9292C286.856 38.9292 286.23 38.8356 286.23 38.7224C286.23 38.6092 286.88 38.5156 287.683 38.5156C288.485 38.5156 289.16 38.6042 289.16 38.7224Z" fill="#EBEBEB"/>
<path d="M344.803 190.416C344.803 190.49 267.64 190.544 172.487 190.544C77.3335 190.544 0.140625 190.49 0.140625 190.416C0.140625 190.342 77.2892 190.288 172.487 190.288C267.684 190.288 344.803 190.347 344.803 190.416Z" fill="#263238"/>
<path d="M68.9588 188.25C75.5954 183.646 77.1266 175.07 76.8903 167.355C76.8509 166.07 76.9986 164.711 76.398 163.579C75.7973 162.447 74.3646 161.674 73.2076 162.21C72.2525 162.658 71.8291 163.766 71.2925 164.672C70.5745 165.897 69.5248 166.893 68.2646 167.547C67.4424 167.966 66.4282 168.222 65.6159 167.774C64.5081 167.158 64.385 165.622 64.3949 164.327C64.4211 161.941 64.4441 159.555 64.4638 157.169C64.5465 155.9 64.4251 154.627 64.1044 153.397C63.7105 152.181 62.8342 151.049 61.6132 150.699C60.3922 150.35 58.8906 151.054 58.6297 152.304C58.5779 152.835 58.5631 153.368 58.5853 153.9C58.5925 154.165 58.521 154.427 58.38 154.652C58.239 154.877 58.0347 155.055 57.7927 155.165C57.3003 155.313 56.7686 154.948 56.3895 154.574C55.0701 153.274 54.179 151.62 53.3469 149.946C52.5149 148.272 51.7074 146.588 50.5111 145.175C49.3147 143.762 47.6605 142.635 45.829 142.527C43.9975 142.418 42.038 143.541 41.5654 145.338C41.0927 147.135 42.1414 148.981 43.2836 150.443C44.9684 152.617 46.9583 154.535 49.1916 156.14C49.6253 156.384 49.9701 156.76 50.1763 157.213C50.4471 158.07 49.6397 158.912 48.7928 159.182C47.8377 159.497 46.8235 159.394 45.8044 159.507C44.7852 159.621 43.7218 160.059 43.3427 160.984C42.8159 162.294 43.904 163.668 44.9773 164.568C47.129 166.378 49.5775 167.802 52.2146 168.778C53.1832 169.051 54.094 169.498 54.9027 170.097C55.6609 170.762 56.1138 171.914 55.651 172.815C55.1882 173.716 54.0116 174.002 53.022 173.8C52.0324 173.598 51.156 173.076 50.2157 172.717C48.4581 172.047 46.1835 172.16 45.0511 173.677C44.7058 174.199 44.4862 174.795 44.4093 175.417C44.3324 176.039 44.4004 176.67 44.608 177.261C45.0331 178.436 45.6893 179.514 46.538 180.431C49.316 183.792 52.9366 186.354 57.0296 187.856C61.1061 189.289 64.9069 189.682 68.9489 188.215" fill="#C0009C"/>
<path d="M68.5358 190.42C68.2699 187.363 68.1321 187.299 66.9997 183.404C65.7356 179.197 64.2299 175.066 62.4899 171.032C62.0304 169.959 61.5808 168.898 61.1409 167.851C60.6929 166.808 60.2547 165.774 59.7575 164.789C58.8 162.903 57.7382 161.072 56.577 159.305C55.489 157.601 54.3911 156.03 53.3522 154.563C52.3134 153.096 51.3189 151.757 50.3588 150.571C48.8585 148.691 47.2123 146.933 45.4355 145.312C44.8053 144.736 44.3032 144.328 43.9585 144.022L43.5647 143.702C43.476 143.629 43.4268 143.594 43.4219 143.599C43.4624 143.642 43.5051 143.683 43.5499 143.722L43.929 144.062C44.2638 144.357 44.7561 144.795 45.3764 145.381C47.1291 147.024 48.7567 148.794 50.2456 150.679C51.1958 151.865 52.1805 153.214 53.1996 154.682C54.2187 156.149 55.3166 157.724 56.4047 159.423C57.5493 161.192 58.5962 163.023 59.5409 164.907C60.0332 165.892 60.4714 166.916 60.9145 167.96C61.3576 169.003 61.8056 170.067 62.2635 171.14C63.9989 175.167 65.5078 179.288 66.7831 183.483C67.9204 187.363 68.073 187.422 68.3635 190.45" fill="#263238"/>
<path d="M59.6737 164.78C59.7343 164.603 59.7755 164.42 59.7967 164.233C59.8657 163.879 59.9494 163.367 60.0429 162.727C60.2251 161.452 60.422 159.684 60.6337 157.735C60.8454 155.785 61.062 154.023 61.2639 152.752C61.3673 152.117 61.451 151.605 61.5199 151.251C61.5654 151.069 61.5885 150.882 61.5888 150.694C61.5187 150.868 61.4644 151.048 61.4264 151.231C61.3377 151.581 61.2245 152.093 61.1014 152.708C60.8553 153.973 60.6091 155.741 60.3974 157.69C60.1857 159.64 60.0134 161.358 59.8755 162.692C59.8115 163.293 59.7524 163.8 59.7081 164.204C59.6714 164.394 59.6598 164.587 59.6737 164.78Z" fill="#263238"/>
<path d="M43.2188 161.644C43.4354 161.693 43.6564 161.721 43.8785 161.727C44.297 161.767 44.9124 161.816 45.6656 161.91C47.1722 162.077 49.2449 162.402 51.5195 162.82C53.7941 163.239 55.8323 163.746 57.2995 164.14C58.033 164.332 58.6238 164.504 59.0325 164.632C59.2427 164.703 59.4584 164.755 59.6774 164.79C59.4799 164.689 59.274 164.605 59.062 164.539C58.6583 164.396 58.0774 164.199 57.3438 163.987C55.8668 163.549 53.8433 163.037 51.5638 162.594C49.6104 162.211 47.6384 161.93 45.6558 161.752C44.8976 161.683 44.2822 161.654 43.8588 161.644C43.6458 161.625 43.4317 161.625 43.2188 161.644Z" fill="#263238"/>
<path d="M66.7812 183.104C66.8293 183.043 66.8691 182.975 66.8994 182.903C66.9733 182.74 67.0668 182.543 67.18 182.307C67.4262 181.79 67.7561 181.032 68.1647 180.091C68.9623 178.206 69.9913 175.572 71.0793 172.642C72.1674 169.713 73.1717 167.074 73.9299 165.179L74.8407 162.934C74.9343 162.687 75.018 162.486 75.082 162.323C75.146 162.161 75.1608 162.106 75.1509 162.102C75.1051 162.164 75.0671 162.232 75.0377 162.303L74.757 162.894C74.5109 163.416 74.1761 164.174 73.7724 165.115C72.9699 166.995 71.9458 169.634 70.8578 172.559C69.7697 175.483 68.7654 178.127 68.0022 180.027C67.633 180.948 67.3228 181.706 67.0963 182.268C66.9979 182.514 66.9191 182.716 66.8551 182.883C66.8229 182.954 66.7981 183.028 66.7812 183.104Z" fill="#263238"/>
<path d="M44.9297 175.976C44.9985 176.013 45.0711 176.043 45.1463 176.064L45.7814 176.281L48.1249 177.049C50.0943 177.694 52.8169 178.624 55.8201 179.648C58.8233 180.673 61.5558 181.583 63.5448 182.189C64.5295 182.494 65.3467 182.731 65.908 182.883L66.5579 183.06C66.6319 183.082 66.7077 183.097 66.7844 183.105C66.7844 183.105 66.7154 183.065 66.5677 183.011L65.9375 182.799L63.6137 182.031C61.6444 181.382 58.9218 180.456 55.9136 179.427C52.9055 178.398 50.1829 177.492 48.1939 176.887C47.2092 176.581 46.3919 176.345 45.8307 176.192L45.1808 176.02C45.1007 175.989 45.0154 175.974 44.9297 175.976Z" fill="#263238"/>
<path d="M203.597 86.9961C203.597 86.9961 211.538 88.3352 212.178 88.5076C212.818 88.6799 215.334 89.8713 215.462 90.6394C215.529 91.6475 215.529 92.659 215.462 93.6672C215.462 93.6672 215.004 94.0365 214.724 93.298C214.535 92.5802 214.454 91.8387 214.482 91.0972L213.074 90.5557L213.842 91.9194L213.97 95.1147C213.97 95.1147 212.986 95.0261 212.794 94.2629C212.673 93.7314 212.61 93.1883 212.607 92.6432L211.583 91.7766L212.351 92.8155L212.607 95.1147C212.607 95.1147 211.858 95.3608 211.622 94.8488C211.449 94.185 211.363 93.5015 211.366 92.8155L208.471 91.8013L206.556 92.8696L202.977 90.8708L203.597 86.9961Z" fill="#FFBE9D"/>
<path d="M175.788 67.3662C175.828 67.5238 185.359 80.6592 185.359 80.6592L204.511 86.6164L203.64 93.8094L180.17 89.083L171.84 79.5219L175.788 67.3662Z" fill="#C0009C"/>
<g opacity="0.2">
<path d="M175.788 67.3662C175.828 67.5238 185.359 80.6592 185.359 80.6592L204.511 86.6164L203.64 93.8094L180.17 89.083L171.84 79.5219L175.788 67.3662Z" fill="black"/>
</g>
<path d="M142.429 85.4297H103.298C102.469 85.4297 101.797 86.102 101.797 86.9313V91.5543C101.797 92.3836 102.469 93.0559 103.298 93.0559H142.429C143.258 93.0559 143.931 92.3836 143.931 91.5543V86.9313C143.931 86.102 143.258 85.4297 142.429 85.4297Z" fill="#F5F5F5"/>
<path d="M142.433 93.0554C142.433 93.0554 142.516 93.0554 142.679 93.0209C142.992 92.9634 143.278 92.8062 143.494 92.5729C143.711 92.3396 143.846 92.0426 143.88 91.7261C143.88 91.2633 143.88 90.7119 143.88 90.1014C143.88 89.4909 143.88 88.8066 143.88 88.0632C143.88 87.689 143.88 87.3 143.88 86.8963C143.873 86.6965 143.826 86.5001 143.742 86.319C143.657 86.1379 143.537 85.9759 143.388 85.8427C143.226 85.706 143.036 85.6068 142.831 85.5523C142.613 85.5047 142.389 85.4898 142.167 85.5079H140.729H137.603L103.331 85.5473C103.14 85.5471 102.95 85.5867 102.775 85.6639C102.599 85.741 102.442 85.8539 102.312 85.9954C102.184 86.1385 102.087 86.3061 102.026 86.4881C101.965 86.6701 101.942 86.8626 101.958 87.0539C101.958 87.881 101.958 88.7032 101.958 89.5155V91.3618C101.948 91.5502 101.965 91.7391 102.007 91.9231C102.081 92.1892 102.232 92.4274 102.441 92.6072C102.651 92.787 102.909 92.9002 103.184 92.9323C103.356 92.9323 103.568 92.9323 103.765 92.9323H112.863L128.268 92.9619L138.656 93.0012L141.482 93.0259H142.216H142.467H142.216H141.482L138.656 93.0505L128.268 93.0899L112.863 93.1194H103.73C103.528 93.1194 103.341 93.1194 103.12 93.1194C102.905 93.0936 102.698 93.0268 102.509 92.9225C102.321 92.8179 102.155 92.677 102.022 92.508C101.888 92.339 101.789 92.1452 101.731 91.9378C101.678 91.7322 101.658 91.5195 101.672 91.3076V89.4811C101.672 88.6687 101.672 87.8465 101.672 87.0194C101.659 86.7961 101.69 86.5725 101.764 86.3613C101.837 86.1501 101.952 85.9554 102.101 85.7886C102.253 85.6201 102.439 85.4857 102.647 85.394C102.855 85.3024 103.08 85.2557 103.307 85.2569L137.578 85.2962H142.142C142.378 85.2865 142.615 85.3064 142.846 85.3553C143.071 85.4165 143.28 85.5275 143.457 85.6803C143.623 85.8246 143.758 86.002 143.852 86.2012C143.946 86.4004 143.997 86.617 144.003 86.8372C144.003 87.241 144.003 87.6348 144.003 88.009C144.003 88.7524 144.003 89.4318 144.003 90.0472C144.003 90.6627 144.003 91.1993 143.978 91.6818C143.924 92.0901 143.71 92.4602 143.383 92.7108C143.184 92.8601 142.95 92.9566 142.703 92.9914C142.617 93.027 142.526 93.0486 142.433 93.0554Z" fill="#263238"/>
<path d="M248.681 190.505C259.786 189.971 268.357 180.536 267.823 169.43C267.29 158.325 257.854 149.755 246.749 150.288C235.643 150.821 227.073 160.257 227.606 171.362C228.14 182.468 237.575 191.038 248.681 190.505Z" fill="#263238"/>
<path d="M227.594 170.057C227.594 170.057 227.594 170.091 227.594 170.111C227.55 175.429 229.611 180.548 233.329 184.352C237.046 188.155 242.117 190.333 247.435 190.409C252.752 190.486 257.884 188.456 261.71 184.761C265.535 181.067 267.744 176.009 267.853 170.692C267.853 170.692 267.853 170.657 267.853 170.638L227.594 170.057Z" fill="#263238"/>
<path d="M233.584 170.194C233.543 172.99 234.332 175.734 235.851 178.081C237.371 180.428 239.552 182.272 242.119 183.379C244.686 184.486 247.524 184.807 250.274 184.301C253.023 183.796 255.561 182.486 257.566 180.538C259.571 178.59 260.954 176.091 261.539 173.357C262.124 170.623 261.885 167.777 260.852 165.179C259.82 162.581 258.04 160.348 255.738 158.761C253.436 157.175 250.716 156.306 247.92 156.266C244.172 156.212 240.556 157.649 237.868 160.261C235.179 162.873 233.638 166.446 233.584 170.194Z" fill="#FAFAFA"/>
<path d="M247.919 156.266C244.171 156.212 240.555 157.649 237.866 160.261C235.177 162.873 233.636 166.446 233.582 170.194L261.847 170.603C261.901 166.855 260.464 163.239 257.852 160.55C255.24 157.862 251.667 156.321 247.919 156.266Z" fill="#E0E0E0"/>
<path d="M239.106 170.274C239.081 171.977 239.562 173.649 240.487 175.079C241.412 176.509 242.741 177.632 244.305 178.307C245.869 178.982 247.597 179.178 249.273 178.87C250.948 178.562 252.494 177.765 253.716 176.578C254.938 175.391 255.78 173.869 256.137 172.203C256.493 170.538 256.348 168.804 255.719 167.221C255.09 165.638 254.006 164.278 252.603 163.311C251.201 162.345 249.543 161.815 247.84 161.791C245.557 161.758 243.355 162.633 241.717 164.224C240.079 165.815 239.14 167.991 239.106 170.274Z" fill="#263238"/>
<path d="M238.161 140.881C238.161 140.881 258.77 134.648 267.292 157.04L224.164 170.401L238.161 140.881Z" fill="#C0009C"/>
<path d="M124.478 190.508C135.583 189.974 144.153 180.539 143.62 169.433C143.087 158.328 133.651 149.758 122.546 150.291C111.44 150.824 102.87 160.26 103.403 171.365C103.937 182.471 113.372 191.041 124.478 190.508Z" fill="#263238"/>
<path d="M103.384 170.057C103.384 170.057 103.384 170.091 103.384 170.111C103.339 175.429 105.4 180.548 109.118 184.352C112.835 188.155 117.906 190.333 123.224 190.409C128.541 190.486 133.673 188.456 137.499 184.761C141.324 181.067 143.533 176.009 143.642 170.692V170.628L103.384 170.057Z" fill="#263238"/>
<path d="M109.392 170.194C109.352 172.99 110.141 175.734 111.66 178.081C113.179 180.428 115.361 182.272 117.928 183.379C120.495 184.486 123.333 184.807 126.082 184.301C128.832 183.796 131.37 182.486 133.375 180.538C135.38 178.59 136.763 176.091 137.348 173.357C137.932 170.623 137.694 167.777 136.661 165.179C135.629 162.581 133.849 160.348 131.547 158.761C129.245 157.175 126.524 156.306 123.729 156.266C119.981 156.212 116.365 157.649 113.676 160.261C110.988 162.873 109.447 166.446 109.392 170.194Z" fill="#FAFAFA"/>
<path d="M123.712 156.266C119.967 156.217 116.356 157.657 113.672 160.268C110.987 162.879 109.449 166.449 109.395 170.194L137.659 170.603C137.686 168.745 137.346 166.901 136.66 165.174C135.973 163.448 134.953 161.875 133.657 160.543C132.362 159.211 130.817 158.148 129.11 157.414C127.404 156.681 125.569 156.29 123.712 156.266Z" fill="#E0E0E0"/>
<path d="M114.895 170.274C114.87 171.977 115.351 173.649 116.276 175.079C117.201 176.509 118.53 177.632 120.094 178.307C121.658 178.982 123.386 179.178 125.062 178.87C126.737 178.562 128.283 177.765 129.505 176.578C130.727 175.391 131.569 173.869 131.926 172.203C132.282 170.538 132.137 168.804 131.508 167.221C130.879 165.638 129.795 164.278 128.392 163.311C126.99 162.345 125.333 161.815 123.629 161.791C121.346 161.758 119.144 162.633 117.506 164.224C115.868 165.815 114.929 167.991 114.895 170.274Z" fill="#263238"/>
<path d="M152.143 162.317C152.03 162.376 141.548 160.697 141.548 160.697C140.981 161.437 140.26 162.044 139.434 162.476C138.608 162.908 137.698 163.155 136.767 163.198C132.238 163.415 127.812 163.617 123.967 163.789C122.249 163.866 120.631 164.62 119.468 165.887C118.306 167.154 117.693 168.831 117.763 170.549C117.832 172.18 118.512 173.725 119.668 174.878C120.823 176.031 122.37 176.707 124.001 176.772L146.319 177.653C149.987 177.796 154.861 175.571 157.15 172.7L152.143 162.317Z" fill="#455A64"/>
<path d="M97.3717 153.396C97.3717 153.396 96.4166 133.776 114.854 129.69V127.174H179.439V133.21C179.439 133.21 169.961 144.627 173.038 154.105C176.115 163.582 177.1 164.552 177.1 164.552H213.858C216.758 160.475 218.375 155.625 218.5 150.624C218.697 142.303 215.241 128.08 212.656 118.986C210.323 110.691 208.846 103.778 208.846 103.778L219.874 100.101C219.874 100.101 240.281 126.81 241.113 128.287C241.945 129.764 244.781 133.289 244.117 140.959C243.452 148.63 225.093 172.291 220.278 174.96C215.463 177.628 211.11 177.796 206.773 178.46C203.012 179.041 175.185 178.657 167.903 178.544C165.373 178.528 162.892 177.84 160.715 176.55C158.539 175.231 156.905 173.045 155.098 169.46L151.243 161.957L97.3717 153.396Z" fill="#C0009C"/>
<path d="M102.313 152.047L94.1795 164.788C93.9381 165.142 93.8182 165.564 93.8381 165.991C93.8579 166.418 94.0163 166.828 94.2894 167.157C94.5626 167.486 94.9355 167.718 95.3518 167.816C95.7681 167.915 96.2051 167.875 96.5969 167.703C97.609 167.251 98.5338 166.624 99.3293 165.852C103.046 162.312 109.668 152.987 109.668 152.987L102.313 152.047Z" fill="#455A64"/>
<path d="M160.648 154.342C160.648 154.342 160.648 154.278 160.697 154.155L160.86 153.618C161.055 152.929 161.199 152.226 161.288 151.516C161.56 148.886 161.125 146.231 160.028 143.826C159.289 142.166 158.276 140.643 157.029 139.321C155.598 137.811 153.936 136.538 152.106 135.549C150.078 134.454 147.907 133.646 145.656 133.147C143.23 132.623 140.753 132.368 138.271 132.384C135.8 132.402 133.333 132.584 130.886 132.93C128.503 133.25 126.219 133.644 124.063 134.136C120.234 134.949 116.544 136.314 113.108 138.188C110.801 139.469 108.693 141.079 106.851 142.969C106.201 143.638 105.733 144.195 105.423 144.574L105.073 145.012C105.036 145.064 104.993 145.112 104.945 145.155C105.489 144.351 106.101 143.596 106.777 142.9C108.603 140.974 110.707 139.333 113.02 138.031C116.462 136.123 120.166 134.733 124.013 133.905C126.17 133.413 128.444 133.004 130.852 132.679C133.318 132.33 135.805 132.146 138.296 132.128C140.792 132.111 143.282 132.37 145.72 132.901C147.993 133.417 150.184 134.245 152.229 135.362C154.085 136.365 155.769 137.658 157.216 139.193C158.472 140.537 159.489 142.086 160.224 143.771C161.318 146.209 161.73 148.897 161.416 151.55C161.312 152.264 161.148 152.967 160.924 153.653C160.845 153.879 160.786 154.051 160.736 154.184C160.712 154.239 160.682 154.292 160.648 154.342Z" fill="#263238"/>
<path d="M156.93 149.949C156.901 149.949 157.033 149.639 157.171 149.078C157.356 148.27 157.381 147.434 157.245 146.616C157.054 145.414 156.647 144.257 156.044 143.2C155.703 142.567 155.304 141.967 154.852 141.407C154.38 140.799 153.843 140.243 153.252 139.748C152.1 138.8 150.804 138.042 149.412 137.503C148.274 137.057 147.092 136.727 145.887 136.519C145.072 136.381 144.25 136.287 143.425 136.238C143.122 136.234 142.82 136.211 142.52 136.169C142.598 136.157 142.678 136.157 142.756 136.169C142.908 136.169 143.135 136.169 143.43 136.169C144.254 136.181 145.077 136.249 145.892 136.371C147.117 136.547 148.318 136.855 149.476 137.292C150.904 137.829 152.234 138.596 153.415 139.561C154.018 140.069 154.565 140.638 155.049 141.26C155.502 141.835 155.902 142.45 156.246 143.096C156.855 144.18 157.253 145.369 157.418 146.602C157.54 147.434 157.488 148.282 157.265 149.093C157.207 149.312 157.127 149.524 157.029 149.728C157.006 149.806 156.973 149.881 156.93 149.949Z" fill="#F5F5F5"/>
<g opacity="0.4">
<path d="M144.285 132.747C147.761 133.382 151.071 134.723 154.009 136.686C156.963 138.647 159.238 141.475 160.522 144.78C161.812 148.098 161.62 152.495 160.261 155.242L164.825 155.621C166.361 150.496 164.692 144.209 161 140.196C158.887 137.857 156.309 135.984 153.431 134.698C150.553 133.412 147.438 132.741 144.285 132.728" fill="black"/>
</g>
<path d="M142.827 92.6719H102.904C100.571 92.6719 98.6797 94.5631 98.6797 96.8961V122.965C98.6797 125.298 100.571 127.189 102.904 127.189H142.827C145.16 127.189 147.051 125.298 147.051 122.965V96.8961C147.051 94.5631 145.16 92.6719 142.827 92.6719Z" fill="#455A64"/>
<path d="M147.051 100.371C147.051 100.445 136.176 100.499 122.764 100.499C109.353 100.499 98.4727 100.445 98.4727 100.371C98.4727 100.297 109.343 100.243 122.764 100.243C136.185 100.243 147.051 100.302 147.051 100.371Z" fill="#263238"/>
<path d="M179.407 129.473C179.407 129.542 164.888 129.601 146.987 129.601C129.085 129.601 114.566 129.542 114.566 129.473C114.566 129.404 129.08 129.345 146.987 129.345C164.893 129.345 179.407 129.404 179.407 129.473Z" fill="#263238"/>
<path d="M179.437 127.189C180.095 126.355 180.501 125.35 180.609 124.294C180.707 122.674 179.969 120.646 178.221 120.646H155.918C154.183 120.646 152.519 121.335 151.291 122.562C150.064 123.789 149.375 125.453 149.375 127.189H179.437Z" fill="#455A64"/>
<path d="M208.845 103.779L204.965 95.6898C204.447 94.5793 204.362 93.3156 204.726 92.1457C205.091 90.9757 205.878 89.9836 206.935 89.3633L218.534 82.446C219.139 82.0821 219.832 81.8898 220.538 81.8896H223.044L224.028 98.24L220.168 99.7318L222.63 103.71L208.845 103.779Z" fill="#C0009C"/>
<path d="M223.078 82.5C223.078 82.5 227.046 83.4108 227.544 89.5256C228.041 95.6404 224.043 97.5506 224.043 97.5506L223.078 82.5Z" fill="#EBEBEB"/>
<path d="M210.198 92.5181C210.198 92.5181 202.177 96.3189 201.198 96.9491C200.518 97.3823 199.937 98.1405 200.469 99.4748C201.375 101.744 205.127 99.6077 205.127 99.6077L212.595 95.8758C212.595 95.8758 215.466 94.5219 214.402 92.8233C213.216 90.9229 210.198 92.5181 210.198 92.5181Z" fill="#263238"/>
<path d="M198.845 91.1357C198.845 91.1357 206.382 92.4257 207.022 92.6127C207.662 92.7998 210.173 93.9765 210.301 94.7445C210.368 95.7527 210.368 96.7642 210.301 97.7724C210.301 97.7724 209.848 98.1416 209.563 97.4031C209.377 96.6833 209.296 95.9405 209.321 95.1975L207.913 94.6559L208.681 96.0197L208.809 99.2198C208.809 99.2198 207.825 99.1312 207.638 98.3632C207.517 97.8333 207.454 97.2918 207.451 96.7483L206.422 95.8769L207.19 96.9157L207.451 99.2198C207.451 99.2198 206.702 99.4611 206.466 98.9491C206.293 98.2853 206.207 97.6017 206.21 96.9157L203.315 95.9065L201.4 96.9748L198.387 95.3009L198.845 91.1357Z" fill="#FFBE9D"/>
<path d="M210.583 80.6392C210.583 83.6917 209.18 86.1632 207.452 86.1632C205.723 86.1632 204.32 83.7015 204.32 80.6392C204.32 77.5769 205.719 75.1152 207.452 75.1152C209.185 75.1152 210.583 77.5769 210.583 80.6392Z" fill="#263238"/>
<path d="M207.965 84.4352L209.688 90.4022C210.003 90.2438 210.254 89.9827 210.399 89.6622C210.545 89.3417 210.578 88.981 210.491 88.6397C210.057 86.5965 209.811 85.1441 209.338 83.352C209.279 83.1748 207.965 84.4352 207.965 84.4352Z" fill="#263238"/>
<g opacity="0.4">
<path d="M173.887 156.631C173.72 156.139 173.543 155.646 173.395 155.12C173.247 154.593 173.06 154.135 172.932 153.643C172.734 152.904 172.589 152.152 172.499 151.393C169.594 163.209 174.03 171.544 181.642 172.13C192.768 172.986 206.332 173.607 211.817 172.169C221.816 169.545 225.484 161.205 226.36 159.831C227.237 158.458 235.188 143.919 230.299 129.922C225.41 115.925 216.932 101.062 216.932 101.062L208.843 103.779C208.843 103.779 210.32 110.672 212.668 118.963C215.253 128.056 218.709 142.28 218.512 150.6C218.387 155.602 216.77 160.452 213.87 164.528H177.117C177.117 164.528 176.329 163.74 173.902 156.651" fill="black"/>
</g>
<path d="M95.9043 150.334L96.1652 147.527L163.26 155.257C164.157 155.362 165.023 155.65 165.804 156.102C166.586 156.554 167.267 157.161 167.805 157.886C168.344 158.611 168.728 159.438 168.936 160.317C169.143 161.196 169.169 162.107 169.011 162.996L168.71 164.695L99.2915 154.607C98.2846 154.469 97.37 153.948 96.7387 153.151C96.1075 152.355 95.8085 151.345 95.9043 150.334Z" fill="#C0009C"/>
<g opacity="0.6">
<path d="M95.9043 150.334L96.1652 147.527L163.26 155.257C164.157 155.362 165.023 155.65 165.804 156.102C166.586 156.554 167.267 157.161 167.805 157.886C168.344 158.611 168.728 159.438 168.936 160.317C169.143 161.196 169.169 162.107 169.011 162.996L168.71 164.695L99.2915 154.607C98.2846 154.469 97.37 153.948 96.7387 153.151C96.1075 152.355 95.8085 151.345 95.9043 150.334Z" fill="black"/>
</g>
<g opacity="0.3">
<path d="M226.359 169.102C226.359 169.102 241.129 152.855 244.177 140.083C245.708 140.075 247.238 140.188 248.751 140.423C248.751 140.423 240.017 164.168 226.359 169.102Z" fill="black"/>
</g>
<path d="M243.962 134.363C244 134.497 244.026 134.634 244.04 134.772C244.08 135.043 244.159 135.441 244.208 135.958C244.352 137.434 244.314 138.923 244.095 140.389C243.748 142.556 243.084 144.659 242.125 146.632C240.955 149.035 239.65 151.369 238.216 153.623C235.643 157.738 232.752 161.646 229.571 165.311C228.369 166.734 227.375 167.867 226.686 168.644L225.888 169.536C225.797 169.641 225.7 169.742 225.598 169.836C225.671 169.718 225.755 169.608 225.849 169.506L226.612 168.58L229.433 165.198C232.564 161.505 235.427 157.592 237.999 153.49C239.435 151.243 240.75 148.921 241.938 146.534C242.885 144.58 243.548 142.501 243.907 140.36C244.134 138.914 244.198 137.448 244.1 135.988C244.065 135.471 244.001 135.072 243.981 134.797C243.96 134.653 243.954 134.508 243.962 134.363Z" fill="#263238"/>
<path d="M218.429 168.984C217.583 168.337 216.791 167.622 216.061 166.847C215.273 166.133 214.542 165.357 213.875 164.528C215.511 165.888 217.034 167.378 218.429 168.984Z" fill="#263238"/>
<path d="M174.59 168.486C174.828 167.727 175.196 167.016 175.678 166.384C176.089 165.704 176.613 165.099 177.229 164.597C177.283 164.651 176.608 165.458 175.89 166.527C175.171 167.595 174.659 168.516 174.59 168.486Z" fill="#263238"/>
<path d="M146.214 177.865C147.022 177.128 147.702 176.263 148.228 175.305C148.779 174.258 149.114 173.111 149.212 171.932C149.362 170.495 149.11 169.044 148.487 167.741C147.863 166.438 146.891 165.332 145.677 164.547C144.7 163.883 143.598 163.422 142.438 163.193C141.363 162.999 140.263 162.984 139.184 163.149C139.253 163.119 139.326 163.098 139.4 163.085C139.614 163.029 139.831 162.986 140.05 162.957C140.856 162.849 141.673 162.869 142.472 163.016C143.665 163.227 144.801 163.681 145.81 164.35C147.072 165.151 148.082 166.292 148.726 167.64C149.369 168.989 149.62 170.492 149.449 171.977C149.336 173.186 148.974 174.36 148.385 175.423C147.998 176.137 147.5 176.786 146.908 177.343C146.754 177.496 146.589 177.639 146.416 177.771C146.353 177.811 146.285 177.842 146.214 177.865Z" fill="#263238"/>
<path d="M121.699 172.721C121.531 171.945 121.45 171.152 121.458 170.358C121.373 169.565 121.373 168.767 121.458 167.975C121.704 169.544 121.78 171.135 121.685 172.721H121.699Z" fill="#263238"/>
<path d="M123.492 172.725C123.124 171.165 122.921 169.571 122.887 167.969C123.111 168.74 123.255 169.531 123.315 170.332C123.458 171.121 123.517 171.923 123.492 172.725Z" fill="#263238"/>
<path d="M151.167 127.19C151.167 127.258 143.009 127.318 132.951 127.318C122.892 127.318 114.734 127.258 114.734 127.19C114.734 127.121 122.892 127.062 132.951 127.062C143.009 127.062 151.167 127.116 151.167 127.19Z" fill="#263238"/>
<path d="M124.749 127.166C124.675 127.166 124.621 117.811 124.621 106.3C124.621 94.7897 124.656 85.4551 124.749 85.4551C124.843 85.4551 124.877 94.8094 124.877 106.325C124.877 117.841 124.818 127.166 124.749 127.166Z" fill="#263238"/>
<path d="M119.731 127.13C119.662 127.13 120.012 117.776 120.514 106.275C121.016 94.7742 121.499 85.4248 121.548 85.4297C121.597 85.4346 121.272 94.784 120.77 106.285C120.268 117.786 119.825 127.135 119.731 127.13Z" fill="#263238"/>
<path d="M108.451 184.068C108.372 184.002 108.299 183.927 108.234 183.847C108.106 183.699 107.895 183.487 107.663 183.187C106.983 182.351 106.375 181.458 105.847 180.518C104.065 177.407 103.134 173.882 103.149 170.296C103.163 166.711 104.123 163.193 105.93 160.097C106.464 159.16 107.079 158.272 107.767 157.443C108.003 157.143 108.215 156.951 108.348 156.783C108.481 156.616 108.559 156.562 108.564 156.571C108.516 156.66 108.456 156.743 108.387 156.818C108.269 156.98 108.067 157.197 107.845 157.507C105.32 160.724 103.798 164.614 103.471 168.691C103.143 172.768 104.025 176.851 106.004 180.43C106.514 181.371 107.095 182.271 107.742 183.123C107.959 183.433 108.156 183.655 108.274 183.817C108.392 183.98 108.461 184.058 108.451 184.068Z" fill="#455A64"/>
<path d="M178.985 146.558L178.832 146.843L175.858 152.411L171.703 156.409L180.009 167.467L186.926 166.32C186.926 166.32 186.153 164.739 182.677 164.434L181.363 157.827L186.242 150.265" fill="#455A64"/>
<path d="M171.715 156.424L180.021 167.482L186.938 166.335L185.988 165.424L180.311 166.044L172.601 155.572L171.715 156.424Z" fill="#E0E0E0"/>
<path d="M182.136 161.412C182.096 161.49 181.643 161.328 181.151 161.436C180.659 161.544 180.26 161.825 180.196 161.766C180.132 161.707 180.442 161.244 181.092 161.131C181.742 161.018 182.19 161.348 182.136 161.412Z" fill="#263238"/>
<path d="M181.764 159.797C181.705 159.856 181.326 159.501 180.779 159.482C180.233 159.462 179.795 159.792 179.75 159.728C179.706 159.664 179.785 159.575 179.962 159.432C180.202 159.258 180.493 159.167 180.789 159.176C181.086 159.184 181.371 159.294 181.597 159.487C181.73 159.624 181.764 159.757 181.764 159.797Z" fill="#263238"/>
<path d="M181.445 157.655C181.376 157.709 181.071 157.35 180.564 157.261C180.057 157.172 179.648 157.404 179.579 157.33C179.51 157.256 179.623 157.187 179.805 157.084C180.046 156.956 180.322 156.913 180.59 156.962C180.858 157.01 181.101 157.146 181.282 157.35C181.45 157.507 181.479 157.635 181.445 157.655Z" fill="#263238"/>
<path d="M183.021 155.711C182.947 155.75 182.686 155.391 182.208 155.184C181.731 154.977 181.298 155.007 181.278 154.923C181.258 154.839 181.77 154.637 182.336 154.923C182.903 155.209 183.104 155.686 183.021 155.711Z" fill="#263238"/>
<path d="M183.69 154.139C183.656 154.164 183.385 153.928 182.967 153.514L182.258 152.78C182.097 152.637 181.958 152.471 181.844 152.288C181.811 152.222 181.792 152.15 181.786 152.077C181.781 152.003 181.791 151.93 181.815 151.86C181.843 151.78 181.894 151.711 181.961 151.66C182.029 151.609 182.109 151.579 182.194 151.574C182.446 151.578 182.691 151.657 182.898 151.801C183.078 151.916 183.244 152.053 183.39 152.209C183.635 152.479 183.815 152.8 183.917 153.15C184.047 153.465 184.047 153.819 183.917 154.134C183.867 153.83 183.798 153.529 183.71 153.233C183.59 152.93 183.411 152.654 183.183 152.421C183.049 152.288 182.899 152.172 182.735 152.076C182.579 151.974 182.4 151.912 182.213 151.894C182.188 151.895 182.163 151.903 182.141 151.918C182.12 151.933 182.104 151.954 182.095 151.978C182.069 152.043 182.069 152.115 182.095 152.18C182.191 152.338 182.307 152.484 182.44 152.613L183.114 153.396C183.345 153.611 183.539 153.862 183.69 154.139Z" fill="#263238"/>
<path d="M183.97 154.302C183.936 154.302 183.902 153.938 184.207 153.46C184.414 153.145 184.718 152.905 185.073 152.777C185.428 152.648 185.815 152.638 186.176 152.746C186.216 152.772 186.249 152.806 186.275 152.846C186.3 152.886 186.317 152.931 186.324 152.978C186.33 153.058 186.313 153.139 186.275 153.209C186.219 153.308 186.148 153.396 186.063 153.47C185.926 153.603 185.778 153.723 185.62 153.83C185.354 154.009 185.061 154.145 184.753 154.233C184.478 154.345 184.175 154.367 183.887 154.297C183.887 154.248 184.207 154.218 184.684 154.026C184.959 153.917 185.219 153.774 185.457 153.598C185.598 153.494 185.73 153.379 185.851 153.254C185.911 153.201 185.962 153.139 186.004 153.071C186.028 153.002 186.004 153.022 186.004 153.007C185.937 152.979 185.865 152.964 185.792 152.963C185.705 152.956 185.618 152.956 185.531 152.963C185.362 152.978 185.196 153.018 185.039 153.081C184.773 153.185 184.537 153.354 184.354 153.574C184.21 153.808 184.082 154.051 183.97 154.302Z" fill="#263238"/>
<path d="M177.196 155.296C177.223 155.459 177.201 155.625 177.133 155.775C177.065 155.925 176.955 156.052 176.815 156.139C176.675 156.226 176.513 156.27 176.348 156.265C176.184 156.259 176.024 156.205 175.89 156.109C175.757 156.013 175.654 155.88 175.596 155.726C175.538 155.572 175.527 155.404 175.565 155.243C175.602 155.083 175.687 154.937 175.807 154.825C175.927 154.713 176.078 154.638 176.241 154.612C176.458 154.578 176.68 154.63 176.858 154.758C177.037 154.886 177.158 155.079 177.196 155.296Z" fill="#E0E0E0"/>
<path d="M204.191 151.874L206.412 166.29L224.367 163.621C224.003 161.923 214.205 159.86 214.205 159.86L213.162 150.564L204.191 151.874Z" fill="#455A64"/>
<path d="M208.538 159.91C208.373 159.987 208.242 160.123 208.171 160.291C208.1 160.46 208.094 160.648 208.154 160.821C208.227 160.988 208.361 161.121 208.528 161.193C208.695 161.265 208.884 161.271 209.055 161.21C209.233 161.126 209.373 160.978 209.447 160.795C209.521 160.613 209.523 160.409 209.454 160.225C209.361 160.057 209.206 159.931 209.023 159.875C208.839 159.819 208.64 159.837 208.469 159.925" fill="#E0E0E0"/>
<path d="M206.414 166.29L206.246 164.813L223.522 162.8C223.522 162.8 224.374 163.031 224.369 163.607L206.414 166.29Z" fill="#E0E0E0"/>
<path d="M214.481 159.728C214.481 159.816 214.063 159.92 213.669 160.264C213.275 160.609 213.108 161.013 213.019 160.993C212.93 160.973 212.989 160.441 213.467 160.033C213.945 159.624 214.491 159.644 214.481 159.728Z" fill="#263238"/>
<path d="M216.482 160.225C216.516 160.309 216.157 160.511 215.916 160.929C215.674 161.348 215.645 161.746 215.556 161.756C215.468 161.766 215.34 161.264 215.65 160.772C215.96 160.279 216.467 160.141 216.482 160.225Z" fill="#263238"/>
<path d="M217.89 162.317C217.811 162.352 217.624 161.928 217.777 161.416C217.93 160.904 218.314 160.648 218.363 160.717C218.412 160.786 218.195 161.081 218.072 161.505C217.949 161.928 217.974 162.297 217.89 162.317Z" fill="#263238"/>
<path d="M214.009 157.635C214.009 157.719 213.566 157.66 213.074 157.763C212.582 157.867 212.222 158.088 212.163 158.019C212.104 157.95 212.434 157.581 213.01 157.463C213.586 157.345 214.044 157.556 214.009 157.635Z" fill="#263238"/>
<path d="M213.274 155.567C212.991 155.69 212.68 155.734 212.373 155.695C212.04 155.686 211.71 155.636 211.389 155.547C211.193 155.5 211 155.439 210.813 155.365C210.703 155.326 210.602 155.267 210.512 155.193C210.445 155.14 210.397 155.066 210.377 154.983C210.358 154.9 210.367 154.812 210.404 154.735C210.439 154.667 210.489 154.608 210.551 154.563C210.612 154.517 210.683 154.487 210.759 154.474C210.871 154.457 210.986 154.457 211.098 154.474C211.299 154.489 211.497 154.525 211.689 154.582C212.012 154.674 212.32 154.815 212.6 155.001C213.092 155.326 213.264 155.631 213.235 155.656C213.205 155.68 212.954 155.444 212.487 155.188C212.212 155.04 211.919 154.929 211.615 154.858C211.438 154.811 211.257 154.783 211.074 154.774C210.877 154.774 210.714 154.774 210.68 154.868C210.645 154.961 210.68 154.912 210.714 154.966C210.782 155.017 210.857 155.059 210.936 155.089C211.104 155.166 211.277 155.233 211.453 155.291C211.753 155.387 212.061 155.455 212.373 155.493C212.675 155.496 212.976 155.521 213.274 155.567Z" fill="#263238"/>
<path d="M213.171 155.71C213.142 155.71 212.92 155.439 212.802 154.878C212.748 154.552 212.748 154.22 212.802 153.893C212.834 153.696 212.883 153.501 212.95 153.313C212.979 153.189 213.04 153.074 213.126 152.98C213.212 152.886 213.321 152.816 213.442 152.776C213.522 152.766 213.603 152.778 213.676 152.812C213.749 152.846 213.812 152.9 213.855 152.968C213.917 153.068 213.965 153.175 213.998 153.288C214.059 153.484 214.088 153.688 214.087 153.893C214.087 154.237 214.002 154.575 213.841 154.878C213.56 155.37 213.21 155.553 213.201 155.523C213.191 155.494 213.442 155.272 213.644 154.785C213.761 154.505 213.815 154.202 213.801 153.898C213.796 153.722 213.765 153.548 213.708 153.381C213.654 153.194 213.56 153.052 213.491 153.081C213.422 153.111 213.27 153.258 213.22 153.421C213.154 153.59 213.103 153.764 213.068 153.943C213.012 154.246 212.999 154.556 213.028 154.863C213.073 155.366 213.215 155.691 213.171 155.71Z" fill="#263238"/>
<path d="M190.067 118.012L174.672 151.559L184.839 157.664L206.127 117.298" fill="#263238"/>
<path d="M215.458 158.428L204.415 160.2L197.802 120.745L165.136 123.113C164.272 123.173 163.404 123.092 162.566 122.872C153.394 120.356 154.635 108.658 155.521 106.782L200.722 105.487C203.09 105.419 205.4 106.226 207.21 107.755C209.02 109.284 210.202 111.427 210.529 113.773L215.458 158.428Z" fill="#263238"/>
<path d="M155.059 108.633L155.222 91.9531C155.222 91.9531 153.07 81.1217 152.43 76.8434C151.446 70.2264 150.087 67.0804 160.928 62.3786L163.301 61.4629L166.969 61.5121C171.341 61.842 175.949 65.7954 176.057 68.4048L180.286 106.004L155.059 108.633Z" fill="#C0009C"/>
<path d="M155.739 66.2539C155.739 66.2539 152.677 72.8413 153.277 78.8429L164.685 89.7923C167.24 92.638 170.44 93.8492 174.531 94.0953L198.134 96.6752L198.789 90.5013L176.348 84.1404C175.452 83.973 175.004 83.0425 174.32 82.4418L155.739 66.2539Z" fill="#C0009C"/>
<path d="M153.895 68.1539C154.027 68.0271 154.18 67.9239 154.347 67.8486C154.833 67.6346 155.347 67.4903 155.874 67.4203C156.718 67.2818 157.58 67.2818 158.424 67.4203C158.685 67.4676 158.937 67.5539 159.172 67.6763C159.413 67.8272 159.645 67.9916 159.867 68.1686C160.319 68.5231 160.777 68.9318 161.245 69.3749C162.19 70.2561 163.086 71.3737 164.135 72.5061C165.184 73.6385 166.331 74.8545 167.581 76.1297C168.832 77.4048 170.176 78.739 171.614 80.1176C172.337 80.8068 173.091 81.5059 173.873 82.1903C174.272 82.5152 174.666 82.8992 175.045 83.2587C175.402 83.6282 175.853 83.8936 176.35 84.0267L198.835 90.3778L198.938 90.4073V90.5156C198.894 90.9538 198.84 91.4215 198.79 91.8991C198.618 93.5386 198.446 95.1633 198.298 96.6895V96.8175H198.17L188.166 95.7048L183.439 95.1879L178.915 94.73C177.438 94.5675 176.015 94.4002 174.632 94.1983C173.28 94.0324 171.95 93.7238 170.663 93.2776C169.477 92.8261 168.355 92.222 167.325 91.4806C166.341 90.7864 165.415 90.0627 164.563 89.3488C161.191 86.4736 158.714 83.8987 156.996 82.146C156.144 81.2647 155.49 80.5705 155.052 80.0979L154.559 79.5563L154.397 79.3643C154.397 79.3643 154.461 79.4185 154.579 79.5366C154.697 79.6548 154.869 79.8369 155.071 80.0634L157.041 82.082C158.778 83.8101 161.275 86.3653 164.652 89.2159C165.504 89.9199 166.415 90.6387 167.404 91.3231C168.427 92.0492 169.539 92.6415 170.713 93.0856C171.99 93.5215 173.311 93.8218 174.651 93.9817C176.035 94.1786 177.463 94.346 178.93 94.5035L183.454 94.9466L188.181 95.4636L198.175 96.5517L198.032 96.6649C198.195 95.1386 198.367 93.514 198.525 91.8696C198.579 91.3772 198.628 90.9243 198.672 90.4861L198.766 90.624L176.315 84.2482C175.767 84.1121 175.269 83.8236 174.878 83.4162C174.479 83.0371 174.12 82.6826 173.711 82.3429C172.918 81.6536 172.175 80.9496 171.451 80.2603C170.014 78.8769 168.674 77.5328 167.429 76.2528C166.183 74.9727 165.041 73.7517 163.982 72.6046C162.924 71.4574 162.057 70.3448 161.122 69.4635C160.692 69.0366 160.238 68.6339 159.763 68.2573C159.549 68.0771 159.322 67.9125 159.084 67.7649C158.861 67.6437 158.62 67.5589 158.37 67.5138C157.539 67.3617 156.689 67.3484 155.854 67.4745C155.331 67.5331 154.819 67.664 154.333 67.8634C154.179 67.9489 154.033 68.046 153.895 68.1539Z" fill="#263238"/>
<path d="M159.789 46.9936L160.931 63.2406C161.022 64.518 161.594 65.7134 162.531 66.5859C163.469 67.4584 164.702 67.9431 165.983 67.9424C166.675 67.9425 167.36 67.8005 167.996 67.5252C168.631 67.2499 169.203 66.8471 169.677 66.3417C170.15 65.8364 170.515 65.2393 170.748 64.5873C170.982 63.9353 171.079 63.2424 171.034 62.5513C170.93 61.0054 170.842 59.7401 170.842 59.7401C170.842 59.7401 174.781 59.1296 174.82 55.1959C174.849 52.9262 174.456 47.7764 174.121 43.8279C174.011 42.5381 173.419 41.3369 172.464 40.4631C171.509 39.5892 170.261 39.1067 168.966 39.1114H166.588C165.62 39.1702 164.673 39.4223 163.803 39.8529C162.934 40.2835 162.16 40.8838 161.526 41.6184C160.892 42.353 160.412 43.2071 160.114 44.1303C159.815 45.0535 159.705 46.0271 159.789 46.9936Z" fill="#FFBE9D"/>
<path d="M170.848 59.675C169.033 59.7092 167.25 59.2037 165.723 58.2227C165.723 58.2227 166.934 61.0486 170.858 60.6843L170.848 59.675Z" fill="#EB996E"/>
<path d="M173.24 48.8728C173.241 49.0192 173.185 49.1603 173.084 49.2661C172.983 49.3718 172.844 49.4339 172.698 49.439C172.628 49.4458 172.556 49.4383 172.489 49.4171C172.421 49.3958 172.358 49.3612 172.304 49.3154C172.25 49.2695 172.205 49.2132 172.173 49.1499C172.141 49.0866 172.122 49.0175 172.117 48.9467C172.116 48.7999 172.171 48.6582 172.273 48.5516C172.374 48.4451 172.512 48.382 172.659 48.3756C172.802 48.3647 172.943 48.411 173.052 48.5042C173.161 48.5974 173.228 48.7299 173.24 48.8728Z" fill="#263238"/>
<path d="M173.447 47.7657C173.373 47.8395 172.955 47.5244 172.344 47.5244C171.734 47.5244 171.301 47.8297 171.232 47.7558C171.163 47.682 171.271 47.5884 171.468 47.4506C171.727 47.2683 172.037 47.1719 172.354 47.1749C172.669 47.1741 172.976 47.2742 173.231 47.4604C173.398 47.5983 173.477 47.7312 173.447 47.7657Z" fill="#263238"/>
<path d="M167.568 48.8728C167.571 49.0196 167.515 49.1614 167.414 49.2674C167.312 49.3735 167.173 49.4352 167.026 49.439C166.956 49.4458 166.884 49.4383 166.817 49.4171C166.749 49.3958 166.686 49.3612 166.632 49.3154C166.578 49.2695 166.533 49.2132 166.501 49.1499C166.469 49.0866 166.45 49.0175 166.445 48.9467C166.444 48.7999 166.5 48.6582 166.601 48.5516C166.702 48.4451 166.84 48.382 166.987 48.3756C167.13 48.3647 167.271 48.411 167.38 48.5042C167.489 48.5974 167.557 48.7299 167.568 48.8728Z" fill="#263238"/>
<path d="M167.488 47.879C167.419 47.9528 166.995 47.6377 166.385 47.6377C165.774 47.6377 165.341 47.943 165.277 47.8691C165.213 47.7953 165.312 47.7017 165.509 47.5639C165.768 47.3816 166.078 47.2852 166.395 47.2882C166.709 47.286 167.016 47.3843 167.271 47.5688C167.488 47.7116 167.542 47.8445 167.488 47.879Z" fill="#263238"/>
<path d="M169.699 52.3598C170.018 52.26 170.349 52.2005 170.683 52.1825C170.836 52.1825 170.984 52.1333 171.008 52.0299C171.024 51.8701 170.988 51.7094 170.905 51.572L170.442 50.4003C170.017 49.4059 169.675 48.3784 169.418 47.3281C169.918 48.2866 170.342 49.2825 170.688 50.3067L171.121 51.4883C171.22 51.674 171.25 51.8885 171.205 52.0939C171.183 52.1487 171.148 52.1975 171.103 52.2368C171.059 52.276 171.006 52.3046 170.949 52.3204C170.864 52.3424 170.776 52.354 170.688 52.3548C170.36 52.3981 170.027 52.3997 169.699 52.3598Z" fill="#263238"/>
<path d="M167.92 52.7774C168.018 52.7774 168.018 53.4273 168.579 53.8901C169.141 54.3529 169.84 54.284 169.845 54.3824C169.849 54.4809 169.687 54.5055 169.392 54.5154C169.008 54.5198 168.635 54.389 168.338 54.1461C168.059 53.9094 167.883 53.5743 167.846 53.2107C167.801 52.9596 167.875 52.7725 167.92 52.7774Z" fill="#263238"/>
<path d="M167.658 45.5111C167.599 45.6736 166.998 45.5997 166.289 45.6834C165.58 45.7671 165.004 45.964 164.911 45.8163C164.817 45.6686 164.97 45.5899 165.201 45.4323C165.509 45.2361 165.858 45.1132 166.221 45.073C166.583 45.0329 166.95 45.0767 167.294 45.2009C167.555 45.3043 167.688 45.4323 167.658 45.5111Z" fill="#263238"/>
<path d="M173.219 46.0184C173.115 46.1563 172.697 46.0184 172.199 46.0184C171.702 46.0184 171.274 46.1071 171.175 45.9643C171.077 45.8215 171.2 45.7575 171.387 45.6295C171.634 45.4679 171.925 45.3886 172.219 45.403C172.512 45.4092 172.796 45.5055 173.032 45.6787C173.209 45.8117 173.268 45.9495 173.219 46.0184Z" fill="#263238"/>
<path d="M161.113 49.9464C161.044 49.9169 158.41 49.1439 158.498 51.8321C158.587 54.5202 161.26 53.8802 161.265 53.8014C161.27 53.7226 161.113 49.9464 161.113 49.9464Z" fill="#FFBE9D"/>
<path d="M160.405 52.8125C160.405 52.8125 160.361 52.847 160.282 52.8864C160.17 52.9292 160.045 52.9292 159.933 52.8864C159.757 52.7818 159.611 52.6324 159.512 52.4534C159.412 52.2743 159.362 52.072 159.367 51.8673C159.352 51.6372 159.389 51.4068 159.475 51.1928C159.497 51.1077 159.54 51.0292 159.599 50.9641C159.658 50.8989 159.732 50.849 159.815 50.8186C159.868 50.8034 159.926 50.8074 159.977 50.8299C160.028 50.8523 160.07 50.8918 160.095 50.9417C160.135 51.0155 160.12 51.0697 160.135 51.0746C160.149 51.0795 160.189 51.0254 160.164 50.9171C160.148 50.8495 160.107 50.7901 160.051 50.7497C160.013 50.7232 159.971 50.7043 159.926 50.6942C159.882 50.684 159.835 50.6828 159.79 50.6906C159.677 50.7127 159.572 50.7644 159.485 50.8406C159.399 50.9167 159.334 51.0145 159.298 51.1238C159.19 51.3596 159.142 51.6185 159.16 51.8771C159.153 52.1166 159.218 52.3527 159.346 52.5553C159.474 52.7578 159.659 52.9177 159.879 53.0144C159.951 53.0335 160.027 53.0359 160.1 53.0214C160.173 53.0069 160.242 52.9759 160.302 52.9307C160.405 52.8765 160.415 52.8175 160.405 52.8125Z" fill="#EB996E"/>
<path d="M159.61 49.853C159.866 49.8364 160.121 49.8894 160.349 50.0065C160.577 50.1235 160.769 50.3001 160.905 50.5176C161.077 50.9016 161.117 51.3349 161.289 51.7189C161.364 51.9163 161.499 52.0845 161.677 52.1989C161.854 52.3132 162.063 52.3676 162.274 52.354C162.413 52.3102 162.539 52.2302 162.638 52.1221C162.736 52.014 162.804 51.8817 162.835 51.7386C162.892 51.4525 162.892 51.1581 162.835 50.8721C162.677 49.6166 162.417 48.376 162.367 47.1107C162.262 45.8412 162.538 44.5692 163.16 43.4575C163.475 42.9069 163.934 42.4518 164.487 42.1406C165.04 41.8294 165.667 41.6737 166.301 41.6901C167.138 41.759 167.901 42.1824 168.733 42.3104C169.227 42.3751 169.729 42.3267 170.202 42.1689C170.674 42.0111 171.105 41.7481 171.461 41.3996C171.618 41.2674 171.782 41.1441 171.953 41.0304C171.942 40.7331 171.845 40.4456 171.672 40.2032C170.023 38.677 167.059 38.2339 164.883 38.8001C163.778 39.0724 162.745 39.5821 161.857 40.2937C160.968 41.0053 160.245 41.9018 159.738 42.9209C158.803 44.9592 159.079 47.7901 159.595 49.853" fill="#263238"/>
<path d="M174.166 43.2168C174.166 43.2168 163.857 39.8985 159.396 48.8196C159.052 47.6976 158.828 46.5424 158.727 45.3733C158.727 44.5757 159.219 39.8148 164.103 38.3181C164.103 38.3378 171.483 35.5217 174.166 43.2168Z" fill="#C0009C"/>
<path d="M165.303 43.4385C165.486 43.7346 165.735 43.984 166.031 44.1671C166.327 44.3501 166.662 44.4618 167.009 44.4933C167.355 44.5249 167.705 44.4753 168.029 44.3486C168.353 44.222 168.643 44.0216 168.877 43.7635C168.979 44.0198 169.158 44.2379 169.39 44.3869C169.622 44.536 169.895 44.6085 170.171 44.5944C170.446 44.5803 170.71 44.4802 170.926 44.3082C171.142 44.1362 171.298 43.9009 171.373 43.6355C171.648 43.944 171.983 44.1936 172.358 44.369C172.551 44.4511 172.764 44.4719 172.969 44.4288C173.174 44.3856 173.361 44.2806 173.505 44.1278C173.622 43.9495 173.679 43.7378 173.665 43.5246C173.652 43.3115 173.57 43.1085 173.431 42.9462C173.152 42.6229 172.792 42.3799 172.387 42.2421C171.166 41.7053 169.824 41.5015 168.498 41.6513C167.165 41.8114 165.944 42.4756 165.086 43.5074" fill="#263238"/>
<g opacity="0.4">
<path d="M174.166 43.2169C173.306 42.3174 172.13 41.7877 170.887 41.7399C167.845 41.607 162.153 43.3153 159.396 48.8295C159.052 47.7075 158.828 46.5523 158.727 45.3831C158.727 44.5856 159.219 39.8247 164.103 38.328C164.103 38.3379 171.483 35.5217 174.166 43.2169Z" fill="black"/>
</g>
<path d="M159.824 47.7753C161.388 45.4471 163.437 43.4853 165.831 42.0248C168.204 40.5478 172.123 39.0708 174.821 38.3619C175.621 38.0973 176.469 38.0083 177.307 38.1009C177.724 38.1538 178.119 38.3231 178.444 38.5896C178.77 38.856 179.014 39.2088 179.148 39.6075C179.404 40.6266 177.597 42.1972 176.746 42.8126C175.914 43.3684 175.053 43.8779 174.166 44.3388C174.166 44.3388 174.191 42.4482 171.168 42.0593C167.057 41.5325 159.824 47.7753 159.824 47.7753Z" fill="#C0009C"/>
<g opacity="0.3">
<path d="M156.195 81.2793C157.259 83.8444 158.332 87.0101 159.873 89.3191C161.414 91.6281 163.472 93.6812 166.032 94.7348C169.252 96.0838 173.058 96.3004 176.258 94.9218C176.519 94.8086 177.031 94.6658 176.982 94.3852C176.982 94.3852 175.923 94.2621 175.593 94.208C169.129 93.1347 168.425 92.3469 165.328 89.8853C163.398 88.364 159.12 83.7508 156.195 81.2793Z" fill="black"/>
</g>
<path d="M176.754 99.958C176.688 100.169 176.597 100.37 176.483 100.559C176.196 101.091 175.845 101.587 175.439 102.036C174.069 103.472 172.346 104.523 170.442 105.083C168.545 105.623 166.585 105.916 164.613 105.955C163.86 105.984 163.249 105.989 162.831 105.989C162.612 105.998 162.393 105.988 162.176 105.96C162.389 105.91 162.607 105.886 162.826 105.886L164.603 105.772C166.554 105.682 168.489 105.369 170.368 104.837C172.239 104.28 173.942 103.265 175.321 101.883C175.859 101.288 176.338 100.644 176.754 99.958Z" fill="#263238"/>
<path d="M204.604 161.377C204.583 161.329 204.57 161.277 204.565 161.225C204.565 161.112 204.516 160.959 204.476 160.772C204.403 160.358 204.294 159.787 204.161 159.029C203.89 157.493 203.511 155.302 203.039 152.599C202.118 147.154 200.848 139.656 199.445 131.375C198.819 127.623 198.224 124.039 197.677 120.765L197.805 120.868L183.67 121.887L179.614 122.163L178.53 122.227H178.255H178.156H178.25L178.53 122.193L179.609 122.094L183.661 121.75L197.786 120.622H197.894V120.73C198.445 124.004 199.051 127.589 199.681 131.335C201.055 139.621 202.295 147.124 203.201 152.574C203.634 155.282 203.989 157.498 204.24 159.014L204.506 160.772C204.535 160.959 204.555 161.112 204.57 161.225C204.588 161.274 204.599 161.325 204.604 161.377Z" fill="#455A64"/>
<path d="M201.113 117.229C201.158 117.288 200.296 118.026 199.321 119.021C198.346 120.015 197.618 120.887 197.559 120.837C198.466 119.39 199.68 118.158 201.113 117.229Z" fill="#455A64"/>
<path d="M170.933 62.8905C170.933 62.8905 170.963 62.9447 170.992 63.053C171.041 63.2132 171.073 63.3783 171.086 63.5453C171.143 64.1528 171.063 64.7655 170.85 65.3374C170.531 66.1921 169.966 66.9325 169.225 67.4643C168.3 68.0976 167.187 68.3963 166.069 68.3111C164.956 68.2354 163.89 67.8349 163.002 67.159C162.286 66.6093 161.693 65.9169 161.259 65.1257C160.965 64.5988 160.74 64.0362 160.589 63.4518C160.54 63.245 160.506 63.0825 160.491 62.9594C160.476 62.8363 160.491 62.7871 160.491 62.7871C160.719 63.5637 161.031 64.3131 161.421 65.0223C161.867 65.7729 162.454 66.43 163.15 66.9572C164.01 67.5942 165.035 67.9702 166.104 68.0403C167.165 68.1217 168.224 67.8462 169.112 67.2575C169.82 66.7564 170.371 66.0628 170.697 65.2586C170.92 64.7141 171.026 64.1286 171.007 63.5404C170.973 63.1268 170.933 62.9003 170.933 62.8905Z" fill="#263238"/>
<path d="M177.881 84.3906C177.825 84.2315 177.788 84.0662 177.772 83.8982C177.718 83.5093 177.654 83.0367 177.575 82.4902C177.413 81.2347 177.201 79.6199 176.97 77.8327C176.738 76.0455 176.571 74.3864 176.478 73.1654C176.423 72.5696 176.389 72.0822 176.369 71.7475C176.346 71.5743 176.346 71.3987 176.369 71.2256C176.421 71.3857 176.455 71.5507 176.473 71.7179C176.527 72.1069 176.591 72.5746 176.665 73.126C176.822 74.3814 177.024 75.9963 177.246 77.7835C177.467 79.5706 177.659 81.2298 177.777 82.4459C177.831 83.0465 177.871 83.529 177.895 83.8687C177.911 84.0426 177.906 84.2178 177.881 84.3906Z" fill="#263238"/>
</svg>
