<svg width="8" height="14" viewBox="0 0 8 14" fill="none" xmlns="http://www.w3.org/2000/svg">
<path d="M7.62117 5.66267L2.19101 0.369286C2.07195 0.252272 1.93031 0.159395 1.77424 0.0960134C1.61818 0.0326317 1.45078 0 1.28171 0C1.11265 0 0.945252 0.0326317 0.789187 0.0960134C0.633122 0.159395 0.491475 0.252272 0.372418 0.369286C0.133886 0.603197 0 0.919616 0 1.24944C0 1.57926 0.133886 1.89568 0.372418 2.12959L4.90609 6.54906L0.372418 10.9685C0.133886 11.2025 0 11.5189 0 11.8487C0 12.1785 0.133886 12.4949 0.372418 12.7288C0.492086 12.8445 0.634008 12.9361 0.790045 12.9982C0.946082 13.0603 1.11317 13.0918 1.28171 13.0909C1.45026 13.0918 1.61734 13.0603 1.77338 12.9982C1.92942 12.9361 2.07134 12.8445 2.19101 12.7288L7.62117 7.43546C7.74121 7.3194 7.83649 7.18132 7.90151 7.02918C7.96652 6.87705 8 6.71387 8 6.54906C8 6.38425 7.96652 6.22108 7.90151 6.06894C7.83649 5.91681 7.74121 5.77873 7.62117 5.66267Z" fill="#686868"/>
</svg>
