<svg width="30" height="26" viewBox="0 0 30 26" fill="none" xmlns="http://www.w3.org/2000/svg">
<path d="M13.8263 25.3933L13.2403 25.2645C13.1134 24.981 12.9401 24.707 12.8674 24.4121C12.2214 21.7612 11.6095 19.1068 10.9619 16.458C10.8771 16.1113 10.9642 15.9277 11.2119 15.7008C14.1852 12.9805 17.1485 10.2523 20.1016 7.5161C20.265 7.36527 20.4156 7.20548 20.5807 7.05255C20.4249 7.03778 20.268 7.06478 20.1261 7.13078C16.3681 8.68826 12.6123 10.2503 8.85882 11.817C8.4803 11.9795 8.2328 11.9485 7.91137 11.6948C5.80485 10.0264 3.68004 8.39085 1.57077 6.7182C1.29668 6.50068 1.13641 6.13985 0.921885 5.84697L0.973412 5.61256C1.32364 5.42785 1.6576 5.13267 2.02777 5.0752C8.92242 4.00449 15.8209 2.96657 22.7176 1.91473C24.6578 1.61756 26.5932 1.2923 28.5304 0.98095L29.5852 1.21282L29.3791 2.15044C29.3111 2.21558 29.2484 2.28601 29.1915 2.36107C24.3376 9.76111 19.4819 17.1595 14.6246 24.5564C14.4171 24.8744 14.0949 25.1157 13.8263 25.3933Z" fill="#5B015B"/>
</svg>
