<svg width="18" height="19" viewBox="0 0 18 19" fill="none" xmlns="http://www.w3.org/2000/svg">
<path d="M11.935 1.71489H6.74072L6.7135 1.8027C7.18016 1.95498 7.64035 2.14156 8.11608 2.25131C8.80312 2.41183 9.05589 2.81929 9.05071 3.56286C9.02738 7.31094 9.04034 11.0576 9.04034 14.8126V15.6769H11.9337C11.9337 14.5921 11.9337 13.5056 11.9337 12.4172C11.9337 11.4061 12.1359 11.0453 12.6998 11.0302C13.2935 11.0165 13.5229 11.4088 13.5229 12.4364C13.5229 13.7384 13.5229 15.0431 13.5229 16.3436C13.5229 17.1476 13.2351 17.4535 12.4664 17.4604C11.349 17.47 10.2316 17.4604 9.12849 17.4604C8.8096 19.141 8.78108 19.1643 7.21905 18.8323C5.10998 18.3837 3.00351 17.9172 0.890557 17.4864C0.283892 17.363 -0.00129189 17.0653 4.39877e-06 16.3889C0.0129673 11.2648 4.39866e-06 6.14618 0.0103747 1.02756C0.011671 0.244201 0.237226 0.00685958 0.989075 0C4.85375 0 8.71843 0 12.5831 0C13.252 0 13.5177 0.297706 13.5216 1.00699C13.5294 2.47036 13.5294 3.93374 13.5216 5.39712C13.5216 6.05426 13.2222 6.39724 12.6985 6.37666C12.1177 6.35197 11.9324 5.96509 11.9337 5.41632C11.9376 4.20766 11.935 3.00038 11.935 1.71489Z" fill="white"/>
<path d="M15.0616 9.5403C13.86 9.5403 12.6596 9.5403 11.4592 9.5403C10.7813 9.5403 10.4222 9.24122 10.4222 8.71715C10.4222 8.19308 10.7852 7.87891 11.4592 7.87617C12.6622 7.87617 13.8665 7.87617 15.225 7.87617C14.8931 7.50575 14.6455 7.24234 14.4109 6.96659C14.0674 6.56462 14.0518 6.13109 14.4174 5.75519C14.7596 5.4026 15.1705 5.41358 15.514 5.75519C16.2594 6.51385 16.9905 7.28899 17.7177 8.07098C18.0975 8.48255 18.0872 8.94901 17.7281 9.35098C17.0307 10.1275 16.3147 10.8857 15.5801 11.6256C15.2029 12.0084 14.7479 12.055 14.3772 11.6256C14.0311 11.2291 14.0998 10.7791 14.4537 10.4087C14.6911 10.1796 14.9395 9.96346 15.1977 9.76118L15.0616 9.5403Z" fill="white"/>
</svg>
