<svg width="32" height="26" viewBox="0 0 32 26" fill="none" xmlns="http://www.w3.org/2000/svg">
<path d="M17.7172 13.0499C17.7172 16.8007 17.7172 20.5516 17.7172 24.3024C17.7172 24.9454 17.7049 25.5739 17.0597 25.8842C16.4144 26.1944 15.9529 25.8295 15.4806 25.4019C13.2362 23.3572 10.9702 21.3398 8.72587 19.2934C8.53498 19.1002 8.30867 18.9489 8.06046 18.8486C7.81224 18.7484 7.54718 18.7012 7.28108 18.7099C5.3269 18.7501 3.37118 18.7308 1.41546 18.7228C0.316434 18.7228 0.00308716 18.3852 0 17.2262C0 14.3595 0 11.4928 0 8.62607C0 7.52976 0.33187 7.17932 1.38922 7.16486C3.44682 7.15039 5.50441 7.18093 7.56355 7.14074C7.96008 7.1276 8.34209 6.98222 8.65332 6.72601C10.91 4.73754 13.1297 2.70727 15.371 0.699502C15.5809 0.498976 15.8094 0.320735 16.0533 0.167421C16.201 0.0714228 16.3692 0.0147913 16.5429 0.00252809C16.7166 -0.00973508 16.8906 0.0227476 17.0494 0.0971069C17.2082 0.171466 17.347 0.285414 17.4536 0.428884C17.5601 0.572355 17.631 0.740934 17.6601 0.919729C17.7143 1.26282 17.7344 1.61079 17.7203 1.95817C17.7213 5.65649 17.7203 9.35373 17.7172 13.0499Z" fill="white"/>
<path d="M32 12.4037C31.9028 17.4577 30.6525 21.4523 28.1272 24.9984C27.9933 25.1952 27.8441 25.3802 27.6811 25.5514C27.2041 26.0337 26.653 26.0658 26.1498 25.6559C25.6466 25.246 25.6157 24.6818 25.8998 24.1336C26.1051 23.7382 26.4138 23.4022 26.6716 23.0292C28.6906 20.0187 29.7475 16.4221 29.6921 12.7504C29.6366 9.07866 28.4718 5.51847 26.3628 2.57545C26.2548 2.42435 26.1467 2.27646 26.0433 2.12374C25.5957 1.46306 25.6605 0.762195 26.1977 0.355498C26.704 -0.0254791 27.3986 0.0966908 27.8308 0.664137C29.6574 3.02136 30.9178 5.79822 31.5076 8.76432C31.7839 10.1725 31.8966 11.6144 32 12.4037Z" fill="white"/>
<path d="M27.6934 12.333C27.6934 16.2488 26.8151 19.1584 25.1156 21.8027C25.0446 21.9136 24.9705 22.023 24.8933 22.1242C24.3732 22.8283 23.7465 22.9826 23.1723 22.5502C22.6397 22.1467 22.5672 21.4844 23.0318 20.782C23.9579 19.3577 24.685 17.8386 25.057 16.1492C25.8828 12.3908 25.3024 8.89131 23.2803 5.65702C23.2664 5.63452 23.2479 5.61362 23.234 5.59272C22.5656 4.5591 22.5687 3.89521 23.234 3.43707C23.8993 2.97893 24.4982 3.25864 25.1527 4.29869C26.8336 6.9607 27.7119 9.87027 27.6934 12.333Z" fill="white"/>
<path d="M23.2 13.1496C23.1687 15.1 22.6236 17.0039 21.624 18.6536C21.2134 19.3304 20.5682 19.5345 19.9878 19.1954C19.4075 18.8562 19.2778 18.1328 19.6699 17.4384C21.3477 14.4758 21.3308 11.5244 19.6513 8.5682C19.284 7.9252 19.4322 7.20987 19.9601 6.86425C20.508 6.50257 21.2165 6.69064 21.6148 7.3465C22.6598 9.08568 23.2095 11.098 23.2 13.1496Z" fill="white"/>
</svg>
