<svg width="124" height="124" viewBox="0 0 124 124" fill="none" xmlns="http://www.w3.org/2000/svg">
<path d="M0.00132924 61.9199C-0.0521493 53.7838 1.50855 45.718 4.59305 38.1894C7.67755 30.6608 12.2246 23.819 17.9708 18.0602C23.7171 12.3013 30.5485 7.7399 38.0693 4.63995C45.5902 1.54 53.6512 -0.036867 61.7856 0.000654187C69.9199 0.0381754 77.966 1.68934 85.458 4.85854C92.95 8.02774 99.739 12.652 105.432 18.4636C111.125 24.2752 115.609 31.1586 118.624 38.7154C121.638 46.2721 123.125 54.352 122.996 62.4872C122.897 96.2122 95.0858 123.66 61.2152 123.597C27.4796 123.525 0.00132924 95.789 0.00132924 61.9199Z" fill="#27AE60"/>
<path d="M35.5999 53.4457C37.9678 53.3016 39.9755 54.4813 41.7312 56.2464C44.5853 59.1281 47.6104 61.8297 50.2664 64.8555C52.0671 66.9357 53.1204 66.9267 55.0742 64.9185C63.6364 56.1203 72.3606 47.4752 81.0939 38.803C83.6688 36.2545 86.676 34.8587 90.4394 36.1825C92.0291 36.6516 93.446 37.5777 94.5137 38.8458C95.5814 40.1139 96.2529 41.6679 96.4446 43.3147C96.6704 44.7202 96.5416 46.1598 96.0699 47.5028C95.5982 48.8459 94.7986 50.0498 93.7436 51.0052C82.1923 62.5861 70.686 74.167 59.0717 85.6308C55.1732 89.4851 50.6355 89.6471 46.665 85.9099C40.5698 80.1555 34.6906 74.203 28.8654 68.1334C27.5518 66.8709 26.6941 65.2081 26.4269 63.4056C26.1597 61.6032 26.498 59.763 27.3888 58.1735C28.9644 54.9586 31.7105 53.3196 35.5999 53.4457Z" fill="white"/>
</svg>