<svg width="50" height="49" viewBox="0 0 50 49" fill="none" xmlns="http://www.w3.org/2000/svg">
<path d="M24.9551 48.9562C19.177 48.9562 13.3899 48.846 7.62097 48.9975C3.91333 49.094 0.137659 46.3523 0.0333459 41.4911C-0.0256135 38.4716 0.00613387 35.4497 0.0333459 32.4279C0.0446843 30.8205 0.713647 30.166 2.3373 30.1477C3.16727 30.1477 3.9995 30.1477 4.83174 30.1477C6.48714 30.1638 7.14023 30.8366 7.15837 32.5289C7.17198 34.0972 7.15837 35.6633 7.15837 37.2316C7.18558 40.0789 8.60741 41.5325 11.4148 41.5348C20.4855 41.547 29.5494 41.547 38.6064 41.5348C41.407 41.5348 42.8493 40.0697 42.8787 37.2408C42.8969 35.6724 42.8787 34.1041 42.8787 32.5358C42.8946 30.8205 43.5364 30.1638 45.1918 30.1477C46.1374 30.1477 47.083 30.1155 48.0241 30.1477C49.2282 30.1959 49.9788 30.8549 49.9811 32.0696C49.9811 35.6219 50.0831 39.188 49.8133 42.7242C49.5434 46.2604 46.3845 48.9241 42.8538 48.9447C36.8898 48.9677 30.9236 48.9562 24.9551 48.9562Z" fill="#BBBEC5"/>
<path d="M21.4923 13.0085L14.5124 20.3335C14.0589 20.8295 13.5918 21.3393 13.0997 21.8146C12.2992 22.577 11.2855 22.5907 10.4782 21.8146C9.6392 20.9903 8.82964 20.1292 8.04503 19.2497C7.13796 18.2256 7.13796 17.2405 8.08358 16.2095C10.7549 13.3346 13.4489 10.4918 16.1406 7.6445C18.152 5.51129 20.1635 3.38497 22.1976 1.27932C23.8303 -0.415308 26.1977 -0.433678 27.8214 1.26784C32.4973 6.16649 37.1582 11.0774 41.8039 16.0005C42.9921 17.2589 42.9604 18.182 41.7676 19.4747C41.2521 20.035 40.7312 20.59 40.2051 21.1395C38.5724 22.8502 37.908 22.8571 36.3116 21.1763C34.0847 18.8326 31.8601 16.4858 29.6378 14.136C29.3686 13.8183 29.1173 13.4856 28.8849 13.1394L28.5402 13.2979V14.4781C28.5402 20.1789 28.5402 25.8813 28.5402 31.5851C28.5402 33.2683 27.9733 33.8699 26.3293 33.9043C25.3474 33.9273 24.3632 33.9411 23.3813 33.8906C22.0842 33.8263 21.4969 33.1741 21.4969 31.8377C21.4878 25.944 21.4878 20.0503 21.4969 14.1566L21.4923 13.0085Z" fill="#BBBEC5"/>
</svg>
