<svg width="44" height="44" viewBox="0 0 44 44" fill="none" xmlns="http://www.w3.org/2000/svg">
<circle cx="22" cy="22" r="21" fill="url(#paint0_linear_0_1)" stroke="#F1F3F6" stroke-width="2"/>
<path d="M21.9822 29.985C19.9025 29.985 17.8195 29.9467 15.7431 29.9993C14.4085 30.0328 13.0495 29.0816 13.012 27.395C12.9908 26.3474 13.0022 25.299 13.012 24.2506C13.0161 23.6929 13.2569 23.4659 13.8413 23.4595C14.14 23.4595 14.4396 23.4595 14.7391 23.4595C15.335 23.4651 15.57 23.6985 15.5766 24.2856C15.5814 24.8298 15.5766 25.3731 15.5766 25.9172C15.5863 26.9051 16.0981 27.4094 17.1086 27.4102C20.3734 27.4144 23.6359 27.4144 26.8958 27.4102C27.9039 27.4102 28.423 26.9019 28.4336 25.9204C28.4401 25.3763 28.4336 24.8322 28.4336 24.288C28.4393 23.6929 28.6703 23.4651 29.2661 23.4595C29.6065 23.4595 29.9468 23.4483 30.2856 23.4595C30.719 23.4762 30.9891 23.7049 30.99 24.1263C30.99 25.3587 31.0267 26.596 30.9296 27.8228C30.8324 29.0497 29.6954 29.9738 28.4246 29.981C26.278 29.989 24.1305 29.985 21.9822 29.985Z" fill="white"/>
<path d="M20.7358 17.5132L18.2235 20.0546C18.0603 20.2266 17.8922 20.4035 17.715 20.5684C17.4269 20.8329 17.0621 20.8377 16.7715 20.5684C16.4695 20.2824 16.1781 19.9837 15.8957 19.6785C15.5692 19.3232 15.5692 18.9815 15.9096 18.6238C16.8711 17.6263 17.8407 16.6401 18.8096 15.6522C19.5336 14.9121 20.2575 14.1744 20.9897 13.4438C21.5774 12.8559 22.4295 12.8495 23.0139 13.4399C24.6969 15.1394 26.3745 16.8432 28.0467 18.5513C28.4744 18.9878 28.463 19.3081 28.0336 19.7566C27.8481 19.951 27.6606 20.1435 27.4713 20.3342C26.8836 20.9277 26.6444 20.9301 26.0698 20.3469C25.2683 19.5338 24.4676 18.7196 23.6677 17.9044C23.5708 17.7941 23.4804 17.6787 23.3967 17.5586L23.2726 17.6136V18.0231C23.2726 20.0009 23.2726 21.9793 23.2726 23.9582C23.2726 24.5422 23.0686 24.7509 22.4768 24.7628C22.1234 24.7708 21.7692 24.7756 21.4158 24.7581C20.9489 24.7358 20.7375 24.5095 20.7375 24.0458C20.7342 22.0011 20.7342 19.9563 20.7375 17.9115L20.7358 17.5132Z" fill="white"/>
<defs>
<linearGradient id="paint0_linear_0_1" x1="-9.67797" y1="-6.875" x2="27.077" y2="51.266" gradientUnits="userSpaceOnUse">
<stop stop-color="#E200B2"/>
<stop offset="1" stop-color="#5B015B"/>
</linearGradient>
</defs>
</svg>
