<svg width="16" height="17" viewBox="0 0 16 17" fill="none" xmlns="http://www.w3.org/2000/svg">
<path opacity="0.5" d="M10.9707 8.61473C11.7589 7.99461 12.3342 7.14424 12.6166 6.18193C12.899 5.21961 12.8744 4.19321 12.5463 3.24552C12.2182 2.29782 11.6028 1.47596 10.7859 0.894275C9.96892 0.312588 8.99097 0 7.98808 0C6.98519 0 6.00723 0.312588 5.19027 0.894275C4.37331 1.47596 3.75797 2.29782 3.42985 3.24552C3.10173 4.19321 3.07716 5.21961 3.35954 6.18193C3.64193 7.14424 4.21723 7.99461 5.00542 8.61473C3.65485 9.15582 2.47642 10.0533 1.59578 11.2114C0.715138 12.3696 0.165288 13.745 0.0048493 15.191C-0.00676409 15.2966 0.00253114 15.4034 0.0322041 15.5054C0.061877 15.6074 0.111346 15.7026 0.177788 15.7854C0.311973 15.9528 0.507144 16.06 0.720365 16.0834C0.933586 16.1069 1.14739 16.0447 1.31475 15.9105C1.4821 15.7763 1.5893 15.5811 1.61275 15.3679C1.78929 13.7963 2.53865 12.3449 3.71767 11.2909C4.89669 10.2369 6.4227 9.65426 8.00416 9.65426C9.58561 9.65426 11.1116 10.2369 12.2906 11.2909C13.4697 12.3449 14.219 13.7963 14.3956 15.3679C14.4174 15.5655 14.5117 15.7479 14.6601 15.88C14.8086 16.0122 15.0008 16.0846 15.1995 16.0834H15.2879C15.4987 16.0592 15.6913 15.9526 15.8238 15.787C15.9563 15.6213 16.018 15.41 15.9954 15.1991C15.8342 13.7489 15.2814 12.37 14.3962 11.21C13.5111 10.0501 12.3269 9.15296 10.9707 8.61473ZM7.98808 8.04392C7.35205 8.04392 6.73031 7.85532 6.20147 7.50196C5.67264 7.1486 5.26046 6.64637 5.01706 6.05875C4.77367 5.47114 4.70998 4.82455 4.83406 4.20075C4.95815 3.57694 5.26442 3.00394 5.71416 2.55421C6.1639 2.10447 6.7369 1.79819 7.3607 1.67411C7.98451 1.55003 8.6311 1.61371 9.21871 1.85711C9.80632 2.1005 10.3086 2.51268 10.6619 3.04152C11.0153 3.57035 11.2039 4.1921 11.2039 4.82812C11.2039 5.681 10.8651 6.49896 10.262 7.10204C9.65891 7.70512 8.84096 8.04392 7.98808 8.04392Z" fill="#50555C"/>
</svg>
