<svg width="35" height="23" viewBox="0 0 35 23" fill="none" xmlns="http://www.w3.org/2000/svg">
<path d="M32.8509 0H2.14905C0.962163 0 0 0.962163 0 2.14905V20.2273C0 21.4142 0.962163 22.3764 2.14905 22.3764H32.8509C34.0378 22.3764 35 21.4142 35 20.2273V2.14905C35 0.962163 34.0378 0 32.8509 0Z" fill="url(#paint0_linear_0_1)"/>
<path fill-rule="evenodd" clip-rule="evenodd" d="M2.14915 22.3764H13.3784L22.1304 0H2.15735C0.976194 0 0.00830078 0.967893 0.00830078 2.14905V20.2273C0.00830078 21.4085 0.976194 22.3764 2.15735 22.3764H2.14915Z" fill="url(#paint1_linear_0_1)"/>
<path fill-rule="evenodd" clip-rule="evenodd" d="M4.48672 4.56057C4.4457 4.50315 4.40469 4.40473 4.37188 4.33911C4.25705 4.10944 3.96996 3.74853 3.78951 3.60088C3.63366 3.46964 3.40399 3.28098 3.21533 3.20716C3.22353 3.25638 3.24814 3.3302 3.26455 3.37941L4.03558 6.16006H5.02808L6.12721 3.60908C6.17643 3.49425 6.46352 2.85446 6.48812 2.75603H5.49562L4.60975 5.01991C4.59335 5.04452 4.60155 5.03632 4.58515 5.05272C4.57694 4.9953 4.49492 4.60158 4.47851 4.56877L4.48672 4.56057ZM12.3119 3.70751C12.3119 3.79774 12.4103 4.20787 12.4349 4.3309C12.4841 4.52776 12.5252 4.74103 12.5744 4.94609H11.8279L12.3119 3.70751ZM10.4171 6.17646C11.4998 6.17646 11.3112 6.25849 11.4424 5.93039C11.4752 5.84016 11.508 5.73353 11.5491 5.6515H12.7302C12.7384 5.74173 12.7712 5.83196 12.7876 5.92218C12.8122 6.03702 12.8204 6.16826 12.8861 6.16826C13.8129 6.16826 13.7227 6.22568 13.6735 5.9878C13.6571 5.90578 13.6489 5.85656 13.6243 5.77454C13.5915 5.6269 13.5587 5.48745 13.5259 5.34801L13.1403 3.60908C13.0829 3.322 13.0173 3.02671 12.9517 2.73962C12.7138 2.73962 12.0822 2.69041 11.9018 2.82165C11.7295 2.95289 11.5901 3.35481 11.508 3.55167C11.426 3.73212 11.3522 3.89617 11.2702 4.08483C11.1963 4.26528 11.1225 4.42933 11.0405 4.60158C10.86 4.9953 10.573 5.71712 10.3925 6.06163C10.3679 6.11084 10.3269 6.16006 10.4089 6.16006L10.4171 6.17646ZM8.16963 3.77313V3.87977C8.16963 4.27349 8.62077 4.59338 8.91606 4.71642C8.98988 4.74923 9.0637 4.78204 9.13752 4.82305C9.94137 5.25778 9.10471 5.74173 8.13682 5.35621C8.08761 5.33161 7.96457 5.27419 7.90715 5.27419C7.89895 5.38082 7.86614 5.52847 7.84153 5.6433L7.78411 6.02061C7.78411 6.11084 8.53054 6.20927 8.70279 6.20927C9.20314 6.20927 9.58046 6.17646 9.96598 5.91398C10.4827 5.56128 10.7206 4.74923 9.90856 4.25708C9.61327 4.07663 9.13752 3.95359 9.13752 3.69111C9.13752 3.3466 9.99058 3.3466 10.4417 3.58448C10.4499 3.44503 10.5648 2.9939 10.5648 2.83805C10.3105 2.71501 9.93317 2.69861 9.62147 2.69861C8.95707 2.69861 8.16143 3.10053 8.16143 3.77313H8.16963ZM6.27486 6.15185H7.21814L7.7185 3.17435C7.7267 3.10053 7.7431 3.03491 7.75131 2.96929C7.76771 2.89547 7.78411 2.82985 7.78411 2.73962H6.84903C6.84903 2.85446 6.3979 5.38902 6.34868 5.71712L6.27486 6.15185Z" fill="#FEFEFE"/>
<path fill-rule="evenodd" clip-rule="evenodd" d="M24.7797 16.8807L24.8289 16.6674C25.0996 16.6018 25.5015 16.569 25.6 16.8233C25.6328 16.9217 25.5097 17.5287 25.5015 17.7173H25.2391C25.2309 17.6599 25.2473 17.6517 25.2309 17.6107C25.1652 17.6517 25.0504 17.7829 24.8289 17.7337C24.5255 17.6681 24.5419 17.217 24.8536 17.0857C24.993 17.0283 25.1817 17.0283 25.3457 17.0283C25.3375 16.774 25.0094 16.8561 24.7797 16.8971V16.8807ZM25.6246 17.4712C25.723 17.4959 26.1659 17.5779 26.1167 17.381C26.0921 17.2662 25.8132 17.258 25.7394 17.1103C25.6492 16.9381 25.7558 16.7412 25.8789 16.6756C26.0265 16.6018 26.2808 16.6346 26.4612 16.6428L26.412 16.8643C26.2562 16.8561 26.0757 16.7986 26.0183 16.9299C25.9937 17.1021 26.5515 17.0611 26.3792 17.5205C26.3218 17.6681 26.2398 17.7009 26.0675 17.7173C25.8789 17.7419 25.7804 17.7255 25.6082 17.7009L25.6246 17.4712ZM24.4762 17.7173H24.1891C24.222 17.5369 24.2548 17.3646 24.2876 17.1842C24.3122 17.0447 24.3696 16.7576 24.3696 16.6346L23.9103 17.7173H23.656L23.5822 16.6428C23.533 16.7248 23.4017 17.5451 23.3771 17.7091L23.1146 17.7173C23.1884 17.2744 23.3115 16.8397 23.3607 16.3885C23.4509 16.3639 23.7216 16.3803 23.8282 16.3803L23.8446 17.2416C23.9103 17.1924 24.0005 16.9053 24.0415 16.8233C24.0989 16.692 24.1809 16.5116 24.222 16.3803H24.7059C24.6321 16.8068 24.509 17.2744 24.4762 17.7173ZM27.8146 19.2266C27.8557 19.1446 27.9131 19.161 27.9459 19.0789C27.8803 19.0789 27.7162 19.0871 27.6752 19.0707C27.626 19.0543 27.5604 18.9641 27.5358 18.9231H27.9951C28.1181 18.9231 28.0935 18.9313 28.1509 18.8575C28.192 18.8001 28.2248 18.7836 28.2494 18.7262H27.3553L27.2733 18.5786L28.3642 18.5704C28.397 18.5048 28.4544 18.4473 28.4708 18.3653H27.1584L27.0846 18.2095H28.5693L28.6513 18.0126H27.0272C26.978 17.988 26.9698 17.906 26.9534 17.8568L28.7087 17.8486L28.7661 17.6517H28.2986L28.2822 17.7009C28.2248 17.7419 28.0525 17.7173 27.9705 17.7173C28.0197 17.3646 28.1181 17.0365 28.1592 16.6346H28.4298L28.4134 16.7904C28.5119 16.7412 28.4544 16.6428 28.7497 16.6346L28.6431 16.9299C28.4708 16.9299 28.4216 16.9791 28.3806 17.1349H28.6841L28.7087 17.0611C28.7333 16.8807 28.7579 16.8397 28.8154 16.692L28.8071 16.569C28.7251 16.5526 27.0108 16.5526 26.9042 16.569L26.896 16.6264L27.06 16.6346C27.0518 16.8807 27.0272 16.8725 26.9698 16.8807H26.8468L26.8057 17.1185L27.019 17.1267C27.1913 16.4213 27.8064 16.5854 27.9377 16.815C27.9869 16.9053 27.9951 17.0529 27.9705 17.1596C27.9377 17.3154 27.9705 17.2662 27.2897 17.2662C27.2569 17.4138 27.3799 17.4877 27.4948 17.5041C27.667 17.5369 27.7654 17.4712 27.9049 17.4384L27.8639 17.6845C27.7162 17.7501 27.4619 17.7583 27.3061 17.7091C27.1256 17.6517 27.06 17.5451 27.0026 17.3646C26.9944 17.3482 26.9944 17.3564 26.9862 17.3154V17.2826H26.7729C26.7483 17.3646 26.7483 17.422 26.7811 17.4795L26.9534 17.4877L26.896 17.7091C26.8057 17.7665 26.5679 17.7583 26.494 17.6763C26.3874 17.5615 26.5269 17.0201 26.5679 16.8233C26.5925 16.7002 26.6171 16.5034 26.6417 16.3885H26.8714C26.9452 16.3967 26.9042 16.3721 26.9206 16.4131H28.7661C28.7661 16.3557 28.7333 16.2573 28.7169 16.2081H26.9124C26.9206 16.1506 26.9288 16.0768 26.978 16.0522H28.6677L28.6103 15.8554H27.0354L27.0928 15.6995H28.5283L28.4298 15.5027H27.1913C27.2077 15.4534 27.2569 15.3632 27.3061 15.3386H28.3232C28.2822 15.273 28.2248 15.1992 28.1838 15.1417H27.4291C27.4619 15.0843 27.503 15.0269 27.544 14.9859H27.9951C27.9377 14.8793 27.8228 14.8136 27.7736 14.7316C27.7326 14.7234 27.5112 14.5348 27.4619 14.5019C27.1584 14.3051 26.8796 14.1821 26.5269 14.0918C25.6246 13.8622 24.6895 14.0344 23.9759 14.625C23.5986 14.9367 23.3279 15.232 23.1064 15.6831C23.0408 15.8143 22.9998 15.921 22.9424 16.0604C22.7209 16.6264 22.7537 17.3892 22.9424 17.9388C22.967 18.0126 22.9916 18.07 23.0162 18.1356C23.0572 18.2505 23.2377 18.5786 23.3115 18.677C23.5083 18.9477 23.6888 19.1692 23.9677 19.3742C24.304 19.6285 24.4926 19.7105 24.87 19.8582C24.9356 19.8828 25.0094 19.8992 25.075 19.9156C25.7148 20.0796 26.5515 20.0058 27.1256 19.6941C27.1913 19.6613 27.2323 19.6367 27.2979 19.6039C27.3553 19.5711 27.4045 19.5383 27.4701 19.4973C27.5686 19.4398 27.6916 19.325 27.79 19.2594L27.8146 19.2266Z" fill="#E63D24"/>
<path fill-rule="evenodd" clip-rule="evenodd" d="M32.6952 17.5533C32.7772 17.6189 32.6623 17.783 32.5639 17.7337L32.5147 17.7009V17.6845L32.5229 17.5369C32.4737 17.5861 32.4901 17.6353 32.4737 17.6107L32.4573 17.6271C32.4737 17.4138 32.6869 17.4631 32.6869 17.5533H32.6952ZM29.9063 20.0222H29.7997C29.6274 20.0222 29.4552 20.0058 29.2911 19.973C28.9548 19.9156 28.5529 19.7598 28.2822 19.5793C28.2166 19.5383 28.1674 19.5137 28.11 19.4727C28.0361 19.4153 27.8639 19.3004 27.8065 19.2266C27.8475 19.1446 27.9049 19.161 27.9377 19.0789C27.8721 19.0789 27.708 19.0872 27.667 19.0707C27.6178 19.0543 27.5522 18.9641 27.5276 18.9231H27.9869C28.11 18.9231 28.0854 18.9313 28.1428 18.8575C28.1838 18.8001 28.2166 18.7837 28.2412 18.7262H27.3471L27.2651 18.5786L28.356 18.5704C28.3888 18.5048 28.4463 18.4474 28.4627 18.3653H27.1503L27.0765 18.2095H28.5611L28.6431 18.0126H27.019C26.9698 17.988 26.9616 17.906 26.9452 17.8568L28.7005 17.8486L28.758 17.6517H28.2904L28.274 17.7009L28.315 17.4631C28.3478 17.4877 28.3068 17.4713 28.356 17.4877H28.7826C28.8728 17.6845 29.2747 17.824 29.5454 17.6927C29.5618 17.5533 29.5864 17.5205 29.6028 17.422C29.4306 17.4549 29.3239 17.5369 29.1353 17.4302C29.0122 17.3564 28.963 17.2006 29.004 17.0283C29.0697 16.7576 29.2009 16.6264 29.4716 16.651C29.5946 16.6592 29.6192 16.692 29.7177 16.7084L29.7505 16.4624C29.6028 16.3475 29.2255 16.3311 28.9712 16.528C28.8728 16.6018 28.881 16.6428 28.8072 16.7166L28.799 16.5936C28.7169 16.5772 27.0026 16.5772 26.896 16.5936L26.9288 16.4295H28.7744C28.7744 16.3721 28.7416 16.2737 28.7251 16.2245H26.9206C26.9288 16.1671 26.937 16.0932 26.9862 16.0686H28.6759L28.6185 15.8718H27.0436L27.1011 15.7159H28.5365L28.4381 15.5191H27.1995C27.2159 15.4699 27.2651 15.3796 27.3143 15.355H28.3314C28.2904 15.2894 28.233 15.2156 28.192 15.1582H27.4374C27.4702 15.1007 27.5112 15.0433 27.5522 15.0023H28.0033C27.9459 14.8957 27.8311 14.8301 27.7819 14.748L28.0936 14.502C28.151 14.4609 28.2002 14.4281 28.2658 14.3953C28.4545 14.2723 28.6185 14.1985 28.8318 14.1246C29.1927 13.9934 29.6848 13.9114 30.054 13.9524C30.6937 14.018 31.3663 14.2641 31.8339 14.6988C32.0964 14.9449 32.285 15.1582 32.4655 15.4617C32.7362 15.9128 32.892 16.4295 32.892 16.9955C32.892 17.5205 32.81 17.7583 32.6623 18.1685C32.6213 18.2915 32.4491 18.595 32.3671 18.7098C32.1784 18.9805 31.9405 19.2348 31.6862 19.4235C31.3581 19.6695 31.1613 19.768 30.7676 19.9074L30.4313 19.9976C30.3903 20.0058 30.341 20.0058 30.3164 20.014C30.177 20.0386 30.0375 20.0468 29.8981 20.055L29.9063 20.0222ZM30.5625 17.5697L30.5543 17.7173L30.2836 17.7091L30.2754 17.6189C30.2098 17.6599 30.2016 17.6927 30.095 17.7173C29.5454 17.865 29.447 17.1021 30.1196 17.0529H30.3082L30.3656 17.0283C30.4313 16.7658 29.9719 16.8807 29.8243 16.8971C29.8653 16.6838 29.8407 16.6018 30.3082 16.6264C30.8742 16.6592 30.5543 17.299 30.5543 17.5779L30.5625 17.5697ZM30.6527 17.7091C30.7102 17.3564 30.8168 16.9955 30.8496 16.6264H31.1203L31.1121 16.7823C31.1859 16.733 31.2351 16.6182 31.4484 16.6264C31.4156 16.7412 31.3746 16.7576 31.3499 16.9217C31.1121 16.9299 31.0957 16.9873 31.0465 17.217C31.0136 17.381 30.989 17.5287 30.9644 17.7091H30.6527ZM32.1538 16.7576C32.1948 16.692 32.2194 16.4624 32.2276 16.3721H32.5393C32.4819 16.733 32.326 17.3564 32.3014 17.7091H32.0061L32.0143 17.5943L32.0061 17.6025L31.9159 17.6681C31.6534 17.8076 31.3335 17.6763 31.3335 17.2744C31.3335 16.7002 31.8093 16.5362 32.0472 16.6756C32.0964 16.7084 32.1046 16.733 32.1538 16.7658V16.7576Z" fill="#EF7F1A"/>
<path fill-rule="evenodd" clip-rule="evenodd" d="M31.6288 17.217V17.2334C31.6288 17.6107 32.0881 17.5451 32.0881 17.0693C32.0881 16.733 31.6288 16.8232 31.6288 17.217Z" fill="#EF7F1A"/>
<defs>
<linearGradient id="paint0_linear_0_1" x1="17.4997" y1="22.3756" x2="17.4997" y2="-0.0025423" gradientUnits="userSpaceOnUse">
<stop stop-color="#E5097F"/>
<stop offset="1" stop-color="#96336D"/>
</linearGradient>
<linearGradient id="paint1_linear_0_1" x1="8.87141" y1="-0.59345" x2="13.2547" y2="22.9665" gradientUnits="userSpaceOnUse">
<stop stop-color="#E8388C"/>
<stop offset="1" stop-color="#97326D"/>
</linearGradient>
</defs>
</svg>
