<svg width="25" height="19" viewBox="0 0 25 19" fill="none" xmlns="http://www.w3.org/2000/svg">
<path d="M24.9993 1.54038V17.8363C24.7742 18.2577 24.4233 18.3769 23.9796 18.3769C19.2151 18.3679 14.4507 18.3653 9.68623 18.369C9.53369 18.369 9.38009 18.3488 9.19876 18.3364C9.19876 17.8947 9.19876 17.5025 9.19876 17.1103C9.19876 16.4539 8.92463 16.073 8.47023 16.0775C8.01583 16.082 7.76516 16.4427 7.75983 17.1283C7.75983 17.5295 7.75983 17.9318 7.75983 18.3645C5.68943 18.3645 3.71929 18.3836 1.75023 18.3409C1.49529 18.3409 1.24676 18.0105 0.996094 17.8329V11.8765C1.08184 11.7039 1.21073 11.5592 1.36884 11.4582C1.52695 11.3572 1.70825 11.3036 1.89316 11.3033C2.65476 11.2572 3.23609 10.5323 3.24356 9.71306C3.25423 8.86679 2.67823 8.12055 1.89636 8.0711C1.71145 8.07078 1.53015 8.01722 1.37204 7.9162C1.21393 7.81518 1.08504 7.67055 0.999294 7.49794V1.5415C1.22436 1.11781 1.57423 0.999801 2.01903 0.999801C3.76089 1.01441 5.50276 1.00542 7.24569 1.00654C7.40036 1.00654 7.55503 1.02565 7.68943 1.03352C7.71489 1.08014 7.7346 1.12999 7.74809 1.18187C7.7552 1.51827 7.76054 1.85543 7.76409 2.19334C7.76943 2.92946 8.00516 3.29696 8.47449 3.30033C8.94383 3.30371 9.20196 2.91822 9.20409 2.21132C9.20409 1.82471 9.20409 1.43923 9.20409 1.04251C9.34063 1.02453 9.40889 1.00879 9.47716 1.00879C14.3497 1.0028 19.2194 0.999801 24.0862 0.999801C24.2716 0.988344 24.4561 1.03319 24.618 1.12902C24.7799 1.22485 24.9122 1.36762 24.9993 1.54038ZM14.1076 12.9127C14.3678 12.7419 14.5854 12.6497 14.739 12.489C16.1748 10.9883 17.6069 9.48117 19.0356 7.96771C19.4249 7.55413 19.4537 7.11021 19.1422 6.78654C18.8308 6.46287 18.4254 6.50557 18.0265 6.92252C17.0665 7.92276 16.115 8.93085 15.1604 9.93558C14.658 10.4649 14.1257 10.9673 13.667 11.5382C13.5081 11.7371 13.4537 12.1316 13.5177 12.389C13.5742 12.589 13.8814 12.7205 14.1076 12.9127ZM9.21263 7.22596H9.19663C9.21159 7.05926 9.21159 6.89143 9.19663 6.72472C9.11876 6.32126 8.90223 6.03805 8.48196 6.04254C8.06169 6.04704 7.82596 6.31564 7.78223 6.73147C7.75023 7.04278 7.69903 7.40016 7.80889 7.66652C7.93662 7.94885 8.16398 8.16743 8.44249 8.27565C8.81369 8.38803 9.06863 8.09808 9.17316 7.72046C9.20235 7.55749 9.21558 7.39179 9.21263 7.22596ZM9.21263 12.2035H9.20089C9.20089 12.0911 9.20836 11.9788 9.20089 11.8664C9.16356 11.4011 8.96089 11.0797 8.48196 11.0797C8.00303 11.0797 7.79503 11.4056 7.76943 11.8664C7.75556 12.144 7.70009 12.4654 7.80783 12.6913C7.93263 12.9509 8.18543 13.233 8.43823 13.3116C8.80623 13.424 9.06223 13.1228 9.16996 12.7497C9.20322 12.5699 9.21753 12.3867 9.21263 12.2035ZM18.6505 11.3213C18.5583 11.321 18.4669 11.34 18.3817 11.3773C18.2965 11.4145 18.2192 11.4693 18.1543 11.5383C18.0894 11.6073 18.0381 11.6893 18.0036 11.7793C17.969 11.8694 17.9518 11.9659 17.9529 12.063C17.9484 12.1602 17.9631 12.2574 17.9961 12.3483C18.0291 12.4392 18.0796 12.5219 18.1444 12.5912C18.2093 12.6605 18.2871 12.7149 18.3729 12.7508C18.4587 12.7868 18.5507 12.8037 18.643 12.8003C18.7355 12.8043 18.8277 12.7883 18.914 12.7532C19.0003 12.7182 19.0789 12.6648 19.1448 12.5964C19.2107 12.528 19.2625 12.446 19.2972 12.3557C19.3318 12.2653 19.3484 12.1683 19.346 12.0709C19.3477 11.8748 19.2758 11.686 19.1459 11.5456C19.016 11.4052 18.8387 11.3246 18.6526 11.3213H18.6505ZM14.147 6.57975C14.0546 6.57599 13.9623 6.59147 13.8755 6.62531C13.7887 6.65915 13.7091 6.71069 13.6413 6.77697C13.5734 6.84325 13.5186 6.92298 13.48 7.01159C13.4414 7.10021 13.4198 7.19597 13.4164 7.2934C13.4216 7.49019 13.4968 7.67775 13.6269 7.81903C13.7571 7.96031 13.9328 8.04504 14.1193 8.05649C14.3052 8.04904 14.4822 7.97096 14.6177 7.83669C14.7532 7.70241 14.8379 7.521 14.8564 7.32599C14.8536 7.12878 14.7779 6.94049 14.6455 6.80114C14.513 6.66178 14.3342 6.58236 14.147 6.57975Z" fill="#242346"/>
</svg>
