<svg width="30" height="23" viewBox="0 0 30 23" fill="none" xmlns="http://www.w3.org/2000/svg">
<path opacity="0.8" d="M7.5 15.2542H12C12.3978 15.2542 12.7794 15.0935 13.0607 14.8075C13.342 14.5214 13.5 14.1334 13.5 13.7288C13.5 13.3242 13.342 12.9362 13.0607 12.6502C12.7794 12.3641 12.3978 12.2034 12 12.2034H7.5C7.10218 12.2034 6.72064 12.3641 6.43934 12.6502C6.15804 12.9362 6 13.3242 6 13.7288C6 14.1334 6.15804 14.5214 6.43934 14.8075C6.72064 15.0935 7.10218 15.2542 7.5 15.2542ZM25.5 0H4.5C3.30653 0 2.16193 0.482142 1.31802 1.34036C0.474106 2.19858 0 3.36257 0 4.57627V18.3051C0 19.5188 0.474106 20.6828 1.31802 21.541C2.16193 22.3992 3.30653 22.8814 4.5 22.8814H25.5C26.6935 22.8814 27.8381 22.3992 28.682 21.541C29.5259 20.6828 30 19.5188 30 18.3051V4.57627C30 3.36257 29.5259 2.19858 28.682 1.34036C27.8381 0.482142 26.6935 0 25.5 0ZM27 18.3051C27 18.7097 26.842 19.0977 26.5607 19.3837C26.2794 19.6698 25.8978 19.8305 25.5 19.8305H4.5C4.10218 19.8305 3.72064 19.6698 3.43934 19.3837C3.15804 19.0977 3 18.7097 3 18.3051V9.15254H27V18.3051ZM27 6.10169H3V4.57627C3 4.1717 3.15804 3.78371 3.43934 3.49763C3.72064 3.21156 4.10218 3.05085 4.5 3.05085H25.5C25.8978 3.05085 26.2794 3.21156 26.5607 3.49763C26.842 3.78371 27 4.1717 27 4.57627V6.10169Z" fill="#686868"/>
</svg>
