<svg width="48" height="46" viewBox="0 0 48 46" fill="none" xmlns="http://www.w3.org/2000/svg">
<rect opacity="0.5" x="0.345703" width="46.9731" height="46" rx="5" fill="white"/>
<path d="M23.832 18.6364C21.3701 18.6364 19.376 20.5891 19.376 23C19.376 25.4109 21.3701 27.3636 23.832 27.3636C26.2939 27.3636 28.2879 25.4109 28.2879 23C28.2879 20.5891 26.2939 18.6364 23.832 18.6364ZM33.791 21.9091C33.5387 19.6969 32.5257 17.6344 30.9184 16.0604C29.3111 14.4864 27.205 13.4944 24.946 13.2473V11H22.718V13.2473C20.459 13.4944 18.3529 14.4864 16.7456 16.0604C15.1383 17.6344 14.1253 19.6969 13.8729 21.9091H11.5781V24.0909H13.8729C14.1253 26.3031 15.1383 28.3656 16.7456 29.9396C18.3529 31.5136 20.459 32.5056 22.718 32.7527V35H24.946V32.7527C27.205 32.5056 29.3111 31.5136 30.9184 29.9396C32.5257 28.3656 33.5387 26.3031 33.791 24.0909H36.0858V21.9091H33.791ZM23.832 30.6364C19.5208 30.6364 16.0341 27.2218 16.0341 23C16.0341 18.7782 19.5208 15.3636 23.832 15.3636C28.1431 15.3636 31.6299 18.7782 31.6299 23C31.6299 27.2218 28.1431 30.6364 23.832 30.6364Z" fill="white"/>
</svg>
