<svg width="48" height="46" viewBox="0 0 48 46" fill="none" xmlns="http://www.w3.org/2000/svg">
<rect x="0.173828" width="46.9731" height="46" rx="5" fill="#2D2727"/>
<path d="M31.5233 20.05C31.5233 18.9929 31.3086 17.9461 30.8915 16.9694C30.4744 15.9927 29.863 15.1053 29.0923 14.3578C28.3216 13.6103 27.4067 13.0173 26.3997 12.6128C25.3927 12.2082 24.3135 12 23.2235 12C22.1336 12 21.0543 12.2082 20.0474 12.6128C19.0404 13.0173 18.1255 13.6103 17.3548 14.3578C16.5841 15.1053 15.9727 15.9927 15.5556 16.9694C15.1385 17.9461 14.9238 18.9929 14.9238 20.05C14.9238 21.6451 15.41 23.1286 16.234 24.3798H16.2245C19.0227 28.629 23.2235 35 23.2235 35L30.2226 24.3798H30.2143C31.0684 23.0876 31.5227 21.585 31.5233 20.05ZM23.2235 23.5C22.2802 23.5 21.3754 23.1365 20.7083 22.4895C20.0413 21.8425 19.6665 20.965 19.6665 20.05C19.6665 19.135 20.0413 18.2575 20.7083 17.6105C21.3754 16.9635 22.2802 16.6 23.2235 16.6C24.1669 16.6 25.0717 16.9635 25.7387 17.6105C26.4058 18.2575 26.7806 19.135 26.7806 20.05C26.7806 20.965 26.4058 21.8425 25.7387 22.4895C25.0717 23.1365 24.1669 23.5 23.2235 23.5Z" fill="white"/>
</svg>
