<svg width="11" height="19" viewBox="0 0 11 19" fill="none" xmlns="http://www.w3.org/2000/svg">
<path d="M11 1.09269C10.8608 0.848355 10.7644 0.564354 10.5743 0.371413C10.0577 -0.160526 9.31285 -0.113643 8.72622 0.464277C7.55203 1.61651 6.38967 2.77776 5.22186 3.9345C3.65931 5.48343 2.09616 7.03267 0.532407 8.5822C-0.177014 9.28544 -0.177924 9.74345 0.532407 10.4449C3.20638 13.0983 5.90672 15.7264 8.54431 18.4204C9.34832 19.2426 10.5607 19.2778 11 17.9524V17.5918C10.7763 17.2618 10.5989 16.8877 10.3224 16.6091C8.41243 14.686 6.4779 12.7827 4.55064 10.874C4.10134 10.4296 3.64749 9.99139 3.11997 9.47568C3.25013 9.3997 3.37392 9.31347 3.49014 9.21782C5.74998 6.97947 8.00527 4.73842 10.256 2.49466C10.5534 2.19623 10.7544 1.80314 11 1.45332V1.09269Z" fill="white"/>
</svg>
