<svg width="16" height="16" viewBox="0 0 16 16" fill="none" xmlns="http://www.w3.org/2000/svg">
<path fill-rule="evenodd" clip-rule="evenodd" d="M14.138 1.17835C13.6543 1.2644 12.9933 1.48315 12.0299 1.8043L4.62055 4.27408C3.68218 4.58687 2.99939 4.81465 2.50345 5.00815C1.98813 5.20922 1.76202 5.34229 1.66732 5.43328C0.966202 6.10703 0.966202 7.22871 1.66732 7.90246C1.76202 7.99346 1.98813 8.12652 2.50345 8.32759C2.99939 8.52109 3.68217 8.74887 4.62054 9.06166C4.63546 9.06663 4.65017 9.07153 4.66468 9.07636C4.99796 9.18738 5.22804 9.26402 5.43696 9.37451C5.94347 9.64239 6.35761 10.0565 6.62549 10.563C6.73598 10.772 6.81262 11.002 6.92364 11.3353C6.92847 11.3498 6.93337 11.3645 6.93834 11.3795C7.25113 12.3178 7.47891 13.0006 7.67241 13.4965C7.87348 14.0119 8.00654 14.238 8.09754 14.3327C8.77129 15.0338 9.89297 15.0338 10.5667 14.3327C10.6577 14.238 10.7908 14.0119 10.9918 13.4965C11.1853 13.0006 11.4131 12.3178 11.7259 11.3795L14.1957 3.97011C14.5169 3.00666 14.7356 2.34566 14.8216 1.86197C14.9084 1.37414 14.8228 1.26331 14.7798 1.22024C14.7367 1.17717 14.6259 1.09157 14.138 1.17835ZM13.9381 0.0545136C14.52 -0.0490031 15.1311 -0.0426816 15.5869 0.413092C16.0427 0.868866 16.049 1.47998 15.9455 2.06189C15.843 2.63809 15.596 3.3791 15.2941 4.28451L15.2786 4.33108L12.8088 11.7404L12.8032 11.7572C12.4972 12.6753 12.2605 13.3855 12.0553 13.9115C11.8563 14.4213 11.6556 14.847 11.3898 15.1236C10.2669 16.2921 8.39739 16.2921 7.27448 15.1236C7.00864 14.847 6.80791 14.4213 6.609 13.9115C6.40379 13.3855 6.16706 12.6753 5.86105 11.7573L5.85544 11.7404C5.72411 11.3464 5.67733 11.2118 5.61643 11.0967C5.4557 10.7928 5.20722 10.5443 4.90331 10.3836C4.78816 10.3227 4.65356 10.2759 4.25958 10.1446L4.24271 10.1389C3.32468 9.83294 2.61451 9.59621 2.08854 9.391C1.57875 9.19209 1.15304 8.99136 0.876402 8.72552C-0.292134 7.60261 -0.292134 5.73314 0.876402 4.61023C1.15304 4.34438 1.57875 4.14365 2.08854 3.94475C2.6145 3.73953 3.32465 3.50282 4.24265 3.19682L4.25958 3.19118L11.6689 0.721394L11.7155 0.70586C12.6209 0.404035 13.3619 0.157013 13.9381 0.0545136Z" fill="#222222"/>
</svg>
