<svg width="17" height="17" viewBox="0 0 17 17" fill="none" xmlns="http://www.w3.org/2000/svg">
<path d="M1 3V3C1 1.89543 1.89543 1 3 1L14.4286 1C14.4949 1 14.5281 1 14.556 1.00314C14.7878 1.02926 14.9707 1.21221 14.9969 1.44402C15 1.47192 15 1.50509 15 1.57143V1.57143C15 1.96946 15 2.16848 14.9811 2.33589C14.8244 3.72675 13.7268 4.82442 12.3359 4.98114C12.1685 5 11.9695 5 11.5714 5H11.5M1 3V3C1 4.10457 1.89543 5 3 5L14 5C14.9428 5 15.4142 5 15.7071 5.29289C16 5.58579 16 6.05719 16 7V9M1 3L1 12C1 13.8856 1 14.8284 1.58579 15.4142C2.17157 16 3.11438 16 5 16L14 16C14.9428 16 15.4142 16 15.7071 15.7071C16 15.4142 16 14.9428 16 14V13M16 13H14C13.0572 13 12.5858 13 12.2929 12.7071C12 12.4142 12 11.9428 12 11V11C12 10.0572 12 9.58579 12.2929 9.29289C12.5858 9 13.0572 9 14 9H16M16 13V9" stroke="#222222"/>
</svg>
