<svg width="15" height="21" viewBox="0 0 15 21" fill="none" xmlns="http://www.w3.org/2000/svg">
<path d="M12.1921 7.0134H12.8885C14.2533 7.0218 14.9912 7.80519 14.9945 9.27842C15.0012 11.9369 14.9945 14.5954 14.9945 17.254C14.9945 17.7938 15.0069 18.3337 14.9945 18.8735C14.9564 20.1716 14.2398 20.9766 13.0242 20.9838C9.34378 21.0054 5.66298 21.0054 1.98179 20.9838C0.734797 20.9778 0.017101 20.1308 0.0148582 18.75C0.0148582 15.6308 0.0417718 12.5116 0.00027996 9.39239C-0.0176624 7.95276 0.827873 6.85264 2.23635 7.0074C2.40008 7.0254 2.56604 7.0074 2.81836 7.0074C2.81836 6.35477 2.81051 5.74412 2.81836 5.13348C2.85536 2.7233 4.21786 0.764206 6.25993 0.182356C9.3079 -0.687421 12.1114 1.65078 12.1899 5.14068C12.2034 5.73693 12.1921 6.33437 12.1921 7.0134ZM10.408 6.9918C10.408 6.2276 10.4484 5.51138 10.399 4.80237C10.2869 3.24277 9.22155 2.10066 7.7357 1.90631C6.49655 1.74315 5.09816 2.66212 4.78305 4.03336C4.56662 4.97512 4.60811 5.98286 4.53186 6.9918H10.408ZM4.01601 15.8047L5.82707 13.8744H4.68212C4.72249 11.5746 6.63448 10.3545 8.65188 11.1463L9.42789 10.4949C6.96866 8.85133 4.31991 10.4061 3.62801 13.8948H2.31485L4.01601 15.8047ZM5.58597 17.2804C6.32722 17.9138 7.4374 18.1369 8.51283 17.7866C10.2869 17.2096 11.1492 15.8227 11.3298 13.8636H12.5375L10.8386 12.0641L9.05895 13.8564L10.2835 13.9164C10.362 15.8527 8.5117 17.3955 6.79596 16.7957C6.18816 16.5881 5.89884 16.7573 5.58036 17.2756L5.58597 17.2804Z" fill="white"/>
</svg>
