<svg width="18" height="18" viewBox="0 0 18 18" fill="none" xmlns="http://www.w3.org/2000/svg">
<path d="M3.37215 18C3.37215 16.7236 3.36422 15.5494 3.37743 14.3753C3.38551 14.2616 3.36296 14.1478 3.31215 14.0458C3.26133 13.9438 3.1841 13.8573 3.08851 13.7953C1.37081 12.4801 0.264438 10.7718 0.0415779 8.60065C-0.202423 6.21533 0.634404 4.1782 2.3706 2.5492C4.42743 0.616969 6.91413 -0.157862 9.70825 0.0263694C12.1923 0.190327 14.3328 1.12295 16.0382 2.96438C18.8772 6.02845 18.6033 10.6589 15.4216 13.3863C13.2573 15.2374 10.7397 15.9664 7.92008 15.6685C7.5173 15.6109 7.10732 15.7014 6.76614 15.9232C5.67386 16.6205 4.55516 17.2772 3.37215 18ZM8.98505 7.29692C10.2893 7.29692 11.5939 7.29692 12.8988 7.29692C13.2397 7.29692 13.4678 7.13561 13.4969 6.78742C13.5277 6.41278 13.2943 6.23119 12.9516 6.17037C12.8789 6.16154 12.8055 6.15888 12.7323 6.16244C10.2412 6.16244 7.74978 6.16244 5.25809 6.16244C4.74631 6.16244 4.4979 6.36959 4.50583 6.75745C4.51288 7.12591 4.7419 7.2978 5.2484 7.29956C6.49454 7.30074 7.74009 7.29986 8.98505 7.29692ZM8.99122 9.56588C8.11035 9.56588 7.22948 9.56588 6.34861 9.56588C5.87382 9.56588 5.61837 9.77127 5.62453 10.1327C5.63158 10.48 5.88087 10.6977 6.32218 10.6995C8.1127 10.7048 9.9038 10.7048 11.6955 10.6995C12.1359 10.6995 12.3702 10.4765 12.3685 10.1142C12.3667 9.75187 12.1439 9.56852 11.6779 9.56676C10.7829 9.56324 9.88795 9.56588 8.9921 9.56588H8.99122Z" fill="white"/>
</svg>
