<svg width="17" height="19" viewBox="0 0 17 19" fill="none" xmlns="http://www.w3.org/2000/svg">
<path d="M16.1098 7.78354C16.1097 6.24525 15.6536 4.74152 14.7989 3.46249C13.9443 2.18346 12.7296 1.18658 11.3084 0.597905C9.8872 0.00923214 8.32336 -0.144794 6.81463 0.155305C5.30591 0.455404 3.92005 1.19615 2.83231 2.28387C2.10968 3.00661 1.53658 3.86468 1.14578 4.80904C0.754967 5.7534 0.554111 6.76552 0.554689 7.78755C0.555267 8.80958 0.757267 9.82147 1.14914 10.7654C1.54102 11.7093 2.11509 12.5667 2.83853 13.2886L6.74686 17.1114H2.88753V18.667H13.7764V17.1114H9.91709L13.8316 13.2824C14.5561 12.562 15.1305 11.7051 15.5216 10.7612C15.9126 9.81731 16.1125 8.80522 16.1098 7.78354ZM12.2209 9.81431L8.33197 11.7588L4.44309 9.81431V4.96409L8.33197 3.01965L12.2209 4.96409V9.81431ZM8.33197 7.00031L10.6653 5.83365V8.85298L8.33197 10.0196L5.99864 8.85298V5.83365L8.33197 7.00031Z" fill="white"/>
</svg>
