<svg width="24" height="15" viewBox="0 0 24 15" fill="none" xmlns="http://www.w3.org/2000/svg">
<path d="M24 7.55434V8.16686C23.8933 9.15811 23.7632 10.1483 23.68 11.1416C23.5957 12.2064 22.9952 12.9292 21.9605 13.02C21.5787 13.0537 21.4368 13.1864 21.2928 13.4998C20.8715 14.4186 20.0917 14.929 19.0592 14.9933C18.1056 15.0536 17.2864 14.6922 16.8299 13.8755C16.5472 13.3651 16.2965 12.9873 15.6565 12.8393C15.3493 12.7679 15.1456 12.7301 14.848 12.8506C14.5209 12.9751 14.1718 13.0385 13.8197 13.0374C12.3264 13.0564 10.8331 13.0564 9.33973 13.0374C8.93973 13.0374 8.72853 13.118 8.55467 13.5049C8.11413 14.4849 7.27467 14.976 6.16533 14.9995C5.67275 15.0098 5.18925 14.8715 4.78337 14.6042C4.37749 14.3369 4.06983 13.9541 3.904 13.51C3.77493 13.1793 3.63733 13.0476 3.2448 13.0282C2.20907 12.9751 1.61173 12.1911 1.75147 11.2029C1.8336 10.622 1.86667 10.035 1.91893 9.46743C1.60853 9.41231 1.32587 9.42966 1.1456 9.30818C1.00267 9.20609 0.866133 8.86513 0.932267 8.76917C1.0688 8.58337 1.34933 8.3843 1.57227 8.38226C3.8816 8.35368 6.19093 8.36491 8.5056 8.36491C8.64771 8.37261 8.79016 8.37261 8.93227 8.36491C9.42507 8.31284 9.80693 7.90144 9.77387 7.47063C9.7376 7.01227 9.4112 6.74583 8.8672 6.73562C8.61867 6.73562 8.37013 6.73562 8.12053 6.73562C6.48498 6.73562 4.84942 6.73562 3.21387 6.73562C2.85973 6.73562 2.57387 6.62332 2.54933 6.23131C2.5248 5.80868 2.8224 5.68209 3.18933 5.6484C3.31307 5.63718 3.43787 5.6484 3.56267 5.6484C5.33973 5.6484 7.1168 5.6627 8.896 5.63411C9.21067 5.61982 9.6 5.51263 9.7952 5.30846C9.96373 5.13491 9.9936 4.74188 9.92853 4.48054C9.82933 4.08547 9.4464 3.98645 9.04 3.98747C6.304 3.98747 3.56693 3.99768 0.826667 3.97522C0.5536 3.98134 0.277333 3.77717 0 3.67509V3.26674C0.299733 3.16466 0.5984 2.97478 0.898133 2.97172C3.6352 2.94926 6.37333 2.95844 9.11147 2.95844C9.8944 2.95844 10.2848 2.68281 10.2645 2.14176C10.2507 1.6201 9.94453 1.42716 9.15947 1.42716H2.75947C2.77867 1.19644 2.7808 1.04332 2.80533 0.894271C2.94933 0.0490012 3.00907 0 3.8912 0C7.66009 0 11.429 0 15.1979 0C16.2592 0 16.8928 0.61966 16.8608 1.62521C16.8501 1.98965 16.7947 2.35308 16.7541 2.76346C17.9563 2.76346 19.1083 2.77469 20.2603 2.75734C20.7061 2.75019 20.9867 2.90026 21.1872 3.28818C21.6981 4.27637 22.2293 5.25435 22.7723 6.22621C23.0187 6.66518 23.1147 7.24707 23.7888 7.34201C23.8677 7.35528 23.9296 7.48186 24 7.55434ZM16.64 3.87926C16.5675 4.6153 16.4981 5.30846 16.4267 5.99958C16.3556 6.70805 16.2862 7.41721 16.2187 8.12705C16.1205 9.15607 16.0267 10.1871 15.9221 11.2162C15.8912 11.5224 15.8773 11.8471 16.2517 11.9093C16.3808 11.9308 16.6165 11.6796 16.7136 11.5071C17.3301 10.4107 18.6176 9.86148 19.8155 10.2382C20.6827 10.5107 21.2171 11.1151 21.472 11.9236C21.9317 12.0053 22.3979 11.9655 22.4704 11.5285C22.6475 10.4669 22.7157 9.38474 22.832 8.27099C21.7835 8.27099 20.8053 8.27099 19.8368 8.27099C18.512 8.27099 17.8848 7.54209 18.0576 6.26908C18.1643 5.48609 18.2112 4.69492 18.2869 3.87926H16.64ZM7.68 12.5565C7.68642 12.3834 7.65648 12.2107 7.59194 12.0488C7.5274 11.8869 7.42958 11.739 7.30426 11.614C7.17894 11.4889 7.02868 11.3891 6.86236 11.3206C6.69605 11.2521 6.51706 11.2163 6.336 11.2151C5.5232 11.2029 4.81173 11.8532 4.82027 12.6025C4.82585 12.9531 4.97488 13.2876 5.23535 13.5342C5.49581 13.7809 5.84695 13.9199 6.21333 13.9214C6.40362 13.9252 6.5928 13.8928 6.76988 13.826C6.94696 13.7593 7.10842 13.6595 7.24487 13.5325C7.38133 13.4055 7.49006 13.2538 7.56476 13.0863C7.63946 12.9188 7.67863 12.7387 7.68 12.5565ZM18.9536 13.9173C19.1449 13.9187 19.3345 13.8835 19.5114 13.8137C19.6882 13.7439 19.8487 13.641 19.9834 13.5109C20.1181 13.3809 20.2242 13.2264 20.2956 13.0566C20.3669 12.8867 20.4021 12.7049 20.3989 12.5218C20.4016 12.3477 20.3674 12.1748 20.2984 12.0136C20.2295 11.8524 20.1271 11.7062 19.9976 11.5838C19.868 11.4615 19.7139 11.3655 19.5446 11.3016C19.3753 11.2377 19.1942 11.2072 19.0123 11.2121C18.8209 11.2091 18.631 11.2432 18.4538 11.3123C18.2766 11.3814 18.1158 11.4841 17.9811 11.6141C17.8464 11.7442 17.7406 11.899 17.6699 12.0692C17.5993 12.2394 17.5654 12.4215 17.5701 12.6045C17.5797 13.3732 18.1696 13.9306 18.9557 13.9204L18.9536 13.9173Z" fill="white"/>
</svg>
