<svg width="19" height="19" viewBox="0 0 19 19" fill="none" xmlns="http://www.w3.org/2000/svg">
<g clip-path="url(#clip0_4301_6425)">
<path d="M17.8898 12.4443C17.6835 12.4443 17.4856 12.5263 17.3398 12.6721C17.1939 12.818 17.112 13.0158 17.112 13.2221V14.7777C17.112 15.3965 16.8661 15.99 16.4286 16.4276C15.991 16.8652 15.3975 17.111 14.7786 17.111H13.2231C13.0168 17.111 12.819 17.1929 12.6731 17.3388C12.5273 17.4847 12.4453 17.6825 12.4453 17.8888C12.4453 18.0951 12.5273 18.2929 12.6731 18.4388C12.819 18.5846 13.0168 18.6666 13.2231 18.6666H14.7786C15.8097 18.6653 16.7981 18.2552 17.5271 17.5262C18.2562 16.7971 18.6663 15.8087 18.6675 14.7777V13.2221C18.6675 13.0158 18.5856 12.818 18.4397 12.6721C18.2939 12.5263 18.096 12.4443 17.8898 12.4443Z" fill="white"/>
<path d="M0.777778 6.22222C0.984057 6.22222 1.18189 6.14028 1.32775 5.99442C1.47361 5.84855 1.55556 5.65072 1.55556 5.44444V3.88889C1.55556 3.27005 1.80139 2.67656 2.23897 2.23897C2.67656 1.80139 3.27005 1.55556 3.88889 1.55556H5.44444C5.65072 1.55556 5.84855 1.47361 5.99442 1.32775C6.14028 1.18189 6.22222 0.984057 6.22222 0.777778C6.22222 0.571498 6.14028 0.373667 5.99442 0.227806C5.84855 0.0819442 5.65072 0 5.44444 0L3.88889 0C2.85787 0.001235 1.86943 0.411353 1.14039 1.14039C0.411353 1.86943 0.001235 2.85787 0 3.88889L0 5.44444C0 5.65072 0.0819442 5.84855 0.227806 5.99442C0.373667 6.14028 0.571498 6.22222 0.777778 6.22222Z" fill="white"/>
<path d="M5.44444 17.111H3.88889C3.27005 17.111 2.67656 16.8652 2.23897 16.4276C1.80139 15.99 1.55556 15.3965 1.55556 14.7777V13.2221C1.55556 13.0158 1.47361 12.818 1.32775 12.6721C1.18189 12.5263 0.984057 12.4443 0.777778 12.4443C0.571498 12.4443 0.373667 12.5263 0.227806 12.6721C0.0819442 12.818 0 13.0158 0 13.2221L0 14.7777C0.001235 15.8087 0.411353 16.7971 1.14039 17.5262C1.86943 18.2552 2.85787 18.6653 3.88889 18.6666H5.44444C5.65072 18.6666 5.84855 18.5846 5.99442 18.4388C6.14028 18.2929 6.22222 18.0951 6.22222 17.8888C6.22222 17.6825 6.14028 17.4847 5.99442 17.3388C5.84855 17.1929 5.65072 17.111 5.44444 17.111Z" fill="white"/>
<path d="M14.7786 0H13.2231C13.0168 0 12.819 0.0819442 12.6731 0.227806C12.5273 0.373667 12.4453 0.571498 12.4453 0.777778C12.4453 0.984057 12.5273 1.18189 12.6731 1.32775C12.819 1.47361 13.0168 1.55556 13.2231 1.55556H14.7786C15.3975 1.55556 15.991 1.80139 16.4286 2.23897C16.8661 2.67656 17.112 3.27005 17.112 3.88889V5.44444C17.112 5.65072 17.1939 5.84855 17.3398 5.99442C17.4856 6.14028 17.6835 6.22222 17.8898 6.22222C18.096 6.22222 18.2939 6.14028 18.4397 5.99442C18.5856 5.84855 18.6675 5.65072 18.6675 5.44444V3.88889C18.6663 2.85787 18.2562 1.86943 17.5271 1.14039C16.7981 0.411353 15.8097 0.001235 14.7786 0V0Z" fill="white"/>
<path d="M9.33377 8.55523C11.052 8.55523 12.4449 7.16234 12.4449 5.44412C12.4449 3.7259 11.052 2.33301 9.33377 2.33301C7.61555 2.33301 6.22266 3.7259 6.22266 5.44412C6.22266 7.16234 7.61555 8.55523 9.33377 8.55523Z" fill="white"/>
<path d="M8.55729 10.1113C7.31999 10.1126 6.13373 10.6046 5.25882 11.4795C4.38392 12.3544 3.89186 13.5407 3.89062 14.778C3.89063 14.9843 3.97257 15.1821 4.11843 15.328C4.26429 15.4738 4.46212 15.5558 4.6684 15.5558H14.0017C14.208 15.5558 14.4058 15.4738 14.5517 15.328C14.6976 15.1821 14.7795 14.9843 14.7795 14.778C14.7783 13.5407 14.2862 12.3544 13.4113 11.4795C12.5364 10.6046 11.3501 10.1126 10.1128 10.1113H8.55729Z" fill="white"/>
</g>
<defs>
<clipPath id="clip0_4301_6425">
<rect width="18.6667" height="18.6667" fill="white"/>
</clipPath>
</defs>
</svg>
