<svg width="22" height="16" viewBox="0 0 22 16" fill="none" xmlns="http://www.w3.org/2000/svg">
<path d="M0 14.154V1.85233C0.622187 0.454257 1.71875 -0.0162006 3.26562 0.000423379C8.42188 0.0602696 13.5781 0.0602696 18.7344 0.000423379C20.2812 -0.0162006 21.383 0.454257 22 1.84901V14.1507C21.3744 15.5372 20.2812 16.0176 18.7344 15.9993C13.5781 15.9395 8.42531 15.9395 3.27594 15.9993C1.71875 16.0209 0.623906 15.5438 0 14.154ZM6.90078 12.4584C7.95953 12.4584 9.01828 12.4584 10.0787 12.4584C10.7009 12.4584 11.0034 12.1708 11.012 11.5341C11.0275 10.2042 10.2283 9.09372 8.86016 8.95906C7.52409 8.83299 6.17821 8.83911 4.84344 8.97735C3.5475 9.10868 2.78094 10.166 2.73797 11.4211C2.71219 12.1708 3.05766 12.4684 3.80703 12.4684C4.83828 12.4501 5.86953 12.4684 6.90078 12.4584ZM9.13344 5.8188C9.13407 5.38766 9.00287 4.96596 8.75635 4.60674C8.50983 4.24753 8.15899 3.96685 7.74796 3.79999C7.33693 3.63314 6.88407 3.58757 6.44633 3.66902C6.0086 3.75046 5.60553 3.95528 5.28784 4.25772C4.97015 4.56016 4.75201 4.94671 4.66087 5.36875C4.56973 5.79078 4.60966 6.22947 4.77562 6.62961C4.94159 7.02976 5.22619 7.37351 5.59362 7.61762C5.96105 7.86173 6.39491 7.9953 6.84062 8.00152C7.13994 8.00593 7.43718 7.95274 7.71505 7.84504C7.99293 7.73735 8.24589 7.57729 8.45924 7.37419C8.67258 7.17109 8.84206 6.92899 8.9578 6.66197C9.07354 6.39495 9.13324 6.10834 9.13344 5.8188ZM15.9844 4.00845C15.2127 4.00845 14.4375 3.94861 13.6744 4.04004C13.3839 4.07495 13.1364 4.45398 12.87 4.67674C13.1381 4.8995 13.4062 5.3018 13.6744 5.32008C15.2419 5.38159 16.8162 5.38159 18.3837 5.32008C18.6777 5.30845 18.9578 4.93108 19.2431 4.72328C18.9578 4.48722 18.6931 4.08492 18.3837 4.04669C17.5948 3.94362 16.787 4.00845 15.9844 4.00845ZM16.0686 11.1285C15.2694 11.1285 14.465 11.072 13.6761 11.1584C13.3856 11.19 13.1364 11.559 12.8683 11.7752C13.1364 12.0012 13.3942 12.4135 13.6709 12.4252C15.2367 12.4883 16.8094 12.4933 18.3752 12.4252C18.6742 12.4119 18.9544 11.978 19.2345 11.7386C18.9475 11.5358 18.6759 11.19 18.3752 11.1551C17.6172 11.0703 16.8438 11.1268 16.0703 11.1285H16.0686ZM15.9998 8.86431C16.8266 8.86431 17.6602 8.91418 18.4783 8.83438C18.7516 8.80779 18.9939 8.44705 19.2431 8.23925C19.0042 8.00817 18.7739 7.58593 18.5264 7.57429C16.8747 7.51611 15.2178 7.51611 13.5661 7.57429C13.3255 7.5826 13.1003 8.00485 12.8683 8.23925C13.1123 8.44705 13.3409 8.80779 13.6073 8.83605C14.398 8.91584 15.2023 8.86431 16.0016 8.86431H15.9998Z" fill="white"/>
</svg>
