<svg width="15" height="20" viewBox="0 0 15 20" fill="none" xmlns="http://www.w3.org/2000/svg">
<path d="M13.2222 20H1.79086C0.328433 19.394 0.0170269 18.92 0.0170269 17.288C0.0170269 12.423 0.0416634 7.558 0.000274009 2.693C-0.012537 1.363 0.422052 0.445 1.68837 0H9.96626C9.9748 1.4 9.98367 2.798 9.99286 4.194C9.99286 4.904 10.1762 5.094 10.8601 5.094C12.0584 5.094 13.2567 5.094 14.455 5.094H14.9773C14.9892 5.234 15 5.3 15 5.365C15 9.54367 15 13.7233 15 17.904C14.9949 18.0858 14.9671 18.2663 14.9172 18.441C14.6817 19.327 14.0195 19.74 13.2222 20ZM11.744 10.513C11.744 9.997 11.7283 9.481 11.744 8.966C11.7608 8.552 11.5942 8.323 11.207 8.193C10.0747 7.813 8.9532 7.393 7.81893 7.026C7.5892 6.9555 7.34406 6.9555 7.11433 7.026C6.00076 7.4 4.89802 7.814 3.77755 8.179C3.34099 8.321 3.17938 8.579 3.18627 9.022C3.20204 9.654 3.15967 10.288 3.1981 10.922C3.24146 11.647 3.23555 12.404 3.44447 13.085C4.04264 15.032 5.51985 16.169 7.25032 17.018C7.39877 17.0795 7.56504 17.0795 7.71349 17.018C9.20154 16.31 10.4452 15.318 11.2454 13.825C11.8081 12.776 11.7756 11.646 11.745 10.513H11.744Z" fill="white"/>
<path d="M11.1902 0.533L14.4738 3.863H11.1902V0.533Z" fill="white"/>
<path d="M7.23061 12.051C7.70561 11.436 8.15793 10.851 8.61026 10.266C8.94433 9.834 9.3602 9.73 9.71004 9.99C10.0599 10.25 10.0747 10.69 9.73862 11.132C9.13814 11.922 8.53077 12.7063 7.91649 13.485C7.60509 13.879 7.22667 13.934 6.84825 13.627C6.42648 13.285 6.01554 12.927 5.62234 12.549C5.28531 12.229 5.27348 11.842 5.54744 11.533C5.8214 11.224 6.2077 11.211 6.55853 11.487C6.77533 11.659 6.98326 11.843 7.23061 12.051Z" fill="white"/>
</svg>
