<svg width="20" height="21" viewBox="0 0 20 21" fill="none" xmlns="http://www.w3.org/2000/svg">
<path d="M14.4357 21C14.0481 20.9084 13.6458 20.8554 13.2746 20.7181C11.3978 20.0242 10.2395 18.681 9.91601 16.697C9.4602 13.8993 11.2924 11.3224 14.0706 10.847C17.0726 10.3334 19.5641 12.4724 19.9431 15.1011C20.3384 17.8347 18.6385 20.3007 15.9514 20.8985C15.7738 20.9396 15.5937 20.9663 15.4148 21H14.4357ZM14.5648 16.2647C14.2442 16.0313 13.9485 15.8128 13.6511 15.5995C13.3244 15.3649 12.9531 15.3994 12.7461 15.6817C12.53 15.9742 12.6064 16.3481 12.9348 16.5897C13.2966 16.8551 13.6699 17.1041 14.0212 17.3848C14.5861 17.8367 14.8875 17.8634 15.38 17.2101C15.9257 16.4866 16.5086 15.7918 17.0697 15.0806C17.2981 14.793 17.2629 14.4199 17.0019 14.2009C16.741 13.9819 16.3738 14.0247 16.1332 14.3049C16.0356 14.4183 15.9453 14.5382 15.8518 14.6553L14.5648 16.2647Z" fill="white"/>
<path d="M9.57537 19.2074H9.33235C7.06881 19.2074 4.8054 19.2074 2.54212 19.2074C1.23513 19.2074 0.247538 18.3754 0.0212653 17.0787C0.00442711 16.9637 -0.00240607 16.8476 0.000843553 16.7315C0.000298974 11.9807 2.66841e-05 7.22982 2.66841e-05 2.47879C-0.00148195 2.15343 0.0609933 1.83099 0.183856 1.53002C0.306719 1.22905 0.487543 0.955499 0.715919 0.725112C0.944296 0.494724 1.21571 0.312051 1.51455 0.187606C1.81339 0.0631621 2.13374 -0.000595344 2.45717 4.18919e-06C6.02525 4.18919e-06 9.59347 4.18919e-06 13.1618 4.18919e-06C13.8112 0.00010851 14.4341 0.259076 14.8941 0.720201C15.3541 1.18133 15.6137 1.80703 15.6161 2.4603C15.6199 4.77761 15.6199 7.09491 15.6161 9.41222V9.60656C13.0585 9.45372 11.0073 10.3634 9.64194 12.5365C8.28308 14.703 8.35905 16.9501 9.57537 19.2074ZM4.95597 11.4374C4.36565 11.4374 3.77546 11.4374 3.18541 11.4374C2.79658 11.4374 2.53191 11.6794 2.52497 12.0315C2.51803 12.3836 2.77493 12.6503 3.16254 12.6548C4.3568 12.6622 5.55093 12.6622 6.74492 12.6548C7.13334 12.6523 7.38902 12.3902 7.38453 12.036C7.38003 11.6819 7.11577 11.4407 6.72694 11.4395C6.13608 11.4373 5.54575 11.4366 4.95597 11.4374ZM4.98497 13.9396C4.38008 13.9396 3.77519 13.9396 3.1703 13.9396C2.79658 13.9396 2.53191 14.1861 2.52497 14.5304C2.51803 14.8747 2.77003 15.1504 3.14089 15.1533C4.35067 15.1618 5.56046 15.1618 6.77024 15.1533C7.14232 15.1504 7.39188 14.8776 7.38289 14.5292C7.3739 14.1808 7.1121 13.9408 6.73675 13.9396C6.15391 13.938 5.56944 13.9396 4.98497 13.9396ZM4.96578 4.05488C4.36783 4.05488 3.76947 4.05488 3.17152 4.05488C2.79699 4.05488 2.53232 4.30141 2.52497 4.64366C2.51762 4.98592 2.76554 5.26408 3.13966 5.26695C4.34945 5.27681 5.55923 5.27681 6.76901 5.26695C7.14396 5.26408 7.39147 4.99331 7.38453 4.64489C7.37758 4.29648 7.11455 4.05653 6.7392 4.05529C6.1486 4.05365 5.55719 4.05488 4.96578 4.05488ZM4.95679 6.51559C4.36674 6.51559 3.77655 6.51559 3.18623 6.51559C2.7974 6.51559 2.53069 6.75718 2.52497 7.10888C2.51925 7.46059 2.76799 7.72519 3.14171 7.72848C4.34904 7.73779 5.55664 7.73779 6.76452 7.72848C7.14845 7.7256 7.398 7.44867 7.38412 7.09163C7.37105 6.74855 7.10802 6.51641 6.72735 6.51641C6.13621 6.51504 5.54602 6.51476 4.95679 6.51559ZM4.95679 10.1945V10.1871C5.5821 10.1871 6.20782 10.2007 6.83232 10.1818C7.17296 10.1711 7.40045 9.87897 7.38248 9.54288C7.37525 9.39099 7.31024 9.24772 7.20092 9.14271C7.09159 9.0377 6.94631 8.979 6.79515 8.97875C5.56495 8.97465 4.33474 8.97465 3.10454 8.97875C2.84886 8.97875 2.6671 9.11763 2.56867 9.35182C2.3959 9.7627 2.68548 10.1814 3.16254 10.1912C3.76212 10.2036 4.36047 10.1945 4.95842 10.1945H4.95679ZM10.654 4.05488C10.0561 4.05488 9.45774 4.04626 8.8602 4.06105C8.71395 4.06932 8.57272 4.11763 8.45176 4.20074C8.24755 4.34126 8.18465 4.61161 8.2598 4.84252C8.34639 5.10877 8.55101 5.26202 8.86469 5.27024C9.23841 5.27969 9.61213 5.27394 9.98585 5.27394C10.8084 5.27394 11.631 5.27928 12.4532 5.26983C12.8416 5.26531 13.1002 4.99947 13.0936 4.64859C13.0871 4.29771 12.8212 4.05571 12.4295 4.05488C11.8376 4.05406 11.2457 4.05406 10.654 4.05488ZM10.6634 6.51559C10.0726 6.51559 9.48129 6.51559 8.88961 6.51559C8.50935 6.51559 8.24428 6.7506 8.23244 7.09081C8.21977 7.45114 8.46688 7.72437 8.85366 7.72724C10.0564 7.73656 11.2592 7.73656 12.4622 7.72724C12.8457 7.72478 13.1042 7.44662 13.092 7.09615C13.0797 6.74567 12.8159 6.51476 12.4385 6.51353C11.8446 6.51435 11.2549 6.51559 10.6634 6.51559ZM9.72077 8.9767C9.42915 8.9767 9.13753 8.97382 8.8455 8.9767C8.50078 8.98122 8.24428 9.22692 8.23284 9.55644C8.22263 9.89376 8.44972 10.1727 8.79485 10.1826C9.41118 10.2003 10.0291 10.1999 10.6455 10.1826C10.7224 10.1794 10.798 10.1609 10.8677 10.128C10.9375 10.0952 11.0001 10.0488 11.0519 9.99149C11.1036 9.93416 11.1436 9.86705 11.1694 9.79406C11.1952 9.72107 11.2063 9.64365 11.2022 9.5663C11.198 9.40744 11.1319 9.2566 11.0181 9.14636C10.9043 9.03612 10.752 8.97533 10.594 8.97711C10.302 8.97341 10.0104 8.9767 9.72077 8.9767Z" fill="white"/>
</svg>
