<svg width="22" height="17" viewBox="0 0 22 17" fill="none" xmlns="http://www.w3.org/2000/svg">
<path d="M5.45804 15.0271C5.45804 15.3801 5.46579 15.6696 5.45804 15.9627C5.43608 16.6241 5.07057 16.9666 4.33697 16.9854C3.66924 17.0031 3.0015 16.9972 2.33377 16.9854C1.4723 16.9748 1.09 16.6229 1.06676 15.8309C1.06676 15.5767 1.06676 15.3225 1.06676 15.0294C0.185917 14.8858 -0.0181482 14.3574 0.00122513 13.6172C0.0412633 12.1272 0.010266 10.6361 0.0141407 9.14499C0.0141407 8.37296 0.289242 8.12816 1.13133 7.99047C1.31215 7.95987 1.53042 7.74214 1.59629 7.56796C2.21236 5.94857 2.77031 4.31152 3.40447 2.69801C3.66538 2.06172 4.00235 1.45353 4.4093 0.88443C4.82647 0.291279 5.50066 0.00647287 6.27946 0.00529599C9.42311 -0.00176533 12.5659 -0.00176533 15.7078 0.00529599C16.6209 0.00529599 17.361 0.408968 17.7575 1.1304C18.2371 2.042 18.6575 2.97845 19.0168 3.93492C19.4882 5.12946 19.9041 6.34047 20.3329 7.54796C20.4401 7.85042 20.5627 8.03166 20.9877 8.0293C21.5585 8.0293 21.9822 8.45063 21.9873 8.99082C22.0067 10.6585 22.0015 12.3261 21.9873 13.9926C21.9873 14.4422 21.7432 14.8164 21.2589 14.9341C20.8714 15.02 20.8495 15.206 20.8611 15.479C20.8734 15.675 20.8734 15.8714 20.8611 16.0674C20.8172 16.6276 20.4543 16.9666 19.8279 16.9854C19.1188 17.0066 18.4071 17.0031 17.6968 16.9854C16.9219 16.9725 16.5602 16.6406 16.5344 15.9427C16.5241 15.652 16.5344 15.3613 16.5344 15.0247L5.45804 15.0271ZM18.2638 7.99047C17.5289 6.10157 16.8211 4.26327 16.0991 2.43086C15.9338 2.01189 15.5399 1.95422 15.0969 1.9601C12.7928 1.96952 10.4886 1.9601 8.18451 1.9601C5.95787 1.9601 5.95141 1.9601 5.25785 3.8902C4.77739 5.24008 4.30597 6.59703 3.81776 7.99047H18.2638ZM3.83714 13.3112C4.88071 13.3112 5.81967 12.4567 5.82355 11.5094C5.82742 10.562 4.8833 9.70166 3.85264 9.68518C2.78969 9.66871 1.83006 10.5467 1.84298 11.5247C1.86355 11.9977 2.08126 12.4459 2.45176 12.7778C2.82227 13.1097 3.31769 13.3005 3.83714 13.3112ZM16.1818 11.5329C16.1975 12.0009 16.4133 12.4448 16.7832 12.7698C17.153 13.0949 17.6476 13.2754 18.1615 13.2728C18.6753 13.2702 19.1677 13.0847 19.5336 12.7559C19.8994 12.4271 20.1098 11.981 20.1197 11.5129C20.1197 10.5314 19.1601 9.65929 18.1036 9.68989C17.5853 9.71459 17.0971 9.91947 16.7396 10.2623C16.382 10.6052 16.1824 11.0599 16.1818 11.5329Z" fill="white"/>
</svg>
