<svg width="22" height="18" viewBox="0 0 22 18" fill="none" xmlns="http://www.w3.org/2000/svg">
<path d="M19.25 3.6H4.58333C3.79592 3.6 3.05067 3.2652 2.53458 2.7009C3.03875 2.1483 3.77117 1.8 4.58333 1.8H21.0833C22.2823 1.7946 22.2814 0.0045 21.0833 0H4.58333C2.05242 0 0 2.0151 0 4.5V13.5C0 15.9849 2.05242 18 4.58333 18H19.25C20.7689 18 22 16.7913 22 15.3V6.3C22 4.8087 20.7689 3.6 19.25 3.6ZM18.3333 11.7C17.1343 11.6946 17.1343 9.9054 18.3333 9.9C19.5323 9.9054 19.5323 11.6946 18.3333 11.7Z" fill="white"/>
</svg>
