<svg width="28" height="24" viewBox="0 0 28 24" fill="none" xmlns="http://www.w3.org/2000/svg">
<path d="M27.0954 5.90801C26.9727 5.73077 26.8089 5.5859 26.6181 5.48582C26.4272 5.38573 26.2149 5.33341 25.9993 5.33334H7.77668L6.23802 1.64001C6.03627 1.15363 5.69464 0.738124 5.25645 0.446154C4.81826 0.154184 4.30324 -0.00109472 3.77668 5.80965e-06H0.666016V2.66667H3.77668L10.102 17.8467C10.2033 18.0895 10.3743 18.297 10.5932 18.4429C10.8122 18.5888 11.0695 18.6667 11.3327 18.6667H21.9993C22.5553 18.6667 23.0527 18.3213 23.2487 17.8027L27.2487 7.13601C27.3243 6.93417 27.3498 6.71701 27.3231 6.50314C27.2964 6.28927 27.2183 6.08506 27.0954 5.90801Z" fill="white"/>
<path d="M12 24C13.1046 24 14 23.1046 14 22C14 20.8954 13.1046 20 12 20C10.8954 20 10 20.8954 10 22C10 23.1046 10.8954 24 12 24Z" fill="white"/>
<path d="M21.334 24C22.4386 24 23.334 23.1046 23.334 22C23.334 20.8954 22.4386 20 21.334 20C20.2294 20 19.334 20.8954 19.334 22C19.334 23.1046 20.2294 24 21.334 24Z" fill="white"/>
</svg>
