<svg width="40" height="40" viewBox="0 0 40 40" fill="none" xmlns="http://www.w3.org/2000/svg">
<rect width="40" height="40" rx="5" fill="#F8D2D7"/>
<path d="M22.7808 27.7005L22.1906 27.2377L22.7808 27.7005ZM17.2192 27.7005L16.629 28.1633L17.2192 27.7005ZM20 30.0055V29.2555V30.0055ZM27.25 17.6087C27.25 18.8352 26.6104 20.4764 25.6037 22.256C24.6137 24.0063 23.3342 25.7794 22.1906 27.2377L23.371 28.1633C24.5371 26.6762 25.8672 24.837 26.9094 22.9945C27.9349 21.1814 28.75 19.2494 28.75 17.6087H27.25ZM17.8094 27.2377C16.6658 25.7794 15.3863 24.0063 14.3963 22.256C13.3896 20.4764 12.75 18.8352 12.75 17.6087H11.25C11.25 19.2494 12.0651 21.1814 13.0906 22.9945C14.1328 24.837 15.4629 26.6762 16.629 28.1633L17.8094 27.2377ZM12.75 17.6087C12.75 13.2157 16.0468 9.75 20 9.75V8.25C15.1167 8.25 11.25 12.4928 11.25 17.6087H12.75ZM20 9.75C23.9532 9.75 27.25 13.2157 27.25 17.6087H28.75C28.75 12.4928 24.8833 8.25 20 8.25V9.75ZM22.1906 27.2377C21.5717 28.027 21.1641 28.5426 20.7992 28.8741C20.4664 29.1764 20.2442 29.2555 20 29.2555V30.7555C20.7291 30.7555 21.2948 30.4504 21.8078 29.9844C22.2886 29.5476 22.7849 28.9107 23.371 28.1633L22.1906 27.2377ZM16.629 28.1633C17.2151 28.9107 17.7114 29.5476 18.1922 29.9844C18.7052 30.4504 19.2709 30.7555 20 30.7555V29.2555C19.7558 29.2555 19.5336 29.1764 19.2008 28.8741C18.8359 28.5426 18.4283 28.027 17.8094 27.2377L16.629 28.1633ZM16.25 18C16.25 20.0711 17.9289 21.75 20 21.75V20.25C18.7574 20.25 17.75 19.2426 17.75 18H16.25ZM20 21.75C22.0711 21.75 23.75 20.0711 23.75 18H22.25C22.25 19.2426 21.2426 20.25 20 20.25V21.75ZM23.75 18C23.75 15.9289 22.0711 14.25 20 14.25V15.75C21.2426 15.75 22.25 16.7574 22.25 18H23.75ZM20 14.25C17.9289 14.25 16.25 15.9289 16.25 18H17.75C17.75 16.7574 18.7574 15.75 20 15.75V14.25Z" fill="#F54748"/>
</svg>
