<svg width="40" height="40" viewBox="0 0 40 40" fill="none" xmlns="http://www.w3.org/2000/svg">
<rect width="40" height="40" rx="15" fill="#D8D6FF"/>
<g clip-path="url(#clip0_4485_2816)">
<path d="M19.5 6C16.7161 6 14.0461 7.11338 12.0771 9.09534C10.1081 11.0773 9.0013 13.7656 9 16.5692C9 21.5911 16.7661 31.9255 18.9392 34.7195C19.0055 34.8052 19.0904 34.8746 19.1874 34.9223C19.2844 34.97 19.3909 34.9948 19.4988 34.9948C19.6067 34.9948 19.7132 34.97 19.8102 34.9223C19.9071 34.8746 19.992 34.8052 20.0583 34.7195C22.2327 31.9255 29.9975 21.5911 29.9975 16.5692C29.9962 13.766 28.8898 11.0781 26.9213 9.09621C24.9528 7.11432 22.2835 6.00065 19.5 6Z" fill="url(#paint0_linear_4485_2816)"/>
<path d="M25.1167 17.9569C25.8754 14.8325 23.9752 11.6803 20.8727 10.9163C17.7701 10.1524 14.64 12.0659 13.8814 15.1903C13.1228 18.3148 15.0229 21.467 18.1255 22.2309C21.228 22.9949 24.3581 21.0814 25.1167 17.9569Z" fill="white"/>
<path d="M24.8976 14.4816C25.4488 15.9222 25.4094 17.5242 24.7882 18.9356C24.1669 20.347 23.0146 21.4522 21.5845 22.0084C24.5651 20.853 27.0204 17.1075 25.8731 14.1059C24.7258 11.1044 20.4102 9.98232 17.4297 11.1402C18.8601 10.587 20.45 10.6282 21.8502 11.2547C23.2505 11.8812 24.3465 13.0418 24.8976 14.4816Z" fill="#5B015B"/>
<path d="M14.103 18.6704C13.8301 17.9567 13.6995 17.1958 13.7186 16.4313C13.7377 15.6668 13.9062 14.9135 14.2144 14.2145C14.5226 13.5156 14.9646 12.8846 15.515 12.3577C16.0654 11.8308 16.7135 11.4182 17.4222 11.1436C14.4417 12.299 11.9863 16.0444 13.1336 19.046C14.2809 22.0476 18.5965 23.1696 21.5771 22.0118C20.8685 22.2866 20.113 22.4182 19.3539 22.3991C18.5948 22.3799 17.8468 22.2103 17.1528 21.9001C16.4588 21.5898 15.8322 21.1448 15.3089 20.5907C14.7856 20.0365 14.3759 19.384 14.103 18.6704Z" fill="#5B015B"/>
<g clip-path="url(#clip1_4485_2816)">
<path d="M22.2788 16.0761C22.2454 16.0761 22.2124 16.0743 22.1797 16.0715V17.1288H19.7051V17.9491H20.2565V17.5389H20.6667V17.9491H21.2181V17.5389H21.6283V17.9491H22.5898V16.0322C22.4909 16.0606 22.3867 16.0761 22.2788 16.0761Z" fill="#5B015B"/>
<path d="M16.8203 17.1288V16.0715C16.7876 16.0743 16.7546 16.0761 16.7212 16.0761C16.6133 16.0761 16.5091 16.0606 16.4102 16.0322V17.9491H17.3717V17.5389H17.7819V17.9491H18.3333V17.5389H18.7435V17.9491H19.2949V17.1288H16.8203Z" fill="#5B015B"/>
<path d="M21.5586 14.8457V14.9448C21.5586 15.3089 21.8297 15.6106 22.1807 15.659C22.2131 15.6635 22.2461 15.666 22.2798 15.666C22.3911 15.666 22.4966 15.6406 22.5908 15.5954C22.8332 15.4791 23.001 15.2312 23.001 14.9448V14.8457H21.5586Z" fill="#5B015B"/>
<path d="M16 14.8457V14.9448C16 15.2312 16.1678 15.4791 16.4102 15.5954C16.5044 15.6406 16.6099 15.666 16.7212 15.666C16.7548 15.666 16.7879 15.6635 16.8203 15.659C17.1712 15.6106 17.4424 15.3089 17.4424 14.9448V14.8457H16Z" fill="#5B015B"/>
<path d="M17.8516 14.8457V14.9448C17.8516 15.3425 18.1751 15.666 18.5728 15.666C18.9704 15.666 19.2939 15.3425 19.2939 14.9448V14.8457H17.8516Z" fill="#5B015B"/>
<path d="M19.2939 13H17.8516V14.4355H19.2939V13Z" fill="#5B015B"/>
<path d="M23.001 13H21.5586V14.4355H23.001V13Z" fill="#5B015B"/>
<path d="M19.7051 14.8457V14.9448C19.7051 15.3425 20.0286 15.666 20.4263 15.666C20.8239 15.666 21.1475 15.3425 21.1475 14.9448V14.8457H19.7051Z" fill="#5B015B"/>
<path d="M21.1475 13H19.7051V14.4355H21.1475V13Z" fill="#5B015B"/>
<path d="M17.4424 13H16V14.4355H17.4424V13Z" fill="#5B015B"/>
<path d="M16 18.3594V18.7695H16.4102V20H22.5898V18.7695H23V18.3594H16Z" fill="#5B015B"/>
</g>
</g>
<defs>
<linearGradient id="paint0_linear_4485_2816" x1="3.66164" y1="0.563466" x2="31.4935" y2="32.4463" gradientUnits="userSpaceOnUse">
<stop stop-color="#E200B2"/>
<stop offset="1" stop-color="#5B015B"/>
</linearGradient>
<clipPath id="clip0_4485_2816">
<rect width="21" height="29" fill="white" transform="translate(9 6)"/>
</clipPath>
<clipPath id="clip1_4485_2816">
<rect width="7" height="7" fill="white" transform="translate(16 13)"/>
</clipPath>
</defs>
</svg>
