<svg width="22" height="24" viewBox="0 0 22 24" fill="none" xmlns="http://www.w3.org/2000/svg">
<path d="M7.47013 14.4699C7.17723 14.7628 7.17723 15.2376 7.47013 15.5305C7.76302 15.8234 8.23789 15.8234 8.53079 15.5305L7.47013 14.4699ZM14.1876 9.87368C14.4805 9.58079 14.4805 9.10592 14.1876 8.81302C13.8947 8.52013 13.4199 8.52013 13.127 8.81302L14.1876 9.87368ZM4.59528 5.01919L4.41292 5.74668L4.59528 5.01919ZM8.15731 2.96265L8.87851 3.16847L8.15731 2.96265ZM1.75213 9.94367L1.21328 10.4653L1.75213 9.94367ZM1.75213 14.0567L1.21328 13.5351L1.75213 14.0567ZM4.59528 18.9812L4.41292 18.2537L4.59528 18.9812ZM8.15731 21.0378L8.87851 20.8319L8.15731 21.0378ZM13.8436 21.0378L13.1224 20.8319L13.8436 21.0378ZM17.4056 18.9812L17.588 18.2537L17.4056 18.9812ZM20.2488 14.0567L20.7876 13.5351L20.2488 14.0567ZM20.2488 9.94367L20.7876 10.4653L20.2488 9.94367ZM17.4056 5.01919L17.588 5.74668L17.4056 5.01919ZM13.8436 2.96265L13.1224 3.16847L13.8436 2.96265ZM8.53079 15.5305L14.1876 9.87368L13.127 8.81302L7.47013 14.4699L8.53079 15.5305ZM4.41292 5.74668C6.35329 6.23306 8.32955 5.09207 8.87851 3.16847L7.4361 2.75683C7.10929 3.90199 5.93278 4.58125 4.77763 4.2917L4.41292 5.74668ZM2.29098 9.422C0.746819 7.82699 2.25952 5.20691 4.41292 5.74668L4.77763 4.2917C1.16044 3.385 -1.38054 7.78611 1.21328 10.4653L2.29098 9.422ZM2.29098 14.5784C3.68237 13.1412 3.68237 10.8592 2.29098 9.422L1.21328 10.4653C2.04161 11.3209 2.04161 12.6795 1.21328 13.5351L2.29098 14.5784ZM4.41292 18.2537C2.25952 18.7935 0.746819 16.1734 2.29098 14.5784L1.21328 13.5351C-1.38054 16.2143 1.16044 20.6154 4.77763 19.7087L4.41292 18.2537ZM8.87851 20.8319C8.32954 18.9083 6.35329 17.7674 4.41292 18.2537L4.77763 19.7087C5.93278 19.4192 7.10929 20.0984 7.4361 21.2436L8.87851 20.8319ZM13.1224 20.8319C12.5132 22.9667 9.48775 22.9667 8.87851 20.8319L7.4361 21.2436C8.45948 24.8295 13.5414 24.8295 14.5648 21.2436L13.1224 20.8319ZM17.588 18.2537C15.6476 17.7674 13.6714 18.9083 13.1224 20.8319L14.5648 21.2436C14.8916 20.0984 16.0681 19.4192 17.2233 19.7087L17.588 18.2537ZM19.7099 14.5784C21.2541 16.1734 19.7414 18.7935 17.588 18.2537L17.2233 19.7087C20.8405 20.6154 23.3815 16.2143 20.7876 13.5351L19.7099 14.5784ZM19.7099 9.422C18.3185 10.8592 18.3185 13.1412 19.7099 14.5784L20.7876 13.5351C19.9593 12.6795 19.9593 11.3209 20.7876 10.4653L19.7099 9.422ZM17.588 5.74668C19.7414 5.20691 21.2541 7.82699 19.7099 9.422L20.7876 10.4653C23.3815 7.78611 20.8405 3.385 17.2233 4.2917L17.588 5.74668ZM13.1224 3.16847C13.6714 5.09207 15.6476 6.23306 17.588 5.74668L17.2233 4.2917C16.0681 4.58125 14.8916 3.90199 14.5648 2.75683L13.1224 3.16847ZM14.5648 2.75683C13.5414 -0.829098 8.45948 -0.829098 7.4361 2.75683L8.87851 3.16847C9.48775 1.03369 12.5132 1.03369 13.1224 3.16847L14.5648 2.75683Z" fill="#373737"/>
<path d="M7 9C7 9.55228 7.44772 10 8 10C8.55228 10 9 9.55228 9 9C9 8.44772 8.55228 8 8 8C7.44772 8 7 8.44772 7 9Z" fill="#373737"/>
<path d="M13 15C13 15.5523 13.4477 16 14 16C14.5523 16 15 15.5523 15 15C15 14.4477 14.5523 14 14 14C13.4477 14 13 14.4477 13 15Z" fill="#373737"/>
</svg>
