<svg width="13" height="16" viewBox="0 0 13 16" fill="none" xmlns="http://www.w3.org/2000/svg">
<path d="M6.25 0C2.91563 0 0.25 2.66563 0.25 6C0.25 7.15312 0.59375 8.04375 1.19062 8.94687L5.61875 15.6656C5.75313 15.8687 5.98438 16 6.25 16C6.51562 16 6.75 15.8656 6.88125 15.6656L11.3094 8.94687C11.9062 8.04375 12.25 7.15312 12.25 6C12.25 2.66563 9.58438 0 6.25 0ZM6.25 10.6625C3.67188 10.6625 1.58437 8.57187 1.58437 5.99062C1.58437 3.4125 3.675 1.31875 6.25 1.31875C8.82812 1.31875 10.9156 3.40937 10.9156 5.99062C10.9156 8.57187 8.82812 10.6625 6.25 10.6625ZM8.25 5.33437H6.91562V3.33437C6.91562 2.96562 6.61875 2.66875 6.25 2.66875C5.88125 2.66875 5.58437 2.96562 5.58437 3.33437V6C5.58437 6.36875 5.88438 6.66563 6.25 6.66563H8.25C8.61875 6.66563 8.91562 6.36875 8.91562 6C8.91562 5.63125 8.61875 5.33437 8.25 5.33437Z" fill="#2D2D2D"/>
</svg>
