<svg width="29" height="28" viewBox="0 0 29 28" fill="none" xmlns="http://www.w3.org/2000/svg">
<circle cx="14.5" cy="14" r="14" fill="#F54748" fill-opacity="0.2"/>
<circle cx="14.5" cy="14" r="4.5" fill="white" stroke="white"/>
<path d="M15.8333 8.66602C15.8333 9.39935 15.2333 9.99935 14.5 9.99935C13.7667 9.99935 13.1667 9.39935 13.1667 8.66602C13.1667 7.93268 13.7667 7.33268 14.5 7.33268C15.2333 7.33268 15.8333 7.93268 15.8333 8.66602ZM19.5 8.66602C19.5 12.7193 16.3867 15.2593 15.0533 16.1593C14.8867 16.2793 14.6933 16.3327 14.5 16.3327C14.3067 16.3327 14.1133 16.2793 13.94 16.1593C12.6067 15.2593 9.5 12.726 9.5 8.66602C9.5 5.81268 11.6467 3.66602 14.5 3.66602C17.3467 3.66602 19.5 5.81268 19.5 8.66602ZM17.1667 8.66602C17.1667 7.19268 15.9733 5.99935 14.5 5.99935C13.0267 5.99935 11.8333 7.19268 11.8333 8.66602C11.8333 10.1393 13.0267 11.3327 14.5 11.3327C15.9733 11.3327 17.1667 10.1393 17.1667 8.66602Z" fill="#F54748"/>
</svg>
