<svg width="74" height="46" viewBox="0 0 74 46" fill="none" xmlns="http://www.w3.org/2000/svg">
<path d="M69.8422 0.0517578C72.1001 0.0517578 73.9475 1.89913 73.9475 4.15702V41.1044C73.9475 43.3623 72.1001 45.2097 69.8422 45.2097H4.158C1.9001 45.2097 0.0527344 43.3623 0.0527344 41.1044V4.15702C0.0527344 1.89913 1.9001 0.0517578 4.158 0.0517578H69.8422Z" fill="white"/>
<path d="M28.7903 36.9995C36.7258 36.9995 43.1587 30.5666 43.1587 22.6311C43.1587 14.6957 36.7258 8.2627 28.7903 8.2627C20.8548 8.2627 14.4219 14.6957 14.4219 22.6311C14.4219 30.5666 20.8548 36.9995 28.7903 36.9995Z" fill="#EB001B"/>
<path d="M45.2102 36.9995C53.1457 36.9995 59.5786 30.5666 59.5786 22.6311C59.5786 14.6957 53.1457 8.2627 45.2102 8.2627C37.2748 8.2627 30.8418 14.6957 30.8418 22.6311C30.8418 30.5666 37.2748 36.9995 45.2102 36.9995Z" fill="#F79E1B"/>
</svg>
