<svg width="99" height="113" viewBox="0 0 99 113" fill="none" xmlns="http://www.w3.org/2000/svg">
<path d="M32.4844 32.9517C33.9334 38.4806 35.8214 42.0905 37.0875 43.3398C40.1207 46.3336 46.654 46.9976 50.3287 48.5226C51.5245 49.0206 54.8305 41.435 53.6066 40.7709C52.7034 40.2785 42.214 38.9505 41.3221 38.6776C40.8635 38.5369 37.383 34.004 35.4134 31.4549C32.2396 27.3694 31.6909 29.9327 32.4844 32.9517Z" fill="#F7A9A0"/>
<path d="M56.0677 49.5849C55.5049 49.5709 55.4852 49.8663 56.2703 50.5163C57.0553 51.1662 60.7102 53.0486 59.9421 54.2725C59.174 55.4965 54.0559 52.7503 52.832 51.5742C51.608 50.3981 50.0352 48.0684 50.0352 48.0684C51.1409 48.4032 53.9011 48.9575 56.0677 49.5849Z" fill="#F7A9A0"/>
<path d="M52.7205 40.5322C58.1678 41.3763 60.3343 42.4427 62.7203 45.2282C62.9927 45.5292 63.157 45.9124 63.1874 46.3171C64.2791 47.5439 64.0315 48.4302 64.0315 48.4302C64.6955 49.8849 64.3128 50.7543 64.3128 50.7543C64.3128 50.7543 65.579 52.209 64.8249 53.1206C63.9808 54.1448 62.3714 51.8995 60.731 51.2073C56.9691 49.6176 51.1645 48.4133 50.0391 48.0644L52.7205 40.5322Z" fill="#F7A9A0"/>
<path d="M57.9486 46.7772C59.0556 47.2277 60.1302 47.7542 61.1646 48.3528C62.2552 49.077 63.2898 49.8821 64.2597 50.7613C64.2663 50.7651 64.2739 50.7666 64.2814 50.7655C64.289 50.7643 64.2959 50.7607 64.3011 50.7552C64.3063 50.7497 64.3095 50.7425 64.3101 50.735C64.3108 50.7274 64.3089 50.7199 64.3047 50.7135C62.5979 48.8302 60.4072 47.4512 57.9711 46.7265C57.9148 46.7097 57.8923 46.7519 57.9486 46.7772Z" fill="#263238"/>
<path d="M58.5768 44.3667C59.6207 44.9013 61.444 45.8552 63.996 48.4606C63.996 48.4606 64.0213 48.4606 64.0129 48.4606C62.6278 46.6074 60.7544 45.1763 58.6022 44.3273C58.5346 44.2879 58.5093 44.3302 58.5768 44.3667Z" fill="#263238"/>
<path d="M58.9391 43.0777C60.6751 44.0568 61.6459 44.8925 63.1737 46.3218C63.1737 46.3218 63.1962 46.3218 63.1878 46.3078C61.6262 44.5014 60.8552 44.0231 58.9672 43.013C58.8997 42.9792 58.8716 43.0383 58.9391 43.0777Z" fill="#263238"/>
<path d="M38.6614 35.4585L33.6447 40.1601C33.6447 40.1601 31.6188 32.8671 31.6329 30.5599C31.6329 27.9572 32.9722 28.5312 34.7279 30.2785C36.4837 32.0258 38.6614 35.4585 38.6614 35.4585Z" fill="#D60665"/>
<path opacity="0.1" d="M38.6614 35.4585L33.6447 40.1601C33.6447 40.1601 31.6188 32.8671 31.6329 30.5599C31.6329 27.9572 32.9722 28.5312 34.7279 30.2785C36.4837 32.0258 38.6614 35.4585 38.6614 35.4585Z" fill="black"/>
<path d="M37.6347 34.715C36.9144 35.2271 34.9702 37.0672 34.6438 37.3683C34.4721 37.5286 33.8194 38.1898 33.6477 38.3474C33.6252 38.3671 33.6477 38.3981 33.6815 38.3784C34.0107 38.0801 34.3708 37.8156 34.7 37.5146C35.0292 37.2135 37.0776 35.4156 37.6572 34.7403C37.6713 34.7262 37.6516 34.7037 37.6347 34.715Z" fill="#263238"/>
<path d="M65.249 91.877C64.568 92.0993 44.9624 91.3142 44.228 90.8387C44.138 90.7853 43.7891 87.0149 43.7891 87.0149L46.0569 72.5273L58.9294 72.699L56.445 85.0791C56.445 85.0791 59.2812 86.3847 61.6193 87.5242C63.0599 88.222 64.312 88.8607 64.599 89.0943C65.3531 89.6964 65.9327 91.6575 65.249 91.877Z" fill="#F7A9A0"/>
<path d="M65.2507 91.8782C64.5698 92.1005 44.9585 91.3155 44.2269 90.8428C44.1397 90.7865 43.7852 87.0162 43.7852 87.0162L44.4858 82.5537L56.835 83.1164L56.4354 85.0691C56.4354 85.0691 59.2688 86.3747 61.6098 87.5114C63.0504 88.2092 64.3025 88.8479 64.5895 89.0814C65.3492 89.7004 65.9288 91.6616 65.2507 91.8782Z" fill="#EBEBEB"/>
<path d="M65.2382 91.8974C64.5432 92.114 44.8081 91.6554 44.0681 91.1602C43.7868 90.9773 43.6827 88.0961 43.6602 84.6128V84.5059L56.3977 84.6606V84.8744C56.3977 84.8744 63.8736 88.4309 64.6305 89.0612C65.3873 89.6915 65.9332 91.6892 65.2382 91.8974Z" fill="#C7C7C7"/>
<path d="M64.1127 91.9538C59.7938 91.9988 44.6984 91.5936 44.0681 91.1631C43.7868 90.9802 43.6827 88.099 43.6602 84.6157V84.5088L51.6369 84.6045L64.1127 91.9538Z" fill="#A6A6A6"/>
<path d="M65.0323 91.1317C61.7065 90.9714 48.2797 90.6422 44.982 90.7378C44.9539 90.7378 44.9539 90.7575 44.982 90.7603C48.274 90.9882 61.7009 91.2077 65.0295 91.1852C65.0998 91.1852 65.1026 91.1346 65.0323 91.1317Z" fill="#263238"/>
<path d="M57.4571 84.9415C56.1543 84.6601 54.5477 84.8289 53.5179 85.7406C53.4785 85.7743 53.5179 85.8306 53.5714 85.8165C54.8319 85.4425 56.1289 85.2048 57.4402 85.1075C57.4603 85.1065 57.4794 85.0982 57.4941 85.0844C57.5087 85.0705 57.5178 85.0518 57.5199 85.0317C57.5219 85.0117 57.5167 84.9915 57.5052 84.975C57.4937 84.9584 57.4766 84.9465 57.4571 84.9415Z" fill="#263238"/>
<path d="M58.3887 85.5328C57.086 85.2514 55.4794 85.4231 54.4496 86.3319C54.4102 86.3656 54.4496 86.4219 54.503 86.4107C55.7665 86.0379 57.0664 85.8021 58.3803 85.7072C58.4034 85.7084 58.426 85.7002 58.4432 85.6847C58.4603 85.6691 58.4706 85.6474 58.4717 85.6242C58.4728 85.6011 58.4647 85.5785 58.4492 85.5613C58.4336 85.5442 58.4119 85.5339 58.3887 85.5328Z" fill="#263238"/>
<path d="M59.3184 86.1236C58.0157 85.8422 56.4091 86.0139 55.3793 86.9227C55.3399 86.9593 55.3793 87.0127 55.4327 87.0015C56.6932 86.6268 57.9902 86.3881 59.3015 86.2896C59.3217 86.2886 59.3408 86.2804 59.3554 86.2665C59.37 86.2526 59.3792 86.2339 59.3812 86.2139C59.3832 86.1938 59.378 86.1737 59.3665 86.1571C59.355 86.1405 59.3379 86.1287 59.3184 86.1236Z" fill="#263238"/>
<path d="M57.5257 83.206L43.1563 82.5532C43.1563 82.5532 48.1224 62.3876 47.5935 61.7321C47.0307 61.0286 26.2264 66.2339 22.0678 61.0737C17.8079 55.7868 19.9435 48.1758 19.9435 48.1758H34.1329C34.1329 48.1758 33.8515 50.0806 34.0428 50.9895C34.0428 50.9895 54.0199 47.9338 58.3642 50.2354C59.2083 50.6884 62.3034 53.232 62.354 55.6433C62.6269 66.293 57.5257 83.206 57.5257 83.206Z" fill="#455A64"/>
<path d="M57.6683 80.6024C55.9632 80.3885 54.2553 80.2591 52.5418 80.1297C50.8282 80.0003 49.1147 79.899 47.4012 79.8342C46.4333 79.7949 45.4654 79.8033 44.4975 79.7695C44.4925 79.7713 44.4882 79.7745 44.4852 79.7788C44.4821 79.7831 44.4805 79.7882 44.4805 79.7934C44.4805 79.7987 44.4821 79.8038 44.4852 79.8081C44.4882 79.8124 44.4925 79.8156 44.4975 79.8174C45.3585 79.8793 46.2166 79.989 47.0776 80.0565L49.6268 80.2422C51.3403 80.3548 53.0539 80.4504 54.7674 80.5545C55.7325 80.6136 56.6976 80.6446 57.6655 80.6671C57.6725 80.6653 57.6789 80.6613 57.6835 80.6557C57.6881 80.6501 57.6907 80.6431 57.6911 80.6358C57.6914 80.6285 57.6893 80.6213 57.6852 80.6153C57.6811 80.6093 57.6752 80.6047 57.6683 80.6024Z" fill="#263238"/>
<path d="M49.805 60.3C47.0448 60.39 44.2986 60.6292 41.5525 60.8993C38.8064 61.1694 36.0433 61.462 33.2747 61.6421C31.9016 61.7293 30.5229 61.7856 29.1442 61.794C27.999 61.8432 26.8529 61.7237 25.7425 61.4395C24.64 61.1173 23.6977 60.3947 23.1004 59.4137C22.5 58.4194 22.1066 57.314 21.944 56.1639C21.581 53.837 21.944 51.4594 22.3689 49.1635C22.4223 48.8821 22.4758 48.6007 22.5264 48.2968C22.5264 48.2715 22.4899 48.2603 22.4814 48.2968C21.9187 50.6125 21.3925 52.9957 21.5613 55.3873C21.6304 56.5609 21.9166 57.7114 22.4055 58.7806C22.8464 59.8194 23.6048 60.692 24.572 61.2735C25.5596 61.8362 26.7273 62.0022 27.8612 62.0585C29.1836 62.126 30.5229 62.0585 31.8453 61.9994C34.6759 61.8616 37.4952 61.5689 40.3089 61.2763C43.1225 60.9837 45.9221 60.6967 48.7499 60.556C49.0622 60.5391 49.3745 60.5279 49.6868 60.5166C49.2592 63.0489 45.638 78.1246 45.4354 79.3176C45.4157 79.4358 45.5282 79.4723 45.5592 79.3514C46.1782 77.0019 49.6925 61.9066 49.926 60.4322C49.9297 60.4151 49.9293 60.3973 49.9247 60.3803C49.9202 60.3633 49.9116 60.3477 49.8997 60.3348C49.8879 60.3218 49.8731 60.3119 49.8566 60.3058C49.8401 60.2998 49.8224 60.2978 49.805 60.3Z" fill="#263238"/>
<path d="M60.8862 92.4668H30.1777V95.8629H60.8862V92.4668Z" fill="#D60665"/>
<path d="M3.18945 62.6709H4.93112L16.1858 75.5463H14.4441L3.18945 62.6709Z" fill="#A6A6A6"/>
<path d="M25.1251 61.6514H0.921875V62.6699H25.1251V61.6514Z" fill="#A6A6A6"/>
<path d="M9.75781 62.6709H11.4995L22.7542 75.5463H21.0125L9.75781 62.6709Z" fill="#A6A6A6"/>
<path d="M20.9553 86.4082C29.7001 86.4082 34.7676 92.4829 34.7676 99.6325C34.7676 106.782 30.0744 112.719 21.5461 112.719C12.1091 112.719 7.60156 105.212 7.60156 99.5678C7.60156 93.9235 12.1034 86.4082 20.9553 86.4082Z" fill="#37474F"/>
<path d="M19.6113 86.4082C27.9257 86.4082 32.7399 92.4829 32.7399 99.6325C32.7399 106.782 28.2802 112.719 20.1684 112.719C11.1956 112.719 6.91602 105.201 6.91602 99.5565C6.91602 93.9123 11.1956 86.4082 19.6113 86.4082Z" fill="#263238"/>
<path d="M19.6955 91.543C24.7601 91.543 27.6948 95.2458 27.6948 99.6013C27.6948 103.957 24.9768 107.572 20.0359 107.572C14.5662 107.572 11.9551 102.997 11.9551 99.5563C11.9551 96.1152 14.5662 91.543 19.6955 91.543Z" fill="#C7C7C7"/>
<path d="M45.7102 70.3783V69.2275L16.282 70.1757V72.7643C16.282 72.7643 7.75942 82.1761 6.89844 91.9592L36.4082 92.5838L41.1493 92.4657H46.9708V86.5513C46.9708 86.5513 42.5702 83.3437 43.3411 76.7907C43.5972 74.6157 45.7102 70.3783 45.7102 70.3783Z" fill="#D60665"/>
<path d="M33.6613 91.2129C33.3546 91.7757 28.878 92.5832 20.392 92.8111C12.7529 93.0165 7.04673 92.8477 6.60498 92.3553C6.16323 91.8629 7.2887 83.1546 12.4602 78.4389C17.6318 73.7231 24.9529 73.045 29.7812 75.8587C34.027 78.3263 37.1952 84.598 33.6613 91.2129Z" fill="#D60665"/>
<path opacity="0.1" d="M35.0985 82.9693C34.6449 80.9072 33.5984 79.0226 32.0879 77.5473C30.5737 76.0301 28.6829 74.9434 26.6097 74.3988C24.2971 73.8216 21.8751 73.8477 19.5755 74.4748C18.4247 74.7766 17.3118 75.2079 16.2582 75.7606C15.1458 76.3584 14.0974 77.0683 13.1294 77.8793C12.8705 78.0932 12.6089 78.307 12.3528 78.5265C12.3303 78.5434 12.3528 78.5743 12.3866 78.5574C13.3605 77.701 14.4149 76.9405 15.5351 76.2868C16.5572 75.703 17.6416 75.2358 18.768 74.894C21.0011 74.1956 23.3726 74.0622 25.6699 74.5057C27.7462 74.923 29.6706 75.8954 31.2382 77.3194C32.7487 78.6793 33.8596 80.4255 34.4514 82.37C35.1548 84.7391 34.9241 87.3473 34.2235 89.6855C34.1306 90.0006 34.0294 90.3101 33.9252 90.6196C33.9252 90.6534 33.9646 90.6647 33.9759 90.6337C34.9213 88.2055 35.6275 85.5888 35.0985 82.9693Z" fill="black"/>
<path d="M14.6456 93.7107C9.52186 93.7107 6.80948 93.5531 5.43359 93.0073L6.0723 91.4007C7.68172 92.0394 12.721 92.0281 20.83 91.9353C26.8203 91.8649 31.2406 91.2994 33.998 90.2471L34.6142 91.8621C31.6317 92.9876 27.1298 93.5841 20.8497 93.6572C18.4665 93.691 16.4125 93.7107 14.6456 93.7107Z" fill="#DBDBDB"/>
<path d="M46.195 69.9858C46.195 69.9858 46.392 63.5481 46.195 63.2949C45.998 63.0416 16.2069 62.5042 15.3149 62.583C14.423 62.6618 14.333 70.1799 14.4005 70.5316C14.468 70.8833 45.4184 70.0533 46.195 69.9858Z" fill="#37474F"/>
<path d="M48.9843 63.4238C48.8971 63.3225 45.1211 63.2156 44.9129 63.21C44.7047 63.2043 44.6315 70.0669 44.7441 70.0613C44.8566 70.0556 48.8464 70.1119 48.9786 69.9656C49.1109 69.8193 49.1728 63.6433 48.9843 63.4238Z" fill="#455A64"/>
<path d="M28.1196 62.5879C28.0129 62.6991 27.9431 62.8407 27.9199 62.9931C27.8845 63.1536 27.8592 63.3162 27.8439 63.4798C27.8073 63.8062 27.7876 64.1382 27.7707 64.4674C27.7426 65.1315 27.7257 65.7983 27.7145 66.4679C27.7032 67.1376 27.6863 67.8016 27.7145 68.4628C27.717 68.7903 27.7395 69.1173 27.782 69.442C27.7989 69.5989 27.8358 69.7531 27.8917 69.9006C27.9123 69.9668 27.9487 70.027 27.9977 70.076C28.0467 70.125 28.1069 70.1614 28.1731 70.182C28.0988 70.1798 28.0268 70.1564 27.9654 70.1145C27.9041 70.0726 27.856 70.014 27.827 69.9457C27.7483 69.7985 27.6869 69.6427 27.6441 69.4814C27.5645 69.1515 27.5127 68.8155 27.4894 68.4769C27.4374 67.803 27.4205 67.1268 27.4387 66.4511C27.4556 65.7786 27.4837 65.1033 27.5597 64.4309C27.5962 64.0945 27.6498 63.7602 27.7201 63.4292C27.7594 63.2655 27.8073 63.1039 27.8636 62.9452C27.9086 62.8074 27.9874 62.6357 28.1196 62.5879Z" fill="#455A64"/>
<path d="M2.04381 61.6367H30.1777L30.1777 44.1469H2.04381L2.04381 61.6367Z" fill="#37474F"/>
<path d="M2.04121 61.6367H22.3672L22.3672 44.1469H2.04121L2.04121 61.6367Z" fill="#263238"/>
<path d="M13.2995 44.1445H11.1133V61.6343H13.2995V44.1445Z" fill="#D60665"/>
<path d="M22.3707 42.5254H1.4707V44.1433H22.3707V42.5254Z" fill="#37474F"/>
<path d="M30.8054 42.5254H22.3672V44.1433H30.8054V42.5254Z" fill="#263238"/>
<path d="M13.4825 42.5254H10.9277V44.1433H13.4825V42.5254Z" fill="#D60665"/>
<path d="M5.02159 42.6006H25.5586V29.8321H5.02159V42.6006Z" fill="#37474F"/>
<path d="M5.02092 42.6006H19.8574V29.8321H5.02092L5.02092 42.6006Z" fill="#263238"/>
<path d="M13.236 29.834H11.6406V42.6024H13.236V29.834Z" fill="#D60665"/>
<path d="M19.8573 28.6523H4.60156V29.8341H19.8573V28.6523Z" fill="#37474F"/>
<path d="M26.0166 28.6523H19.8574V29.8341H26.0166V28.6523Z" fill="#263238"/>
<path d="M13.3713 28.6523H11.5059V29.8341H13.3713V28.6523Z" fill="#D60665"/>
<path d="M85.1874 86.3008C93.9352 86.3008 98.9998 92.3755 98.9998 99.525C98.9998 106.675 94.3066 112.603 85.7755 112.603C76.3356 112.603 71.8281 105.096 71.8281 99.4547C71.8281 93.8133 76.3356 86.3008 85.1874 86.3008Z" fill="#37474F"/>
<path d="M83.8407 86.3008C92.1551 86.3008 96.9721 92.3755 96.9721 99.525C96.9721 106.675 92.5096 112.603 84.4006 112.603C75.4278 112.603 71.1426 105.096 71.1426 99.4547C71.1426 93.8133 75.4278 86.3008 83.8407 86.3008Z" fill="#263238"/>
<path d="M83.9271 91.4365C88.9917 91.4365 91.9291 95.1393 91.9291 99.4949C91.9291 103.85 89.2111 107.466 84.2675 107.466C78.8005 107.466 76.1895 102.891 76.1895 99.4527C76.1895 96.0144 78.8005 91.4365 83.9271 91.4365Z" fill="#C7C7C7"/>
<path d="M71.0373 56.4344H67.5961L65.2383 52.9736H69.2703L71.0373 56.4344Z" fill="#D60665"/>
<path d="M65.2383 52.9736L66.6198 54.9995L67.5961 56.4344H71.0373L70.1059 54.6112L69.2675 52.9736H65.2383Z" fill="#D60665"/>
<path opacity="0.1" d="M65.2383 52.9736L66.6198 54.9995L70.1059 54.6112L69.2675 52.9736H65.2383Z" fill="black"/>
<path d="M79.4002 82.2601L76.0491 83.031L72.9766 80.1836L76.9044 79.2832L79.4002 82.2601Z" fill="#D60665"/>
<path d="M72.9766 80.1836L74.7745 81.8521L76.0463 83.031L79.403 82.2601L78.0862 80.6928L76.9044 79.2832L72.9766 80.1836Z" fill="#D60665"/>
<path opacity="0.1" d="M72.9766 80.1836L74.7745 81.8521L78.0862 80.6928L76.9044 79.2832L72.9766 80.1836Z" fill="black"/>
<path d="M98.2402 87.9901L94.9848 89.7008C94.9848 89.7008 85.5561 87.9901 79.5096 89.2844C73.463 90.5787 71.831 93.8088 71.831 93.8088H68.7754C68.7754 93.8088 71.3977 84.4927 75.8462 81.1107C80.2946 77.7286 87.4441 78.4855 91.3973 80.6155C95.3505 82.7454 98.2402 87.9901 98.2402 87.9901Z" fill="#D60665"/>
<path opacity="0.1" d="M94.6403 89.0562C94.0097 88.3978 93.3265 87.7918 92.5976 87.2442C91.8753 86.6828 91.1115 86.1767 90.3129 85.7305C88.7647 84.8702 87.0669 84.3125 85.3102 84.0873C81.8719 83.6652 78.276 84.6669 75.7437 87.3089C74.32 88.8058 73.3071 90.6431 72.3448 92.4974C72.3307 92.5255 72.3701 92.548 72.3842 92.5199C73.1995 90.8895 74.229 89.3755 75.4455 88.018C76.6176 86.7382 78.0765 85.7546 79.7025 85.148C82.9467 83.9579 86.4554 84.4137 89.5729 85.8515C90.4656 86.2561 91.3271 86.7263 92.1502 87.2583C92.992 87.8252 93.8044 88.4347 94.5841 89.0844C94.5891 89.0889 94.5954 89.0919 94.6021 89.0928C94.6089 89.0937 94.6157 89.0926 94.6218 89.0895C94.6279 89.0865 94.6329 89.0817 94.6362 89.0757C94.6395 89.0698 94.641 89.063 94.6403 89.0562Z" fill="black"/>
<path d="M58.866 54.5712C58.8154 54.6894 52.0204 55.9386 52.0204 55.9386C52.0204 55.9386 50.8949 55.1789 51.5899 54.2167L58.4074 52.7451C58.6695 52.9601 58.8555 53.2537 58.9381 53.5825C59.0207 53.9112 58.9954 54.2579 58.866 54.5712Z" fill="#263238"/>
<path d="M73.1269 45.7862V53.8474C73.1269 53.8474 68.7741 53.4675 67.6149 53.4281C66.4557 53.3888 61.3038 54.0556 61.3038 54.0556L60.9043 52.2492C60.9043 52.2492 64.8772 50.8621 66.5654 49.7788C68.2536 48.6955 70.1979 46.6247 71.2417 46.1661C71.8325 45.8961 72.4776 45.7661 73.1269 45.7862Z" fill="#D60665"/>
<path d="M61.3193 52.0215C61.5781 52.2876 61.7733 52.6089 61.8902 52.9612C62.0072 53.3135 62.0428 53.6877 61.9946 54.0558C61.9946 54.0558 58.7504 54.6495 58.711 54.6495C58.7379 54.2678 58.6454 53.8872 58.4463 53.5605C58.2471 53.2338 57.9512 52.9771 57.5996 52.8262L61.3193 52.0215Z" fill="#DBDBDB"/>
<path d="M73.1679 53.8484C74.3458 53.8484 75.3007 52.0445 75.3007 49.8192C75.3007 47.594 74.3458 45.79 73.1679 45.79C71.99 45.79 71.0352 47.594 71.0352 49.8192C71.0352 52.0445 71.99 53.8484 73.1679 53.8484Z" fill="#DBDBDB"/>
<path d="M73.3007 53.4154C74.3092 53.4154 75.1268 51.8055 75.1268 49.8195C75.1268 47.8336 74.3092 46.2236 73.3007 46.2236C72.2922 46.2236 71.4746 47.8336 71.4746 49.8195C71.4746 51.8055 72.2922 53.4154 73.3007 53.4154Z" fill="white"/>
<path d="M73.8541 56.4453C74.5631 57.4836 77.4021 71.6026 77.9592 72.3116C78.5163 73.0207 79.5827 73.0713 79.5827 73.0713L81.4594 77.7364C81.4594 77.7364 76.7972 79.2079 74.2086 81.3351C70.8631 84.084 67.7709 93.1975 67.7709 93.1975C67.2644 93.552 60.9787 96.1378 59.2539 96.2391C59.2539 96.2391 67.2701 87.4379 67.9228 75.2575C68.1761 70.539 65.2724 63.8931 65.0838 60.6011C64.8756 57.0671 65.9448 56.4453 67.8215 56.4453H73.8541Z" fill="#D60665"/>
<path d="M58.8682 97.2446L57.6133 96.0572C64.6475 88.6122 67.2417 76.882 67.0363 73.6801C66.9294 72.0397 66.4032 70.2052 65.8433 68.2609C65.2468 66.1872 64.5715 63.8378 64.2845 61.2858C64.0172 58.9167 64.2845 57.3861 65.092 56.4716C65.8995 55.5572 67.0081 55.56 67.7453 55.5628H74.4419V57.2904H67.7425C67.0982 57.2904 66.6592 57.3129 66.3807 57.6252C66.1021 57.9376 65.7392 58.7507 66.0037 61.0945C66.285 63.5002 66.9012 65.678 67.5062 67.7826C68.0914 69.8197 68.6316 71.7414 68.7611 73.5675C68.9805 76.9861 66.2822 89.431 58.8682 97.2446Z" fill="#DBDBDB"/>
<path d="M77.9932 76.1634C78.3871 77.6153 79.6279 78.5382 80.7647 78.2287C81.9014 77.9192 82.5063 76.4926 82.1096 75.0436C81.7129 73.5945 80.472 72.666 79.3353 72.9755C78.1986 73.285 77.5965 74.7144 77.9932 76.1634Z" fill="#DBDBDB"/>
<path d="M78.4142 76.0479C78.7659 77.3422 79.8407 78.175 80.8142 77.9105C81.7878 77.646 82.2886 76.3827 81.9397 75.0968C81.5908 73.811 80.5132 72.9697 79.5424 73.2342C78.5717 73.4987 78.0625 74.7536 78.4142 76.0479Z" fill="white"/>
<path opacity="0.1" d="M73.0171 75.9307C72.7048 74.4704 72.3671 73.0157 72.0745 71.5526C71.7819 70.0895 71.5118 68.6236 71.2839 67.152C71.0616 65.7818 70.8224 64.3974 70.7352 63.0103C70.648 61.5613 70.7352 60.0982 71.4386 58.7898C71.4401 58.7872 71.4411 58.7844 71.4414 58.7814C71.4418 58.7785 71.4416 58.7755 71.4408 58.7726C71.44 58.7697 71.4387 58.767 71.4369 58.7647C71.4351 58.7623 71.4328 58.7603 71.4302 58.7588C71.4276 58.7574 71.4248 58.7564 71.4218 58.756C71.4188 58.7557 71.4158 58.7559 71.413 58.7567C71.4101 58.7574 71.4074 58.7588 71.405 58.7606C71.4027 58.7624 71.4007 58.7647 71.3992 58.7673C70.6761 59.8224 70.4398 61.0914 70.4004 62.3491C70.4041 63.7357 70.5265 65.1195 70.7662 66.4852C71.1767 69.4842 71.7402 72.4602 72.4544 75.4017C72.8624 77.0646 73.3885 78.6993 73.9512 80.3144C73.9512 80.3196 73.9533 80.3246 73.957 80.3283C73.9607 80.332 73.9657 80.3341 73.9709 80.3341C73.9762 80.3341 73.9812 80.332 73.9849 80.3283C73.9886 80.3246 73.9906 80.3196 73.9906 80.3144C73.6549 78.8457 73.3304 77.3844 73.0171 75.9307Z" fill="black"/>
<path opacity="0.1" d="M46.9694 86.5513V92.46H41.9273V87.9863C41.9273 87.9863 39.1137 86.5654 38.5509 81.3967C38.0445 76.7147 41.781 70.4656 42.4901 69.3316L45.7005 69.2275V70.3783C45.7005 70.3783 43.5874 74.6157 43.3314 76.7907C42.5688 83.3437 46.9694 86.5513 46.9694 86.5513Z" fill="black"/>
<path d="M59.6532 93.8417C58.9723 94.0612 39.3638 93.279 38.6295 92.8035C38.5423 92.75 38.1934 88.9769 38.1934 88.9769L40.4612 74.4893L53.3337 74.6609L50.8493 87.041C50.8493 87.041 53.6826 88.3438 56.0236 89.4833C57.4642 90.1839 58.7163 90.8226 59.0033 91.0534C59.7545 91.6611 60.3342 93.6222 59.6532 93.8417Z" fill="#F7A9A0"/>
<path d="M59.655 93.842C58.9712 94.0614 39.3628 93.2792 38.6312 92.8037C38.5412 92.7503 38.1895 88.9799 38.1895 88.9799L38.8901 84.5146L51.2393 85.0774L50.8482 87.0244C50.8482 87.0244 53.6815 88.33 56.0225 89.4667C57.4603 90.1673 58.7152 90.806 59.0022 91.0367C59.7534 91.6642 60.3331 93.6225 59.655 93.842Z" fill="#EBEBEB"/>
<path d="M59.6397 93.867C58.9475 94.0836 39.2096 93.6222 38.4696 93.127C38.1883 92.9441 38.087 90.0657 38.0645 86.5824V86.4727L50.7991 86.6274V86.8441C50.7991 86.8441 58.2751 90.3977 59.0319 91.028C59.7888 91.6583 60.3347 93.6503 59.6397 93.867Z" fill="#C7C7C7"/>
<path d="M59.4357 93.0938C56.1128 92.9362 42.6859 92.607 39.3883 92.7027C39.3602 92.7027 39.3602 92.7224 39.3883 92.7224C42.6803 92.9531 56.1071 93.1726 59.4357 93.1501C59.5061 93.1472 59.5061 93.0966 59.4357 93.0938Z" fill="#263238"/>
<path d="M51.8607 86.9039C50.5579 86.6225 48.9513 86.7941 47.9215 87.703C47.8793 87.7395 47.9215 87.793 47.975 87.7817C49.2354 87.4068 50.5324 87.1681 51.8438 87.0699C51.8639 87.0689 51.883 87.0606 51.8976 87.0468C51.9122 87.0329 51.9214 87.0142 51.9234 86.9941C51.9255 86.9741 51.9203 86.9539 51.9087 86.9374C51.8972 86.9208 51.8802 86.9089 51.8607 86.9039Z" fill="#263238"/>
<path d="M52.793 87.4972C51.4903 87.2158 49.8837 87.3847 48.8539 88.2935C48.8145 88.3301 48.8539 88.3863 48.9073 88.3723C50.1687 87.9971 51.4666 87.7584 52.7789 87.6604C52.7897 87.6613 52.8005 87.6601 52.8107 87.6569C52.821 87.6536 52.8305 87.6484 52.8387 87.6415C52.8469 87.6346 52.8537 87.6261 52.8587 87.6165C52.8636 87.607 52.8667 87.5966 52.8676 87.5858C52.8685 87.5751 52.8673 87.5643 52.8641 87.5541C52.8608 87.5438 52.8556 87.5343 52.8487 87.5261C52.8417 87.5179 52.8333 87.5111 52.8237 87.5061C52.8142 87.5012 52.8037 87.4981 52.793 87.4972Z" fill="#263238"/>
<path d="M53.7227 88.0889C52.42 87.8076 50.8134 87.9764 49.7836 88.888C49.7442 88.9218 49.7836 88.9781 49.837 88.964C51.0979 88.5914 52.3948 88.3537 53.7058 88.2549C53.726 88.2539 53.7451 88.2457 53.7597 88.2318C53.7743 88.2179 53.7834 88.1992 53.7855 88.1792C53.7875 88.1591 53.7823 88.139 53.7708 88.1224C53.7593 88.1059 53.7422 88.094 53.7227 88.0889Z" fill="#263238"/>
<path d="M51.9356 85.1705L37.5662 84.5149C37.5662 84.5149 42.5351 64.3493 42.0061 63.6937C41.4434 62.9875 22.4961 68.1956 18.3347 63.0353C14.0748 57.7484 18.3347 48.8994 18.3347 48.8994H32.9011C32.9011 48.8994 32.9011 50.5201 31.9107 52.9455C31.9107 52.9455 48.4269 49.887 52.7797 52.1886C53.6379 52.6444 56.7188 55.188 56.7695 57.5993C57.0227 68.2631 51.9356 85.1705 51.9356 85.1705Z" fill="#455A64"/>
<path d="M52.0711 82.5671C50.366 82.3533 48.6553 82.221 46.9418 82.0944C45.2283 81.9678 43.5176 81.8637 41.8012 81.7962C40.8361 81.7596 39.8682 81.768 38.9003 81.7314C38.8936 81.7314 38.8872 81.7341 38.8824 81.7389C38.8777 81.7436 38.875 81.7501 38.875 81.7568C38.875 81.7635 38.8777 81.7699 38.8824 81.7747C38.8872 81.7794 38.8936 81.7821 38.9003 81.7821C39.7613 81.844 40.6195 81.9509 41.4805 82.0184C42.3414 82.086 43.1687 82.1479 44.0297 82.2041C45.7404 82.3195 47.4539 82.4124 49.1674 82.5193C50.1353 82.5784 51.1004 82.6093 52.0683 82.6318C52.0754 82.6301 52.0817 82.6261 52.0863 82.6204C52.0909 82.6148 52.0936 82.6078 52.0939 82.6005C52.0942 82.5932 52.0922 82.586 52.0881 82.58C52.084 82.574 52.078 82.5695 52.0711 82.5671Z" fill="#263238"/>
<path d="M24.4239 50.1164C24.4048 50.1757 24.3803 50.2332 24.3507 50.288C24.3475 50.292 24.3458 50.297 24.3458 50.3021C24.3458 50.3072 24.3475 50.3122 24.3507 50.3161C24.1819 50.8423 24.1115 51.3994 23.9483 51.9284C23.7934 52.4899 23.4495 52.9808 22.9748 53.3183C21.9788 54.0105 20.783 54.3228 19.6237 54.6098C19.6168 54.6119 19.6106 54.6162 19.6063 54.622C19.602 54.6278 19.5996 54.6349 19.5996 54.6422C19.5996 54.6494 19.602 54.6565 19.6063 54.6623C19.6106 54.6682 19.6168 54.6724 19.6237 54.6745C20.292 54.6782 20.9567 54.5766 21.5933 54.3735C22.1915 54.2079 22.7555 53.9373 23.259 53.5744C23.7319 53.2165 24.0692 52.7085 24.2156 52.1338C24.2864 51.8282 24.3418 51.5192 24.3817 51.2081C24.4468 50.8503 24.4853 50.4883 24.497 50.1248C24.4929 50.1193 24.4877 50.1147 24.4817 50.1112C24.4757 50.1078 24.4691 50.1056 24.4623 50.1048C24.4554 50.104 24.4485 50.1047 24.4419 50.1066C24.4353 50.1086 24.4291 50.1119 24.4239 50.1164Z" fill="#263238"/>
<path d="M34.2516 52.2248C33.4593 52.4534 32.6875 52.748 31.9444 53.1054L31.9078 53.1223C31.9231 53.0765 31.9344 53.0294 31.9416 52.9816C31.9416 52.9254 31.9585 52.8719 31.9697 52.8156C31.981 52.7594 31.9697 52.7003 31.9866 52.6412V52.5512C32.0824 52.545 32.1758 52.519 32.261 52.475C32.3462 52.4309 32.4214 52.3697 32.4818 52.2951C32.6372 52.0792 32.742 51.8311 32.7885 51.5692C32.8757 51.2428 32.9573 50.9108 33.0277 50.5788C33.098 50.2468 33.174 49.8388 33.2331 49.4533C33.3045 49.0886 33.3469 48.7189 33.3597 48.3475C33.3597 48.3341 33.3543 48.3212 33.3448 48.3117C33.3353 48.3022 33.3225 48.2969 33.309 48.2969C33.2956 48.2969 33.2827 48.3022 33.2732 48.3117C33.2637 48.3212 33.2584 48.3341 33.2584 48.3475C33.1712 48.688 33.1318 49.0397 33.0671 49.383C33.0023 49.7262 32.9292 50.0723 32.8504 50.4156C32.7716 50.7588 32.6872 51.1021 32.5915 51.4398C32.4959 51.7774 32.4227 52.1797 32.0738 52.2839C31.3535 52.4893 31.6771 50.877 31.7081 50.5563C31.7812 49.8247 31.8262 49.0763 31.9557 48.3503C31.9557 48.3222 31.9135 48.3081 31.9078 48.3503C31.7503 49.0172 31.573 49.6728 31.4548 50.348C31.3957 50.6801 31.3535 51.0149 31.317 51.3469C31.2585 51.6346 31.2819 51.9328 31.3845 52.2079C31.4291 52.3008 31.4958 52.3814 31.5786 52.4427C31.6615 52.504 31.7581 52.5441 31.86 52.5596L31.8375 52.6356C31.8206 52.689 31.8037 52.7425 31.7897 52.7959C31.7756 52.8494 31.7643 52.9057 31.7531 52.9591C31.7283 53.0226 31.7196 53.0912 31.7277 53.1589C31.734 53.1779 31.747 53.1939 31.7643 53.2039C31.4576 53.3362 31.1481 53.4684 30.8443 53.6119C30.4622 53.762 30.0925 53.9416 29.7385 54.1493C29.6963 54.169 29.7385 54.2253 29.7694 54.2168C30.1656 54.1057 30.553 53.9655 30.9287 53.7976C31.3141 53.6513 31.694 53.4937 32.0766 53.3334C32.8346 53.0551 33.5679 52.7134 34.2685 52.312C34.2801 52.3097 34.2903 52.303 34.2969 52.2932C34.3035 52.2835 34.3059 52.2715 34.3037 52.2599C34.3014 52.2484 34.2947 52.2382 34.2849 52.2316C34.2752 52.225 34.2632 52.2225 34.2516 52.2248Z" fill="#263238"/>
<path d="M56.3394 55.7678C55.841 54.3025 54.8324 53.0652 53.4976 52.2816C52.1274 51.5247 50.5292 51.3222 48.9957 51.2743C47.2119 51.2209 45.4168 51.3137 43.6357 51.4263C41.7393 51.5444 39.8429 51.7245 37.9577 51.989C36.0725 52.2535 34.2212 52.5771 32.3669 52.9766C31.9224 53.0723 31.4806 53.1904 31.0389 53.3142C31.0051 53.3142 31.0107 53.3874 31.0389 53.3818C32.8818 53.1229 34.7164 52.819 36.5593 52.5658C38.4023 52.3126 40.2649 52.1128 42.1276 51.9721C43.9902 51.8314 45.8332 51.7526 47.6874 51.7245C49.2068 51.702 50.7824 51.7245 52.2258 52.2141C52.9396 52.4421 53.6006 52.8104 54.1701 53.2974C54.7295 53.7975 55.1879 54.4002 55.5207 55.0728C56.2803 56.5668 56.3507 58.2804 56.4267 59.9348C56.6461 64.8447 53.115 80.4465 52.4875 82.9535C52.4859 82.9752 52.492 82.9969 52.5047 83.0146C52.5175 83.0323 52.5361 83.045 52.5573 83.0504C52.5784 83.0557 52.6008 83.0535 52.6205 83.044C52.6401 83.0345 52.6558 83.0184 52.6648 82.9985C53.371 80.1679 56.8853 65.4299 56.8853 61.0012C56.8881 59.2342 56.9528 57.4335 56.3394 55.7678Z" fill="#263238"/>
<path d="M44.1141 61.9934C41.5396 62.0834 38.9792 62.3226 36.4187 62.5927C33.8583 62.8628 31.2782 63.1554 28.7008 63.3355C27.4178 63.4227 26.132 63.479 24.8461 63.4874C23.777 63.5375 22.7067 63.4178 21.6751 63.1329C20.6273 62.7943 19.7467 62.0715 19.2103 61.1099C18.6474 60.1021 18.2816 58.9963 18.1327 57.8516C17.795 55.5247 18.1327 53.1472 18.5294 50.8512C18.5801 50.5698 18.6279 50.2885 18.6785 49.9874C18.6785 49.9593 18.642 49.948 18.6363 49.9874C18.0989 52.3031 17.6178 54.6862 17.7922 57.0779C17.8561 58.2467 18.1217 59.3957 18.5772 60.474C18.9743 61.4945 19.6807 62.3652 20.5975 62.9641C21.5415 63.4692 22.5937 63.7385 23.6644 63.7491C24.9035 63.7955 26.1442 63.7758 27.3812 63.69C30.0205 63.5521 32.6484 63.2595 35.2736 62.9669C37.8987 62.6743 40.507 62.3873 43.135 62.2466C43.4164 62.2325 43.7174 62.2184 44.0072 62.21C43.6105 64.7282 40.2341 79.8152 40.0456 81.0082C40.0259 81.1263 40.1328 81.1629 40.1609 81.0447C40.7237 78.6925 44.0157 63.6 44.2323 62.1228C44.2361 62.106 44.2357 62.0885 44.2313 62.0719C44.2269 62.0553 44.2186 62.04 44.207 62.0273C44.1954 62.0146 44.1809 62.0049 44.1647 61.999C44.1485 61.993 44.1312 61.9911 44.1141 61.9934Z" fill="#263238"/>
<path d="M17.4973 50.6961C17.5367 50.7523 36.7851 52.2323 36.9877 52.0522C37.269 51.7962 35.3642 32.0752 33.645 29.1827C33.2764 28.5665 31.8668 28.2429 30.6316 28.2542C30.3099 28.2526 29.9888 28.2799 29.6721 28.3358H29.6412C29.3855 28.3793 29.1391 28.4658 28.9124 28.5918C25.2152 30.899 21.2705 40.0097 20.2772 42.7671C18.6312 47.314 17.3538 50.4935 17.4973 50.6961Z" fill="#D60665"/>
<path d="M32.7606 31.6984C31.8039 31.6984 30.1889 30.1537 29.8681 28.7046C29.8456 28.6033 30.2423 27.7395 30.67 26.6647C30.9289 26.0091 31.2018 25.2776 31.4016 24.591C31.4409 24.4475 35.4054 26.8898 35.4054 26.8898C34.9101 27.6778 34.5133 28.5235 34.2237 29.4081C34.1976 29.5001 34.1797 29.5942 34.1702 29.6894C34.1713 29.7053 34.1713 29.7213 34.1702 29.7373C34.0942 30.3084 33.7819 31.7125 32.7606 31.6984Z" fill="#F7A9A0"/>
<path d="M34.1679 29.6985C34.1691 29.7144 34.1691 29.7304 34.1679 29.7464C34.0162 29.7242 33.8665 29.6894 33.7206 29.6422C31.1883 28.8488 31.4527 25.478 31.5597 24.6367C32.294 24.9687 35.4116 26.8877 35.4116 26.8877C34.9168 27.6763 34.519 28.5218 34.227 29.4059C34.1997 29.5017 34.1799 29.5996 34.1679 29.6985Z" fill="#263238"/>
<path d="M31.7506 19.3196C31.0556 20.8334 31.2694 25.5097 32.2514 26.6689C33.6779 28.3571 36.3228 28.8664 37.8394 27.0825C39.3081 25.3521 38.9226 19.2718 37.7972 18.1773C36.1343 16.5678 32.7804 17.0884 31.7506 19.3196Z" fill="#F7A9A0"/>
<path d="M35.8254 22.6504C35.8254 22.6504 35.8029 22.6673 35.8029 22.6813C35.8254 22.9937 35.8029 23.3594 35.5215 23.4748C35.5215 23.4748 35.5215 23.4945 35.5215 23.4917C35.8676 23.4298 35.8957 22.9458 35.8254 22.6504Z" fill="#263238"/>
<path d="M35.5315 22.3352C35.0251 22.3155 35.0279 23.3341 35.4978 23.351C35.9677 23.3679 35.9592 22.3493 35.5315 22.3352Z" fill="#263238"/>
<path d="M37.6503 22.7002C37.6503 22.7002 37.6756 22.7143 37.6728 22.7283C37.6728 23.0406 37.7066 23.4036 37.9908 23.5077C37.9908 23.5077 37.9908 23.5274 37.9908 23.5246C37.6419 23.4768 37.5856 22.9956 37.6503 22.7002Z" fill="#263238"/>
<path d="M37.9276 22.3712C38.4313 22.3318 38.4735 23.3476 38.0036 23.3813C37.5337 23.4151 37.5028 22.3994 37.9276 22.3712Z" fill="#263238"/>
<path d="M35.1301 21.8711C35.2629 21.8313 35.3935 21.7844 35.5212 21.7304C35.6668 21.7024 35.7986 21.626 35.8954 21.5137C35.9194 21.4725 35.9291 21.4245 35.923 21.3772C35.9169 21.3298 35.8953 21.2859 35.8617 21.2521C35.785 21.196 35.6947 21.1614 35.6002 21.152C35.5057 21.1426 35.4104 21.1587 35.3242 21.1986C35.1367 21.2513 34.9759 21.3729 34.8741 21.5391C34.8536 21.5781 34.8447 21.6223 34.8485 21.6663C34.8524 21.7102 34.8687 21.7522 34.8957 21.7871C34.9226 21.8221 34.959 21.8485 35.0006 21.8634C35.0421 21.8783 35.0871 21.881 35.1301 21.8711Z" fill="#263238"/>
<path d="M38.3207 21.8572C38.1837 21.8308 38.0483 21.796 37.9155 21.7531C37.7682 21.7383 37.6303 21.6738 37.5244 21.5702C37.4959 21.5326 37.4805 21.4866 37.4805 21.4394C37.4805 21.3922 37.4959 21.3462 37.5244 21.3086C37.5959 21.2456 37.6829 21.203 37.7765 21.1852C37.87 21.1674 37.9666 21.175 38.0562 21.2073C38.2474 21.2433 38.4181 21.3497 38.5345 21.5055C38.5582 21.5415 38.5711 21.5835 38.5718 21.6266C38.5726 21.6697 38.5611 21.7121 38.5387 21.7489C38.5163 21.7857 38.484 21.8154 38.4454 21.8346C38.4068 21.8538 38.3636 21.8616 38.3207 21.8572Z" fill="#263238"/>
<path d="M35.5375 25.5746C35.6135 25.6477 35.6894 25.749 35.8189 25.7603C35.9358 25.7568 36.0508 25.729 36.1565 25.6787C36.1565 25.6787 36.1762 25.6787 36.1706 25.6955C36.1256 25.7575 36.0647 25.8061 35.9944 25.8363C35.9241 25.8666 35.8469 25.8772 35.771 25.8672C35.7062 25.8507 35.6479 25.815 35.6037 25.7648C35.5595 25.7146 35.5316 25.6522 35.5234 25.5858C35.5037 25.5717 35.5262 25.5633 35.5375 25.5746Z" fill="#263238"/>
<path d="M36.8266 24.9991C36.6944 25.1735 36.5188 25.3103 36.3174 25.3958C36.207 25.4387 36.0862 25.4465 35.9713 25.4183C35.7209 25.3536 35.7124 25.137 35.7574 24.9231C35.7843 24.8191 35.822 24.7182 35.87 24.6221C36.1403 24.8469 36.4756 24.979 36.8266 24.9991Z" fill="#263238"/>
<path d="M36.3174 25.3965C36.207 25.4394 36.0862 25.4472 35.9713 25.419C35.7209 25.3543 35.7124 25.1377 35.7574 24.9238C35.8903 24.9281 36.0179 24.9771 36.1195 25.0629C36.2211 25.1487 36.2908 25.2662 36.3174 25.3965Z" fill="#FF9BBC"/>
<path d="M38.472 19.7207C38.3003 19.3212 38.1006 18.9188 37.8586 18.8372C37.6166 18.7556 37.4619 19.3465 36.9132 19.3831C36.176 19.4337 35.8187 18.7556 34.7861 18.6824C33.3004 18.5812 32.6477 19.8079 32.6139 21.9238C32.583 23.8033 31.4462 23.9806 31.4462 23.9806C31.4462 23.9806 30.7569 19.8361 31.9246 18.463C33.0922 17.0899 35.7737 16.4934 37.5744 17.7933C38.23 18.2688 38.472 19.7207 38.472 19.7207Z" fill="#263238"/>
<path d="M32.3923 23.2441C32.3923 23.2441 31.5285 21.6487 30.8167 21.9385C30.1048 22.2283 30.6338 24.4708 31.3794 24.845C31.4728 24.9012 31.5766 24.9378 31.6846 24.9528C31.7926 24.9677 31.9024 24.9606 32.0076 24.932C32.1128 24.9033 32.211 24.8537 32.2965 24.786C32.3819 24.7184 32.4528 24.6341 32.5049 24.5383L32.3923 23.2441Z" fill="#F7A9A0"/>
<path d="M30.9863 22.5723V22.592C31.5125 22.8733 31.7432 23.4361 31.8867 23.9791C31.861 23.9201 31.8229 23.8675 31.7748 23.8247C31.7268 23.7819 31.6701 23.7501 31.6086 23.7313C31.547 23.7126 31.4822 23.7075 31.4185 23.7162C31.3548 23.725 31.2937 23.7475 31.2396 23.7821C31.2227 23.7821 31.2396 23.8159 31.2396 23.8131C31.3402 23.7938 31.4443 23.8058 31.5379 23.8476C31.6315 23.8894 31.71 23.9588 31.7629 24.0466C31.8482 24.1957 31.918 24.3532 31.9711 24.5165C31.9908 24.5672 32.0837 24.5531 32.0696 24.494V24.4799C32.1653 23.7765 31.732 22.7298 30.9863 22.5723Z" fill="#263238"/>
<path d="M38.2942 18.4862C37.8581 18.3821 35.4411 18.4553 34.3551 18.9223C33.269 19.3894 31.3388 20.951 31.2403 21.0326C31.1418 21.1142 30.6438 17.13 33.8767 16.4041C37.3966 15.6106 38.2942 18.4862 38.2942 18.4862Z" fill="#D60665"/>
<path d="M31.4258 20.8689C31.4258 20.8689 33.5614 18.0553 34.7487 17.4081C35.9361 16.761 38.595 16.4008 40.241 17.1267C41.5212 17.6895 38.3924 19.3383 38.3924 19.3383C38.3628 19.2033 38.3021 19.077 38.2152 18.9696C38.1282 18.8621 38.0175 18.7764 37.8916 18.7193C37.0925 18.4013 35.5731 18.6461 34.7065 18.9359C33.6148 19.3045 31.4258 20.8689 31.4258 20.8689Z" fill="#D60665"/>
<path opacity="0.2" d="M31.4258 20.8842C31.4258 20.8842 33.5614 18.0536 34.7487 17.4093C35.9361 16.765 38.595 16.402 40.241 17.1279C41.5212 17.6906 38.3924 19.3395 38.3924 19.3395C38.3628 19.2045 38.3021 19.0782 38.2152 18.9708C38.1282 18.8633 38.0175 18.7776 37.8916 18.7205C37.0925 18.4025 35.5731 18.6473 34.7065 18.9371C33.6148 19.3057 31.4258 20.8842 31.4258 20.8842Z" fill="black"/>
<path d="M27.6947 33.8558C27.5146 39.4043 29.563 49.7952 31.0711 50.5015C35.9388 52.7749 44.1294 52.9184 46.9346 52.9437C48.1445 52.9437 50.0015 44.3395 48.8029 43.8556C48.0066 43.5348 35.9978 43.532 35.7868 43.1043C35.5758 42.6766 32.7143 36.4978 31.4791 33.0764C29.8387 28.5267 27.7988 30.5975 27.6947 33.8558Z" fill="#F7A9A0"/>
<path d="M47.5129 43.7393C47.5129 43.7393 51.1904 43.9644 53.5848 44.2232C54.9241 44.3667 57.1948 44.8197 58.1261 45.374C59.5329 46.2181 64.8339 50.5737 63.8041 51.8848C62.8699 53.0694 58.7845 48.7392 58.7845 48.7392C58.7845 48.7392 63.2864 52.743 61.9077 53.967C60.529 55.1909 56.5617 49.6789 56.5617 49.6789C56.5617 49.6789 61.1029 53.8994 59.4738 54.9349C58.2443 55.7143 54.3698 50.9282 54.3698 50.9282C54.3698 50.9282 58.2499 54.586 57.0175 55.4301C55.6557 56.3783 51.8038 52.1831 51.8038 52.1831C48.3064 53.8375 45.9654 53.1932 44.3532 52.5376C43.9564 52.3913 47.5129 43.7393 47.5129 43.7393Z" fill="#F7A9A0"/>
<path d="M57.3136 47.2536C57.8595 47.7038 58.4166 48.1568 58.9202 48.6605C59.4239 49.1641 59.9134 49.6762 60.3693 50.2193C60.9792 50.9178 61.5078 51.6833 61.9449 52.5011C61.0642 51.0943 59.286 49.2936 58.7795 48.7955C58.2731 48.2975 57.7975 47.7742 57.2939 47.2762C57.2798 47.2593 57.2995 47.2424 57.3136 47.2536Z" fill="#263238"/>
<path d="M55.4796 49.0427C56.152 49.6476 56.8414 50.2273 57.4885 50.8632C58.1357 51.499 58.6872 52.1546 59.2865 52.8327C59.3315 52.8834 59.2865 52.8918 59.2386 52.8327C58.614 52.1828 57.9866 51.6285 57.3563 50.9841C56.726 50.3398 56.1155 49.6702 55.4627 49.0511C55.4514 49.0483 55.4683 49.0343 55.4796 49.0427Z" fill="#263238"/>
<path d="M53.6239 50.2944C54.6792 51.1995 55.6382 52.2112 56.4854 53.3135C56.5276 53.3669 56.4714 53.3726 56.4235 53.3135C55.4922 52.2921 54.7691 51.4846 53.593 50.3282C53.5845 50.3141 53.6239 50.2775 53.6239 50.2944Z" fill="#263238"/>
<path d="M57.6644 44.928C56.7903 44.5546 55.8624 44.3219 54.9155 44.2387C52.8728 43.9883 50.8188 43.8251 48.7648 43.6759C46.7108 43.5268 44.6259 43.3946 42.555 43.3186C41.3902 43.2736 40.2253 43.2389 39.0604 43.2145C37.8956 43.192 37.6536 43.2342 36.4831 43.2483C36.4522 43.2483 36.455 43.2905 36.4831 43.2933C38.523 43.4002 39.6485 43.4846 41.6884 43.5915C43.7283 43.6984 45.7626 43.8194 47.7969 43.9601C49.8312 44.1008 51.8317 44.2415 53.8407 44.4666C54.8123 44.5325 55.7759 44.6879 56.719 44.9308C57.643 45.2702 58.5001 45.7693 59.2514 46.4052C60.1123 47.0833 63.3396 50.1868 63.6351 50.5891C63.6716 50.637 63.6857 50.6229 63.666 50.561C63.4325 49.7197 59.5524 45.8087 57.6644 44.928Z" fill="#263238"/>
<path d="M33.5053 37.4355L27.5206 40.8288C27.5206 40.8288 27.2674 33.2656 27.8217 31.0203C28.4463 28.488 29.5999 29.3659 30.8998 31.4705C32.1998 33.5751 33.5053 37.4355 33.5053 37.4355Z" fill="#D60665"/>
<path opacity="0.1" d="M33.5053 37.4355L27.5206 40.8288C27.5206 40.8288 27.2674 33.2656 27.8217 31.0203C28.4463 28.488 29.5999 29.3659 30.8998 31.4705C32.1998 33.5751 33.5053 37.4355 33.5053 37.4355Z" fill="black"/>
<path d="M32.6789 36.4676C31.8601 36.7968 29.536 38.1304 29.1505 38.3471C28.9479 38.4596 28.1545 38.952 27.9519 39.0646C27.9266 39.0787 27.9519 39.1152 27.9772 39.1012C28.3683 38.8873 28.7791 38.7129 29.173 38.5018C29.5669 38.2908 31.9867 37.019 32.6957 36.4957C32.6984 36.493 32.7002 36.4896 32.7006 36.4858C32.7011 36.482 32.7003 36.4782 32.6984 36.475C32.6964 36.4717 32.6934 36.4693 32.6899 36.4679C32.6864 36.4666 32.6825 36.4664 32.6789 36.4676Z" fill="#263238"/>
<path d="M32.5599 34.6372C32.4671 34.2855 32.3714 33.9366 32.2645 33.5877C32.3236 33.8466 32.3911 34.1055 32.4586 34.3643C32.242 33.8747 32.0197 33.3908 31.7777 32.9209H31.7637C32.0253 33.6834 32.3264 34.4318 32.6078 35.1887C32.8891 35.9456 33.1705 36.6687 33.4519 37.4087C33.3253 37.5072 33.2015 37.6028 33.072 37.6901C33.0668 37.6934 33.0631 37.6987 33.0618 37.7048C33.0605 37.7109 33.0616 37.7172 33.065 37.7224C33.0684 37.7277 33.0736 37.7313 33.0797 37.7327C33.0858 37.734 33.0921 37.7328 33.0974 37.7295C33.2521 37.6507 33.4069 37.5719 33.5672 37.5016C33.5858 37.4946 33.601 37.4808 33.6099 37.4631C33.6187 37.4454 33.6206 37.4249 33.6151 37.4059C33.2999 36.4858 32.951 35.5517 32.5599 34.6372Z" fill="#263238"/>
<path d="M22.0521 4.95476C21.8186 2.61379 20.2035 0.28125 17.3673 0.28125C14.5312 0.28125 12.9189 2.62504 12.6854 4.95476C12.3281 8.57033 14.7647 11.8454 17.3673 14.8336C19.97 11.8567 22.4094 8.58159 22.0521 4.95476ZM17.3673 7.5546C16.8597 7.5546 16.3635 7.40403 15.9414 7.12194C15.5194 6.83985 15.1905 6.43892 14.9963 5.96987C14.8022 5.50082 14.7515 4.98472 14.8508 4.48688C14.95 3.98903 15.1947 3.5318 15.5538 3.17304C15.913 2.81429 16.3705 2.57011 16.8684 2.47142C17.3664 2.37272 17.8824 2.42394 18.3513 2.61859C18.8201 2.81325 19.2207 3.14258 19.5023 3.56494C19.7839 3.9873 19.934 4.4837 19.9334 4.99134C19.9349 5.32913 19.8696 5.66389 19.7413 5.97636C19.6129 6.28884 19.4241 6.57286 19.1856 6.81211C18.9472 7.05137 18.6638 7.24112 18.3517 7.37047C18.0397 7.49983 17.7051 7.56623 17.3673 7.56585V7.5546Z" fill="#D60665"/>
</svg>
