<svg width="25" height="24" viewBox="0 0 25 24" fill="none" xmlns="http://www.w3.org/2000/svg">
<path fill-rule="evenodd" clip-rule="evenodd" d="M6.74 2.00222H17.24C18.6118 1.96192 19.9428 2.47191 20.9365 3.4186C21.9301 4.36529 22.5039 5.67004 22.53 7.04222V14.6322C22.4483 17.4531 20.1116 19.6827 17.29 19.6322H15.67C15.2628 19.6333 14.8775 19.8168 14.62 20.1322L13.09 22.0822C12.8337 22.3994 12.4478 22.5837 12.04 22.5837C11.6322 22.5837 11.2463 22.3994 10.99 22.0822L9.41 20.0922C9.1525 19.7768 8.7672 19.5933 8.36 19.5922H6.74C3.91843 19.6427 1.58174 17.4131 1.5 14.5922V7.00222C1.57637 4.17899 3.9163 1.94624 6.74 2.00222ZM17.25 18.1322C19.2585 18.1827 20.9301 16.6004 20.99 14.5922V7.04222C20.9301 5.02999 19.2523 3.44617 17.24 3.50222H6.74C4.72766 3.44617 3.04989 5.02999 2.99 7.04222V14.5922C3.04989 16.6044 4.72766 18.1883 6.74 18.1322H8.36C9.2271 18.1324 10.0473 18.5259 10.59 19.2022L11.99 20.9822L13.39 19.2022C13.9327 18.5259 14.7529 18.1324 15.62 18.1322H17.25Z" fill="#C0009C"/>
<path d="M8.24023 8.96289C7.82602 8.96289 7.49023 9.29868 7.49023 9.71289V12.1129C7.49023 12.5271 7.82602 12.8629 8.24023 12.8629C8.65445 12.8629 8.99023 12.5271 8.99023 12.1129V9.71289C8.99023 9.29868 8.65445 8.96289 8.24023 8.96289V8.96289Z" fill="#C0009C"/>
<path d="M11.9902 8.96289C11.576 8.96289 11.2402 9.29868 11.2402 9.71289V12.1129C11.2402 12.5271 11.576 12.8629 11.9902 12.8629C12.4044 12.8629 12.7402 12.5271 12.7402 12.1129V9.71289C12.7402 9.29868 12.4044 8.96289 11.9902 8.96289V8.96289Z" fill="#C0009C"/>
<path d="M15.7402 8.96289C15.326 8.96289 14.9902 9.29868 14.9902 9.71289V12.1129C14.9902 12.5271 15.326 12.8629 15.7402 12.8629C16.1544 12.8629 16.4902 12.5271 16.4902 12.1129V9.71289C16.4902 9.29868 16.1544 8.96289 15.7402 8.96289V8.96289Z" fill="#C0009C"/>
</svg>
