<svg width="74" height="46" viewBox="0 0 74 46" fill="none" xmlns="http://www.w3.org/2000/svg">
<path d="M69.8422 0.0839844C72.1001 0.0839844 73.9475 1.95898 73.9475 4.25065V41.7506C73.9475 44.0423 72.1001 45.9173 69.8422 45.9173H4.158C1.9001 45.9173 0.0527344 44.0423 0.0527344 41.7506V4.25065C0.0527344 1.95898 1.9001 0.0839844 4.158 0.0839844H69.8422Z" fill="white"/>
<path d="M56.09 19.041H55.4742C54.6531 21.1244 54.0374 22.166 53.4216 25.291H57.3216C56.7058 22.166 56.7058 20.7077 56.09 19.041ZM62.0426 31.3327H58.5531C58.3479 31.3327 58.3479 31.3327 58.1426 31.1243L57.7321 29.2493L57.5268 28.8327H52.6005C52.3952 28.8327 52.19 28.8327 52.19 29.2493L51.5742 31.1243C51.5742 31.3327 51.3689 31.3327 51.3689 31.3327H47.0584L47.4689 30.291L53.4216 16.1243C53.4216 15.0827 54.0373 14.666 55.0637 14.666H58.1426C58.3479 14.666 58.5531 14.666 58.5531 15.0827L61.4268 28.6243C61.6321 29.4577 61.8374 30.0827 61.8374 30.916C62.0426 31.1244 62.0426 31.1243 62.0426 31.3327ZM34.5374 30.7077L35.3584 26.9577C35.5637 26.9577 35.7689 27.166 35.7689 27.166C37.2058 27.791 38.6426 28.2077 40.0795 27.9993C40.49 27.9993 41.1058 27.791 41.5163 27.5827C42.5426 27.166 42.5426 26.1244 41.7216 25.291C41.311 24.8744 40.6952 24.666 40.0795 24.2494C39.2584 23.8327 38.4374 23.416 37.8216 22.791C35.3584 20.7077 36.1795 17.791 37.6163 16.3327C38.8479 15.4993 39.4637 14.666 41.1058 14.666C43.5689 14.666 46.2374 14.666 47.4689 15.0827H47.6742C47.4689 16.3327 47.2637 17.3743 46.8531 18.6243C45.8268 18.2077 44.8005 17.791 43.7742 17.791C43.1584 17.791 42.5426 17.791 41.9268 17.9994C41.5163 17.9994 41.311 18.2077 41.1058 18.416C40.6952 18.8327 40.6952 19.4577 41.1058 19.8743L42.1321 20.7077C42.9531 21.1243 43.7742 21.541 44.39 21.9577C45.4163 22.5827 46.4426 23.6243 46.6479 24.8743C47.0584 26.7493 46.4426 28.416 44.8005 29.666C43.7742 30.4993 43.3637 30.916 41.9268 30.916C39.0531 30.916 36.7952 31.1244 34.9479 30.4994C34.7426 30.916 34.7426 30.916 34.5374 30.7077ZM27.3531 31.3327C27.5584 29.8744 27.5584 29.8744 27.7637 29.2493C28.79 24.666 29.8163 19.8744 30.6374 15.291C30.8426 14.8743 30.8426 14.666 31.2531 14.666H34.9479C34.5374 17.166 34.1268 19.041 33.511 21.3327C32.8952 24.4577 32.2795 27.5827 31.4584 30.7077C31.4584 31.1243 31.2531 31.1243 30.8426 31.1243L27.3531 31.3327ZM8.26367 15.0827C8.26367 14.8743 8.6742 14.666 8.87946 14.666H15.8584C16.8847 14.666 17.7058 15.291 17.911 16.3327L19.7584 25.4993C19.7584 25.7077 19.7584 25.7077 19.9637 25.916C19.9637 25.7077 20.1689 25.7077 20.1689 25.7077L24.4795 15.0827C24.2742 14.8743 24.4795 14.666 24.6847 14.666H28.9952C28.9952 14.8743 28.9952 14.8743 28.79 15.0827L22.4268 30.291C22.2216 30.7077 22.2216 30.916 22.0163 31.1243C21.811 31.3327 21.4005 31.1243 20.99 31.1243H17.911C17.7058 31.1243 17.5005 31.1243 17.5005 30.7077L14.2163 17.791C13.8058 17.3743 13.19 16.7493 12.3689 16.541C11.1374 15.916 8.87946 15.4993 8.46893 15.4993L8.26367 15.0827Z" fill="#142688"/>
</svg>
