<svg width="219" height="154" viewBox="0 0 219 154" fill="none" xmlns="http://www.w3.org/2000/svg">
<path d="M109.056 153.518C169.286 153.518 218.112 150.668 218.112 147.151C218.112 143.635 169.286 140.784 109.056 140.784C48.8259 140.784 0 143.635 0 147.151C0 150.668 48.8259 153.518 109.056 153.518Z" fill="#F5F5F5"/>
<path d="M48.2369 130.362C48.2369 130.362 49.1031 124.023 53.1584 123.326C57.2138 122.628 55.9707 119.569 57.045 118.382C58.1194 117.195 60.8585 120.694 58.4962 124.085C56.1339 127.477 58.0631 126.414 57.045 129.569C56.027 132.725 47.8657 135.621 48.2369 130.362Z" fill="#263238"/>
<path opacity="0.2" d="M48.2369 130.362C48.2369 130.362 49.1031 124.023 53.1584 123.326C57.2138 122.628 55.9707 119.569 57.045 118.382C58.1194 117.195 60.8585 120.694 58.4962 124.085C56.1339 127.477 58.0631 126.414 57.045 129.569C56.027 132.725 47.8657 135.621 48.2369 130.362Z" fill="white"/>
<path d="M49.5826 134.693H49.4813C49.4129 134.665 49.3582 134.611 49.3289 134.542C49.2995 134.474 49.2977 134.397 49.3239 134.328C49.3239 134.26 51.8437 127.578 49.4251 117.454C48.673 114.54 47.6193 111.712 46.2809 109.017C43.9355 103.955 41.9162 99.5452 44.9142 91.3501C45.8366 88.8134 46.7984 86.451 47.7265 84.1618C51.1631 75.7249 53.8742 69.0541 51.0112 62.8839C50.982 62.815 50.9803 62.7375 51.0065 62.6674C51.0326 62.5974 51.0847 62.5399 51.1519 62.507C51.2198 62.4766 51.2969 62.4743 51.3665 62.5007C51.4361 62.527 51.4924 62.5799 51.5231 62.6476C54.4873 69.0372 51.7368 75.8093 48.2496 84.3756C47.3159 86.6592 46.3597 89.0159 45.4372 91.5413C42.5181 99.517 44.4023 103.606 46.7815 108.781C48.1413 111.497 49.2158 114.347 49.9876 117.285C52.4511 127.629 49.8919 134.446 49.8638 134.513C49.8416 134.569 49.8025 134.616 49.7521 134.649C49.7017 134.681 49.6424 134.697 49.5826 134.693Z" fill="#263238"/>
<path d="M50.7465 133.213C50.7465 133.213 53.3675 129.276 49.5822 127.228C45.7968 125.181 45.0431 126.835 42.7033 125.372C40.3634 123.91 38.586 120.378 38.2036 122.639C37.8211 124.9 40.5096 126.194 39.5535 127.228C38.5973 128.263 45.898 134.99 50.7465 133.213Z" fill="#263238"/>
<path d="M52.6413 65.9089C52.6413 65.9089 54.5705 57.9669 48.7659 58.265C42.9613 58.5631 49.9246 65.2958 52.6413 65.9089Z" fill="#263238"/>
<path d="M48.0916 72.259C48.0916 72.259 45.8024 65.3632 41.8145 67.1969C37.8267 69.0305 44.0081 72.7146 48.0916 72.259Z" fill="#263238"/>
<path d="M55.11 72.309C55.11 72.309 54.0413 66.7407 58.3948 66.2794C62.7483 65.8182 61.2015 70.9085 55.11 72.309Z" fill="#263238"/>
<path d="M53.1309 84.0198C53.1309 84.0198 58.5642 78.3333 61.0053 82.0511C63.4464 85.769 56.9387 87.0683 53.1309 84.0198Z" fill="#263238"/>
<path d="M42.703 83.8966C42.703 83.8966 40.9087 75.3191 36.3978 78.3957C31.8868 81.4724 38.6533 85.0946 42.703 83.8966Z" fill="#263238"/>
<path d="M39.5341 96.6358C39.5341 96.6358 42.3464 87.6027 35.9175 89.1101C29.4885 90.6175 34.7982 94.881 39.5341 96.6358Z" fill="#263238"/>
<path d="M49.7383 98.9647C49.7383 98.9647 54.6936 92.0745 59.047 93.7844C63.4005 95.4943 60.4869 102.182 49.7383 98.9647Z" fill="#263238"/>
<path d="M45.913 113.657C45.913 113.657 40.4233 103.673 36.548 107.498C32.6726 111.323 39.889 115.997 45.913 113.657Z" fill="#263238"/>
<path d="M52.6412 112.509C52.6412 112.509 50.7682 104.567 55.4535 104.848C60.1388 105.129 59.2895 110.135 52.6412 112.509Z" fill="#263238"/>
<g opacity="0.2">
<path d="M52.6393 65.9089C52.6393 65.9089 54.5686 57.9669 48.764 58.265C42.9593 58.5631 49.9226 65.2958 52.6393 65.9089Z" fill="white"/>
<path d="M48.0896 72.259C48.0896 72.259 45.8004 65.3632 41.8126 67.1969C37.8247 69.0305 44.0062 72.7146 48.0896 72.259Z" fill="white"/>
<path d="M55.1081 72.309C55.1081 72.309 54.0394 66.7407 58.3928 66.2794C62.7463 65.8182 61.1995 70.9085 55.1081 72.309Z" fill="white"/>
<path d="M53.1289 84.0198C53.1289 84.0198 58.5623 78.3333 61.0034 82.0511C63.4445 85.769 56.9368 87.0683 53.1289 84.0198Z" fill="white"/>
<path d="M42.6991 83.8956C42.6991 83.8956 40.9048 75.3181 36.3939 78.3947C31.8829 81.4714 38.6493 85.0937 42.6991 83.8956Z" fill="white"/>
<path d="M39.5341 96.6358C39.5341 96.6358 42.3464 87.6027 35.9175 89.1101C29.4885 90.6175 34.7982 94.881 39.5341 96.6358Z" fill="white"/>
<path d="M49.7363 98.9647C49.7363 98.9647 54.6916 92.0745 59.0451 93.7844C63.3985 95.4943 60.485 102.182 49.7363 98.9647Z" fill="white"/>
<path d="M45.913 113.657C45.913 113.657 40.4233 103.673 36.548 107.498C32.6726 111.323 39.889 115.997 45.913 113.657Z" fill="white"/>
<path d="M52.6393 112.509C52.6393 112.509 50.7663 104.567 55.4516 104.848C60.1369 105.129 59.2876 110.135 52.6393 112.509Z" fill="white"/>
</g>
<path d="M50.9658 76.7088H50.9095C50.8358 76.6923 50.7713 76.648 50.7295 76.585C50.7295 76.54 48.1478 72.4734 46.3986 71.6016C46.3611 71.5884 46.3268 71.5673 46.298 71.5399C46.2693 71.5124 46.2466 71.4792 46.2316 71.4424C46.2167 71.4055 46.2097 71.3659 46.2111 71.3262C46.2126 71.2864 46.2224 71.2474 46.2401 71.2118C46.2577 71.1761 46.2827 71.1446 46.3134 71.1193C46.3441 71.0941 46.3798 71.0756 46.4182 71.0651C46.4565 71.0546 46.4967 71.0524 46.536 71.0586C46.5752 71.0648 46.6128 71.0793 46.6461 71.101C48.2941 71.9166 50.4483 75.1114 51.0501 76.0394C54.0818 73.8908 56.1517 70.2517 56.1742 70.2123C56.1917 70.1797 56.2157 70.1509 56.2447 70.1278C56.2736 70.1046 56.307 70.0875 56.3427 70.0775C56.3784 70.0676 56.4157 70.0649 56.4525 70.0697C56.4893 70.0745 56.5247 70.0867 56.5566 70.1055C56.6204 70.1431 56.667 70.2039 56.687 70.2752C56.7069 70.3465 56.6985 70.4227 56.6635 70.4879C56.5735 70.6511 54.4137 74.4758 51.1233 76.675C51.0748 76.7002 51.0203 76.7119 50.9658 76.7088Z" fill="#263238"/>
<path d="M46.5214 87.8907H46.4877C46.4484 87.886 46.4106 87.873 46.3766 87.8526C46.3427 87.8323 46.3135 87.805 46.2908 87.7726C46.2627 87.7276 43.1242 83.3179 39.4119 81.5124C39.3448 81.4796 39.2934 81.4214 39.2692 81.3507C39.2449 81.2801 39.2497 81.2027 39.2825 81.1355C39.3154 81.0684 39.3735 81.0171 39.4442 80.9928C39.5148 80.9685 39.5923 80.9734 39.6594 81.0062C43.0342 82.6429 45.8465 86.2089 46.5664 87.1933C51.2742 83.1773 57.5063 82.8342 57.5682 82.8285C57.6055 82.8254 57.643 82.8301 57.6784 82.8423C57.7138 82.8544 57.7463 82.8738 57.7738 82.8992C57.8013 82.9246 57.8232 82.9554 57.8382 82.9897C57.8531 83.024 57.8608 83.0611 57.8607 83.0985C57.8629 83.1352 57.8579 83.1719 57.8457 83.2066C57.8336 83.2413 57.8147 83.2732 57.79 83.3004C57.7654 83.3277 57.7356 83.3497 57.7023 83.3653C57.6691 83.3808 57.633 83.3896 57.5963 83.391C57.5344 83.391 51.2855 83.7397 46.707 87.8176C46.6562 87.8638 46.5901 87.8898 46.5214 87.8907V87.8907Z" fill="#263238"/>
<path d="M44.282 102.369C44.226 102.371 44.1708 102.356 44.1245 102.324C40.4067 99.8042 37.1725 93.0546 37.0375 92.7621C37.0214 92.7286 37.0121 92.6921 37.0101 92.6549C37.0082 92.6178 37.0137 92.5806 37.0262 92.5455C37.0388 92.5104 37.0582 92.4782 37.0833 92.4507C37.1084 92.4232 37.1387 92.401 37.1725 92.3853C37.2405 92.3542 37.318 92.351 37.3884 92.3762C37.4588 92.4014 37.5165 92.4531 37.5493 92.5203C37.5493 92.5878 40.7554 99.2192 44.2989 101.745C45.3901 101.008 51.504 97.02 56.4031 96.5306C56.44 96.5269 56.4773 96.5305 56.5128 96.5413C56.5484 96.552 56.5815 96.5696 56.6102 96.5931C56.6389 96.6166 56.6627 96.6455 56.6803 96.6783C56.6978 96.711 56.7087 96.7468 56.7124 96.7837C56.7161 96.8207 56.7125 96.858 56.7018 96.8935C56.6911 96.929 56.6735 96.9621 56.65 96.9908C56.6264 97.0196 56.5975 97.0434 56.5648 97.0609C56.5321 97.0785 56.4963 97.0894 56.4593 97.0931C51.3184 97.6105 44.5239 102.273 44.4564 102.324C44.4041 102.356 44.3434 102.372 44.282 102.369Z" fill="#263238"/>
<path d="M49.5808 116.728C49.5405 116.727 49.5007 116.719 49.4639 116.702C49.4272 116.686 49.3942 116.662 49.3671 116.632C47.1787 114.38 44.3549 112.849 41.2732 112.245C41.2363 112.237 41.2013 112.222 41.1701 112.201C41.139 112.18 41.1123 112.152 41.0917 112.121C41.071 112.089 41.0568 112.054 41.0499 112.017C41.0429 111.98 41.0433 111.942 41.0511 111.905C41.0588 111.868 41.0738 111.833 41.0951 111.802C41.1164 111.77 41.1436 111.744 41.1752 111.723C41.2068 111.703 41.2421 111.688 41.2792 111.681C41.3163 111.674 41.3544 111.675 41.3913 111.683C44.5091 112.302 47.3728 113.833 49.6202 116.081C52.0163 114.191 54.8229 107.47 54.8511 107.397C54.8802 107.327 54.9356 107.272 55.0052 107.244C55.0748 107.215 55.1529 107.216 55.2223 107.245C55.2917 107.274 55.3466 107.329 55.3751 107.399C55.4036 107.469 55.4032 107.547 55.3742 107.616C55.2504 107.914 52.3087 114.928 49.7495 116.694C49.6981 116.722 49.6392 116.734 49.5808 116.728Z" fill="#263238"/>
<path d="M50.3398 132.268C50.3398 132.268 52.5897 128.691 55.1264 128.185C57.6631 127.678 58.7599 124.748 59.6992 126.497C60.6385 128.246 58.0512 134.079 50.3398 132.268Z" fill="#263238"/>
<path d="M62.0068 146.313H37.4666L35.8242 131.172H63.6492L62.0068 146.313Z" fill="#C0009C"/>
<path d="M64.2206 134.039H35.2482L34.877 130.833H64.5918L64.2206 134.039Z" fill="#C0009C"/>
<path opacity="0.3" d="M64.2206 134.039H35.2482L34.877 130.833H64.5918L64.2206 134.039Z" fill="white"/>
<path d="M196.857 0H128.945V146.313H196.857V0Z" fill="#C0009C"/>
<path opacity="0.2" d="M194.692 0H128.945V146.313H194.692V0Z" fill="white"/>
<path d="M151.707 8.21777H137.488V63.7272H151.707V8.21777Z" fill="#C0009C"/>
<path opacity="0.7" d="M150.391 8.21777H137.488V63.7272H150.391V8.21777Z" fill="white"/>
<path d="M142.427 79.2788C142.427 79.7672 142.282 80.2445 142.011 80.6506C141.739 81.0567 141.354 81.3731 140.902 81.56C140.451 81.7469 139.955 81.7958 139.476 81.7005C138.997 81.6053 138.557 81.3701 138.211 81.0248C137.866 80.6795 137.631 80.2395 137.536 79.7605C137.44 79.2815 137.489 78.7851 137.676 78.3339C137.863 77.8827 138.18 77.497 138.586 77.2257C138.992 76.9544 139.469 76.8096 139.957 76.8096C140.282 76.8088 140.603 76.8722 140.903 76.996C141.203 77.1198 141.476 77.3017 141.705 77.5311C141.935 77.7606 142.116 78.0331 142.24 78.333C142.364 78.6329 142.427 78.9543 142.427 79.2788Z" fill="#C0009C"/>
<path d="M142.426 81.748C143.79 81.748 144.895 80.6425 144.895 79.2788C144.895 77.9151 143.79 76.8096 142.426 76.8096C141.063 76.8096 139.957 77.9151 139.957 79.2788C139.957 80.6425 141.063 81.748 142.426 81.748Z" fill="#263238"/>
<path opacity="0.8" d="M142.426 81.748C143.79 81.748 144.895 80.6425 144.895 79.2788C144.895 77.9151 143.79 76.8096 142.426 76.8096C141.063 76.8096 139.957 77.9151 139.957 79.2788C139.957 80.6425 141.063 81.748 142.426 81.748Z" fill="white"/>
<path d="M112.991 46.5436C111.221 45.6906 109.513 44.7152 107.879 43.6244L107.389 39.2091L106.934 35.0693C110.213 35.8455 117.514 41.5489 118.695 44.0687C119.55 45.8742 119.685 49.654 112.991 46.5436Z" fill="#C0009C"/>
<path d="M91.578 146.453H86.9264C86.8499 146.453 86.7756 146.479 86.7162 146.527C86.6567 146.575 86.6158 146.643 86.6002 146.717L85.8465 150.126C85.8309 150.199 85.8299 150.274 85.8435 150.347C85.8572 150.42 85.8852 150.49 85.926 150.552C85.9668 150.615 86.0196 150.668 86.0813 150.71C86.1429 150.752 86.2122 150.781 86.2852 150.795H86.409C87.9107 150.795 89.0075 150.677 90.9087 150.677C92.073 150.677 95.5883 150.801 97.1914 150.801C98.7944 150.801 99.0081 149.215 98.3557 149.069C95.4027 148.422 93.181 147.533 92.2361 146.684C92.0547 146.525 91.8189 146.442 91.578 146.453Z" fill="#263238"/>
<path d="M111.305 146.33H106.653C106.577 146.33 106.503 146.357 106.444 146.405C106.385 146.453 106.344 146.52 106.327 146.594L105.573 150.003C105.558 150.075 105.556 150.15 105.57 150.223C105.583 150.296 105.611 150.365 105.651 150.427C105.691 150.489 105.743 150.543 105.804 150.585C105.865 150.627 105.934 150.657 106.006 150.672C106.047 150.677 106.089 150.677 106.13 150.672C107.638 150.672 108.734 150.559 110.63 150.559C111.794 150.559 115.304 150.678 116.913 150.678C118.521 150.678 118.729 149.091 118.071 148.945C115.118 148.304 112.897 147.41 111.952 146.56C111.773 146.404 111.542 146.321 111.305 146.33Z" fill="#263238"/>
<path d="M89.1151 60.2168H109.437C111.372 70.7686 116.783 113.42 112.446 146.695L105.561 146.909C105.561 146.909 106.838 96.3606 100.764 80.0323C100.061 88.773 99.2338 98.0705 98.5138 103.02C96.7421 115.197 92.8386 146.892 92.8386 146.892H85.8359C85.8359 146.892 87.3883 116.317 88.052 104.348C88.772 91.3716 89.087 62.8829 89.1151 60.2168Z" fill="#263238"/>
<path opacity="0.2" d="M85.8359 146.908H92.8386C92.8386 146.908 96.7421 115.191 98.5138 103.036C99.2338 98.0923 100.061 88.7948 100.764 80.0542C101.755 82.9174 102.508 85.8579 103.014 88.8454C106.641 108.436 105.539 146.931 105.539 146.931L112.418 146.841C116.76 113.566 111.349 70.7117 109.414 60.4805H89.1151C89.087 62.9159 88.7776 91.5171 88.052 104.51C87.3883 116.457 85.8359 146.908 85.8359 146.908Z" fill="white"/>
<path opacity="0.2" d="M100.764 80.0321C101.755 82.8953 102.508 85.8358 103.014 88.8234C103.576 81.0502 101.326 72.7988 101.326 72.7988L100.764 80.0321Z" fill="black"/>
<path d="M109.436 60.458H89.1141C89.0526 56.3967 88.7407 52.343 88.1804 48.3201C87.8711 46.1209 87.4549 43.8204 86.9036 41.5705C86.5008 39.8987 85.9955 38.2532 85.3906 36.6434C85.3906 36.6434 94.39 32.9593 106.939 35.0797C108.53 43.4472 109.366 51.9408 109.436 60.458Z" fill="#C0009C"/>
<path d="M95.2363 62.7251L107.92 62.7307L107.729 60.2334L95.2363 60.3853V62.7251Z" fill="black"/>
<path d="M108.548 62.731H109.887L109.437 60.2168L108.352 60.2281L108.548 62.731Z" fill="black"/>
<path d="M94.6049 60.3965L89.1152 60.4583V62.7251H94.6049V60.3965Z" fill="black"/>
<path d="M103.857 60.0645C103.699 59.9239 100.19 59.9745 99.9196 60.2895C99.9196 60.2895 99.7847 62.6743 99.9478 62.8824C100.111 63.0905 103.474 62.798 103.789 62.7868C104.104 62.7755 103.992 60.2051 103.857 60.0645ZM103.469 62.5562C103.204 62.5562 100.448 62.8037 100.313 62.6293C100.237 61.9212 100.228 61.2075 100.285 60.4976C100.499 60.2445 103.384 60.1995 103.514 60.3176C103.643 60.4357 103.728 62.5449 103.469 62.5562Z" fill="white"/>
<path d="M103.245 61.0098H102.553C102.489 61.0112 102.427 61.037 102.381 61.0819C102.335 61.1268 102.308 61.1875 102.305 61.2517C102.303 61.2873 102.308 61.323 102.32 61.3565C102.333 61.39 102.352 61.4204 102.377 61.4459C102.402 61.4714 102.432 61.4914 102.465 61.5044C102.498 61.5175 102.534 61.5233 102.57 61.5217L103.261 61.4936C103.296 61.4922 103.33 61.4837 103.362 61.4686C103.393 61.4535 103.421 61.4321 103.444 61.4057C103.466 61.3793 103.483 61.3485 103.494 61.3152C103.504 61.282 103.507 61.2469 103.503 61.2123C103.49 61.1538 103.457 61.1017 103.41 61.0648C103.363 61.0278 103.304 61.0084 103.245 61.0098Z" fill="white"/>
<path opacity="0.2" d="M88.1811 48.3208C87.8717 46.1216 87.4555 43.8211 86.9043 41.5713C87.1549 41.3872 87.4293 41.2377 87.7199 41.127C87.7199 41.127 89.6772 45.1542 88.1811 48.3208Z" fill="black"/>
<path d="M85.3908 36.6328C81.2454 38.6014 75.5927 50.6944 76.7458 54.7891C77.8988 58.8838 88.0512 64.8122 88.0512 64.8122L84.8677 67.8945C84.8677 67.8945 87.4382 70.0768 88.5968 69.8237C89.7555 69.5706 91.0829 66.7414 90.9985 65.324C90.9142 63.9066 89.1424 62.7254 89.1424 62.7254C89.1424 62.7254 81.9317 55.0197 81.7854 53.2367C81.4311 48.9451 87.0332 41.9875 87.0332 41.9875L85.3908 36.6328Z" fill="#B97964"/>
<path d="M85.3912 36.6328C83.0457 37.094 75.9306 46.4422 76.5943 54.0691L82.2752 53.2536C82.2752 53.2536 83.9625 47.5108 87.4554 44.0348C87.4554 44.0348 88.2485 41.9256 87.2361 38.5171C86.8592 37.2347 85.3912 36.6328 85.3912 36.6328Z" fill="#C0009C"/>
<path d="M76.2012 53.7655L82.6582 52.9443V53.7655L76.2012 55.3067V53.7655Z" fill="#C0009C"/>
<path opacity="0.2" d="M76.2012 53.7655L82.6582 52.9443V53.7655L76.2012 55.3067V53.7655Z" fill="white"/>
<path opacity="0.2" d="M112.991 46.5425C111.221 45.6896 109.512 44.7141 107.878 43.6233L107.389 39.208C108.564 39.8492 112.895 42.5097 112.991 46.5425Z" fill="black"/>
<path d="M114.782 42.2065C114.782 42.2065 107.042 41.2728 105.636 41.5034C104.23 41.734 101.181 44.417 101.063 44.5126C100.945 44.6082 103.2 47.4936 103.679 47.3924C104.157 47.2912 106.637 44.7545 106.705 44.5126C106.772 44.2707 106.907 43.8714 106.907 43.8714L114.275 46.245C114.275 46.245 115.918 43.8095 114.782 42.2065Z" fill="#B97964"/>
<path d="M106.203 41.5039C106.681 42.2692 106.931 43.1551 106.923 44.0575H107.705C107.903 43.6783 108.021 43.2622 108.051 42.8354C108.081 42.4086 108.022 41.9802 107.879 41.577L106.203 41.5039Z" fill="#C0009C"/>
<path opacity="0.2" d="M106.203 41.5039C106.681 42.2692 106.931 43.1551 106.923 44.0575H107.705C107.903 43.6783 108.021 43.2622 108.051 42.8354C108.081 42.4086 108.022 41.9802 107.879 41.577L106.203 41.5039Z" fill="black"/>
<path d="M108.145 41.7626C108.145 42.0494 107.639 42.2407 107.071 42.1957C106.503 42.1507 106.053 41.8863 106.075 41.6332C106.098 41.3801 106.576 41.1551 107.149 41.2001C107.723 41.2451 108.167 41.4813 108.145 41.7626Z" fill="#263238"/>
<path d="M107.879 41.5592C107.879 41.7673 107.513 41.9135 107.091 41.8798C106.669 41.846 106.343 41.6492 106.36 41.4411C106.377 41.233 106.731 41.0923 107.147 41.1261C107.564 41.1598 107.896 41.3511 107.879 41.5592Z" fill="#C0009C"/>
<path opacity="0.7" d="M107.879 41.5592C107.879 41.7673 107.513 41.9135 107.091 41.8798C106.669 41.846 106.343 41.6492 106.36 41.4411C106.377 41.233 106.731 41.0923 107.147 41.1261C107.564 41.1598 107.896 41.3511 107.879 41.5592Z" fill="white"/>
<path d="M114.088 46.5654L115.027 41.7451L115.792 42.0376L115.528 47.111L114.088 46.5654Z" fill="#C0009C"/>
<path opacity="0.2" d="M114.088 46.5654L115.027 41.7451L115.792 42.0376L115.528 47.111L114.088 46.5654Z" fill="white"/>
<path d="M90.0371 36.6329C90.0371 36.6329 90.8808 34.4899 94.9249 33.7868C98.969 33.0837 103.407 34.9398 104.487 36.2898L101.016 36.6329L99.2559 40.4632L95.2568 37.0491L90.0371 36.6329Z" fill="#C0009C"/>
<path opacity="0.2" d="M90.0371 36.6329C90.0371 36.6329 90.8808 34.4899 94.9249 33.7868C98.969 33.0837 103.407 34.9398 104.487 36.2898L101.016 36.6329L99.2559 40.4632L95.2568 37.0491L90.0371 36.6329Z" fill="white"/>
<path d="M92.2207 35.4507C92.9969 36.1538 94.2456 36.4575 95.438 36.5756L99.0715 39.9504L100.135 36.2607C100.135 36.2607 101.513 35.7713 100.911 34.877C99.2234 34.6014 98.419 33.8139 98.0984 32.8128C97.9132 32.1914 97.8558 31.5389 97.9297 30.8948C97.9548 30.5341 98.0017 30.1754 98.0703 29.8205L92.4176 25.6357C93.1431 28.3637 94.0487 33.4483 92.2207 35.4507Z" fill="#B97964"/>
<path opacity="0.2" d="M93.7031 28.2627C93.9281 31.6375 96.7123 32.588 98.0791 32.7624C97.8938 32.141 97.8364 31.4886 97.9103 30.8444L93.7031 28.2627Z" fill="black"/>
<path d="M103.611 18.4816C103.611 18.4816 104.258 22.8238 101.457 24.8543C98.6558 26.8848 98.6445 17.0586 98.6445 17.0586L103.611 18.4816Z" fill="#263238"/>
<path d="M93.3042 29.0509C93.8907 29.9191 94.746 30.5709 95.7386 30.9061C96.7313 31.2414 97.8066 31.2418 98.7994 30.9071C100.093 30.496 101.182 29.6096 101.848 28.4266C101.938 28.2654 102.022 28.0966 102.101 27.9204C103.479 24.6918 103.918 19.0503 100.509 16.9411C99.3448 16.2089 97.9372 15.9688 96.5957 16.2736C95.2543 16.5783 94.0886 17.4031 93.3548 18.5666C92.9159 19.2542 92.6496 20.0376 92.5786 20.8502C92.1793 24.6187 91.7574 26.8179 93.3042 29.0509Z" fill="#B97964"/>
<path d="M98.0963 22.8634C98.0232 23.1615 98.1582 23.4259 98.3606 23.4765C98.5631 23.5271 98.7656 23.2909 98.8162 22.9871C98.8669 22.6834 98.7487 22.4247 98.5519 22.374C98.355 22.3234 98.1525 22.5597 98.0963 22.8634Z" fill="#263238"/>
<path d="M101.539 23.4536C101.466 23.7517 101.607 24.0161 101.804 24.0611C102 24.1061 102.208 23.8754 102.259 23.5717C102.31 23.268 102.192 23.0093 101.995 22.9586C101.798 22.908 101.59 23.1611 101.539 23.4536Z" fill="#263238"/>
<path d="M100.421 23.415C100.622 24.4078 100.961 25.3676 101.427 26.2667C101.193 26.3809 100.937 26.4425 100.677 26.4474C100.416 26.4522 100.158 26.4002 99.9199 26.2948L100.421 23.415Z" fill="#A24E3F"/>
<path d="M97.2416 21.5868C97.2734 21.5959 97.3069 21.5971 97.3393 21.5902C97.3716 21.5834 97.4018 21.5687 97.4272 21.5474C97.5875 21.3863 97.7838 21.2655 97.9999 21.1951C98.216 21.1247 98.4458 21.1067 98.6702 21.1425C98.6935 21.1483 98.7177 21.1494 98.7414 21.1458C98.7651 21.1421 98.7879 21.1338 98.8083 21.1212C98.8288 21.1086 98.8465 21.0921 98.8604 21.0725C98.8744 21.053 98.8843 21.0309 98.8896 21.0075C98.8954 20.9849 98.8967 20.9615 98.8934 20.9384C98.89 20.9154 98.8821 20.8932 98.87 20.8733C98.8579 20.8534 98.842 20.8361 98.8232 20.8224C98.8043 20.8088 98.7829 20.799 98.7602 20.7937V20.7937C98.4782 20.7422 98.1878 20.7593 97.9138 20.8435C97.6397 20.9277 97.3898 21.0765 97.1853 21.2775C97.1516 21.3121 97.1328 21.3585 97.1328 21.4068C97.1328 21.4551 97.1516 21.5016 97.1853 21.5362C97.2009 21.5563 97.22 21.5734 97.2416 21.5868V21.5868Z" fill="#263238"/>
<path d="M97.0173 26.3672C97.4629 26.3958 97.8953 26.5301 98.2787 26.7589C98.6621 26.9878 98.9855 27.3047 99.2221 27.6833C99.2327 27.706 99.2345 27.7317 99.2272 27.7556C99.2199 27.7794 99.2041 27.7998 99.1827 27.8127C99.1727 27.8196 99.1612 27.8242 99.1492 27.8262C99.1372 27.8282 99.1249 27.8276 99.1131 27.8243C99.1013 27.8211 99.0904 27.8154 99.0811 27.8076C99.0717 27.7998 99.0642 27.79 99.059 27.779C98.8343 27.4317 98.5318 27.1416 98.1755 26.9316C97.8191 26.7217 97.4187 26.5978 97.006 26.5697C96.9816 26.5682 96.9587 26.5575 96.942 26.5398C96.9253 26.522 96.916 26.4985 96.916 26.4741C96.9175 26.4497 96.9282 26.4268 96.9459 26.41C96.9637 26.3933 96.9872 26.384 97.0116 26.3841L97.0173 26.3672Z" fill="#263238"/>
<path d="M103.221 22.5195C103.254 22.5307 103.29 22.5307 103.323 22.5195C103.368 22.5063 103.407 22.4763 103.431 22.4355C103.455 22.3947 103.462 22.3463 103.452 22.3002C103.378 22.0199 103.237 21.7619 103.041 21.5483C102.845 21.3347 102.6 21.1719 102.327 21.074C102.304 21.0671 102.28 21.0649 102.256 21.0674C102.233 21.0699 102.209 21.0772 102.189 21.0887C102.168 21.1002 102.149 21.1158 102.134 21.1345C102.119 21.1532 102.108 21.1747 102.102 21.1977C102.09 21.2439 102.096 21.2932 102.119 21.3351C102.142 21.377 102.18 21.4084 102.226 21.4227C102.437 21.5073 102.626 21.6405 102.776 21.8115C102.927 21.9825 103.035 22.1865 103.092 22.407C103.104 22.4343 103.121 22.4586 103.144 22.4781C103.166 22.4976 103.193 22.5117 103.221 22.5195Z" fill="#263238"/>
<path d="M98.1776 14.7919C97.7277 14.73 97.2777 14.6794 96.8277 14.6569C95.5213 14.5355 94.2079 14.7974 93.048 15.4106C90.4438 16.9574 90.8937 20.9115 91.2312 23.4763C91.6756 26.8849 93.0142 28.426 93.0142 28.426C92.2043 26.8005 92.4518 23.6338 92.9749 23.5551C93.4979 23.4763 93.4642 24.0838 93.4642 24.0838C94.6397 23.3526 95.714 21.2715 95.3316 19.8203C95.0503 18.6954 96.3046 17.8742 97.3564 18.3973L97.677 18.5548L98.1776 18.7854V14.7919Z" fill="#263238"/>
<path d="M90.4438 23.6399C90.5773 24.0935 90.7991 24.5163 91.0964 24.884C91.3937 25.2517 91.7606 25.5572 92.1761 25.7829C93.3011 26.3847 94.1223 25.451 94.0491 24.253C93.9704 23.1899 93.3123 21.5644 92.0749 21.4407C91.8019 21.4189 91.5279 21.4668 91.2786 21.5801C91.0293 21.6934 90.8129 21.8682 90.6497 22.0882C90.4866 22.3081 90.3821 22.5659 90.3461 22.8374C90.31 23.1088 90.3437 23.385 90.4438 23.6399V23.6399Z" fill="#B97964"/>
<path d="M99.6848 18.0319C99.4373 18.465 100.056 19.8599 98.6555 19.528C97.255 19.1962 97.1593 19.7868 96.1694 20.7486C95.1795 21.7104 93.1659 20.248 93.1659 20.248L90.9723 20.5348C90.9723 20.5348 89.3636 19.0949 90.3704 18.3187C91.3772 17.5425 91.5966 16.4401 92.2097 15.1408C92.8228 13.8415 95.5563 12.1542 98.453 14.1284C98.453 14.1284 99.9942 13.5997 100.675 13.9821C101.183 14.3499 101.6 14.8289 101.895 15.3827C101.989 15.2674 102.106 15.1737 102.239 15.1077C102.372 15.0417 102.517 15.0051 102.666 15.0003C102.814 14.9955 102.961 15.0226 103.098 15.0799C103.235 15.1371 103.358 15.2231 103.459 15.3321C104.246 16.1533 103.622 19.0893 104.297 19.8318C104.972 20.5742 103.459 21.4798 103.459 21.4798C103.459 21.4798 102.272 21.1985 102.272 20.3267C102.272 18.7856 102.047 18.2344 101.293 17.9531C101.153 17.9055 101.002 17.9032 100.861 17.9467C100.719 17.9901 100.595 18.077 100.506 18.195C100.506 18.195 100.056 17.3457 99.6848 18.0319Z" fill="#263238"/>
</svg>
