<svg width="250" height="168" viewBox="0 0 250 168" fill="none" xmlns="http://www.w3.org/2000/svg">
<path d="M249.434 145.521H0.5625V145.646H249.434V145.521Z" fill="#EBEBEB"/>
<path d="M224.497 153.53H208.012V153.655H224.497V153.53Z" fill="#EBEBEB"/>
<path d="M165.423 154.884H161.098V155.008H165.423V154.884Z" fill="#EBEBEB"/>
<path d="M207.513 148.91H197.961V149.035H207.513V148.91Z" fill="#EBEBEB"/>
<path d="M48.1733 149.746H26.6758V149.871H48.1733V149.746Z" fill="#EBEBEB"/>
<path d="M55.7562 149.746H52.6055V149.871H55.7562V149.746Z" fill="#EBEBEB"/>
<path d="M112.629 151.848H66V151.972H112.629V151.848Z" fill="#EBEBEB"/>
<path d="M69.793 126.756L72.2369 132.35C72.6959 133.408 73.454 134.308 74.4179 134.941C75.3818 135.573 76.5095 135.91 77.6623 135.909H87.8511C89.2027 135.909 90.4988 135.372 91.4548 134.416H110.484C111.218 134.416 111.943 134.241 112.597 133.907C113.251 133.572 113.817 133.086 114.246 132.49L116.76 129.006L69.793 126.756Z" fill="#E0E0E0"/>
<path d="M85.2995 104.577C85.2995 107.259 95.991 126.313 97.0611 127.07C98.1313 127.826 112.088 126.98 112.088 126.98L111.063 130.932H72.7364L56.8086 100.027L67.3359 84.8311L86.5239 85.3636C86.5239 85.3636 85.2995 101.899 85.2995 104.577Z" fill="#E6E6E6"/>
<path d="M85.2995 104.577C85.2995 107.259 95.991 126.313 97.0611 127.07C98.1313 127.826 112.088 126.98 112.088 126.98L111.063 130.932H72.7364L56.8086 100.027L67.3359 84.8311L86.5239 85.3636C86.5239 85.3636 85.2995 101.899 85.2995 104.577Z" fill="#F0F0F0"/>
<path d="M54.1654 145.655C62.7999 145.655 69.7995 137.211 69.7995 126.795C69.7995 116.379 62.7999 107.936 54.1654 107.936C45.5309 107.936 38.5312 116.379 38.5312 126.795C38.5312 137.211 45.5309 145.655 54.1654 145.655Z" fill="#E0E0E0"/>
<path d="M51.5478 138.692C56.9935 138.692 61.4081 133.366 61.4081 126.795C61.4081 120.225 56.9935 114.899 51.5478 114.899C46.1021 114.899 41.6875 120.225 41.6875 126.795C41.6875 133.366 46.1021 138.692 51.5478 138.692Z" fill="#EBEBEB"/>
<path d="M49.2822 121.685C47.0125 121.685 45.1758 123.9 45.1758 126.637C45.1758 129.375 47.0125 131.615 49.2822 131.615C51.5519 131.615 53.3886 129.395 53.3886 126.637C53.3886 123.88 51.5519 121.685 49.2822 121.685Z" fill="#E6E6E6"/>
<path d="M49.2822 121.685C47.0125 121.685 45.1758 123.9 45.1758 126.637C45.1758 129.375 47.0125 131.615 49.2822 131.615C51.5519 131.615 53.3886 129.395 53.3886 126.637C53.3886 123.88 51.5519 121.685 49.2822 121.685Z" fill="#E0E0E0"/>
<path d="M141.253 98.3055C141.253 98.3055 127.142 109.126 121.762 131.43H99.1641L120.567 96.5883L131.856 91.8945L141.253 98.3055Z" fill="#E6E6E6"/>
<path d="M142.737 97.2054C142.737 97.2054 129.536 107.3 123.235 126.279C122.748 127.773 121.801 129.076 120.53 130.001C119.259 130.926 117.729 131.426 116.157 131.43H99.1641L120.567 96.5883L131.856 91.8945L142.737 97.2054Z" fill="#E0E0E0"/>
<path d="M141.355 98.0812H132.639C130.985 98.0633 129.363 98.5381 127.98 99.445C122.809 102.889 110.559 112.496 109.285 127.717C109.205 128.721 108.752 129.66 108.015 130.347C107.278 131.034 106.311 131.421 105.303 131.43H67.4197C61.0539 131.431 54.8019 129.742 49.3018 126.537L38.4709 120.226C37.3059 119.543 36.3838 118.512 35.834 117.278C35.2841 116.045 35.134 114.67 35.4048 113.347C36.6939 107.135 40.3275 96.4635 50.7253 92.2924C50.8896 92.2178 50.6407 92.1531 51.1385 92.0933V85.6227H78.2954C78.2954 85.6227 72.85 98.6088 72.85 103.965C72.85 109.037 78.2058 128.429 85.1344 130.42H94.5915C95.8484 130.389 97.0751 130.028 98.1482 129.373C99.2212 128.717 100.103 127.791 100.704 126.687C105.313 118.459 115.551 97.1255 112.361 76.9619C111.988 74.6076 113.799 72.1836 116.189 72.1836H128.383C128.383 72.1836 139.359 84.886 142.888 95.6223C143.241 96.6825 142.46 98.0812 141.355 98.0812Z" fill="#E6E6E6"/>
<path d="M121.791 68.1717H118.306C117.392 68.1697 116.505 67.8554 115.793 67.2808L108.63 61.4821C108.348 61.2545 107.997 61.1298 107.635 61.1287H93.8822C93.6182 61.1287 93.365 61.0238 93.1783 60.8371C92.9916 60.6504 92.8867 60.3972 92.8867 60.1332C92.8867 59.8692 92.9916 59.616 93.1783 59.4293C93.365 59.2426 93.6182 59.1377 93.8822 59.1377H107.64C108.459 59.1387 109.253 59.4197 109.89 59.9341L117.057 65.7328C117.413 66.0228 117.858 66.181 118.316 66.1808H121.801C122.284 66.1788 122.751 66.0034 123.116 65.6864C123.482 65.3695 123.721 64.9321 123.792 64.4536L124.105 62.2187C124.23 61.3655 124.657 60.5854 125.308 60.0201C125.959 59.4548 126.792 59.1417 127.654 59.1377H130.277C130.541 59.1377 130.794 59.2426 130.981 59.4293C131.168 59.616 131.273 59.8692 131.273 60.1332C131.273 60.3972 131.168 60.6504 130.981 60.8371C130.794 61.0238 130.541 61.1287 130.277 61.1287H127.654C127.271 61.1305 126.901 61.2696 126.612 61.5207C126.322 61.7718 126.132 62.1184 126.076 62.4975L125.763 64.7323C125.623 65.6866 125.145 66.559 124.416 67.1903C123.687 67.8217 122.755 68.17 121.791 68.1717Z" fill="#E0E0E0"/>
<path d="M115.663 63.9355C115.663 63.9355 115.707 66.2849 113.502 66.1356L112.786 68.6691C112.683 69.028 112.658 69.4044 112.71 69.7739C112.762 70.1435 112.891 70.4979 113.089 70.8144L114.647 73.3031H129.082L130.217 71.1628C130.398 70.8222 130.467 70.4326 130.412 70.0505C130.358 69.6683 130.183 69.3135 129.913 69.0374L125.632 64.6871C125.407 64.4555 125.138 64.2714 124.841 64.1457C124.543 64.02 124.223 63.9553 123.9 63.9555L115.663 63.9355Z" fill="#E6E6E6"/>
<path d="M115.663 63.9355C115.663 63.9355 115.707 66.2849 113.502 66.1356L112.786 68.6691C112.683 69.028 112.658 69.4044 112.71 69.7739C112.762 70.1435 112.891 70.4979 113.089 70.8144L114.647 73.3031H129.082L130.217 71.1628C130.398 70.8222 130.467 70.4326 130.412 70.0505C130.358 69.6683 130.183 69.3135 129.913 69.0374L125.632 64.6871C125.407 64.4555 125.138 64.2714 124.841 64.1457C124.543 64.02 124.223 63.9553 123.9 63.9555L115.663 63.9355Z" fill="#E0E0E0"/>
<path d="M140.447 145.655C149.081 145.655 156.081 137.211 156.081 126.795C156.081 116.379 149.081 107.936 140.447 107.936C131.812 107.936 124.812 116.379 124.812 126.795C124.812 137.211 131.812 145.655 140.447 145.655Z" fill="#E0E0E0"/>
<path d="M137.833 138.692C143.279 138.692 147.693 133.366 147.693 126.795C147.693 120.225 143.279 114.899 137.833 114.899C132.387 114.899 127.973 120.225 127.973 126.795C127.973 133.366 132.387 138.692 137.833 138.692Z" fill="#EBEBEB"/>
<path d="M155.858 114.631C154.21 111.834 149.805 105.771 141.886 103.999C139.857 103.523 137.752 103.462 135.699 103.82L135.664 103.735L135.699 103.661H135.639L134.276 100.555H132.728C131.471 100.555 130.248 100.964 129.243 101.719L126.526 103.76L127.805 108.195C127.433 108.592 127.088 109.013 126.77 109.454C124.476 112.302 122.913 115.666 122.215 119.255C122.192 119.405 122.202 119.558 122.244 119.703C122.285 119.849 122.358 119.984 122.457 120.099C122.556 120.214 122.678 120.306 122.816 120.369C122.954 120.432 123.104 120.465 123.256 120.464H124.072C124.286 120.468 124.496 120.406 124.674 120.287C124.852 120.168 124.989 119.997 125.067 119.797C125.796 117.871 126.951 116.136 128.447 114.72L132.962 126.537L136.61 125.004L135.331 110.291C135.331 110.291 143.723 107.936 149.218 114.72C149.538 115.118 149.942 115.44 150.402 115.661C150.862 115.882 151.365 115.998 151.876 116H155.066C155.227 116 155.385 115.959 155.524 115.879C155.663 115.799 155.779 115.684 155.859 115.545C155.939 115.406 155.981 115.248 155.981 115.088C155.981 114.927 155.938 114.77 155.858 114.631Z" fill="#E6E6E6"/>
<path d="M155.858 114.631C154.21 111.834 149.805 105.771 141.886 103.999C139.857 103.523 137.752 103.462 135.699 103.82L135.664 103.735L135.699 103.661H135.639L134.276 100.555H132.728C131.471 100.555 130.248 100.964 129.243 101.719L126.526 103.76L127.805 108.195C127.433 108.592 127.088 109.013 126.77 109.454C124.476 112.302 122.913 115.666 122.215 119.255C122.192 119.405 122.202 119.558 122.244 119.703C122.285 119.849 122.358 119.984 122.457 120.099C122.556 120.214 122.678 120.306 122.816 120.369C122.954 120.432 123.104 120.465 123.256 120.464H124.072C124.286 120.468 124.496 120.406 124.674 120.287C124.852 120.168 124.989 119.997 125.067 119.797C125.796 117.871 126.951 116.136 128.447 114.72L132.962 126.537L136.61 125.004L135.331 110.291C135.331 110.291 143.723 107.936 149.218 114.72C149.538 115.118 149.942 115.44 150.402 115.661C150.862 115.882 151.365 115.998 151.876 116H155.066C155.227 116 155.385 115.959 155.524 115.879C155.663 115.799 155.779 115.684 155.859 115.545C155.939 115.406 155.981 115.248 155.981 115.088C155.981 114.927 155.938 114.77 155.858 114.631Z" fill="#F0F0F0"/>
<path d="M135.571 121.685C133.302 121.685 131.465 123.9 131.465 126.637C131.465 129.375 133.302 131.615 135.571 131.615C137.841 131.615 139.678 129.395 139.678 126.637C139.678 123.88 137.841 121.685 135.571 121.685Z" fill="#E6E6E6"/>
<path d="M135.571 121.685C133.302 121.685 131.465 123.9 131.465 126.637C131.465 129.375 133.302 131.615 135.571 131.615C137.841 131.615 139.678 129.395 139.678 126.637C139.678 123.88 137.841 121.685 135.571 121.685Z" fill="#E0E0E0"/>
<path d="M120.781 73.876C120.781 73.876 123.365 90.1373 131.896 90.2518C139.895 90.3563 140.641 75.0855 133.011 72.7411C126.849 70.8447 120.781 73.876 120.781 73.876Z" fill="#E6E6E6"/>
<path d="M120.781 73.876C120.781 73.876 123.365 90.1373 131.896 90.2518C139.895 90.3563 140.641 75.0855 133.011 72.7411C126.849 70.8447 120.781 73.876 120.781 73.876Z" fill="#F0F0F0"/>
<path d="M132.796 88.7894C136.022 88.4013 138.236 84.7546 137.742 80.6443C137.247 76.534 134.231 73.5166 131.005 73.9047C127.779 74.2928 125.565 77.9395 126.059 82.0498C126.554 86.1601 129.57 89.1775 132.796 88.7894Z" fill="#F5F5F5"/>
<path d="M129.689 70.6852H122.277L122.865 69.7295H129.689V70.6852Z" fill="#E6E6E6"/>
<path d="M88.9562 84.9506V86.8222C88.9562 88.5195 87.5675 89.6195 85.8652 89.6195H52.2078C50.5005 89.6195 49.1367 88.5195 49.1367 86.8222V84.9506C49.1367 83.2533 50.5005 82.1533 52.2078 82.1533H85.8652C87.5675 82.1533 88.9562 83.2533 88.9562 84.9506Z" fill="#E0E0E0"/>
<path d="M78.0059 84.9501V86.8216C78.0245 87.1999 77.9626 87.5779 77.8242 87.9304C77.6857 88.2829 77.4739 88.602 77.2028 88.8665C76.9318 89.131 76.6076 89.3349 76.2517 89.4646C75.8959 89.5943 75.5166 89.6469 75.1389 89.619H52.2078C50.5005 89.619 49.1367 88.5189 49.1367 86.8216V84.9501C49.1367 83.2528 50.5005 82.1528 52.2078 82.1528H75.1389C75.5166 82.1248 75.8959 82.1775 76.2517 82.3072C76.6076 82.4369 76.9318 82.6408 77.2028 82.9053C77.4739 83.1698 77.6857 83.4888 77.8242 83.8414C77.9626 84.1939 78.0245 84.5718 78.0059 84.9501Z" fill="#F0F0F0"/>
<path d="M73.7709 119.439V131.445H67.4197C61.0539 131.445 54.8019 129.757 49.3018 126.552L38.4709 120.225C37.3059 119.542 36.3838 118.512 35.834 117.278C35.2841 116.044 35.134 114.67 35.4048 113.347C36.6939 107.135 40.3822 96.4631 50.8 92.292L51.2977 92.3169H55.5037C57.9301 92.3181 60.3059 93.0107 62.3528 94.3136C64.3998 95.6165 66.033 97.4758 67.0613 99.6735L71.541 109.28C73.0188 112.462 73.78 115.93 73.7709 119.439Z" fill="#F0F0F0"/>
<path d="M101.877 52.3952L101.086 53L106.477 60.0493L107.268 59.4445L101.877 52.3952Z" fill="#E0E0E0"/>
<path d="M98.6207 51.542H101.159C101.423 51.5426 101.681 51.6202 101.901 51.7652C102.121 51.9102 102.294 52.1163 102.399 52.3583L102.737 53.1497C102.824 53.3547 102.859 53.578 102.839 53.7998C102.819 54.0216 102.744 54.2349 102.621 54.4207C102.498 54.6065 102.332 54.7591 102.136 54.8647C101.94 54.9704 101.72 55.0259 101.498 55.0262H98.7352C98.4109 55.027 98.0973 54.9106 97.8522 54.6984C97.607 54.4862 97.4469 54.1925 97.4012 53.8714L97.2868 53.08C97.2597 52.8889 97.274 52.6943 97.3286 52.5092C97.3832 52.3241 97.4769 52.1529 97.6033 52.0071C97.7298 51.8613 97.886 51.7443 98.0615 51.6641C98.237 51.5839 98.4277 51.5422 98.6207 51.542Z" fill="#E6E6E6"/>
<path d="M127.206 53.5099L125.879 59.8125L126.853 60.0176L128.18 53.715L127.206 53.5099Z" fill="#E0E0E0"/>
<path d="M130.68 51.542H127.947C127.679 51.5418 127.421 51.6384 127.218 51.814C127.016 51.9897 126.884 52.2325 126.847 52.4977L126.663 53.757C126.641 53.9149 126.653 54.0758 126.699 54.2287C126.744 54.3816 126.822 54.523 126.926 54.6434C127.031 54.7637 127.16 54.8601 127.306 54.9261C127.451 54.9922 127.609 55.0263 127.768 55.0262H130.476C130.744 55.0264 131.002 54.9298 131.205 54.7541C131.407 54.5785 131.539 54.3357 131.576 54.0705L131.76 52.8112C131.782 52.6553 131.77 52.4965 131.726 52.3454C131.682 52.1942 131.607 52.054 131.505 51.9341C131.403 51.8142 131.277 51.7173 131.134 51.6497C130.992 51.5821 130.837 51.5454 130.68 51.542Z" fill="#E6E6E6"/>
<path d="M59.3454 82.1527V88.9569L60.54 89.6188V93.3718C54.1191 94.437 50.3661 107.677 50.3661 107.677H28.3559C27.8741 107.677 27.3971 107.582 26.952 107.398C26.507 107.213 26.1026 106.943 25.7619 106.603C25.4213 106.262 25.1511 105.858 24.9667 105.412C24.7824 104.967 24.6875 104.49 24.6875 104.009V39.058C24.6875 38.0851 25.074 37.1521 25.7619 36.4641C26.4499 35.7761 27.383 35.3897 28.3559 35.3897H71.4754C72.0539 35.3885 72.6242 35.5268 73.1379 35.7928C73.7387 36.1005 74.2426 36.5683 74.594 37.1446C74.9454 37.7208 75.1305 38.3831 75.1289 39.058V82.1527H59.3454Z" fill="#E6E6E6"/>
<path d="M59.3443 82.1538V88.958L60.5389 89.62V93.373C54.118 94.4381 50.365 107.678 50.365 107.678H45.8555V39.0293C45.8555 38.1712 46.1963 37.3483 46.8031 36.7416C47.4098 36.1348 48.2327 35.7939 49.0908 35.7939H73.1468C73.7475 36.1016 74.2515 36.5694 74.6029 37.1457C74.9543 37.7219 75.1394 38.3842 75.1377 39.0591V82.1538H59.3443Z" fill="#EBEBEB"/>
<path d="M225.486 0.378906H154.254V144.983H225.486V0.378906Z" fill="#EBEBEB"/>
<path d="M209.088 16.8545H192V33.942H209.088V16.8545Z" fill="#F5F5F5"/>
<path d="M187.994 16.8545H170.906V33.942H187.994V16.8545Z" fill="#F5F5F5"/>
<path d="M187.994 37.9531H170.906V55.0407H187.994V37.9531Z" fill="#F5F5F5"/>
<path d="M209.088 37.9531H192V55.0407H209.088V37.9531Z" fill="#F5F5F5"/>
<path d="M163.739 76.2503C163.739 76.8015 163.575 77.3404 163.269 77.7988C162.963 78.2572 162.527 78.6145 162.018 78.8254C161.509 79.0364 160.948 79.0916 160.408 78.9841C159.867 78.8765 159.37 78.611 158.98 78.2212C158.591 77.8314 158.325 77.3347 158.218 76.794C158.11 76.2533 158.165 75.6929 158.376 75.1836C158.587 74.6743 158.944 74.2389 159.403 73.9326C159.861 73.6264 160.4 73.4629 160.951 73.4629C161.317 73.4629 161.68 73.535 162.018 73.6751C162.356 73.8151 162.664 74.0205 162.922 74.2793C163.181 74.5381 163.387 74.8454 163.527 75.1836C163.667 75.5218 163.739 75.8842 163.739 76.2503Z" fill="#E0E0E0"/>
<path d="M125 168C178.299 168 221.507 165.478 221.507 162.366C221.507 159.254 178.299 156.731 125 156.731C71.7001 156.731 28.4922 159.254 28.4922 162.366C28.4922 165.478 71.7001 168 125 168Z" fill="#F5F5F5"/>
<path d="M57.807 150.21C57.807 150.21 60.2957 144.81 57.4586 139.484C54.6214 134.158 53.8051 132.904 55.6119 131.809C57.4187 130.714 58.24 136.069 58.24 136.069C59.1359 133.653 59.2301 131.012 58.5088 128.538C57.2495 124.686 56.4631 118.409 58.1803 117.732C59.8975 117.055 58.5038 125.562 59.9921 128.464C60.7493 126.429 61.2379 124.304 61.4455 122.142C61.6545 119.046 61.331 114.104 62.6849 112.835C64.0387 111.565 64.9048 112.446 63.5758 119.275C62.787 123.358 62.3556 127.502 62.2867 131.659C62.2867 131.659 65.2234 122.7 67.1944 122.436C69.1655 122.172 69.1854 125.079 67.4781 127.593C65.7709 130.106 62.5356 134.616 62.003 136.935C62.003 136.935 65.2283 130.196 68.1252 132.262C71.0221 134.327 65.6017 138.399 63.1826 139.872C60.7636 141.345 59.0862 150.569 59.0862 150.569L57.807 150.21Z" fill="#C0009C"/>
<path opacity="0.6" d="M57.807 150.21C57.807 150.21 60.2957 144.81 57.4586 139.484C54.6214 134.158 53.8051 132.904 55.6119 131.809C57.4187 130.714 58.24 136.069 58.24 136.069C59.1359 133.653 59.2301 131.012 58.5088 128.538C57.2495 124.686 56.4631 118.409 58.1803 117.732C59.8975 117.055 58.5038 125.562 59.9921 128.464C60.7493 126.429 61.2379 124.304 61.4455 122.142C61.6545 119.046 61.331 114.104 62.6849 112.835C64.0387 111.565 64.9048 112.446 63.5758 119.275C62.787 123.358 62.3556 127.502 62.2867 131.659C62.2867 131.659 65.2234 122.7 67.1944 122.436C69.1655 122.172 69.1854 125.079 67.4781 127.593C65.7709 130.106 62.5356 134.616 62.003 136.935C62.003 136.935 65.2283 130.196 68.1252 132.262C71.0221 134.327 65.6017 138.399 63.1826 139.872C60.7636 141.345 59.0862 150.569 59.0862 150.569L57.807 150.21Z" fill="white"/>
<path d="M59.7968 152.425C59.7968 152.425 57.3878 146.989 60.2946 141.703C63.2014 136.417 64.0227 135.178 62.2308 134.063C60.4389 132.948 59.548 138.284 59.548 138.284C58.6851 135.853 58.6241 133.21 59.3738 130.743C60.6779 126.91 61.539 120.644 59.8317 119.947C58.1244 119.25 59.4136 127.771 57.8905 130.648C57.1576 128.602 56.6941 126.468 56.5117 124.302C56.3425 121.206 56.7208 116.268 55.3868 114.984C54.0529 113.7 53.1669 114.556 54.3913 121.405C55.1426 125.498 55.5356 129.648 55.566 133.809C55.566 133.809 52.7339 124.805 50.7628 124.516C48.7917 124.227 48.7718 127.124 50.4194 129.668C52.0669 132.211 55.2823 136.766 55.785 139.09C55.785 139.09 52.6443 132.301 49.7175 134.327C46.7908 136.352 52.1664 140.499 54.5705 142.007C56.9746 143.515 58.5525 152.763 58.5525 152.763L59.7968 152.425Z" fill="#C0009C"/>
<path opacity="0.7" d="M59.7968 152.425C59.7968 152.425 57.3878 146.989 60.2946 141.703C63.2014 136.417 64.0227 135.178 62.2308 134.063C60.4389 132.948 59.548 138.284 59.548 138.284C58.6851 135.853 58.6241 133.21 59.3738 130.743C60.6779 126.91 61.539 120.644 59.8317 119.947C58.1244 119.25 59.4136 127.771 57.8905 130.648C57.1576 128.602 56.6941 126.468 56.5117 124.302C56.3425 121.206 56.7208 116.268 55.3868 114.984C54.0529 113.7 53.1669 114.556 54.3913 121.405C55.1426 125.498 55.5356 129.648 55.566 133.809C55.566 133.809 52.7339 124.805 50.7628 124.516C48.7917 124.227 48.7718 127.124 50.4194 129.668C52.0669 132.211 55.2823 136.766 55.785 139.09C55.785 139.09 52.6443 132.301 49.7175 134.327C46.7908 136.352 52.1664 140.499 54.5705 142.007C56.9746 143.515 58.5525 152.763 58.5525 152.763L59.7968 152.425Z" fill="white"/>
<path d="M48.6641 148.548H68.5838L66.9711 162.803H50.2768L48.6641 148.548Z" fill="#C0009C"/>
<path d="M159.345 51.5957C159.345 51.5957 159.485 49.9681 159.057 49.4106C158.629 48.8532 153.582 45.6178 153.328 45.9712C153.074 46.3246 152.029 48.9577 152.088 49.7292C152.148 50.5007 156.001 53.9053 156.568 53.4872C157.136 53.0691 159.345 51.5957 159.345 51.5957Z" fill="#B97964"/>
<path d="M183.153 44.334C179.32 44.7272 172.725 56.4441 170.854 56.3445C168.982 56.245 158.251 50.3417 158.251 50.3417L156.359 53.1938C156.359 53.1938 168.305 61.7003 171.546 61.5061C174.786 61.312 184.049 49.9485 184.049 49.9485L183.153 44.334Z" fill="#B97964"/>
<path d="M187.999 138.297C191.175 142.279 194.027 145.913 196.515 148.551C199.004 151.224 200.288 152.881 200.288 152.881L202.747 151.467C202.747 151.467 200.473 147.869 197.387 142.906C194.763 138.695 191.553 133.499 188.636 128.686C184.863 122.464 181.583 116.884 180.717 114.888C180.1 113.47 181.772 108.019 183.619 102.883C185.495 97.6514 187.556 92.7387 187.556 92.7387L180.842 81.3652C180.842 81.3652 178.109 88.9359 175.68 96.9247C174.082 102.151 172.629 107.561 172.136 111.155C171.449 116.177 180.115 128.397 187.999 138.297Z" fill="#B97964"/>
<path opacity="0.2" d="M187.977 138.298C191.152 142.28 194.203 145.913 196.473 148.551C196.797 146.929 197.125 145.007 197.384 142.912C194.761 138.701 191.55 133.505 188.634 128.691C188.695 131.907 188.476 135.121 187.977 138.298Z" fill="black"/>
<path opacity="0.2" d="M175.68 96.9303L183.619 102.903C185.495 97.6719 187.556 92.7592 187.556 92.7592L180.841 81.3857C180.841 81.3857 178.109 88.9415 175.68 96.9303Z" fill="black"/>
<path d="M189.547 158.696L192.409 159.069C192.409 159.069 196.515 138.855 196.391 122.176C197.916 116.657 199.106 111.05 199.955 105.387C200.95 98.5581 201.448 90.9526 200.124 85.2783L190.169 89.758L189.965 104.69L189.796 117.134L189.547 158.696Z" fill="#B97964"/>
<path opacity="0.2" d="M189.969 104.69L199.958 105.387C200.954 98.5581 201.452 90.9526 200.128 85.2783L190.173 89.758L189.969 104.69Z" fill="black"/>
<path d="M202.585 149.904C202.291 149.69 199.813 153.389 199.813 153.389C199.813 153.389 200.365 157.256 199.25 159.755C198.135 162.253 200.305 162.039 202.107 159.67L206.587 153.822C207.861 152.159 205.636 152.114 202.585 149.904Z" fill="#263238"/>
<path d="M198.897 156.216C198.828 156.208 198.761 156.186 198.701 156.152C198.64 156.118 198.587 156.073 198.545 156.018C198.502 155.963 198.471 155.901 198.453 155.834C198.434 155.767 198.43 155.697 198.439 155.628C198.522 155.301 198.694 155.003 198.936 154.767C198.563 154.941 198.185 155.051 197.991 154.917C197.797 154.782 197.822 154.678 197.871 154.459C197.888 154.361 197.927 154.268 197.985 154.187C198.042 154.106 198.118 154.039 198.205 153.991C198.772 153.662 199.817 153.991 199.872 153.991L199.912 154.016V154.045V154.08V154.125C199.842 154.449 199.479 156.051 198.917 156.186L198.897 156.216ZM199.663 154.424C199.27 154.757 198.717 155.295 198.668 155.658C198.661 155.693 198.663 155.729 198.671 155.763C198.68 155.797 198.695 155.83 198.717 155.857C198.827 155.997 198.897 155.982 198.922 155.977C199.165 155.912 199.484 155.116 199.663 154.424ZM198.882 154.08C198.696 154.072 198.511 154.111 198.344 154.195C198.286 154.228 198.236 154.273 198.198 154.327C198.159 154.381 198.132 154.443 198.12 154.508C198.12 154.573 198.09 154.688 198.12 154.722C198.289 154.837 198.951 154.543 199.549 154.17C199.33 154.115 199.107 154.085 198.882 154.08Z" fill="#C0009C"/>
<path d="M193.427 157.267C193.427 156.904 188.947 157.187 188.947 157.187C188.947 157.187 186.209 159.975 183.546 160.602C180.884 161.229 182.372 162.827 185.348 162.827H192.71C194.835 162.802 193.516 161 193.427 157.267Z" fill="#263238"/>
<path d="M186.616 158.302C186.479 158.312 186.342 158.275 186.228 158.198C186.162 158.141 186.116 158.064 186.097 157.979C186.077 157.894 186.085 157.805 186.119 157.725C186.134 157.66 186.163 157.599 186.204 157.546C186.245 157.494 186.298 157.451 186.358 157.421C186.673 157.294 187.017 157.256 187.353 157.312C186.995 157.118 186.676 156.884 186.661 156.65C186.661 156.496 186.751 156.371 186.955 156.277C187.045 156.235 187.144 156.213 187.243 156.213C187.343 156.213 187.442 156.235 187.532 156.277C188.134 156.53 188.528 157.561 188.528 157.615C188.532 157.63 188.532 157.646 188.528 157.66C188.53 157.673 188.53 157.687 188.528 157.7C188.529 157.71 188.529 157.72 188.528 157.73C188.518 157.744 188.504 157.754 188.488 157.76C187.9 158.049 187.267 158.232 186.616 158.302ZM187 157.526C186.818 157.516 186.637 157.55 186.472 157.625C186.441 157.64 186.414 157.662 186.393 157.689C186.371 157.715 186.356 157.746 186.348 157.78C186.303 157.954 186.348 157.999 186.377 158.014C186.586 158.188 187.403 157.944 188.06 157.665C187.712 157.582 187.357 157.536 187 157.526ZM187.258 156.436C187.188 156.439 187.118 156.456 187.054 156.486C186.995 156.515 186.895 156.575 186.895 156.635C186.895 156.834 187.547 157.182 188.204 157.431C188.06 157.039 187.793 156.704 187.443 156.476C187.384 156.451 187.322 156.437 187.258 156.436Z" fill="#C0009C"/>
<path d="M185.545 100.087L174.773 94.4472C178.163 84.1539 181.214 78.3203 181.214 78.3203C191.796 80.1321 190.831 88.4942 190.831 88.4942C190.831 88.4942 188.138 94.0789 185.545 100.087Z" fill="#263238"/>
<path opacity="0.1" d="M186.222 98.4988C185.993 99.0215 185.759 99.5541 185.53 100.087L174.773 94.4472C178.158 84.1539 181.209 78.3203 181.209 78.3203C187.74 79.4402 189.87 83.0539 190.547 85.6571C190.797 86.5806 190.892 87.5396 190.826 88.4942C190.826 88.4942 188.601 93.1332 186.222 98.4988Z" fill="white"/>
<path opacity="0.2" d="M186.223 98.498C188.587 93.1324 190.822 88.4934 190.822 88.4934C190.888 87.5387 190.793 86.5798 190.543 85.6563C190.207 85.4383 189.834 85.2816 189.443 85.1934C189.443 85.1934 186.581 89.7079 186.223 98.498Z" fill="black"/>
<path d="M188.882 102.41L189.25 85.1932L180.719 82.7045C180.719 82.7045 181.391 74.8053 182.386 70.9129C182.386 70.9129 196.248 67.4636 198.359 72.1623C198.359 72.1623 198.359 72.2369 198.389 72.2618L198.424 72.3016C198.424 72.3016 202.405 79.3099 201.216 102.415L188.882 102.41Z" fill="#263238"/>
<path opacity="0.1" d="M188.882 102.41L189.25 85.1932L180.719 82.7045C180.719 82.7045 181.391 74.8053 182.386 70.9129C182.386 70.9129 196.248 67.4636 198.359 72.1623C198.359 72.1623 198.359 72.2369 198.389 72.2618L198.424 72.3016C198.424 72.3016 202.405 79.3099 201.216 102.415L188.882 102.41Z" fill="white"/>
<path d="M198.51 69.7738V72.1231L182.582 70.8937V68.1113L198.51 69.7738Z" fill="#263238"/>
<path d="M192.923 72.8216L193.719 72.8623L193.926 68.806L193.131 68.7653L192.923 72.8216Z" fill="#263238"/>
<path d="M185.928 71.3388L189.438 71.6533L189.676 68.9911L186.166 68.6766L185.928 71.3388Z" fill="white"/>
<path d="M182.758 71.7912L183.555 71.8311L183.758 67.7695L182.961 67.7296L182.758 71.7912Z" fill="#263238"/>
<path opacity="0.1" d="M193.133 68.7924L192.926 72.8486L193.721 72.8893L193.929 68.8331L193.133 68.7924Z" fill="white"/>
<path opacity="0.1" d="M183.305 67.7015L183.098 71.7578L183.893 71.7984L184.1 67.7421L183.305 67.7015Z" fill="white"/>
<path d="M182.387 68.3941L198.435 69.7828C198.818 63.8099 199.196 59.9673 202.73 49.3355C203.039 48.4031 203.371 47.4159 203.726 46.374C201.55 45.6833 199.328 45.1494 197.076 44.7762C194.694 44.3537 192.286 44.0993 189.869 44.0146C186.743 44.0146 183.159 44.3432 183.159 44.3432C183.159 44.3432 182.661 44.4676 182.328 47.7726C182.029 50.8736 181.745 57.0904 182.387 68.3941Z" fill="#C0009C"/>
<path opacity="0.6" d="M203.728 46.3744C203.365 47.4147 203.031 48.4052 202.733 49.336C202.434 50.2668 202.096 51.2722 201.817 52.1582C201.16 54.2487 200.642 56.0506 200.229 57.6334C199.202 61.6016 198.602 65.6679 198.437 69.7634L182.39 68.3747C181.743 57.071 182.032 50.8541 182.325 47.7432C182.649 44.4382 183.156 44.3138 183.156 44.3138C183.156 44.3138 184.107 44.2192 185.461 44.1346C186.73 44.05 188.353 43.9753 189.866 43.9853C192.282 44.0795 194.689 44.3439 197.068 44.7767C198.447 45.0056 199.816 45.2744 201.165 45.6428C202.028 45.8618 202.882 46.1057 203.728 46.3744Z" fill="white"/>
<path d="M202.241 101.705L188.18 101.58L188.429 103.695L201.619 103.571L202.241 101.705Z" fill="#C0009C"/>
<path d="M186.436 99.9615L174.739 93.6152L174.117 95.4818L185.441 101.081L186.436 99.9615Z" fill="#C0009C"/>
<path d="M191.199 47.5545C195.156 47.0567 196.346 45.3545 196.346 45.3545C194.728 43.8314 195.022 41.5816 195.435 40.1779C195.563 39.733 195.73 39.3 195.933 38.8838L191.144 39.7996C191.254 40.4579 191.316 41.1234 191.329 41.7906C191.346 42.292 191.301 42.7937 191.194 43.2838C190.871 44.7074 190.059 44.7273 190.059 44.7273C189.208 46.2703 191.199 47.5545 191.199 47.5545Z" fill="#B97964"/>
<path opacity="0.2" d="M191.329 41.791C191.346 42.2924 191.301 42.7941 191.194 43.2843C193.086 43.0354 194.519 41.5222 195.42 40.2082C195.549 39.7633 195.715 39.3303 195.918 38.9141L191.145 39.8C191.254 40.4583 191.316 41.1238 191.329 41.791Z" fill="black"/>
<path d="M198.258 27.4349C198.258 27.4349 201.005 25.0059 203.733 26.2503C206.461 27.4946 206.719 29.4707 205.674 31.6358C204.629 33.801 203.778 35.7024 204.923 36.4888C206.067 37.2753 205.739 39.0522 204.624 39.5749C203.509 40.0975 202.782 40.7645 204.032 41.3219C204.032 41.3219 203.833 41.4314 202.782 40.7645C201.732 40.0975 202.588 39.3708 202.917 38.883C203.245 38.3952 202.653 39.0024 201.667 37.5789C200.682 36.1554 201.339 34.5924 201.866 32.9549C202.394 31.3173 198.756 31.5363 198.756 31.5363L198.258 27.4349Z" fill="#263238"/>
<path d="M196.258 25.3646C196.258 25.3646 193.316 23.4334 190.285 23.8067C187.253 24.18 184.401 27.7239 185.272 30.2226C186.143 32.7213 187.059 33.896 186.208 34.8168C185.357 35.7376 184.994 37.415 186.143 38.1417C185.94 37.9145 185.828 37.6203 185.828 37.3155C185.828 37.0106 185.94 36.7164 186.143 36.4892C186.865 35.6032 189.568 36.0611 190.285 34.0602C191.001 32.0593 194.476 31.5367 194.476 31.5367L196.546 38.1616C196.546 38.1616 199.792 37.2607 200.12 32.562C200.449 27.8633 198.955 24.9067 196.258 25.3646Z" fill="#263238"/>
<path d="M192.118 26.5838C187.976 26.7381 186.727 29.0078 186.583 33.2884C186.399 38.6341 187.723 42.3822 192.859 41.0482C199.838 39.2414 198.997 26.3299 192.118 26.5838Z" fill="#B97964"/>
<path d="M189.25 32.9551C188.94 33.586 188.556 34.1776 188.105 34.7171C188.233 34.8837 188.404 35.0119 188.6 35.0874C188.796 35.163 189.009 35.1829 189.215 35.1451L189.25 32.9551Z" fill="#A24E3F"/>
<path d="M191.774 32.5226C191.774 32.866 191.963 33.1398 192.192 33.1348C192.421 33.1298 192.6 32.8511 192.595 32.5126C192.59 32.1741 192.401 31.9004 192.172 31.9004C191.943 31.9004 191.769 32.1841 191.774 32.5226Z" fill="#263238"/>
<path d="M192.27 31.9145L191.523 31.6357C191.523 31.6357 191.902 32.2529 192.27 31.9145Z" fill="#263238"/>
<path d="M187.539 32.5119C187.539 32.8504 187.728 33.1241 187.957 33.1191C188.186 33.1142 188.365 32.8404 188.36 32.497C188.355 32.1535 188.166 31.8847 187.942 31.8897C187.718 31.8947 187.534 32.1685 187.539 32.5119Z" fill="#263238"/>
<path d="M188.036 31.9048L187.289 31.6211C187.289 31.6211 187.667 32.2383 188.036 31.9048Z" fill="#263238"/>
<path d="M191.699 29.6605C192.025 29.6087 192.358 29.6324 192.673 29.73C192.988 29.8275 193.277 29.9962 193.516 30.223" stroke="#263238" stroke-width="0.707962" stroke-linecap="round" stroke-linejoin="round"/>
<path d="M188.712 29.5953C188.426 29.5343 188.13 29.5389 187.847 29.6087C187.563 29.6786 187.299 29.8118 187.074 29.9985" stroke="#263238" stroke-width="0.707962" stroke-linecap="round" stroke-linejoin="round"/>
<path d="M189.883 36.7535C190.096 37.2144 190.276 37.6902 190.42 38.177L190.684 38.1422C191.884 37.973 192.386 37.5001 192.581 37.0223C192.673 36.7988 192.712 36.5568 192.695 36.3155C192.685 36.1742 192.655 36.0351 192.605 35.9023C191.909 36.3329 191.128 36.6095 190.316 36.7137C190.042 36.7386 189.883 36.7535 189.883 36.7535Z" fill="#263238"/>
<path d="M190.289 36.6893L190.458 37.1074C191.588 36.9481 192.365 36.6843 192.668 36.2911C192.658 36.1498 192.628 36.0107 192.579 35.8779C191.882 36.3085 191.101 36.5851 190.289 36.6893Z" fill="white"/>
<path d="M190.703 38.1414C191.903 37.9722 192.405 37.4993 192.6 37.0215C192.143 37.0959 191.704 37.2492 191.3 37.4744C191.038 37.6304 190.829 37.8632 190.703 38.1414Z" fill="#DE5753"/>
<path d="M196.907 33.3985C196.907 33.3985 194.841 30.0686 195.04 27.4256C195.04 27.4256 186.708 24.3744 186.609 32.7215C186.609 32.7215 185.534 25.3549 192.646 24.9269C199.759 24.4988 200.113 34.9166 196.554 38.1569C196.554 38.1619 198.171 35.484 196.907 33.3985Z" fill="#263238"/>
<path d="M196.258 34.3236C196.281 33.843 196.494 33.391 196.849 33.0665C197.204 32.7419 197.673 32.5712 198.154 32.5915C199.443 32.6811 200.145 35.2942 196.985 36.0458C196.527 36.1304 196.253 35.6924 196.258 34.3236Z" fill="#B97964"/>
<path d="M195.036 27.4296C194.643 28.1494 194.429 28.9538 194.414 29.774C194.414 31.0731 196.226 33.5668 196.256 34.2985C196.286 35.0302 195.758 36.2894 196.33 37.0211C196.239 36.683 196.251 36.3251 196.366 35.994C196.48 35.663 196.692 35.374 196.972 35.1645C197.968 34.4876 198.854 32.417 197.749 30.9586C196.644 29.5002 197.699 27.6088 197.699 27.6088C197.699 27.6088 196.176 25.8617 195.036 27.4296Z" fill="#263238"/>
<path d="M203.728 46.3742C208.676 50.5851 196.939 62.5061 191.284 65.2885C185.63 68.0708 166.034 71.4356 166.034 71.4356L165.641 68.1107C165.641 68.1107 186.048 63.3771 188.681 60.7739C191.314 58.1707 202.752 45.543 203.728 46.3742Z" fill="#B97964"/>
<path d="M165.637 68.1106C165.637 68.1106 164.258 67.2296 163.566 67.349C162.874 67.4685 157.663 70.45 157.857 70.8332C158.051 71.2165 159.922 73.3767 160.614 73.6753C161.306 73.974 166.129 72.1423 166.03 71.4355C165.93 70.7287 165.637 68.1106 165.637 68.1106Z" fill="#B97964"/>
<path d="M201.156 45.6324C199.509 47.3347 195.9 49.7338 190.534 49.3207C185.781 48.9574 185.383 45.513 185.447 44.1541C186.716 44.0695 188.339 43.9948 189.852 44.0048C192.273 44.0917 194.685 44.3495 197.07 44.7763C198.448 44.9953 199.817 45.274 201.156 45.6324Z" fill="#B97964"/>
<path d="M97.9062 158.979L102.072 159.417L102.854 150.433L98.6877 149.995L97.9062 158.979Z" fill="#EBB376"/>
<path d="M77.125 158.675H81.1617L81.4952 149.327H77.4535L77.125 158.675Z" fill="#EBB376"/>
<path d="M81.7155 158.207H76.8127C76.7323 158.208 76.6544 158.235 76.592 158.286C76.5296 158.337 76.4863 158.407 76.4693 158.486L75.6729 162.08C75.6568 162.156 75.656 162.234 75.6703 162.311C75.6846 162.387 75.7139 162.46 75.7564 162.525C75.7989 162.59 75.8539 162.647 75.9181 162.691C75.9824 162.735 76.0546 162.765 76.1308 162.781C76.1755 162.786 76.2205 162.786 76.2652 162.781C77.848 162.756 79.0028 162.657 80.9987 162.657C82.2232 162.657 85.9264 162.786 87.6187 162.786C89.3111 162.786 89.535 161.114 88.8432 160.96C85.7323 160.283 83.368 159.342 82.3725 158.446C82.1896 158.29 81.9562 158.205 81.7155 158.207Z" fill="#263238"/>
<path d="M81.9971 158.76C81.978 158.756 81.9605 158.746 81.9472 158.732C81.9338 158.718 81.9252 158.7 81.9225 158.68C81.9204 158.662 81.9235 158.643 81.9315 158.627C81.9394 158.61 81.9518 158.596 81.9673 158.586C82.1116 158.496 83.4157 157.695 83.8637 157.924C83.9146 157.947 83.9573 157.985 83.9865 158.033C84.0158 158.081 84.0302 158.137 84.0279 158.193C84.0379 158.285 84.025 158.379 83.9903 158.466C83.9556 158.553 83.9001 158.63 83.8288 158.69C83.6011 158.845 83.3269 158.918 83.0524 158.894C82.6967 158.89 82.3427 158.845 81.9971 158.76ZM82.2709 158.631C82.7429 158.786 83.256 158.759 83.7094 158.556C83.7576 158.514 83.7947 158.46 83.8172 158.4C83.8398 158.341 83.8472 158.276 83.8388 158.212C83.8388 158.133 83.804 158.098 83.7791 158.098C83.7409 158.078 83.6976 158.069 83.6546 158.073C83.1614 158.169 82.6915 158.36 82.2709 158.636V158.631Z" fill="#C0009C"/>
<path d="M81.9667 158.784C81.953 158.775 81.9418 158.762 81.934 158.747C81.9262 158.733 81.9221 158.716 81.9219 158.7C81.9219 158.645 82.0264 157.48 82.4943 157.102C82.5496 157.055 82.6139 157.02 82.6831 156.999C82.7524 156.977 82.8253 156.97 82.8974 156.978C82.9704 156.977 83.0411 157.003 83.0974 157.049C83.1537 157.095 83.1922 157.16 83.206 157.231C83.2907 157.659 82.4843 158.545 82.0662 158.769H82.0214C82.0139 158.776 82.0051 158.78 81.9956 158.783C81.9862 158.785 81.9763 158.786 81.9667 158.784ZM82.6137 157.216C82.3299 157.579 82.1647 158.021 82.1409 158.481C82.554 158.167 83.0667 157.485 83.0169 157.231C83.0169 157.206 83.0169 157.132 82.8775 157.132H82.8327C82.7518 157.132 82.6738 157.162 82.6137 157.216Z" fill="#C0009C"/>
<path d="M102.508 158.078H97.6203C97.5399 158.079 97.462 158.106 97.3996 158.157C97.3371 158.208 97.2938 158.278 97.2769 158.357L96.4805 161.951C96.4494 162.106 96.4806 162.267 96.5672 162.399C96.6538 162.531 96.7889 162.624 96.9434 162.657H97.0728C98.6606 162.632 99.8153 162.533 101.806 162.533C103.031 162.533 106.734 162.662 108.426 162.662C110.119 162.662 110.343 160.99 109.651 160.836C106.54 160.159 104.176 159.218 103.18 158.347C102.998 158.176 102.758 158.08 102.508 158.078Z" fill="#263238"/>
<path d="M102.786 158.64C102.766 158.635 102.749 158.624 102.735 158.609C102.722 158.594 102.714 158.575 102.711 158.555C102.71 158.536 102.714 158.518 102.722 158.501C102.731 158.484 102.745 158.47 102.761 158.461C102.905 158.371 104.209 157.57 104.652 157.799C104.703 157.822 104.746 157.86 104.775 157.908C104.805 157.956 104.819 158.012 104.817 158.068C104.829 158.161 104.817 158.255 104.782 158.342C104.747 158.43 104.691 158.506 104.618 158.565C104.39 158.721 104.116 158.793 103.841 158.769C103.486 158.764 103.132 158.72 102.786 158.64ZM103.065 158.506C103.534 158.666 104.048 158.639 104.498 158.431C104.546 158.389 104.583 158.335 104.606 158.275C104.629 158.216 104.636 158.151 104.628 158.087C104.628 158.013 104.593 157.973 104.568 157.973C104.529 157.955 104.486 157.946 104.443 157.948C103.952 158.042 103.483 158.232 103.065 158.506Z" fill="#C0009C"/>
<path d="M102.765 158.66C102.75 158.65 102.737 158.637 102.729 158.621C102.72 158.606 102.715 158.588 102.715 158.57C102.715 158.516 102.819 157.356 103.287 156.973C103.342 156.924 103.406 156.889 103.476 156.868C103.545 156.848 103.619 156.842 103.69 156.853C103.763 156.852 103.834 156.876 103.89 156.921C103.946 156.967 103.985 157.031 103.999 157.102C104.084 157.53 103.277 158.416 102.859 158.645H102.814C102.8 158.654 102.782 158.66 102.765 158.66ZM103.412 157.087C103.119 157.447 102.946 157.889 102.914 158.351C103.327 158.038 103.84 157.356 103.79 157.102C103.79 157.077 103.79 157.007 103.651 157.007H103.606C103.534 157.012 103.466 157.04 103.412 157.087Z" fill="#C0009C"/>
<path opacity="0.2" d="M98.6855 149.995L102.852 150.433L102.443 155.067L98.2773 154.629L98.6855 149.995Z" fill="black"/>
<path opacity="0.2" d="M77.4515 149.333H81.4932L81.319 154.151H77.2773L77.4515 149.333Z" fill="black"/>
<path d="M79.119 67.3242H100.522C102.558 78.4438 108.934 117.8 104.36 152.866L97.1224 151.971C97.1224 151.971 97.7943 105.417 91.3933 88.2046C90.6567 97.4178 89.7806 107.218 89.0241 112.43C87.1675 125.267 83.1855 153.314 83.1855 153.314H75.7891C75.7891 153.314 77.2823 126.466 77.9941 113.853C78.7556 100.16 79.0891 70.1614 79.119 67.3242Z" fill="#263238"/>
<path opacity="0.2" d="M79.119 67.3242H100.522C102.558 78.4438 108.934 117.8 104.36 152.866L97.1224 151.971C97.1224 151.971 97.7943 105.417 91.3933 88.2046C90.6567 97.4178 89.7806 107.218 89.0241 112.43C87.1675 125.267 83.1855 153.314 83.1855 153.314H75.7891C75.7891 153.314 77.2823 126.466 77.9941 113.853C78.7556 100.16 79.0891 70.1614 79.119 67.3242Z" fill="white"/>
<path d="M101.454 33.1494C101.454 33.1494 114.395 45.3591 120.368 47.3998C126.341 49.4406 141.696 57.0013 141.696 57.0013L144.051 55.1447C144.051 55.0402 145.768 56.3692 145.788 57.29C145.788 57.957 144.101 63.5466 143.747 63.5417C142.105 63.5417 140.288 59.7787 140.288 59.7787C140.288 59.7787 120.627 54.6569 117.098 53.1139C113.569 51.5709 99.0547 40.2423 99.0547 40.2423L101.454 33.1494Z" fill="#EBB376"/>
<path d="M98.5802 30.2172C101.537 30.1276 117.131 43.8156 118.341 45.1943C119.55 46.5731 131.665 50.7044 133.039 52.775C134.413 54.8456 132.352 57.2895 129.002 57.5882C125.653 57.8868 102.557 47.5188 99.0431 42.4667C95.5291 37.4146 98.5802 30.2172 98.5802 30.2172Z" fill="#C0009C"/>
<path opacity="0.2" d="M98.5802 30.2172C101.537 30.1276 117.131 43.8156 118.341 45.1943C119.55 46.5731 131.665 50.7044 133.039 52.775C134.413 54.8456 132.352 57.2895 129.002 57.5882C125.653 57.8868 102.557 47.5188 99.0431 42.4667C95.5291 37.4146 98.5802 30.2172 98.5802 30.2172Z" fill="black"/>
<path d="M106.184 41.3972L107.891 76.08H131.076L148.795 71.8392V39.237L124.003 39.0977L106.184 41.3972Z" fill="#C0009C"/>
<path opacity="0.6" d="M106.184 41.3972L107.891 76.08H131.076L148.795 71.8392V39.237L124.003 39.0977L106.184 41.3972Z" fill="white"/>
<path opacity="0.2" d="M106.184 41.3965L129.697 42.1879L131.076 76.0793H107.891L106.184 41.3965Z" fill="white"/>
<path opacity="0.4" d="M129.697 42.1886L148.795 39.237L124.003 39.0977L106.184 41.3972L129.697 42.1886Z" fill="white"/>
<path opacity="0.2" d="M114.969 41.6905L117.98 41.2227L121.723 41.3969L118.343 41.805V43.7114L115.123 43.4874L114.969 41.6905Z" fill="black"/>
<path opacity="0.2" d="M132.716 39.1475L131.73 39.3515H135.075L136.29 39.1674L132.716 39.1475Z" fill="black"/>
<path opacity="0.2" d="M131.074 44.9962L131.338 48.346L137.704 47.2609V43.9658L131.074 44.9962Z" fill="black"/>
<path opacity="0.2" d="M141.051 68.5935V72.66L148.009 71.0225V67.3242L141.051 68.5935Z" fill="black"/>
<path opacity="0.2" d="M123.266 67.3242C123.266 67.3242 123.923 69.36 125.167 69.9921V73.5162L124.216 74.5116H127.486L125.754 73.3967L125.69 70.0071C126.183 69.738 126.605 69.3535 126.918 68.8864C127.231 68.4192 127.426 67.8832 127.486 67.3242H125.695L125.376 68.3944L125.953 68.4591L125.376 69.6636V69.0464H124.903L125.376 67.3441L123.266 67.3242Z" fill="black"/>
<path opacity="0.2" d="M91.3945 88.2094C92.4497 91.2249 93.2505 94.3234 93.7887 97.4724C94.386 89.2796 91.9918 80.584 91.9918 80.584L91.3945 88.2094Z" fill="black"/>
<path d="M98.5819 30.2174C98.5819 30.2174 84.9587 29.5554 74.8047 32.1188C74.8047 32.1188 77.9007 59.8332 78.0948 73.7999C78.0999 74.0975 78.1642 74.3911 78.2841 74.6635C78.404 74.9359 78.5769 75.1818 78.7929 75.3866C79.0088 75.5914 79.2634 75.7511 79.5418 75.8565C79.8202 75.9618 80.1168 76.0105 80.4143 75.9999L100.867 75.2881C101.162 75.2779 101.452 75.2094 101.72 75.0866C101.989 74.9638 102.23 74.7891 102.431 74.5727C102.632 74.3562 102.788 74.1021 102.89 73.8251C102.992 73.5481 103.039 73.2537 103.027 72.9587C102.728 65.4875 101.553 41.337 98.5819 30.2174Z" fill="#C0009C"/>
<path d="M78.6602 75.2486V77.583L102.676 76.4183L102.492 74.502L78.6602 75.2486Z" fill="#263238"/>
<path d="M89.9688 35.8174C89.9688 35.8174 94.548 56.3941 93.881 75.5125" stroke="#263238" stroke-miterlimit="10"/>
<path d="M74.4297 43.3577C74.4297 43.3577 78.6854 55.0995 79.9447 57.5633C81.204 60.0271 105.992 62.4561 105.992 62.4561C105.992 62.4561 111.467 66 112.462 65.8358C113.458 65.6715 115.737 61.0226 114.742 60.5249C113.746 60.0271 110.72 56.6026 109.083 56.6574C107.445 56.7121 106.012 58.5339 106.012 58.5339C106.012 58.5339 85.604 52.6854 84.504 52.2524C83.7176 51.9388 80.4922 40.5703 80.4922 40.5703L74.4297 43.3577Z" fill="#EBB376"/>
<path d="M74.8094 32.1185C71.4397 32.2031 70.2003 37.6584 74.4311 49.7834C77.1488 57.5881 83.6693 61.7293 93.883 63.5411C104.097 65.3529 104.286 59.4695 102.155 57.4338C100.025 55.398 88.3132 52.3817 86.4268 50.6744C84.5403 48.9671 81.8824 31.9443 74.8094 32.1185Z" fill="#C0009C"/>
<path d="M102.157 57.4346L101.52 62.9695L103.237 63.5419L103.834 57.4346H102.157Z" fill="#263238"/>
<path opacity="0.2" d="M74.8094 32.1185C71.4397 32.2031 70.2003 37.6584 74.4311 49.7834C77.1488 57.5881 83.6693 61.7293 93.883 63.5411C104.097 65.3529 104.286 59.4695 102.155 57.4338C100.025 55.398 88.3132 52.3817 86.4268 50.6744C84.5403 48.9671 81.8824 31.9443 74.8094 32.1185Z" fill="black"/>
<path d="M82.5508 30.2178C82.5508 30.2178 89.3301 36.5093 90.4749 35.8373C91.6197 35.1653 91.9681 30.6209 91.9681 30.6209L82.5508 30.2178Z" fill="white"/>
<path d="M82.5547 30.7451C84.5457 32.532 89.3389 31.87 89.3389 31.87C89.3389 31.87 92.3254 31.0488 91.7132 30.108C89.9412 29.8144 89.0851 28.9881 88.7267 27.9329C88.5322 27.2764 88.4712 26.5875 88.5475 25.9071C88.5756 25.5279 88.6254 25.1506 88.6969 24.7772L82.7239 20.3672C83.5253 23.279 84.481 28.6347 82.5547 30.7451Z" fill="#EBB376"/>
<path opacity="0.2" d="M84.125 23.1748C84.3589 26.7436 87.2956 27.7292 88.7341 27.9332C88.5396 27.2767 88.4786 26.5879 88.5549 25.9074L84.125 23.1748Z" fill="black"/>
<path d="M94.4367 12.1494C94.4367 12.1494 95.3327 16.2359 94.611 19.1676C93.8892 22.0993 93.0281 22.4029 92.1222 22.5971C91.2163 22.7912 91.2462 12.5028 91.2462 12.5028L94.4367 12.1494Z" fill="#C0009C"/>
<path opacity="0.5" d="M93.5929 12.7266C93.5929 12.7266 94.9717 16.7583 94.25 19.695C93.5282 22.6317 92.6671 22.9303 91.7314 23.1244C90.7956 23.3186 90.8603 13.0302 90.8603 13.0302L93.5929 12.7266Z" fill="black"/>
<path d="M93.1072 10.8057C93.1072 10.8057 94.8542 16.1564 92.2909 18.7696C89.7275 21.3827 88.0352 11.1491 88.0352 11.1491L93.1072 10.8057Z" fill="#263238"/>
<path d="M84.5635 24.5191C85.3225 25.3226 86.3239 25.8551 87.4145 26.0349C88.505 26.2147 89.6244 26.0319 90.6012 25.5146C91.876 24.8658 92.8552 23.7549 93.3388 22.4087C93.4035 22.2295 93.4632 22.0354 93.513 21.8412C94.389 18.2475 93.8664 12.3095 89.9591 10.7017C89.0971 10.342 88.1574 10.2087 87.2293 10.3146C86.3013 10.4205 85.4158 10.7621 84.657 11.3069C83.8983 11.8516 83.2915 12.5814 82.8944 13.4269C82.4973 14.2723 82.3231 15.2053 82.3884 16.1371C82.6074 20.1091 82.5427 22.4684 84.5635 24.5191Z" fill="#EBB376"/>
<path d="M88.4514 17.2612C88.4265 17.5847 88.6206 17.8535 88.8346 17.8535C89.0487 17.8535 89.2229 17.5847 89.2229 17.2612C89.2229 16.9376 89.0536 16.6738 88.8396 16.6738C88.6256 16.6738 88.4564 16.9327 88.4514 17.2612Z" fill="#263238"/>
<path d="M92.1484 17.2758C92.1484 17.5993 92.3226 17.8681 92.5317 17.8681C92.7408 17.8681 92.9199 17.6043 92.9249 17.2808C92.9299 16.9573 92.7507 16.6885 92.5367 16.6885C92.3226 16.6885 92.1484 16.9672 92.1484 17.2758Z" fill="#263238"/>
<path d="M90.9613 17.4355C91.3455 18.431 91.8647 19.3689 92.5043 20.2229C92.2808 20.3825 92.025 20.491 91.7549 20.5409C91.4849 20.5908 91.2072 20.5808 90.9414 20.5116L90.9613 17.4355Z" fill="#D58745"/>
<path d="M87.3165 16.0677C87.351 16.0719 87.386 16.0673 87.4182 16.0543C87.4505 16.0412 87.4788 16.0201 87.5006 15.993C87.6415 15.7997 87.8255 15.6419 88.0381 15.5321C88.2507 15.4224 88.4859 15.3638 88.7251 15.3609C88.7758 15.3636 88.8255 15.3464 88.8637 15.3129C88.9018 15.2794 88.9253 15.2323 88.9292 15.1817C88.9312 15.1568 88.9283 15.1318 88.9206 15.1081C88.913 15.0844 88.9007 15.0624 88.8845 15.0434C88.8683 15.0244 88.8485 15.0089 88.8263 14.9976C88.8041 14.9863 88.7798 14.9795 88.7549 14.9776C88.4519 14.975 88.1526 15.0445 87.8817 15.1804C87.6108 15.3163 87.3761 15.5146 87.197 15.7591C87.1661 15.799 87.1519 15.8493 87.1574 15.8995C87.163 15.9497 87.1879 15.9957 87.2269 16.0278C87.254 16.0466 87.2844 16.0601 87.3165 16.0677Z" fill="#263238"/>
<path d="M93.7199 16.0165C93.7573 16.0266 93.7968 16.0266 93.8343 16.0165C93.857 16.0058 93.8773 15.9907 93.8941 15.9722C93.9109 15.9536 93.9238 15.9319 93.9322 15.9083C93.9405 15.8846 93.9441 15.8596 93.9427 15.8346C93.9412 15.8096 93.9349 15.7851 93.9239 15.7626C93.7992 15.486 93.6096 15.2434 93.3714 15.0554C93.1332 14.8674 92.8532 14.7395 92.5551 14.6825C92.5303 14.679 92.5049 14.6805 92.4807 14.6869C92.4564 14.6933 92.4336 14.7045 92.4137 14.7198C92.3938 14.735 92.3771 14.7542 92.3646 14.776C92.3522 14.7978 92.3442 14.8218 92.3411 14.8468C92.3354 14.8968 92.3493 14.947 92.38 14.987C92.4106 15.0269 92.4556 15.0534 92.5054 15.0608C92.7392 15.1126 92.9578 15.2183 93.1436 15.3696C93.3294 15.5208 93.4773 15.7133 93.5755 15.9318C93.5926 15.9549 93.6143 15.9743 93.6391 15.9888C93.6639 16.0034 93.6913 16.0128 93.7199 16.0165Z" fill="#263238"/>
<path d="M84.9363 22.084C85.1476 22.8852 85.5619 23.6185 86.139 24.213C86.7162 24.8076 87.4368 25.2435 88.2313 25.4786C90.4513 26.0858 91.4816 24.941 91.4816 24.941C90.9122 25.5272 90.17 25.9156 89.3638 26.049C88.5576 26.1825 87.7298 26.0541 87.0019 25.6827C85.704 25.023 84.6187 24.0102 83.8711 22.7609L84.9363 22.084Z" fill="#263238"/>
<path d="M85.3463 11.1445L85.635 12.8966C85.3445 13.0528 85.123 13.3122 85.0143 13.6236C84.9056 13.935 84.9175 14.2759 85.0477 14.579C85.6798 16.0324 84.9382 18.3668 83.8431 19.3324C83.8431 19.3324 83.7834 18.6903 83.2459 18.8645C82.7083 19.0387 83.0069 22.3786 84.1318 23.9216C84.1318 23.9216 82.4694 22.5528 81.4191 19.0835C80.4236 15.8781 80.2246 13.1803 80.8318 11.8961L85.3463 11.1445Z" fill="#263238"/>
<path d="M80.6299 19.392C81.0711 20.2991 81.853 20.995 82.8051 21.3282C84.0644 21.7562 84.796 20.6413 84.4874 19.4119C84.2236 18.3168 83.253 16.744 81.9539 16.8585C80.6548 16.9729 80.1073 18.272 80.6299 19.392Z" fill="#EBB376"/>
<path d="M94.5636 12.9509C94.5636 12.9509 86.3309 12.6871 85.868 14.2949C85.4051 15.9026 85.8381 19.2076 85.9526 21.5022C86.0323 23.0751 84.7481 23.8466 83.5037 23.9212C83.3712 23.9312 83.2381 23.9312 83.1055 23.9212C82.7005 23.906 82.3048 23.7951 81.9508 23.5977C80.4575 22.7017 78.6756 21.313 77.6652 17.2365C76.3462 11.9156 78.8747 6.17665 86.4852 6.10697C94.0957 6.03728 94.5636 12.9509 94.5636 12.9509Z" fill="#C0009C"/>
<path opacity="0.5" d="M94.0909 13.0448C94.0909 13.0448 86.3311 12.6864 85.8682 14.2942C85.4053 15.9019 85.8383 19.2069 85.9528 21.5015C86.0324 23.0744 84.7483 23.8459 83.5039 23.9205C84.0265 23.8309 84.5741 23.4228 84.6189 22.4273C84.6736 21.1779 83.8374 15.6829 84.6189 14.6276C85.4003 13.5724 88.0483 12.7412 90.771 12.5321C93.4936 12.3231 94.0909 13.0448 94.0909 13.0448Z" fill="black"/>
<path d="M83.6853 12.7569C83.6853 12.7569 82.8789 13.7922 83.2721 14.4243C83.6653 15.0565 96.0194 14.0212 96.1687 13.7126C96.318 13.404 94.78 12.8614 94.551 12.7171C94.322 12.5727 94.2573 11.2239 93.8094 11.0944C93.3614 10.965 87.1695 10.537 83.6853 12.7569Z" fill="#263238"/>
<path d="M84.6794 13.4197C84.6865 13.4613 84.6853 13.5038 84.6759 13.5449C84.6664 13.5859 84.6489 13.6247 84.6244 13.659C84.5999 13.6932 84.5688 13.7223 84.5329 13.7444C84.4971 13.7666 84.4572 13.7814 84.4156 13.7881C84.3741 13.7949 84.3316 13.7936 84.2907 13.784C84.2497 13.7745 84.211 13.7569 84.1768 13.7325C84.1426 13.708 84.1135 13.677 84.0913 13.6412C84.0691 13.6055 84.0541 13.5658 84.0473 13.5243C84.0404 13.4828 84.0418 13.4403 84.0513 13.3993C84.0609 13.3584 84.0784 13.3197 84.1029 13.2855C84.1274 13.2513 84.1584 13.2222 84.1941 13.2C84.2298 13.1778 84.2696 13.1628 84.3111 13.1559C84.3526 13.1488 84.3951 13.15 84.4362 13.1595C84.4773 13.1689 84.516 13.1864 84.5503 13.2109C84.5846 13.2355 84.6136 13.2666 84.6358 13.3024C84.6579 13.3382 84.6728 13.3781 84.6794 13.4197Z" fill="#C0009C"/>
<path d="M91.1499 21.268C90.9743 21.7549 90.8346 22.2539 90.7318 22.7612H90.458C89.2186 22.7015 88.6612 22.2635 88.4222 21.8006C88.3105 21.5695 88.2542 21.3156 88.258 21.0589C88.257 20.9141 88.2772 20.7699 88.3177 20.6309C89.0672 21.0062 89.889 21.2151 90.7268 21.2431C90.9707 21.263 91.1499 21.268 91.1499 21.268Z" fill="#263238"/>
<path d="M90.711 21.2382L90.5766 21.6812C89.4069 21.6215 88.5857 21.4273 88.2422 21.054C88.2413 20.9092 88.2614 20.765 88.3019 20.626C89.0514 21.0013 89.8733 21.2102 90.711 21.2382Z" fill="white"/>
<path d="M90.442 22.7565C89.2026 22.6968 88.6452 22.2588 88.4062 21.7959C88.877 21.8254 89.3388 21.9383 89.7701 22.1294C90.056 22.2602 90.2918 22.4803 90.442 22.7565Z" fill="#DE5753"/>
<path d="M81.2891 30.9241L81.9461 28.6494C81.9461 28.6494 88.8398 31.2128 89.9697 35.8368C89.9697 35.8368 89.472 30.2273 91.1792 28.6494L92.3539 30.1426C92.3539 30.1426 92.5032 35.7423 90.4724 36.4291C88.4416 37.116 81.2891 30.9241 81.2891 30.9241Z" fill="#C0009C"/>
<path opacity="0.2" d="M81.2891 30.9241L81.9461 28.6494C81.9461 28.6494 88.8398 31.2128 89.9697 35.8368C89.9697 35.8368 89.472 30.2273 91.1792 28.6494L92.3539 30.1426C92.3539 30.1426 92.5032 35.7423 90.4724 36.4291C88.4416 37.116 81.2891 30.9241 81.2891 30.9241Z" fill="black"/>
<path d="M105.209 154.559L96.2344 153.225L96.5081 150.736L105.841 151.961L105.209 154.559Z" fill="#C0009C"/>
<path opacity="0.6" d="M105.209 154.559L96.2344 153.225L96.5081 150.736L105.841 151.961L105.209 154.559Z" fill="white"/>
<path d="M84.0571 153.374H75.3516V150.771L84.3856 150.602L84.0571 153.374Z" fill="#C0009C"/>
<path opacity="0.6" d="M84.0571 153.374H75.3516V150.771L84.3856 150.602L84.0571 153.374Z" fill="white"/>
</svg>
