<svg width="227" height="170" viewBox="0 0 227 170" fill="none" xmlns="http://www.w3.org/2000/svg">
<path d="M226.38 166.969C226.38 167.031 175.843 167.085 113.515 167.085C51.1864 167.085 0.640625 167.031 0.640625 166.969C0.640625 166.906 51.1506 166.853 113.515 166.853C175.879 166.853 226.38 166.906 226.38 166.969Z" fill="#263238"/>
<path d="M194.775 152.375C188.276 148.12 186.627 139.975 186.698 132.618C186.698 131.389 186.546 130.101 187.11 129.011C187.673 127.92 189.036 127.151 190.163 127.638C191.097 128.045 191.504 129.096 192.062 129.963C192.784 131.121 193.82 132.051 195.048 132.645C195.848 133.034 196.836 133.257 197.605 132.815C198.664 132.202 198.754 130.736 198.718 129.516C198.646 127.242 198.576 124.968 198.508 122.695C198.401 121.476 198.496 120.248 198.789 119.061C199.147 117.894 199.97 116.794 201.141 116.441C202.312 116.088 203.778 116.723 204.055 117.912C204.114 118.416 204.139 118.924 204.131 119.432C204.13 119.685 204.204 119.934 204.344 120.146C204.484 120.357 204.684 120.523 204.918 120.621C205.418 120.755 205.901 120.397 206.259 120.031C207.506 118.766 208.333 117.156 209.106 115.561C209.879 113.965 210.621 112.325 211.748 110.957C212.874 109.589 214.43 108.48 216.218 108.337C218.006 108.194 219.901 109.231 220.388 110.934C220.875 112.637 219.905 114.416 218.833 115.851C217.237 117.953 215.348 119.813 213.223 121.376C212.806 121.614 212.477 121.979 212.284 122.418C212.038 123.24 212.838 124.031 213.656 124.277C214.586 124.559 215.583 124.438 216.553 124.527C217.523 124.617 218.573 125.01 218.962 125.904C219.499 127.138 218.475 128.47 217.456 129.355C215.407 131.12 213.073 132.524 210.554 133.507C209.66 133.856 208.699 134.169 207.984 134.817C207.269 135.465 206.849 136.574 207.314 137.423C207.778 138.272 208.923 138.518 209.87 138.317C210.818 138.116 211.658 137.588 212.552 137.231C214.233 136.556 216.432 136.618 217.554 138.044C217.899 138.533 218.124 139.096 218.211 139.688C218.298 140.279 218.245 140.883 218.055 141.45C217.671 142.581 217.063 143.623 216.267 144.512C213.638 147.775 210.195 150.287 206.286 151.794C202.374 153.238 198.731 153.694 194.775 152.37" fill="#C0009C"/>
<path d="M218.556 109.307C218.556 109.307 218.52 109.351 218.439 109.427L218.082 109.758C217.764 110.049 217.295 110.478 216.71 111.045C215.048 112.641 213.511 114.361 212.11 116.19C211.216 117.344 210.291 118.649 209.325 120.066C208.36 121.483 207.336 123.007 206.326 124.647C205.254 126.356 204.278 128.123 203.403 129.94C202.956 130.883 202.549 131.871 202.138 132.876C201.726 133.882 201.315 134.901 200.899 135.934C199.303 139.803 197.927 143.759 196.778 147.784C195.856 151.074 195.249 154.445 194.963 157.85C194.78 160.146 194.798 162.454 195.017 164.747C195.102 165.556 195.182 166.186 195.249 166.611C195.276 166.814 195.299 166.974 195.317 167.094C195.324 167.149 195.324 167.204 195.317 167.259C195.298 167.207 195.284 167.153 195.276 167.098C195.254 166.977 195.223 166.821 195.187 166.615C195.102 166.195 195.008 165.565 194.91 164.756C194.656 162.458 194.614 160.142 194.785 157.836C195.054 154.418 195.653 151.034 196.573 147.73C197.713 143.694 199.086 139.727 200.685 135.849C201.101 134.816 201.516 133.797 201.923 132.787C202.33 131.777 202.737 130.789 203.197 129.841C204.08 128.02 205.064 126.249 206.143 124.536C207.162 122.895 208.19 121.375 209.164 119.958C210.139 118.541 211.073 117.241 211.976 116.092C213.394 114.268 214.954 112.56 216.642 110.983C217.241 110.424 217.72 110.004 218.046 109.727L218.422 109.409L218.556 109.307Z" fill="#263238"/>
<path d="M203.273 129.824C203.211 129.656 203.166 129.482 203.139 129.306C203.067 128.97 202.978 128.479 202.875 127.875C202.67 126.664 202.428 124.983 202.205 123.128C201.981 121.273 201.718 119.597 201.494 118.39C201.382 117.787 201.288 117.304 201.221 116.964C201.169 116.8 201.136 116.631 201.123 116.459C201.195 116.623 201.25 116.794 201.288 116.969C201.387 117.299 201.503 117.782 201.633 118.381C201.896 119.583 202.173 121.26 202.415 123.119L203.018 127.875C203.094 128.443 203.157 128.926 203.21 129.314C203.252 129.481 203.273 129.652 203.273 129.824Z" fill="#263238"/>
<path d="M219.101 126.512C218.894 126.559 218.683 126.589 218.471 126.601C218.064 126.646 217.474 126.708 216.75 126.811C215.298 126.999 213.299 127.33 211.114 127.794C208.928 128.259 206.966 128.76 205.558 129.167C204.851 129.363 204.284 129.538 203.89 129.658C203.69 129.732 203.484 129.788 203.273 129.824C203.461 129.721 203.659 129.637 203.863 129.574C204.248 129.43 204.807 129.229 205.508 129.01C206.907 128.563 208.87 128.036 211.064 127.571C212.935 127.167 214.825 126.859 216.728 126.65C217.461 126.57 218.069 126.529 218.462 126.512C218.675 126.488 218.889 126.488 219.101 126.512Z" fill="#263238"/>
<path d="M196.774 147.427C196.729 147.369 196.692 147.306 196.662 147.239L196.376 146.676C196.13 146.189 195.79 145.474 195.388 144.584C194.574 142.796 193.533 140.311 192.42 137.544C191.307 134.777 190.292 132.279 189.519 130.486L188.607 128.363L188.361 127.786C188.327 127.72 188.302 127.649 188.285 127.576C188.285 127.576 188.334 127.639 188.401 127.764C188.468 127.889 188.571 128.104 188.687 128.327C188.933 128.814 189.269 129.53 189.675 130.419C190.484 132.207 191.53 134.692 192.643 137.459C193.756 140.226 194.771 142.725 195.544 144.517L196.465 146.64C196.563 146.873 196.644 147.087 196.711 147.217C196.742 147.283 196.763 147.354 196.774 147.427Z" fill="#263238"/>
<path d="M217.743 140.203C217.675 140.238 217.605 140.268 217.533 140.293L216.925 140.512L214.69 141.285C212.794 141.942 210.184 142.881 207.305 143.922C204.427 144.964 201.807 145.875 199.899 146.492C198.942 146.805 198.169 147.047 197.628 147.203L197.007 147.382C196.935 147.407 196.859 147.422 196.783 147.427C196.849 147.387 196.919 147.357 196.993 147.337L197.601 147.118L199.836 146.34C201.731 145.683 204.342 144.749 207.22 143.708C210.099 142.666 212.718 141.754 214.627 141.133C215.584 140.824 216.357 140.583 216.898 140.427L217.519 140.248C217.591 140.222 217.666 140.207 217.743 140.203Z" fill="#263238"/>
<path d="M46.5635 165.423L47.2921 160.872L39.1435 159.531L37.9902 166.326L38.4864 166.442C40.7214 166.947 49.8668 168.704 51.4491 168.476C53.2148 168.207 46.5635 165.423 46.5635 165.423Z" fill="#C0009C"/>
<path d="M51.7103 168.073C51.7103 168.149 48.6394 167.724 44.8758 167.121C41.1121 166.517 38.0726 165.968 38.086 165.892C38.0994 165.816 41.1568 166.24 44.9205 166.844C48.6841 167.447 51.7237 167.997 51.7103 168.073Z" fill="#263238"/>
<path d="M46.5601 166.375C46.4975 166.33 46.5914 166.097 46.8059 165.887C47.0205 165.677 47.2529 165.588 47.2976 165.65C47.3423 165.713 47.1993 165.896 47.0026 166.097C46.8059 166.299 46.6227 166.424 46.5601 166.375Z" fill="#263238"/>
<path d="M47.0307 166.758C46.9637 166.718 47.0307 166.454 47.2498 166.199C47.4688 165.944 47.6967 165.801 47.7459 165.86C47.7951 165.918 47.661 166.132 47.4688 166.374C47.2766 166.615 47.1022 166.798 47.0307 166.758Z" fill="#263238"/>
<path d="M40.5471 166.254C40.5114 166.254 40.4086 166.133 40.2611 165.905C40.0895 165.609 39.8889 165.33 39.6621 165.074C39.4393 164.828 39.1555 164.646 38.8396 164.546C38.5982 164.475 38.4284 164.488 38.4239 164.443C38.4194 164.399 38.5848 164.323 38.8709 164.354C39.2515 164.41 39.6008 164.596 39.8588 164.881C40.1051 165.155 40.2991 165.472 40.4309 165.816C40.5427 166.075 40.5784 166.24 40.5471 166.254Z" fill="#263238"/>
<path d="M46.7201 165.525C46.7469 165.592 46.586 165.731 46.3357 165.776C46.0853 165.82 45.8887 165.776 45.8887 165.686C45.8887 165.597 46.0675 165.548 46.282 165.503C46.4966 165.458 46.6888 165.449 46.7201 165.525Z" fill="#263238"/>
<path d="M46.6618 165.06C46.6618 165.141 46.4293 165.172 46.1522 165.132C45.8751 165.091 45.6695 164.998 45.7052 164.922C45.741 164.846 45.9466 164.814 46.2103 164.855C46.474 164.895 46.6662 164.984 46.6618 165.06Z" fill="#263238"/>
<path d="M75.3906 164.439L75.2208 159.835L66.9648 160.085L67.1481 166.973H67.6621C69.9463 167.036 79.2839 166.973 80.7724 166.45C82.4531 165.878 75.3906 164.439 75.3906 164.439Z" fill="#C0009C"/>
<path d="M80.9518 166.04C80.9518 166.12 77.872 166.294 74.0637 166.437C70.2553 166.58 67.1666 166.625 67.1621 166.549C67.1576 166.473 70.2464 166.294 74.0547 166.156C77.8631 166.017 80.9473 165.964 80.9518 166.04Z" fill="#263238"/>
<path d="M75.5689 165.373C75.4974 165.342 75.5466 165.096 75.7164 164.85C75.8863 164.604 76.0964 164.466 76.1634 164.519C76.2304 164.573 76.1187 164.779 75.9622 165.006C75.8058 165.234 75.6404 165.409 75.5689 165.373Z" fill="#263238"/>
<path d="M76.1062 165.659C76.0346 165.636 76.0615 165.359 76.2134 165.069C76.3654 164.778 76.571 164.595 76.6336 164.622C76.6962 164.649 76.6023 164.903 76.4638 165.176C76.3252 165.449 76.1822 165.686 76.1062 165.659Z" fill="#263238"/>
<path d="M69.6469 166.428C69.6156 166.428 69.4904 166.334 69.3027 166.137C69.0742 165.883 68.8228 165.649 68.5518 165.44C68.2895 165.246 67.9816 165.123 67.6578 165.083C67.4075 165.083 67.2421 165.105 67.2108 165.083C67.1795 165.06 67.3449 164.931 67.6578 164.904C68.0426 164.883 68.4226 164.998 68.7306 165.23C69.0252 165.45 69.2768 165.723 69.4726 166.035C69.6067 166.245 69.6782 166.406 69.6469 166.428Z" fill="#263238"/>
<path d="M75.5598 164.51C75.6045 164.573 75.4704 164.738 75.238 164.832C75.0056 164.926 74.791 164.903 74.791 164.832C74.791 164.76 74.9385 164.658 75.1441 164.573C75.3498 164.488 75.5151 164.443 75.5598 164.51Z" fill="#263238"/>
<path d="M75.4175 164.068C75.4175 164.144 75.2075 164.22 74.9303 164.234C74.6532 164.247 74.4297 164.198 74.4297 164.118C74.4297 164.037 74.6487 163.966 74.9169 163.952C75.1851 163.939 75.4041 163.992 75.4175 164.068Z" fill="#263238"/>
<path d="M86.5821 49.8255L86.1351 48.3236C85.9759 47.457 85.7318 46.6081 85.4065 45.7892C85.2516 45.3762 85.0279 44.9923 84.745 44.6538C84.4124 44.2207 84.023 43.8343 83.5873 43.5051C83.1403 43.2414 83.252 42.6111 83.699 42.5619C84.146 42.5128 85.3484 43.2145 86.2692 44.551C87.19 45.8875 87.3599 43.371 87.4404 42.4546C87.5208 41.5383 87.8873 38.7178 88.1958 38.5301C88.6428 38.2485 89.0272 38.6776 88.9288 39.5894C88.8305 40.5013 88.7187 43.2637 89.2015 43.295C89.6842 43.3263 90.0195 38.6552 90.0195 38.6552C90.0195 38.6552 89.9301 37.6406 90.4933 37.6584C91.5035 37.6897 90.7749 42.62 90.6944 43.0849C90.6408 43.4112 91.1638 43.4604 91.2085 43.1117C91.2532 42.7631 91.4365 38.4407 92.4645 38.463C93.2557 38.463 91.9058 42.5217 92.3617 43.4514C92.8177 44.3812 93.0724 40.2689 93.8279 40.3225C94.105 40.3225 94.3151 40.3895 93.8279 42.7184C93.3406 45.0472 90.9358 51.3185 90.9358 51.3185L86.5464 49.7495" fill="#FFBE9D"/>
<path d="M56.383 48.5925L63.812 49.1423C63.9103 48.284 64.0578 44.945 64.0578 44.945C64.0578 44.945 67.16 44.6545 67.3835 41.5836C67.607 38.5128 67.5176 31.428 67.5176 31.428C65.8172 30.5696 63.9185 30.1809 62.0176 30.3019C60.1167 30.4229 58.2826 31.0493 56.7048 32.1164L56.2266 32.4382L56.383 48.5925Z" fill="#FFBE9D"/>
<path d="M66.4825 36.6661C66.3995 36.5807 66.3538 36.4659 66.3555 36.3468C66.3572 36.2278 66.4061 36.1143 66.4914 36.0313C66.5768 35.9483 66.6916 35.9027 66.8106 35.9043C66.9297 35.906 67.0432 35.9549 67.1262 36.0403C67.1673 36.0825 67.1996 36.1325 67.2214 36.1873C67.2432 36.242 67.254 36.3005 67.2532 36.3595C67.2523 36.4184 67.2399 36.4766 67.2166 36.5308C67.1932 36.5849 67.1595 36.6339 67.1172 36.675C67.075 36.7161 67.025 36.7484 66.9702 36.7702C66.9155 36.792 66.8569 36.8028 66.798 36.802C66.7391 36.8012 66.6809 36.7887 66.6267 36.7654C66.5726 36.7421 66.5236 36.7083 66.4825 36.6661Z" fill="#263238"/>
<path d="M67.2744 36.0002C67.2207 36.0494 66.9347 35.7991 66.51 35.7722C66.0854 35.7454 65.768 35.9421 65.7233 35.884C65.6786 35.8259 65.7591 35.7678 65.8977 35.6739C66.0862 35.5532 66.3093 35.4981 66.5324 35.5175C66.7548 35.5321 66.9665 35.6184 67.1358 35.7633C67.2565 35.8885 67.2967 36.0002 67.2744 36.0002Z" fill="#263238"/>
<path d="M62.3725 36.0762C62.4697 36.1444 62.5358 36.2484 62.5564 36.3653C62.5769 36.4822 62.5502 36.6025 62.482 36.6998C62.4138 36.797 62.3098 36.8631 62.1929 36.8837C62.076 36.9042 61.9557 36.8774 61.8585 36.8093C61.8101 36.7754 61.769 36.7323 61.7374 36.6824C61.7058 36.6325 61.6844 36.5769 61.6744 36.5187C61.6644 36.4606 61.6661 36.401 61.6793 36.3434C61.6924 36.2859 61.7169 36.2315 61.7512 36.1835C61.8195 36.0871 61.9233 36.0217 62.0397 36.0016C62.1561 35.9815 62.2758 36.0083 62.3725 36.0762Z" fill="#263238"/>
<path d="M62.6492 36.0991C62.6 36.1482 62.314 35.8979 61.8893 35.8711C61.4647 35.8443 61.1473 36.041 61.1026 35.9829C61.0579 35.9248 61.1339 35.8666 61.2769 35.7728C61.4635 35.6514 61.6855 35.5963 61.9072 35.6163C62.1298 35.63 62.3418 35.7164 62.5106 35.8622C62.6358 36.0007 62.676 36.0767 62.6492 36.0991Z" fill="#263238"/>
<path d="M64.1356 39.6929C64.3597 39.6227 64.5937 39.5895 64.8285 39.5945C64.9402 39.5945 65.0296 39.5677 65.043 39.5096C65.0538 39.3976 65.0337 39.2847 64.9849 39.1833C64.8911 38.8972 64.8017 38.6067 64.7033 38.2893C64.4307 37.5435 64.233 36.7723 64.1133 35.9873C64.4569 36.7039 64.7294 37.4525 64.9268 38.2223C65.0162 38.5262 65.1011 38.8212 65.1905 39.1162C65.2483 39.2581 65.2592 39.4147 65.2218 39.5632C65.2032 39.6044 65.1754 39.6406 65.1405 39.6693C65.1056 39.698 65.0646 39.7183 65.0207 39.7286C64.9584 39.7369 64.8952 39.7369 64.8329 39.7286C64.6001 39.7533 64.3648 39.7412 64.1356 39.6929Z" fill="#263238"/>
<path d="M62.7305 40.0769C62.3059 39.7863 63.9061 40.7966 64.7688 40.8055C64.6117 41.0187 64.3869 41.1724 64.1312 41.2414C63.8754 41.3104 63.6039 41.2907 63.3608 41.1854C62.4623 40.7921 62.7305 40.0769 62.7305 40.0769Z" fill="white"/>
<path d="M64.0644 44.9003C62.645 44.8379 61.276 44.3556 60.1309 43.5146C60.1309 43.5146 60.9399 45.7854 64.0242 45.696L64.0644 44.9003Z" fill="#EB996E"/>
<path d="M56.2946 35.5544L56.6656 37.7581L58.0334 37.7313L57.944 33.1407C57.944 33.1407 63.3705 33.5609 63.9918 31.3885C63.9918 31.3885 65.5876 33.7888 67.5677 33.7799C67.5677 33.7799 69.3021 33.6011 67.6527 31.1829C65.1048 27.4639 56.0309 30.4543 56.0309 30.4543C55.8021 31.1337 55.6917 31.8473 55.7046 32.5641C55.6688 34.9421 56.2946 35.5544 56.2946 35.5544Z" fill="#263238"/>
<path d="M55.5486 33.3186L67.6174 30.9227C67.6174 30.9227 66.7592 26.0863 60.2376 27.4943C53.9082 28.8755 55.5486 33.3186 55.5486 33.3186Z" fill="#C0009C"/>
<path d="M55.5488 33.319C55.7187 33.2877 70.3264 33.6319 71.3678 31.6115C71.864 30.646 67.5416 30.6191 67.5416 30.6191L67.6399 30.9231L55.5488 33.319Z" fill="#C0009C"/>
<path opacity="0.2" d="M55.5488 33.319C55.7187 33.2877 70.3264 33.6319 71.3678 31.6115C71.864 30.646 67.5416 30.6191 67.5416 30.6191L67.6399 30.9231L55.5488 33.319Z" fill="black"/>
<path d="M56.8161 35.1646C56.749 35.1378 54.5364 34.8517 54.7465 37.4621C54.9566 40.0725 57.5223 38.9998 57.5223 38.9238C57.5223 38.8478 56.8161 35.1646 56.8161 35.1646Z" fill="#FFBE9D"/>
<path d="M56.6525 38.0698C56.6525 38.0698 56.6078 38.1055 56.5318 38.1502C56.4272 38.2052 56.305 38.2164 56.1921 38.1815C56.0154 38.0885 55.8667 37.9499 55.7614 37.7802C55.6561 37.6105 55.598 37.4157 55.5931 37.216C55.5671 36.9926 55.5931 36.7662 55.6691 36.5545C55.6857 36.4702 55.723 36.3913 55.7776 36.325C55.8322 36.2587 55.9025 36.207 55.982 36.1745C56.033 36.1569 56.0885 36.1575 56.139 36.1762C56.1896 36.195 56.232 36.2307 56.2591 36.2774C56.2994 36.3489 56.2904 36.4025 56.3038 36.407C56.3173 36.4115 56.3575 36.3578 56.3038 36.2505C56.2836 36.1869 56.2427 36.1318 56.1876 36.0941C56.1116 36.0471 56.0204 36.0311 55.9328 36.0494C55.8266 36.0799 55.7298 36.137 55.6516 36.2152C55.5734 36.2933 55.5164 36.3901 55.4859 36.4964C55.395 36.7325 55.3613 36.9868 55.3875 37.2384C55.3934 37.4724 55.4683 37.6994 55.6026 37.891C55.737 38.0827 55.925 38.2304 56.1429 38.3156C56.2148 38.3296 56.2889 38.3277 56.36 38.3099C56.431 38.2921 56.4973 38.259 56.5542 38.2128C56.6525 38.1368 56.6614 38.0743 56.6525 38.0698Z" fill="#EB996E"/>
<path d="M63.9383 29.6103L62.459 29.6387L62.4874 31.1179L63.9667 31.0895L63.9383 29.6103Z" fill="#263238"/>
<path d="M63.9235 28.8089L63.1816 28.8232L63.196 29.5651L63.9379 29.5507L63.9235 28.8089Z" fill="#263238"/>
<path d="M86.0376 47.9042C86.0376 47.9042 83.7535 62.4403 82.1443 62.5163C80.3072 62.6057 74.6572 54.5911 74.6572 54.5911C71.0411 49.0127 66.2717 48.1098 64.5329 47.9712V47.2828L55.9864 46.5811C55.9864 46.5811 55.9864 47.3186 55.9864 47.9623H52.2004C52.2004 47.9623 45.424 47.6494 44.4049 56.7546L49.2816 60.6076L51.2796 68.0411C51.8875 70.3118 50.9578 73.2083 49.9386 78.2951L49.3263 78.152L49.067 83.279C49.0312 83.5204 48.9955 83.7663 48.9642 84.0121H49.0312L46.9661 124.952L36.4082 164.605L48.2937 165.052L59.2539 126.365C59.2539 126.365 60.206 95.4327 61.1715 95.4149C62.7941 95.3836 63.8311 164.225 64.4524 164.068C65.0737 163.912 77.2811 164.037 77.2811 164.037C77.2811 164.037 73.2403 83.8288 73.2805 83.8288L72.2346 68.6311L71.8367 64.2417C74.1566 67.5047 78.5416 72.6004 83.2261 72.511C90.8562 72.3635 91.929 48.7087 91.929 48.7087L86.0376 47.9042Z" fill="#455A64"/>
<path d="M60.7324 95.106C60.9997 94.6765 61.2357 94.2284 61.4387 93.765C61.8439 92.6281 62.0393 91.4271 62.0153 90.2204C62.0153 88.8257 62.0153 87.5697 62.0153 86.5684C61.992 86.0641 62.0114 85.5587 62.0734 85.0576C62.1454 85.558 62.1812 86.0629 62.1807 86.5684C62.2075 87.5027 62.2656 88.8034 62.2522 90.2248C62.2458 90.9005 62.1861 91.5746 62.0734 92.2408C61.9791 92.7886 61.8185 93.323 61.5951 93.8321C61.4406 94.1726 61.2487 94.4949 61.023 94.7931C60.8442 95.0032 60.7637 95.1194 60.7324 95.106Z" fill="#263238"/>
<path d="M53.7203 88.6113C53.7639 88.747 53.785 88.889 53.7829 89.0315C53.8052 89.3042 53.832 89.693 53.8454 90.1847C53.9142 91.4718 53.6574 92.7555 53.099 93.9171C52.7691 94.558 52.2795 95.103 51.6775 95.4995C51.1807 95.8131 50.6107 95.9918 50.0237 96.018C49.6295 96.0381 49.2357 95.9709 48.8704 95.8213C48.7337 95.7738 48.6087 95.6976 48.5039 95.5978C48.9818 95.7961 49.4981 95.8847 50.0147 95.8571C50.5667 95.8058 51.0977 95.6201 51.5613 95.3162C52.1266 94.9315 52.5874 94.4123 52.9023 93.8054C53.4398 92.6752 53.7091 91.4361 53.689 90.1847C53.6723 89.6601 53.6828 89.1349 53.7203 88.6113Z" fill="#263238"/>
<path d="M74.1271 95.732C74.1271 95.732 74.0556 95.8617 73.8366 96.0092C73.516 96.2057 73.144 96.3022 72.7683 96.2863C72.2081 96.263 71.6698 96.0627 71.2306 95.7142C70.7029 95.3024 70.2494 94.8036 69.8897 94.2391C69.2143 93.232 68.7898 92.0779 68.6515 90.8733C68.6121 90.5096 68.6017 90.1434 68.6202 89.7781C68.6175 89.6443 68.6387 89.5111 68.6828 89.3848C68.723 89.3848 68.6828 89.9524 68.8169 90.8509C68.9963 92.0162 69.4281 93.1283 70.0819 94.1095C70.4281 94.6533 70.8598 95.1378 71.3603 95.5443C71.7612 95.8763 72.2541 96.0775 72.7728 96.1209C73.1235 96.1488 73.4754 96.0824 73.7919 95.9287C74.0109 95.817 74.1137 95.7142 74.1271 95.732Z" fill="#263238"/>
<path d="M48.839 162.419C48.839 162.486 46.2018 162.441 42.9566 162.325C39.7115 162.209 37.0742 162.052 37.0742 161.994C37.0742 161.936 39.7115 161.972 42.9611 162.092C46.2107 162.213 48.8435 162.356 48.839 162.419Z" fill="#263238"/>
<path d="M76.8549 160.631C76.6932 160.676 76.5264 160.698 76.3587 160.698L75.0178 160.801C73.8735 160.873 72.2956 160.958 70.5479 161.038C68.8001 161.119 67.2178 161.177 66.0779 161.212L64.737 161.235C64.5698 161.248 64.4016 161.241 64.2363 161.212C64.3986 161.171 64.5651 161.148 64.7325 161.145L66.0735 161.047C67.2178 160.971 68.7956 160.886 70.5434 160.806C72.2911 160.725 73.8735 160.667 75.0133 160.636L76.3543 160.609C76.5215 160.599 76.6893 160.606 76.8549 160.631Z" fill="#263238"/>
<path d="M54.929 96.0537C54.9359 96.1116 54.9359 96.1701 54.929 96.228V96.7421C54.929 97.1891 54.9066 97.8685 54.8932 98.7178C54.853 100.43 54.777 102.911 54.6518 105.977C54.5267 109.043 54.3568 112.682 54.1155 116.736C53.9948 118.761 53.8607 120.884 53.6685 123.083C53.5746 124.183 53.4897 125.318 53.2975 126.436C53.1053 127.553 52.8505 128.693 52.618 129.842C50.5798 138.983 48.2912 147.145 46.5032 153.014C45.6092 155.951 44.8046 158.297 44.2414 159.92L43.5575 161.77C43.4771 161.971 43.419 162.132 43.3698 162.249C43.3549 162.305 43.3324 162.359 43.3027 162.41C43.3106 162.353 43.3256 162.297 43.3474 162.244C43.3877 162.123 43.4413 161.963 43.5128 161.757L44.1565 159.889C44.6929 158.261 45.4975 155.906 46.3468 152.969C48.09 147.091 50.3697 138.92 52.3901 129.788C52.6359 128.648 52.8818 127.517 53.0695 126.4C53.2572 125.282 53.3466 124.165 53.4405 123.065C53.6238 120.866 53.7623 118.743 53.8875 116.723C54.1378 112.7 54.3345 109.03 54.473 105.968C54.6116 102.906 54.7144 100.439 54.7904 98.7133C54.8217 97.864 54.8485 97.2025 54.8664 96.7376C54.8664 96.5231 54.8753 96.3532 54.8932 96.228C54.9021 96.1693 54.9141 96.1112 54.929 96.0537Z" fill="#263238"/>
<path d="M71.3299 160.931C71.3157 160.878 71.3082 160.824 71.3075 160.77C71.3075 160.654 71.3075 160.497 71.2717 160.296C71.2405 159.849 71.2002 159.254 71.1466 158.472C71.0527 156.876 70.9186 154.588 70.7488 151.767C70.4314 146.104 70.0336 138.273 69.667 129.628C69.3005 120.983 69.0323 113.138 68.858 107.471C68.782 104.646 68.715 102.352 68.6747 100.766C68.6747 99.9834 68.6434 99.371 68.6345 98.9419V98.4636C68.6297 98.4101 68.6297 98.3563 68.6345 98.3027C68.6393 98.3563 68.6393 98.4101 68.6345 98.4636C68.6345 98.5843 68.6345 98.7408 68.6613 98.9375C68.6613 99.3844 68.706 99.9834 68.7418 100.766C68.8044 102.361 68.8893 104.654 69.001 107.471C69.2245 113.147 69.5374 120.974 69.895 129.619C70.2526 138.264 70.6326 146.095 70.9097 151.763C71.0483 154.588 71.1555 156.876 71.236 158.468C71.2673 159.25 71.2941 159.862 71.312 160.296C71.312 160.493 71.312 160.649 71.312 160.77C71.3228 160.823 71.3288 160.877 71.3299 160.931Z" fill="#263238"/>
<path d="M61.516 47.0322C61.5498 47.4323 61.5498 47.8345 61.516 48.2346C61.504 49.2381 61.4052 50.2386 61.221 51.225L61.1942 51.3725L61.0601 51.301C60.774 51.1535 60.479 50.997 60.1885 50.8227C58.9458 50.0986 57.8909 49.3432 57.1087 48.8247C56.3265 48.3062 55.8482 47.9888 55.8616 47.962C56.3326 48.156 56.782 48.3987 57.2026 48.6861C58.0072 49.1733 59.0799 49.9064 60.3092 50.6216C60.5997 50.7914 60.8903 50.9523 61.1674 51.0998L61.002 51.1758C61.1902 50.2018 61.3126 49.2162 61.3685 48.2257C61.3856 47.8246 61.4349 47.4254 61.516 47.0322Z" fill="#263238"/>
<path d="M64.5547 48.0286C64.4994 48.4046 64.4188 48.7764 64.3133 49.1416C64.2284 49.4813 64.139 49.8925 63.9915 50.344C63.9158 50.5806 63.8248 50.8121 63.7188 51.0368C63.6846 51.1149 63.6288 51.1816 63.5579 51.229C63.5094 51.2618 63.4508 51.2762 63.3926 51.2697C63.3345 51.2631 63.2805 51.236 63.2406 51.1933C63.1535 51.0734 63.0856 50.9407 63.0394 50.7999C62.6237 49.8076 62.2572 48.9091 62.0069 48.2521C61.8533 47.9061 61.7365 47.5451 61.6582 47.1748C61.865 47.4962 62.0387 47.8376 62.1767 48.1939C62.4673 48.8376 62.8561 49.7271 63.2718 50.7194C63.3117 50.8307 63.3611 50.9384 63.4193 51.0413C63.4417 51.0413 63.4193 51.0413 63.4551 51.0413C63.4878 51.0149 63.5138 50.9812 63.5311 50.9429C63.6359 50.7263 63.7285 50.504 63.8082 50.2769C63.9602 49.8299 64.0675 49.441 64.1703 49.1013C64.2504 48.7283 64.3797 48.3676 64.5547 48.0286Z" fill="#263238"/>
<path d="M62.9512 78.5723C62.9272 78.4667 62.9152 78.3588 62.9155 78.2505C62.9155 78.018 62.8797 77.7141 62.8529 77.3341C62.8127 76.5117 62.7501 75.3629 62.6785 73.9549C62.5489 71.0807 62.3746 67.1517 62.1779 62.8114C61.9812 58.4711 61.8606 54.5421 61.7309 51.6634C61.6862 50.2554 61.6549 49.1111 61.6281 48.2842C61.6281 47.9042 61.6281 47.6003 61.6281 47.3902C61.6214 47.283 61.6214 47.1755 61.6281 47.0684C61.653 47.1724 61.6664 47.2788 61.6683 47.3857C61.6683 47.6182 61.7041 47.9221 61.7265 48.3021C61.7712 49.129 61.8293 50.2733 61.9052 51.6813C62.0349 54.5555 62.2092 58.4845 62.4014 62.8248C62.5936 67.1651 62.7232 71.0986 62.8484 73.9728C62.8931 75.3808 62.9289 76.5295 62.9557 77.352C62.9557 77.732 62.9557 78.0404 62.9557 78.2728C62.9651 78.3725 62.9636 78.4729 62.9512 78.5723Z" fill="#263238"/>
<path d="M68.3981 56.2915L64.291 56.3711L64.3075 57.2202L68.4145 57.1406L68.3981 56.2915Z" fill="white"/>
<path d="M72.3009 70.1679C72.2339 70.1679 71.9746 67.0658 71.7199 63.2261C71.4651 59.3865 71.3086 56.2799 71.3712 56.2754C71.4338 56.2709 71.693 59.3775 71.9523 63.2127C72.2115 67.0479 72.3859 70.1634 72.3009 70.1679Z" fill="#263238"/>
<path d="M91.7945 51.6862C90.7535 51.5666 89.7227 51.3709 88.7103 51.1006C87.6818 50.9027 86.669 50.6308 85.6797 50.2871C86.7207 50.4067 87.7515 50.6024 88.7639 50.8727C89.793 51.0681 90.806 51.3401 91.7945 51.6862Z" fill="#263238"/>
<path d="M86.927 48.9366C87.0102 48.9349 87.0922 48.9579 87.1623 49.0028C87.2325 49.0476 87.2877 49.1124 87.321 49.1887C87.3543 49.265 87.3642 49.3496 87.3493 49.4315C87.3345 49.5135 87.2956 49.5892 87.2377 49.649C87.1798 49.7088 87.1054 49.7501 87.0239 49.7675C86.9425 49.785 86.8577 49.7778 86.7803 49.747C86.7029 49.7162 86.6365 49.663 86.5894 49.5944C86.5423 49.5257 86.5166 49.4445 86.5157 49.3613C86.5145 49.3063 86.5243 49.2516 86.5444 49.2005C86.5644 49.1493 86.5945 49.1026 86.6327 49.0631C86.671 49.0236 86.7167 48.9921 86.7672 48.9704C86.8177 48.9487 86.872 48.9372 86.927 48.9366Z" fill="#263238"/>
<path d="M68.3562 54.3964L66.877 54.4248L66.9054 55.9041L68.3846 55.8757L68.3562 54.3964Z" fill="#C0009C"/>
<path d="M68.3356 53.5891L67.5938 53.6035L67.6081 54.3454L68.35 54.331L68.3356 53.5891Z" fill="#C0009C"/>
<path d="M90.5027 61.9793L89.8948 85.8486L52.4414 85.6564L52.5621 61.4697L90.5027 61.9793Z" fill="#C0009C"/>
<path d="M68.2559 85.7102C68.1933 85.7102 68.2559 80.3776 68.4436 73.8068C68.6314 67.236 68.8101 61.9258 68.8593 61.9258C68.9085 61.9258 68.8593 67.2539 68.6761 73.8292C68.4928 80.4044 68.3185 85.7102 68.2559 85.7102Z" fill="#263238"/>
<path d="M52.4414 85.6565C52.4808 85.5677 52.5303 85.4837 52.5889 85.4062L53.0359 84.7044L54.7836 82.1611L60.6213 73.8113C62.9055 70.5527 64.9616 67.5981 66.4322 65.4436C67.1698 64.3664 67.7732 63.4903 68.1576 62.8823L68.6046 62.1806C68.6632 62.0881 68.7322 62.0026 68.8102 61.9258C68.7783 62.0182 68.7331 62.1056 68.6761 62.185L68.256 62.9136C67.876 63.535 67.3083 64.4289 66.5931 65.5151C65.1583 67.6964 63.12 70.6689 60.8404 73.9275C58.5607 77.1861 56.4643 80.1183 54.9446 82.2371L53.1566 84.7402C52.951 85.0173 52.7811 85.2408 52.656 85.4152C52.5958 85.505 52.5236 85.5862 52.4414 85.6565Z" fill="#263238"/>
<path d="M67.8851 85.8986C67.8315 85.9343 64.3807 80.557 60.1835 73.8879C55.9862 67.2188 52.6204 61.7834 52.6785 61.7521C52.7366 61.7208 56.1784 67.0936 60.3801 73.7627C64.5819 80.4318 67.9388 85.8673 67.8851 85.8986Z" fill="#263238"/>
<path d="M72.6188 82.3773L78.6309 82.5576L78.6679 81.3239L72.6558 81.1436L72.6188 82.3773Z" fill="#263238"/>
<path d="M72.4668 80.8077C73.4425 80.6904 74.4262 80.653 75.408 80.6959C76.3901 80.6555 77.3738 80.6959 78.3492 80.8166C77.3731 80.9287 76.3898 80.9661 75.408 80.9283C74.426 80.9632 73.4427 80.9228 72.4668 80.8077Z" fill="#263238"/>
<path d="M82.9287 61.7873L82.6963 71.0043L81.4089 69.9628L79.7148 70.9283L79.9517 61.7158L82.9287 61.7873Z" fill="#263238"/>
<path d="M51.8244 59.3563C51.8244 59.3563 50.0096 72.024 50.8679 72.766C55.6238 76.7666 62.2348 78.863 64.5994 79.5245C64.9436 79.4396 65.3504 79.3323 65.8108 79.1848C66.2127 79.0573 66.5894 78.8606 66.9238 78.6037C67.3539 78.3038 67.7405 77.9457 68.0726 77.5399C68.1241 77.4561 68.1998 77.3898 68.2897 77.3498C68.3796 77.3098 68.4795 77.298 68.5763 77.3159C68.673 77.3338 68.7621 77.3806 68.8318 77.4501C68.9014 77.5196 68.9484 77.6086 68.9665 77.7053C68.9889 78.1523 68.2871 79.2698 66.9685 80.0878C66.9685 80.0878 69.9991 84.9644 70.9646 85.4025C71.9301 85.8405 74.697 87.0876 74.2276 87.329C73.7583 87.5704 70.3969 86.587 70.3969 86.587L63.5758 84.7633C63.5758 84.7633 41.0072 81.2276 42.5136 70.8753C43.4344 64.5325 44.4401 58.8065 44.8022 57.3672L51.8244 59.3563Z" fill="#FFBE9D"/>
<path d="M44.4131 56.7588L42.3883 70.5798C41.9413 74.8396 44.7707 78.2144 48.6059 80.1185C54.4436 83.0106 63.1108 85.0712 63.0393 85.0578C62.9678 85.0444 63.6248 78.9117 63.6248 78.9117C63.6248 78.9117 51.4756 73.6506 51.1091 71.3888C50.7425 69.127 52.6512 59.6732 52.6512 59.6732L44.4131 56.7588Z" fill="#455A64"/>
<path d="M63.0389 85.0579C63.033 85.0224 63.033 84.9861 63.0389 84.9506C63.0389 84.8657 63.0389 84.7584 63.0389 84.6288C63.0613 84.3293 63.0926 83.9181 63.1328 83.3996C63.2267 82.3134 63.3608 80.7757 63.5261 78.885L63.5753 78.9654L57.4605 76.0063L55.6725 75.1436C55.078 74.8263 54.4835 74.4821 53.8845 74.1022C53.2835 73.7171 52.7072 73.2946 52.1592 72.8372C51.882 72.6047 51.6094 72.3634 51.3456 72.1041C51.2015 71.978 51.0818 71.8265 50.9925 71.6571C50.9479 71.5693 50.9149 71.4762 50.8942 71.38C50.8665 71.2862 50.8456 71.1906 50.8316 71.0939C50.6349 69.5875 51.0417 68.1572 51.2473 66.7983C51.4529 65.4395 51.6943 64.1164 51.9312 62.8559C52.3782 60.3482 52.7626 58.0909 53.0978 56.1867C53.2777 55.3425 53.381 54.4838 53.4063 53.621C53.4126 52.9713 53.2784 52.3278 53.0129 51.7347C52.841 51.3621 52.5981 51.0265 52.2977 50.7469C52.0876 50.5547 51.958 50.4831 51.9625 50.4697C52.095 50.5333 52.2183 50.6145 52.329 50.7111C52.6501 50.9815 52.9105 51.3166 53.0934 51.6945C53.3837 52.2939 53.5364 52.9506 53.5404 53.6165C53.5299 54.489 53.4372 55.3585 53.2632 56.2136C52.9459 58.1222 52.5659 60.384 52.1457 62.8961L51.4753 66.843C51.4171 67.1827 51.359 67.5314 51.2965 67.88C51.2339 68.2287 51.1713 68.5684 51.1221 68.9215C51.006 69.6279 50.988 70.3469 51.0685 71.0581C51.0795 71.1458 51.0974 71.2325 51.1221 71.3174C51.141 71.4009 51.1695 71.4819 51.2071 71.5588C51.281 71.7114 51.3861 71.847 51.5155 71.9566C51.7703 72.2114 52.0385 72.4483 52.3111 72.6807C52.8521 73.1297 53.4193 73.5461 54.0097 73.9278C54.5908 74.3078 55.1808 74.652 55.7664 74.9648L57.5275 75.832L63.6111 78.8358L63.6647 78.8626V78.9118C63.468 80.8026 63.3071 82.3402 63.2177 83.4219C63.1596 83.9404 63.1149 84.3472 63.0836 84.6467C63.0836 84.7763 63.0523 84.8791 63.0389 84.964C63.0255 85.049 63.0434 85.0624 63.0389 85.0579Z" fill="#263238"/>
<path d="M61.9146 78.0449C61.9311 78.3611 61.9071 78.678 61.8431 78.9881C61.7671 79.5692 61.6464 80.3648 61.4855 81.223C61.3246 82.0813 61.1413 82.8858 60.9894 83.458C60.927 83.7672 60.8264 84.0676 60.6899 84.352C60.6273 84.352 60.9313 82.9305 61.2576 81.1873C61.413 80.1275 61.6324 79.0781 61.9146 78.0449Z" fill="#263238"/>
<path d="M63.0393 85.0585C62.9681 85.0583 62.8974 85.0477 62.8292 85.0272L62.2258 84.8797L60.0266 84.3076C58.1805 83.8069 55.6058 83.1543 52.8747 82.1396C51.5772 81.6667 50.3137 81.1051 49.0932 80.459C48.0995 79.9243 47.1491 79.313 46.2503 78.6308C45.6477 78.1664 45.0786 77.66 44.5473 77.1155C44.364 76.9233 44.221 76.7668 44.1316 76.6685C44.0801 76.617 44.0364 76.5583 44.002 76.4941C44.002 76.4941 44.221 76.6953 44.6143 77.0618C45.1638 77.5783 45.7445 78.0604 46.3531 78.5056C47.2532 79.174 48.2037 79.7718 49.196 80.2936C50.4113 80.9269 51.6671 81.4794 52.9552 81.9474C55.6908 82.9532 58.2565 83.6326 60.107 84.1824L62.2839 84.8305L62.8739 85.0138C62.9301 85.0246 62.9853 85.0396 63.0393 85.0585Z" fill="#263238"/>
<path d="M63.1925 79.5241C63.1937 79.5757 63.1847 79.6271 63.166 79.6753C63.1473 79.7235 63.1193 79.7675 63.0836 79.8049C63.0479 79.8422 63.0052 79.8722 62.9579 79.893C62.9107 79.9139 62.8597 79.9252 62.8081 79.9264C62.7049 79.9264 62.6057 79.8863 62.5314 79.8146C62.4572 79.7429 62.4137 79.6451 62.4103 79.5419C62.4091 79.4903 62.4181 79.4389 62.4368 79.3907C62.4554 79.3425 62.4834 79.2985 62.5191 79.2612C62.5548 79.2238 62.5975 79.1938 62.6448 79.173C62.6921 79.1521 62.743 79.1408 62.7947 79.1396C62.8979 79.1396 62.9971 79.1797 63.0713 79.2514C63.1456 79.3231 63.189 79.4209 63.1925 79.5241Z" fill="#263238"/>
<path d="M168.525 14.5947H119.195V166.97H168.525V14.5947Z" fill="#E0E0E0"/>
<path d="M151.562 15.7607V160.157L175.164 166.973L175.24 15.7607H151.562Z" fill="#455A64"/>
<path d="M154.472 85.7646C154.516 86.8955 154.083 87.8298 153.502 87.8566C152.921 87.8834 152.411 86.9626 152.366 85.8496C152.322 84.7366 152.755 83.7845 153.336 83.7621C153.918 83.7398 154.427 84.6338 154.472 85.7646Z" fill="white"/>
<path d="M153.381 84.9238L158.03 85.5451C158.15 85.5609 158.261 85.619 158.343 85.7091C158.425 85.7991 158.472 85.9152 158.477 86.0368C158.48 86.1137 158.466 86.1903 158.435 86.2609C158.405 86.3316 158.359 86.3946 158.301 86.4452C158.243 86.4958 158.175 86.5328 158.101 86.5534C158.027 86.574 157.949 86.5777 157.873 86.5643L153.403 85.8089L153.381 84.9238Z" fill="white"/>
<path d="M113.432 9.20801V14.192V15.7609V166.974H121.178V15.7609H166.637V166.974H175.161V15.7609V14.192V9.20801H113.432Z" fill="#263238"/>
<path d="M121.18 15.7607H117.309V166.969H121.18V15.7607Z" fill="#263238"/>
<path opacity="0.5" d="M121.18 15.7607H117.309V166.969H121.18V15.7607Z" fill="black"/>
<path d="M175.238 9.20801H171.367V166.974H175.238V9.20801Z" fill="#263238"/>
<path opacity="0.5" d="M175.238 9.20801H171.367V166.974H175.238V9.20801Z" fill="black"/>
<path d="M149.608 0H136.887V2.83839H149.608V0Z" fill="#455A64"/>
<path d="M144.714 39.4873C144.787 40.8629 145.3 42.1786 146.177 43.2407C147.054 44.3029 148.249 45.0555 149.586 45.3876C150.967 45.7228 152.558 45.5664 153.653 46.4917C155.531 48.0874 154.431 51.4086 155.701 53.5228C156.478 54.837 158.025 55.4806 158.901 56.7278C160.358 58.7973 159.379 61.9307 157.395 63.4729C155.41 65.015 152.759 65.31 150.274 65.2608C144.798 65.1178 139.189 63.379 135.233 59.4991C133.373 57.6754 127.343 50.7425 130.084 40.7523" fill="#263238"/>
<path d="M124.939 54.1846C124.939 54.1846 115.36 62.5121 115.105 61.4974C113.764 55.986 114.139 48.9459 114.358 46.2505C114.506 46.0226 114.68 45.7678 114.886 45.4862C115.12 45.16 115.408 44.8771 115.74 44.6503C116.14 44.3484 116.579 44.1019 117.045 43.9173C117.142 43.9056 117.233 43.8622 117.304 43.7937C117.374 43.7252 117.42 43.6354 117.434 43.5383C117.448 43.4411 117.43 43.342 117.382 43.2562C117.335 43.1704 117.26 43.1026 117.17 43.0635C116.785 42.9205 115.561 43.2378 114.425 44.1854C113.29 45.1331 113.755 42.8802 113.907 42.0578C114.059 41.2353 114.416 38.6606 114.197 38.4193C113.88 38.0617 113.433 38.3477 113.303 39.1747C113.174 40.0016 112.588 42.4556 112.155 42.3662C111.721 42.2768 112.57 38.084 112.57 38.084C112.57 38.084 112.892 37.2124 112.396 37.0917C111.502 36.8727 110.939 41.3873 110.894 41.8164C110.863 42.1159 110.389 42.0354 110.447 41.7136C110.505 41.3918 111.381 37.5521 110.474 37.3197C109.777 37.1409 109.973 41.0252 109.348 41.7315C108.722 42.4377 109.5 38.7634 108.825 38.6025C108.574 38.5489 108.378 38.5444 108.239 40.7123C108.206 42.4577 108.268 44.2036 108.427 45.9421C107.832 51.8871 106.666 70.102 114.895 69.4762C124.603 68.7342 126.838 61.0817 126.838 61.0817L124.939 54.1846Z" fill="#B78876"/>
<path d="M132.592 51.4751C132.73 50.7063 132.484 47.479 132.484 47.479C132.484 47.479 129.619 47.1169 129.498 44.1981C129.378 41.2792 129.664 34.5475 129.664 34.5475L134.934 32.0176L140.602 36.5858L139.618 51.4259L132.592 51.4751Z" fill="#B78876"/>
<path d="M130.15 39.4642C130.15 39.5365 130.172 39.6072 130.212 39.6674C130.252 39.7275 130.309 39.7745 130.376 39.8024C130.442 39.8302 130.516 39.8378 130.587 39.824C130.658 39.8102 130.723 39.7757 130.775 39.7249C130.826 39.6741 130.861 39.6092 130.876 39.5384C130.89 39.4676 130.884 39.394 130.857 39.327C130.83 39.2599 130.783 39.2024 130.724 39.1616C130.664 39.1208 130.594 39.0985 130.521 39.0977C130.424 39.0976 130.33 39.1361 130.261 39.2047C130.191 39.2734 130.152 39.3666 130.15 39.4642Z" fill="#263238"/>
<path d="M129.807 39.0495C129.852 39.0987 130.124 38.8707 130.518 38.8573C130.911 38.8439 131.202 39.0406 131.242 38.9869C131.282 38.9333 131.215 38.8707 131.085 38.7813C130.916 38.6611 130.712 38.6013 130.504 38.6115C130.298 38.622 130.1 38.6988 129.941 38.8305C129.82 38.9333 129.785 39.0272 129.807 39.0495Z" fill="#263238"/>
<path d="M134.365 39.5365C134.365 39.6088 134.387 39.6794 134.427 39.7396C134.467 39.7998 134.524 39.8468 134.59 39.8746C134.657 39.9025 134.731 39.91 134.802 39.8962C134.873 39.8825 134.938 39.848 134.989 39.7972C135.041 39.7464 135.076 39.6815 135.091 39.6107C135.105 39.5399 135.099 39.4663 135.072 39.3993C135.045 39.3322 134.998 39.2747 134.939 39.2339C134.879 39.1931 134.809 39.1708 134.736 39.1699C134.639 39.1699 134.545 39.2084 134.475 39.277C134.406 39.3456 134.366 39.4388 134.365 39.5365Z" fill="#263238"/>
<path d="M134.147 39.1298C134.196 39.179 134.468 38.951 134.862 38.9331C135.255 38.9152 135.541 39.1209 135.586 39.0672C135.631 39.0136 135.559 38.951 135.429 38.8571C135.259 38.74 135.055 38.6818 134.848 38.6915C134.642 38.7012 134.444 38.7782 134.285 38.9108C134.164 39.0091 134.124 39.103 134.147 39.1298Z" fill="#263238"/>
<path d="M132.675 42.5001C132.468 42.4353 132.253 42.4021 132.036 42.4018C131.938 42.4018 131.839 42.3749 131.821 42.3034C131.814 42.1925 131.836 42.0816 131.884 41.9816L132.166 41.1546C132.431 40.4503 132.643 39.7271 132.8 38.9912C132.485 39.6726 132.221 40.3762 132.009 41.0965C131.915 41.3915 131.821 41.6642 131.737 41.9324C131.676 42.0637 131.66 42.2114 131.692 42.3526C131.705 42.3894 131.727 42.4225 131.756 42.449C131.785 42.4755 131.819 42.4945 131.857 42.5046C131.914 42.5125 131.971 42.5125 132.027 42.5046C132.242 42.5315 132.46 42.53 132.675 42.5001Z" fill="#263238"/>
<path d="M133.965 42.9024C134.367 42.6387 132.856 43.5505 132.061 43.5371C132.196 43.743 132.399 43.8955 132.635 43.9688C132.87 44.0422 133.124 44.0318 133.352 43.9394C133.461 43.9118 133.563 43.863 133.652 43.7959C133.742 43.7288 133.817 43.6446 133.874 43.5482C133.931 43.4518 133.968 43.3452 133.984 43.2343C133.999 43.1235 133.993 43.0107 133.965 42.9024Z" fill="white"/>
<path d="M132.484 47.479C133.842 47.4422 135.159 47.0103 136.275 46.2363C136.275 46.2363 135.381 48.3685 132.534 48.1942L132.484 47.479Z" fill="#A36957"/>
<path d="M144.715 39.5324C144.688 39.3268 144.656 39.0139 144.625 38.6876C144.581 38.2406 144.531 37.7578 144.473 37.4986C143.025 31.3882 137.831 30.1634 136.803 30.1456C135.694 30.1232 133.772 29.4661 130.898 32.4252C130.081 33.21 129.513 34.219 129.268 35.3253C129.022 36.4315 129.109 37.5857 129.517 38.6429L130 38.1959L134.179 37.1678C133.866 36.0101 134.376 34.5887 134.662 33.9271L134.689 33.9003C135.444 38.2853 140.124 38.8172 140.124 38.8172L139.677 50.439C144.286 49.5092 144.652 42.0355 144.643 39.5056L144.715 39.5324Z" fill="#263238"/>
<path d="M146.523 91.6956C146.523 91.6377 146.523 91.5798 146.523 91.5442C146.523 91.5085 146.532 91.6154 146.523 91.6956Z" fill="#B78876"/>
<path d="M151.95 162.557C151.95 162.557 141.16 126.185 140.954 125.009C140.766 123.959 145.764 98.4403 146.488 91.8203L131.317 91.9634C131.317 91.9634 131.317 92.0036 131.317 92.0751L123.986 92.2762L127.656 164.957L135.702 165.167L135.581 141.275C139.56 152.942 144.593 166.124 144.593 166.124L151.95 162.557Z" fill="#B78876"/>
<path d="M130.758 123.383C130.781 123.383 130.758 123.669 130.709 124.178C130.674 124.897 130.687 125.617 130.749 126.333C130.842 127.396 131.022 128.45 131.286 129.484C131.635 130.747 132.065 131.986 132.573 133.194C133.57 135.805 134.464 138.169 135.099 139.899L135.858 141.937C135.958 142.184 136.039 142.438 136.1 142.697C135.974 142.462 135.865 142.219 135.773 141.969L134.964 139.957C134.289 138.254 133.373 135.894 132.372 133.284C132.126 132.631 131.885 131.992 131.648 131.375C131.43 130.777 131.246 130.166 131.098 129.547C130.839 128.5 130.673 127.432 130.602 126.355C130.556 125.63 130.567 124.902 130.638 124.178C130.664 123.924 130.696 123.731 130.722 123.593C130.723 123.521 130.735 123.45 130.758 123.383Z" fill="#A36957"/>
<path d="M135.622 149.957C135.622 149.738 135.765 141.857 135.765 141.857C135.765 141.857 133.119 134.553 133.052 134.772C132.985 134.991 135.622 149.957 135.622 149.957Z" fill="#A36957"/>
<path d="M144.871 165.999L151.969 162.558L152.787 164.082L150.279 165.499C148.567 166.433 142.747 169.482 141.371 169.727C139.837 170.004 144.871 165.999 144.871 165.999Z" fill="#C0009C"/>
<path d="M141.053 169.521C141.017 169.467 143.61 168.18 146.842 166.655C150.073 165.131 152.715 163.938 152.746 163.973C152.778 164.009 150.19 165.314 146.958 166.834C143.726 168.354 141.084 169.574 141.053 169.521Z" fill="#263238"/>
<path d="M150.941 164.9C150.905 164.9 150.892 164.766 150.905 164.551C150.924 164.265 151.001 163.987 151.133 163.733C151.281 163.455 151.519 163.236 151.808 163.112C152.045 163.018 152.211 163.04 152.211 163.063C152.211 163.085 152.077 163.134 151.898 163.246C151.673 163.392 151.487 163.592 151.357 163.827C151.241 164.068 151.148 164.319 151.08 164.578C151.022 164.779 150.973 164.904 150.941 164.9Z" fill="#263238"/>
<path d="M144.484 166.325C144.484 166.388 144.703 166.473 144.985 166.567C145.267 166.661 145.504 166.723 145.544 166.669C145.584 166.616 145.383 166.446 145.074 166.343C144.766 166.24 144.493 166.258 144.484 166.325Z" fill="#263238"/>
<path d="M143.998 166.706C143.998 166.773 144.186 166.894 144.445 166.979C144.704 167.064 144.964 167.09 144.995 167.028C145.026 166.965 144.816 166.849 144.548 166.76C144.28 166.67 144.016 166.643 143.998 166.706Z" fill="#263238"/>
<path d="M143.597 167.058C143.57 167.116 143.722 167.228 143.919 167.33C144.115 167.433 144.308 167.491 144.366 167.442C144.424 167.393 144.281 167.241 144.066 167.129C143.852 167.018 143.628 166.995 143.597 167.058Z" fill="#263238"/>
<path d="M144.517 166.384C144.556 166.133 144.53 165.876 144.441 165.637C144.371 165.362 144.246 165.104 144.074 164.878C143.964 164.736 143.835 164.612 143.69 164.507C143.606 164.446 143.514 164.396 143.417 164.359C143.292 164.31 143.154 164.31 143.029 164.359C142.976 164.386 142.93 164.424 142.894 164.471C142.858 164.518 142.833 164.572 142.82 164.629C142.807 164.687 142.807 164.747 142.82 164.804C142.833 164.862 142.858 164.916 142.894 164.963C142.992 165.106 143.103 165.241 143.225 165.365C143.429 165.572 143.65 165.76 143.887 165.928C144.096 166.104 144.335 166.241 144.593 166.33C144.62 166.303 144.374 166.12 144.012 165.807C143.801 165.626 143.601 165.431 143.413 165.226C143.307 165.112 143.212 164.99 143.127 164.86C143.046 164.743 143.069 164.6 143.149 164.569C143.23 164.538 143.395 164.569 143.529 164.681C143.658 164.769 143.774 164.874 143.873 164.994C144.041 165.198 144.172 165.429 144.262 165.678C144.325 165.92 144.41 166.157 144.517 166.384Z" fill="#263238"/>
<path d="M144.517 166.244C144.317 166.047 144.078 165.894 143.815 165.797C143.529 165.671 143.229 165.58 142.921 165.525C142.736 165.492 142.549 165.475 142.362 165.476C142.255 165.477 142.149 165.49 142.045 165.516C141.979 165.53 141.918 165.559 141.866 165.601C141.834 165.625 141.809 165.658 141.793 165.694C141.777 165.731 141.769 165.771 141.772 165.811C141.805 165.919 141.862 166.018 141.94 166.1C142.017 166.183 142.113 166.246 142.219 166.285C142.391 166.369 142.575 166.428 142.764 166.459C143.074 166.502 143.387 166.511 143.699 166.486C144.239 166.455 144.534 166.267 144.508 166.244C144.236 166.284 143.963 166.31 143.69 166.32C143.39 166.322 143.091 166.297 142.796 166.244C142.64 166.213 142.49 166.16 142.349 166.088C142.215 166.016 142.063 165.882 142.054 165.797C142.045 165.712 142.219 165.699 142.389 165.708C142.559 165.701 142.73 165.71 142.898 165.735C143.187 165.781 143.472 165.853 143.748 165.949C143.996 166.067 144.253 166.166 144.517 166.244Z" fill="#263238"/>
<path d="M145.009 165.923C145.049 165.99 146.698 165.36 148.616 164.417C150.534 163.474 152.013 162.629 151.964 162.557C151.915 162.486 150.35 163.241 148.437 164.18C146.524 165.119 144.964 165.856 145.009 165.923Z" fill="#263238"/>
<path d="M128.576 164.877L135.697 164.931L135.576 166.991H135.129C133.064 166.991 124.62 166.839 123.266 166.406C121.737 165.932 128.576 164.877 128.576 164.877Z" fill="#C0009C"/>
<path d="M123.092 166.074C123.092 166.016 125.894 166.124 129.35 166.316C132.805 166.508 135.585 166.718 135.581 166.763C135.576 166.807 132.783 166.718 129.323 166.526C125.863 166.334 123.087 166.146 123.092 166.074Z" fill="#263238"/>
<path d="M133.32 166.638C133.293 166.616 133.36 166.499 133.504 166.325C133.698 166.087 133.934 165.887 134.201 165.735C134.497 165.571 134.834 165.498 135.171 165.525C135.43 165.556 135.564 165.65 135.551 165.672C135.537 165.695 135.39 165.672 135.162 165.672C134.873 165.69 134.592 165.773 134.339 165.914C134.091 166.059 133.857 166.228 133.642 166.419C133.468 166.571 133.347 166.656 133.32 166.638Z" fill="#263238"/>
<path d="M128.041 164.975C127.991 165.025 128.143 165.208 128.336 165.422C128.528 165.637 128.693 165.802 128.76 165.771C128.827 165.74 128.76 165.507 128.546 165.279C128.331 165.051 128.09 164.926 128.041 164.975Z" fill="#263238"/>
<path d="M127.365 165.075C127.312 165.12 127.419 165.321 127.607 165.522C127.794 165.723 127.996 165.857 128.054 165.821C128.112 165.786 128.009 165.585 127.812 165.374C127.616 165.164 127.437 165.03 127.365 165.075Z" fill="#263238"/>
<path d="M126.82 165.18C126.757 165.216 126.82 165.381 126.936 165.56C127.052 165.739 127.173 165.878 127.244 165.855C127.316 165.833 127.293 165.645 127.173 165.453C127.052 165.261 126.878 165.145 126.82 165.18Z" fill="#263238"/>
<path d="M128.034 165.042C128.213 164.853 128.344 164.625 128.419 164.376C128.523 164.116 128.57 163.837 128.557 163.558C128.55 163.387 128.512 163.219 128.446 163.062C128.409 162.972 128.359 162.887 128.298 162.811C128.21 162.71 128.087 162.646 127.954 162.633C127.892 162.627 127.83 162.634 127.771 162.654C127.712 162.674 127.657 162.706 127.612 162.748C127.566 162.791 127.529 162.842 127.504 162.899C127.479 162.956 127.467 163.017 127.467 163.08C127.466 163.245 127.483 163.41 127.516 163.571C127.566 163.841 127.644 164.104 127.748 164.358C127.824 164.607 127.954 164.836 128.128 165.029C128.092 164.783 128.026 164.543 127.932 164.313C127.856 164.06 127.8 163.802 127.762 163.54C127.739 163.392 127.73 163.243 127.735 163.093C127.735 162.959 127.838 162.852 127.932 162.861C128.026 162.87 128.137 162.986 128.195 163.133C128.258 163.275 128.296 163.426 128.307 163.58C128.329 163.836 128.304 164.093 128.236 164.34C128.144 164.566 128.077 164.802 128.034 165.042Z" fill="#263238"/>
<path d="M128.123 164.926C128.062 164.669 127.941 164.429 127.77 164.229C127.597 163.988 127.392 163.771 127.162 163.585C127.023 163.469 126.873 163.367 126.715 163.281C126.62 163.23 126.519 163.191 126.415 163.165C126.346 163.151 126.274 163.151 126.205 163.165C126.162 163.17 126.121 163.185 126.085 163.208C126.049 163.232 126.018 163.262 125.995 163.299C125.956 163.398 125.944 163.505 125.96 163.61C125.975 163.715 126.018 163.814 126.084 163.898C126.182 164.054 126.307 164.191 126.455 164.3C126.706 164.479 126.976 164.629 127.26 164.747C127.519 164.898 127.821 164.958 128.118 164.917C127.857 164.829 127.601 164.723 127.354 164.6C127.096 164.465 126.852 164.307 126.625 164.126C126.505 164.026 126.401 163.908 126.317 163.777C126.277 163.722 126.25 163.66 126.236 163.593C126.222 163.527 126.222 163.459 126.236 163.393C126.236 163.352 126.437 163.393 126.581 163.473C126.739 163.543 126.889 163.632 127.028 163.737C127.253 163.906 127.46 164.1 127.644 164.313C127.922 164.689 128.082 164.939 128.123 164.926Z" fill="#263238"/>
<path d="M128.744 164.877C129.874 165.059 131.019 165.135 132.164 165.105C133.306 165.156 134.451 165.116 135.588 164.984C134.451 164.88 133.309 164.841 132.168 164.868C130.282 164.85 128.749 164.815 128.744 164.877Z" fill="#263238"/>
<path d="M150.356 66.7314C150.356 66.7314 150.646 65.6408 149.819 58.9582C149.462 56.0483 147.481 54.2425 145.349 53.1473V53.1116L145.166 53.058C143.417 52.2128 141.539 51.6659 139.61 51.4398L132.105 51.3192C132.105 51.3192 126.611 50.6353 123.111 54.4481C119.612 58.2609 117.225 60.5004 117.225 60.5004L122.816 67.2052L124.314 65.7257C124.314 65.7257 124.157 68.8144 125.177 70.6158L127.595 74.8711L126.026 82.3672C125.034 85.2234 121.762 95.6696 123.044 106.017C124.631 118.833 124.886 122.578 124.886 122.578L143.007 125.055C143.007 125.055 150.248 97.9225 147.768 87.1455C146.064 79.7389 144.764 80.083 144.344 78.4783L144.799 66.9504L150.356 66.7314Z" fill="#C0009C"/>
<path d="M125.749 63.2305C125.603 63.7092 125.383 64.1619 125.096 64.5714C124.879 65.0175 124.591 65.4252 124.242 65.7783C124.39 65.3005 124.61 64.8482 124.895 64.4373C125.114 63.9923 125.402 63.5849 125.749 63.2305Z" fill="#263238"/>
<path d="M141.991 77.2448C141.803 77.2996 141.61 77.337 141.415 77.3566C141.039 77.4191 140.494 77.4907 139.823 77.5577C138.067 77.7357 136.301 77.8089 134.536 77.7767C132.77 77.7435 131.007 77.6077 129.257 77.37C128.586 77.2761 128.045 77.1867 127.674 77.1152C127.478 77.0888 127.285 77.0424 127.098 76.9766C127.295 76.9755 127.493 76.992 127.688 77.0258L129.275 77.209C130.615 77.3521 132.479 77.5041 134.54 77.5443C136.601 77.5845 138.46 77.4907 139.806 77.3923L141.401 77.2672C141.597 77.2371 141.795 77.2296 141.991 77.2448Z" fill="#263238"/>
<path d="M148.097 97.5518C148.087 97.6715 148.064 97.7898 148.03 97.9049C147.967 98.1597 147.887 98.4994 147.784 98.924C147.726 99.143 147.668 99.371 147.601 99.6526C147.534 99.9342 147.422 100.202 147.324 100.511C147.118 101.119 146.917 101.829 146.591 102.571L146.108 103.752C145.938 104.158 145.719 104.565 145.513 104.999C145.116 105.866 144.588 106.742 144.056 107.681C141.637 111.677 138.446 115.15 134.669 117.899C133.775 118.507 132.957 119.106 132.122 119.571C131.71 119.812 131.321 120.062 130.928 120.268L129.793 120.844C129.082 121.233 128.389 121.488 127.799 121.738C127.504 121.864 127.227 121.984 126.972 122.083L126.257 122.324L125.265 122.655C125.151 122.697 125.035 122.73 124.916 122.753C125.022 122.694 125.135 122.646 125.251 122.61L126.226 122.239L126.932 121.98C127.187 121.877 127.455 121.747 127.75 121.618C128.331 121.35 129.015 121.086 129.721 120.688L130.843 120.098C131.232 119.892 131.616 119.651 132.023 119.396C132.85 118.927 133.668 118.323 134.544 117.716C138.29 114.969 141.464 111.52 143.891 107.56C144.427 106.639 144.959 105.772 145.357 104.909C145.567 104.462 145.804 104.082 145.96 103.676C146.117 103.269 146.3 102.88 146.457 102.509C146.792 101.771 147.002 101.074 147.221 100.471C147.324 100.167 147.431 99.885 147.511 99.6213C147.592 99.3576 147.654 99.1162 147.713 98.8972L148.003 97.8959C148.027 97.7793 148.058 97.6643 148.097 97.5518Z" fill="#263238"/>
<path d="M150.07 62.8207C149.982 62.8874 149.886 62.9429 149.784 62.9861C149.596 63.0844 149.337 63.2319 148.948 63.4062C147.917 63.9309 146.812 64.2957 145.672 64.488C144.874 64.6028 144.061 64.5588 143.28 64.3583C142.842 64.2422 142.425 64.0598 142.042 63.8175C141.643 63.5522 141.286 63.2282 140.983 62.8564C140.386 62.0413 139.85 61.1838 139.378 60.2907C138.855 59.3967 138.176 58.5028 137.143 58.163C136.111 57.8233 135.024 58.0781 134.037 58.3597C133.078 58.6954 132.081 58.9101 131.069 58.9989C130.465 59.0208 129.863 58.9158 129.303 58.691C128.742 58.4661 128.235 58.1262 127.814 57.6932C127.393 57.2603 127.067 56.7439 126.858 56.1773C126.648 55.6108 126.56 55.0066 126.599 54.4038C126.629 53.9044 126.742 53.4135 126.934 52.9511C127.085 52.5533 127.314 52.19 127.609 51.8828C127.375 52.2296 127.177 52.5996 127.019 52.9869C126.845 53.4431 126.747 53.9248 126.728 54.4128C126.71 54.99 126.809 55.5648 127.021 56.1021C127.233 56.6394 127.552 57.1277 127.96 57.5371C128.367 57.9465 128.854 58.2683 129.39 58.4828C129.926 58.6972 130.5 58.7999 131.077 58.7844C132.071 58.6904 133.048 58.4726 133.987 58.1362C134.502 57.9787 135.028 57.8635 135.561 57.792C136.122 57.7179 136.694 57.7698 137.233 57.944C137.768 58.1351 138.249 58.4525 138.636 58.8693C139 59.2682 139.32 59.7059 139.588 60.1745C140.054 61.0586 140.58 61.9099 141.162 62.7223C141.716 63.4271 142.482 63.9348 143.347 64.1706C144.103 64.3751 144.891 64.4282 145.667 64.327C146.796 64.1499 147.894 63.8112 148.926 63.3213L149.78 62.9414C149.873 62.8944 149.971 62.854 150.07 62.8207Z" fill="white"/>
<path d="M139.433 78.6573C139.586 78.4283 139.694 78.1718 139.75 77.9019C139.795 77.5322 139.755 77.1574 139.634 76.8052C139.514 76.453 139.315 76.1327 139.053 75.8681C138.693 75.4995 138.25 75.2222 137.761 75.059C137.196 74.8687 136.611 74.7412 136.018 74.6791C135.388 74.5941 134.713 74.545 134.024 74.3975C133.299 74.266 132.612 73.9709 132.017 73.5348C131.722 73.299 131.472 73.0112 131.28 72.6855C131.1 72.3712 130.95 72.0404 130.833 71.6976C130.649 71.0636 130.405 70.4484 130.104 69.8605C129.822 69.3861 129.426 68.9902 128.951 68.709C128.476 68.4278 127.938 68.2705 127.386 68.2513C126.631 68.2375 125.894 68.4767 125.29 68.9308C125.075 69.1042 124.87 69.2908 124.678 69.4895C124.678 69.4895 124.709 69.4224 124.794 69.3062C124.927 69.1424 125.077 68.9926 125.241 68.8592C125.847 68.358 126.609 68.0845 127.395 68.0859C127.979 68.0957 128.551 68.2533 129.058 68.5441C129.564 68.8349 129.989 69.2494 130.292 69.7488C130.605 70.3472 130.859 70.9744 131.052 71.6216C131.245 72.2948 131.632 72.8963 132.165 73.3515C132.731 73.7637 133.381 74.0447 134.069 74.174C134.74 74.3215 135.41 74.3751 136.04 74.469C137.301 74.6254 138.499 74.9875 139.169 75.7563C139.441 76.04 139.643 76.3834 139.759 76.7591C139.874 77.1347 139.901 77.5322 139.835 77.9198C139.789 78.1277 139.701 78.324 139.576 78.4964C139.535 78.5553 139.487 78.6093 139.433 78.6573Z" fill="white"/>
<path d="M146.447 110.402C145.85 110.343 145.248 110.369 144.659 110.478C143.969 110.62 143.288 110.798 142.616 111.01C141.723 111.308 140.791 111.477 139.849 111.511C138.701 111.533 137.561 111.309 136.506 110.854C135.281 110.342 134.229 109.488 133.475 108.395C132.67 107.157 132.326 105.674 132.505 104.207C132.593 103.435 132.828 102.687 133.198 102.003C133.583 101.296 134.122 100.685 134.776 100.215C135.411 99.7415 136.117 99.3214 136.434 98.6643C136.595 98.3408 136.649 97.9743 136.586 97.6183C136.515 97.2579 136.395 96.909 136.229 96.5813C135.852 95.9363 135.597 95.227 135.478 94.4894C135.409 93.7682 135.516 93.0411 135.791 92.3706C136.317 91.1376 137.303 90.158 138.54 89.6395C139.598 89.1889 140.744 88.9827 141.892 89.0361C142.821 89.0843 143.752 89.0574 144.677 88.9556C145.37 88.8584 146.031 88.6013 146.608 88.2047C146.977 87.9549 147.283 87.6229 147.502 87.2347C147.645 86.9665 147.676 86.8101 147.694 86.8145C147.666 86.9704 147.615 87.1211 147.542 87.2615C147.339 87.6659 147.042 88.0154 146.675 88.2807C146.093 88.6998 145.421 88.9769 144.713 89.0897C143.782 89.2066 142.843 89.2455 141.906 89.206C140.781 89.1628 139.662 89.3721 138.629 89.8183C137.446 90.3281 136.507 91.2767 136.01 92.4645C135.749 93.1025 135.649 93.7948 135.719 94.4804C135.837 95.1932 136.086 95.8782 136.452 96.5009C136.63 96.8459 136.756 97.2147 136.828 97.596C136.901 97.9988 136.842 98.4146 136.658 98.7805C136.278 99.5225 135.554 99.9472 134.932 100.412C134.32 100.858 133.809 101.429 133.433 102.087C133.057 102.745 132.824 103.475 132.751 104.229C132.581 105.637 132.906 107.059 133.672 108.252C134.401 109.315 135.416 110.148 136.6 110.657C137.63 111.106 138.743 111.332 139.867 111.323C140.796 111.305 141.717 111.155 142.603 110.876C143.28 110.671 143.968 110.505 144.663 110.38C145.106 110.301 145.557 110.28 146.004 110.317C146.154 110.332 146.302 110.36 146.447 110.402Z" fill="white"/>
<path d="M140.123 124.657C140.1 124.657 140.122 124.344 140.154 123.785C140.197 123.001 140.058 122.218 139.747 121.497C139.527 121.013 139.142 120.623 138.661 120.397C138.092 120.177 137.482 120.084 136.873 120.124C136.164 120.181 135.45 120.093 134.776 119.865C134.428 119.703 134.122 119.463 133.882 119.163C133.644 118.859 133.438 118.531 133.266 118.184C132.972 117.508 132.587 116.875 132.121 116.303C131.672 115.787 131.133 115.357 130.53 115.033C129.504 114.48 128.327 114.27 127.173 114.434C126.394 114.545 125.645 114.81 124.97 115.212C124.496 115.502 124.263 115.713 124.25 115.699C124.236 115.686 124.299 115.637 124.406 115.534C125.179 114.856 126.133 114.418 127.151 114.273C128.341 114.077 129.563 114.278 130.628 114.845C131.259 115.174 131.823 115.616 132.291 116.151C132.538 116.427 132.758 116.726 132.948 117.045C133.136 117.375 133.297 117.72 133.471 118.059C133.743 118.733 134.241 119.291 134.879 119.637C135.525 119.854 136.207 119.941 136.886 119.892C137.532 119.855 138.177 119.96 138.777 120.2C139.292 120.454 139.701 120.881 139.93 121.407C140.234 122.156 140.354 122.967 140.279 123.772C140.257 124.053 140.23 124.272 140.203 124.415C140.184 124.498 140.157 124.579 140.123 124.657Z" fill="white"/>
<path d="M129.4 87.6904C129.293 87.9538 129.171 88.2106 129.034 88.4592C128.673 89.1335 128.447 89.8713 128.367 90.6316C128.338 91.1512 128.451 91.6689 128.694 92.129C128.996 92.6557 129.336 93.1592 129.713 93.6354C130.141 94.21 130.45 94.8639 130.623 95.5592C130.795 96.2545 130.828 96.9772 130.719 97.6851C130.604 98.3981 130.321 99.0736 129.893 99.6557C129.466 100.238 128.906 100.71 128.26 101.033C127.699 101.32 127.08 101.472 126.45 101.48C125.781 101.473 125.125 101.295 124.544 100.963C123.962 100.632 123.475 100.157 123.129 99.5849C123.024 99.4014 122.937 99.2083 122.869 99.0082C122.842 98.9382 122.825 98.8643 122.82 98.7892C122.937 99.046 123.067 99.2967 123.209 99.5402C123.627 100.179 124.226 100.679 124.93 100.975C125.407 101.185 125.924 101.29 126.445 101.283C127.046 101.269 127.635 101.116 128.166 100.836C128.777 100.524 129.305 100.072 129.709 99.5177C130.113 98.9633 130.38 98.3218 130.491 97.6449C130.7 96.2703 130.356 94.8688 129.534 93.7472C129.157 93.2599 128.818 92.7443 128.519 92.205C128.27 91.7121 128.16 91.1602 128.202 90.6093C128.297 89.8319 128.552 89.0829 128.953 88.4101C129.087 88.1687 129.194 87.9854 129.275 87.8647C129.311 87.8027 129.353 87.7443 129.4 87.6904Z" fill="white"/>
<path d="M142.867 72.6943C142.831 72.5194 142.813 72.3411 142.814 72.1623C142.814 71.769 142.769 71.2684 142.742 70.7052C142.68 69.4268 142.599 67.7595 142.51 65.9134C142.421 64.0673 142.358 62.3375 142.345 61.1127C142.345 60.4959 142.345 59.9997 142.345 59.6555C142.336 59.476 142.348 59.296 142.38 59.1191C142.42 59.2951 142.438 59.4752 142.434 59.6555C142.456 60.0444 142.479 60.5495 142.51 61.1083C142.568 62.3866 142.648 64.0539 142.742 65.9C142.836 67.7461 142.89 69.4759 142.903 70.7007C142.903 71.3175 142.903 71.8137 142.903 72.1579C142.912 72.3374 142.9 72.5174 142.867 72.6943Z" fill="#263238"/>
<path d="M142.71 67.031C142.71 67.031 143.457 76.0512 142.598 76.677C137.82 80.0161 131.468 81.357 129.189 81.7549C128.871 81.6386 128.505 81.5001 128.08 81.3079C127.712 81.1441 127.375 80.9189 127.083 80.6418C126.707 80.3115 126.376 79.9327 126.1 79.5154C126.067 79.4238 126.005 79.3456 125.923 79.2925C125.841 79.2395 125.744 79.2147 125.647 79.2218C125.55 79.2289 125.458 79.2675 125.385 79.3318C125.311 79.3961 125.261 79.4826 125.242 79.578C125.184 79.9937 125.747 81.138 126.913 82.0499C128.08 82.9617 125.787 83.0154 124.951 83.0467C124.115 83.0779 121.541 83.3059 121.353 83.5786C121.076 83.9719 121.442 84.3563 122.278 84.3027C123.114 84.2491 125.617 84.2714 125.622 84.7229C125.626 85.1743 121.371 85.2771 121.371 85.2771C121.371 85.2771 120.477 85.152 120.445 85.6705C120.419 86.6092 124.915 86.1532 125.362 86.1175C125.662 86.0817 125.68 86.5645 125.362 86.5958C125.045 86.6271 121.12 86.5958 121.085 87.5568C121.058 88.2899 124.795 87.2171 125.613 87.682C126.431 88.1468 122.694 88.2005 122.698 88.9022C122.698 89.166 122.734 89.3492 124.871 89.014C126.4 88.6953 127.91 88.2924 129.394 87.8071V87.8295C129.394 87.8295 151.614 85.9253 151.055 75.9082C150.68 69.1273 150.805 70.3789 150.389 66.8164" fill="#B78876"/>
</svg>
