<svg width="124" height="124" viewBox="0 0 124 124" fill="none" xmlns="http://www.w3.org/2000/svg">
<path d="M0.997423 61.9199C0.943944 53.7838 2.50464 45.718 5.58914 38.1894C8.67364 30.6608 13.2207 23.819 18.9669 18.0602C24.7132 12.3013 31.5446 7.7399 39.0654 4.63995C46.5863 1.54 54.6473 -0.036867 62.7817 0.000654187C70.916 0.0381754 78.9621 1.68934 86.4541 4.85854C93.9461 8.02774 100.735 12.652 106.428 18.4636C112.121 24.2752 116.605 31.1586 119.62 38.7154C122.635 46.2721 124.121 54.352 123.992 62.4872C123.893 96.2122 96.0819 123.66 62.2113 123.597C28.4757 123.525 0.997423 95.789 0.997423 61.9199Z" fill="#27AE60"/>
<path d="M36.596 53.4457C38.9639 53.3016 40.9716 54.4813 42.7273 56.2464C45.5814 59.1281 48.6065 61.8297 51.2625 64.8555C53.0632 66.9357 54.1165 66.9267 56.0703 64.9185C64.6325 56.1203 73.3567 47.4752 82.09 38.803C84.6649 36.2545 87.6721 34.8587 91.4355 36.1825C93.0252 36.6516 94.4421 37.5777 95.5098 38.8458C96.5775 40.1139 97.249 41.6679 97.4407 43.3147C97.6665 44.7202 97.5377 46.1598 97.066 47.5028C96.5943 48.8459 95.7947 50.0498 94.7397 51.0052C83.1884 62.5861 71.6821 74.167 60.0678 85.6308C56.1693 89.4851 51.6316 89.6471 47.6611 85.9099C41.5659 80.1555 35.6867 74.203 29.8615 68.1334C28.5479 66.8709 27.6902 65.2081 27.423 63.4056C27.1558 61.6032 27.4941 59.763 28.3849 58.1735C29.9605 54.9586 32.7066 53.3196 36.596 53.4457Z" fill="white"/>
</svg>
