<svg width="190" height="185" viewBox="0 0 190 185" fill="none" xmlns="http://www.w3.org/2000/svg">
<path d="M94.7531 184.345C141.806 184.345 179.95 181.245 179.95 177.421C179.95 173.597 141.806 170.497 94.7531 170.497C47.7004 170.497 9.55664 173.597 9.55664 177.421C9.55664 181.245 47.7004 184.345 94.7531 184.345Z" fill="#EBEBEB"/>
<path d="M0 132.418L23.6871 132.31L47.3788 132.27L94.7531 132.193L142.127 132.27L165.819 132.306L189.506 132.418L165.819 132.526L142.127 132.566L94.7531 132.643L47.3788 132.566L23.6871 132.526L0 132.418Z" fill="#263238"/>
<path d="M188.492 129.152H1.01172V132.419H188.492V129.152Z" fill="#C7C7C7"/>
<path d="M14.157 129.152C14.4505 130.221 14.4505 131.35 14.157 132.419C13.9991 131.89 13.9233 131.34 13.9324 130.788C13.9249 130.234 14.0007 129.683 14.157 129.152Z" fill="#263238"/>
<path d="M28.81 129.152C28.9663 129.683 29.042 130.234 29.0346 130.788C29.0437 131.34 28.9679 131.89 28.81 132.419C28.5165 131.35 28.5165 130.221 28.81 129.152Z" fill="#263238"/>
<path d="M43.4637 129.152C43.7572 130.221 43.7572 131.35 43.4637 132.419C43.3057 131.89 43.23 131.34 43.239 130.788C43.2316 130.234 43.3073 129.683 43.4637 129.152Z" fill="#263238"/>
<path d="M58.1186 129.152C58.2749 129.683 58.3506 130.234 58.3432 130.788C58.3523 131.34 58.2765 131.89 58.1186 132.419C57.8251 131.35 57.8251 130.221 58.1186 129.152Z" fill="#263238"/>
<path d="M72.7723 129.152C73.0657 130.221 73.0657 131.35 72.7723 132.419C72.6143 131.89 72.5385 131.34 72.5476 130.788C72.5402 130.234 72.6159 129.683 72.7723 129.152Z" fill="#263238"/>
<path d="M87.4272 129.152C87.5835 129.683 87.6592 130.234 87.6518 130.788C87.6609 131.34 87.5851 131.89 87.4272 132.419C87.1337 131.35 87.1337 130.221 87.4272 129.152Z" fill="#263238"/>
<path d="M102.083 129.152C102.376 130.221 102.376 131.35 102.083 132.419C101.925 131.89 101.849 131.34 101.858 130.788C101.851 130.234 101.926 129.683 102.083 129.152Z" fill="#263238"/>
<path d="M116.734 129.152C116.89 129.683 116.966 130.234 116.958 130.788C116.967 131.34 116.892 131.89 116.734 132.419C116.44 131.35 116.44 130.221 116.734 129.152Z" fill="#263238"/>
<path d="M131.389 129.152C131.683 130.221 131.683 131.35 131.389 132.419C131.232 131.89 131.156 131.34 131.165 130.788C131.157 130.234 131.233 129.683 131.389 129.152Z" fill="#263238"/>
<path d="M146.04 129.152C146.197 129.683 146.273 130.234 146.265 130.788C146.274 131.34 146.198 131.89 146.04 132.419C145.747 131.35 145.747 130.221 146.04 129.152Z" fill="#263238"/>
<path d="M160.698 129.152C160.992 130.221 160.992 131.35 160.698 132.419C160.54 131.89 160.464 131.34 160.473 130.788C160.466 130.234 160.542 129.683 160.698 129.152Z" fill="#263238"/>
<path d="M175.347 129.152C175.503 129.683 175.579 130.234 175.572 130.788C175.581 131.34 175.505 131.89 175.347 132.419C175.054 131.35 175.054 130.221 175.347 129.152Z" fill="#263238"/>
<path d="M22.1527 129.151C22.1527 129.151 21.7753 127.386 21.0205 127.116C20.2656 126.846 19.8029 127.637 19.8029 127.637C19.8029 127.637 19.6276 125.948 18.5538 125.445C17.48 124.941 16.6802 125.975 16.6802 125.975C16.6802 125.975 15.858 123.85 14.3888 123.85C12.9196 123.85 12.1827 126.995 12.1827 126.995C12.1827 126.995 11.3156 126.065 10.4259 126.59C9.53633 127.116 9.52734 129.183 9.52734 129.183L22.1527 129.151Z" fill="#37474F"/>
<path d="M147.439 129.151C147.439 129.151 147.061 127.386 146.306 127.116C145.552 126.846 145.093 127.637 145.093 127.637C145.093 127.637 144.914 125.948 143.844 125.445C142.775 124.941 141.971 125.975 141.971 125.975C141.971 125.975 141.148 123.85 139.684 123.85C138.219 123.85 137.473 126.995 137.473 126.995C137.473 126.995 136.61 126.065 135.721 126.59C134.831 127.116 134.822 129.183 134.822 129.183L147.439 129.151Z" fill="#455A64"/>
<path d="M55.5288 129.152H42.252C42.252 129.152 42.7013 127.282 43.5684 127.148C43.8374 127.121 44.1079 127.179 44.3429 127.312C44.5778 127.446 44.7656 127.649 44.8804 127.893C44.8804 127.893 44.8399 125.283 46.4844 124.838C48.1288 124.393 49.5037 126.698 49.5037 126.698C49.5037 126.698 50.5371 125.382 51.9389 125.467C53.3407 125.553 53.7046 127.714 53.7046 127.714C53.7046 127.714 54.9627 126.963 55.5288 129.152Z" fill="#37474F"/>
<path d="M10.3558 129.152H3.36914C3.36914 129.152 3.36914 128.114 4.07005 127.835C4.25684 127.755 4.46472 127.737 4.66243 127.785C4.86013 127.833 5.03697 127.944 5.16634 128.101C5.16634 128.101 5.44491 126.187 6.72542 126.187C8.00593 126.187 8.62147 127.835 8.62147 127.835C8.73009 127.678 8.88242 127.556 9.05967 127.484C9.23692 127.412 9.43133 127.394 9.61892 127.431C10.3288 127.521 10.3558 129.152 10.3558 129.152Z" fill="#455A64"/>
<path d="M61.0101 129.152H54.0234C54.0234 129.152 54.0234 128.114 54.7243 127.835C54.9111 127.755 55.119 127.737 55.3167 127.785C55.5144 127.833 55.6913 127.944 55.8206 128.101C55.8206 128.101 56.1037 126.187 57.3842 126.187C58.6647 126.187 59.2758 127.835 59.2758 127.835C59.3844 127.678 59.5367 127.556 59.714 127.484C59.8912 127.412 60.0856 127.394 60.2732 127.431C60.9831 127.521 61.0101 129.152 61.0101 129.152Z" fill="#455A64"/>
<path d="M175.94 129.152H168.953C168.953 129.152 168.953 128.114 169.654 127.835C169.841 127.755 170.049 127.737 170.246 127.785C170.444 127.833 170.621 127.944 170.75 128.101C170.75 128.101 171.029 126.187 172.309 126.187C173.59 126.187 174.205 127.835 174.205 127.835C174.314 127.678 174.466 127.555 174.643 127.483C174.821 127.411 175.015 127.393 175.203 127.431C175.913 127.521 175.94 129.152 175.94 129.152Z" fill="#455A64"/>
<path d="M186.137 129.151H174.617C174.617 129.151 174.644 127.435 175.776 126.981C176.084 126.852 176.426 126.826 176.75 126.907C177.074 126.988 177.363 127.171 177.574 127.43C177.574 127.43 178.023 124.285 180.148 124.285C182.273 124.285 183.266 126.994 183.266 126.994C183.445 126.735 183.696 126.533 183.988 126.414C184.281 126.295 184.601 126.264 184.911 126.325C186.092 126.464 186.137 129.151 186.137 129.151Z" fill="#37474F"/>
<path d="M134.224 15.4648H126.541V19.8186H134.224V15.4648Z" fill="#263238"/>
<path d="M135.306 14H125.453V16.8486H135.306V14Z" fill="#455A64"/>
<path d="M117.043 19.7677L114.949 21.8613L118.257 25.1686L120.35 23.075L117.043 19.7677Z" fill="#263238"/>
<path d="M116.549 18.0369L113.223 21.3633L115.383 23.5237L118.709 20.1973L116.549 18.0369Z" fill="#455A64"/>
<path d="M140.41 23.0723L142.504 25.166L145.811 21.8587L143.718 19.765L140.41 23.0723Z" fill="#263238"/>
<path d="M142.045 20.199L145.371 23.5254L147.531 21.365L144.205 18.0387L142.045 20.199Z" fill="#455A64"/>
<path d="M148.555 42.2054C150.91 32.1627 144.679 22.112 134.636 19.7565C124.593 17.401 114.542 23.6327 112.187 33.6754C109.831 43.7181 116.063 53.7689 126.106 56.1244C136.149 58.4799 146.199 52.2482 148.555 42.2054Z" fill="#455A64"/>
<path d="M130.153 55.4569C139.995 55.4569 147.973 47.4789 147.973 37.6376C147.973 27.7963 139.995 19.8184 130.153 19.8184C120.312 19.8184 112.334 27.7963 112.334 37.6376C112.334 47.4789 120.312 55.4569 130.153 55.4569Z" fill="#263238"/>
<path d="M145.95 40.1388C147.207 31.5379 141.255 23.5458 132.654 22.288C124.053 21.0302 116.061 26.9829 114.803 35.5839C113.545 44.1848 119.498 52.1769 128.099 53.4347C136.7 54.6925 144.692 48.7397 145.95 40.1388Z" fill="white"/>
<path opacity="0.5" d="M146.12 37.8671H130.395V22.1416C134.565 22.1416 138.565 23.7984 141.514 26.7475C144.463 29.6966 146.12 33.6965 146.12 37.8671Z" fill="#C0009C"/>
<path d="M130.534 23.2686H130.229V25.6543H130.534V23.2686Z" fill="#C7C7C7"/>
<path d="M123.212 25.1383L122.947 25.291L124.14 27.3572L124.405 27.2044L123.212 25.1383Z" fill="#C7C7C7"/>
<path d="M117.811 30.4297L117.658 30.6943L119.724 31.8872L119.877 31.6226L117.811 30.4297Z" fill="#C7C7C7"/>
<path d="M118.171 37.7139H115.785V38.0194H118.171V37.7139Z" fill="#C7C7C7"/>
<path d="M120.261 43.9917L118.186 45.1846L118.338 45.4504L120.414 44.2575L120.261 43.9917Z" fill="#C7C7C7"/>
<path d="M124.141 48.3668L122.949 50.4336L123.214 50.5862L124.406 48.5194L124.141 48.3668Z" fill="#C7C7C7"/>
<path d="M130.534 50.0781H130.229V52.4639H130.534V50.0781Z" fill="#C7C7C7"/>
<path d="M136.616 48.359L136.352 48.5117L137.544 50.5779L137.809 50.4251L136.616 48.359Z" fill="#C7C7C7"/>
<path d="M141.032 43.8291L140.879 44.0938L142.945 45.2866L143.098 45.022L141.032 43.8291Z" fill="#C7C7C7"/>
<path d="M144.98 37.7139H142.594V38.0194H144.98V37.7139Z" fill="#C7C7C7"/>
<path d="M142.947 30.4282L140.881 31.6211L141.034 31.8857L143.1 30.6928L142.947 30.4282Z" fill="#C7C7C7"/>
<path d="M137.544 25.1444L136.352 27.2109L136.616 27.3636L137.808 25.297L137.544 25.1444Z" fill="#C7C7C7"/>
<path d="M130.49 26.4781L131.191 38.8025L129.609 38.78L130.063 26.4736L130.49 26.4781Z" fill="#C0009C"/>
<path d="M130.919 37.8669C130.919 37.9746 130.887 38.0799 130.827 38.1694C130.767 38.2589 130.682 38.3286 130.583 38.3696C130.483 38.4106 130.374 38.4211 130.268 38.3998C130.162 38.3784 130.066 38.3262 129.99 38.2497C129.914 38.1732 129.862 38.0759 129.842 37.9702C129.821 37.8644 129.833 37.755 129.875 37.6557C129.917 37.5565 129.987 37.4719 130.077 37.4127C130.167 37.3535 130.272 37.3224 130.38 37.3233C130.451 37.3233 130.522 37.3374 130.588 37.3647C130.653 37.3921 130.713 37.4322 130.763 37.4828C130.813 37.5333 130.853 37.5933 130.88 37.6592C130.906 37.7251 130.92 37.7957 130.919 37.8669Z" fill="#C0009C"/>
<path d="M141.789 38.0511L129.465 38.7476L129.487 37.166L141.794 37.6198L141.789 38.0511Z" fill="#263238"/>
<path d="M130.919 37.8669C130.919 37.9746 130.887 38.0799 130.827 38.1694C130.767 38.2589 130.682 38.3286 130.583 38.3696C130.483 38.4106 130.374 38.4211 130.268 38.3998C130.162 38.3784 130.066 38.3262 129.99 38.2497C129.914 38.1732 129.862 38.0759 129.842 37.9702C129.821 37.8644 129.833 37.755 129.875 37.6557C129.917 37.5565 129.987 37.4719 130.077 37.4127C130.167 37.3535 130.272 37.3224 130.38 37.3233C130.451 37.3233 130.522 37.3374 130.588 37.3647C130.653 37.3921 130.713 37.4322 130.763 37.4828C130.813 37.5333 130.853 37.5933 130.88 37.6592C130.906 37.7251 130.92 37.7957 130.919 37.8669Z" fill="#C0009C"/>
<path d="M66.3868 53.0868C68.7007 61.9155 71.7155 67.6801 73.7374 69.675C78.5809 74.4555 89.0136 75.5159 94.8815 77.9511C96.791 78.7463 102.07 66.6332 100.116 65.5728C98.6736 64.7866 81.9237 62.6659 80.4994 62.2301C79.767 62.0054 74.2092 54.7672 71.0641 50.6965C65.9959 44.1726 65.1198 48.2658 66.3868 53.0868Z" fill="#F7A9A0"/>
<path d="M104.051 79.6493C103.152 79.6268 103.121 80.0986 104.374 81.1365C105.628 82.1743 111.464 85.1802 110.238 87.1346C109.011 89.0891 100.838 84.7039 98.884 82.8258C96.9296 80.9478 94.418 77.2275 94.418 77.2275C96.1837 77.7622 100.591 78.6473 104.051 79.6493Z" fill="#F7A9A0"/>
<path d="M98.7057 65.1914C107.404 66.5393 110.864 68.2422 114.674 72.6902C115.109 73.1708 115.371 73.7826 115.42 74.429C117.163 76.388 116.768 77.8033 116.768 77.8033C117.828 80.1262 117.217 81.5145 117.217 81.5145C117.217 81.5145 119.239 83.8374 118.035 85.2931C116.687 86.9286 114.117 83.3432 111.497 82.2379C105.49 79.6993 96.221 77.7763 94.4238 77.2192L98.7057 65.1914Z" fill="#F7A9A0"/>
<path d="M107.054 75.1652C108.822 75.8847 110.538 76.7254 112.19 77.6813C113.931 78.8377 115.583 80.1233 117.132 81.5273C117.142 81.5333 117.155 81.5356 117.167 81.5339C117.179 81.5321 117.19 81.5263 117.198 81.5175C117.206 81.5086 117.211 81.4973 117.212 81.4852C117.213 81.4731 117.21 81.461 117.204 81.4509C114.478 78.4436 110.98 76.2415 107.09 75.0843C107 75.0574 106.964 75.1247 107.054 75.1652Z" fill="#263238"/>
<path d="M108.056 71.3147C109.723 72.1684 112.634 73.6915 116.709 77.852C116.709 77.852 116.75 77.852 116.736 77.852C114.524 74.8928 111.533 72.6074 108.096 71.2518C107.988 71.1889 107.948 71.2563 108.056 71.3147Z" fill="#263238"/>
<path d="M108.632 69.2571C111.404 70.8206 112.954 72.155 115.394 74.4375C115.394 74.4375 115.43 74.4375 115.417 74.415C112.923 71.5305 111.692 70.7667 108.677 69.1537C108.569 69.0998 108.524 69.1942 108.632 69.2571Z" fill="#263238"/>
<path d="M76.2549 57.0903L68.2439 64.5981C68.2439 64.5981 65.0089 52.9522 65.0314 49.268C65.0314 45.1119 67.17 46.0285 69.9737 48.8187C72.7773 51.6088 76.2549 57.0903 76.2549 57.0903Z" fill="#C0009C"/>
<path opacity="0.1" d="M76.2549 57.0903L68.2439 64.5981C68.2439 64.5981 65.0089 52.9522 65.0314 49.268C65.0314 45.1119 67.17 46.0285 69.9737 48.8187C72.7773 51.6088 76.2549 57.0903 76.2549 57.0903Z" fill="black"/>
<path d="M74.6135 55.9043C73.4633 56.722 70.3586 59.6604 69.8374 60.1412C69.5633 60.3973 68.521 61.4531 68.2469 61.7048C68.2109 61.7362 68.2469 61.7856 68.3008 61.7542C68.8265 61.2779 69.4016 60.8556 69.9273 60.3748C70.453 59.8941 73.7239 57.023 74.6494 55.9447C74.6719 55.9223 74.6404 55.8863 74.6135 55.9043Z" fill="#263238"/>
<path d="M118.708 147.185C117.62 147.539 86.313 146.286 85.1404 145.527C84.9966 145.441 84.4395 139.421 84.4395 139.421L88.0608 116.286L108.616 116.56L104.649 136.329C104.649 136.329 109.178 138.414 112.912 140.234C115.212 141.348 117.211 142.368 117.67 142.741C118.874 143.702 119.799 146.834 118.708 147.185Z" fill="#F7A9A0"/>
<path d="M118.713 147.185C117.625 147.54 86.3091 146.286 85.141 145.531C85.0017 145.441 84.4355 139.421 84.4355 139.421L85.5543 132.295L105.274 133.194L104.636 136.312C104.636 136.312 109.161 138.396 112.899 140.212C115.199 141.326 117.199 142.346 117.657 142.719C118.87 143.707 119.796 146.839 118.713 147.185Z" fill="#EBEBEB"/>
<path d="M118.695 147.217C117.585 147.563 86.0714 146.831 84.8898 146.04C84.4405 145.748 84.2742 141.147 84.2383 135.585V135.414L104.578 135.661V136.003C104.578 136.003 116.516 141.682 117.725 142.688C118.933 143.695 119.805 146.885 118.695 147.217Z" fill="#C7C7C7"/>
<path d="M116.898 147.306C110.001 147.377 85.8962 146.73 84.8898 146.043C84.4405 145.751 84.2742 141.15 84.2383 135.588V135.417L96.976 135.57L116.898 147.306Z" fill="#A6A6A6"/>
<path d="M118.365 145.994C113.055 145.738 91.614 145.212 86.3482 145.365C86.3032 145.365 86.3032 145.397 86.3482 145.401C91.605 145.765 113.046 146.116 118.361 146.08C118.473 146.08 118.478 145.999 118.365 145.994Z" fill="#263238"/>
<path d="M106.267 136.109C104.187 135.66 101.621 135.93 99.9767 137.385C99.9138 137.439 99.9767 137.529 100.062 137.507C102.075 136.909 104.146 136.53 106.24 136.374C106.272 136.373 106.303 136.36 106.326 136.337C106.349 136.315 106.364 136.285 106.367 136.253C106.37 136.221 106.362 136.189 106.344 136.163C106.325 136.136 106.298 136.117 106.267 136.109Z" fill="#263238"/>
<path d="M107.753 137.053C105.673 136.604 103.107 136.878 101.463 138.329C101.4 138.383 101.463 138.473 101.548 138.455C103.566 137.86 105.642 137.483 107.74 137.331C107.777 137.333 107.813 137.32 107.84 137.295C107.868 137.271 107.884 137.236 107.886 137.199C107.888 137.162 107.875 137.126 107.85 137.098C107.825 137.071 107.79 137.055 107.753 137.053Z" fill="#263238"/>
<path d="M109.24 137.995C107.159 137.546 104.594 137.82 102.949 139.271C102.886 139.33 102.949 139.415 103.035 139.397C105.048 138.799 107.119 138.418 109.213 138.26C109.245 138.259 109.275 138.246 109.299 138.223C109.322 138.201 109.337 138.171 109.34 138.139C109.343 138.107 109.335 138.075 109.316 138.049C109.298 138.022 109.271 138.003 109.24 137.995Z" fill="#263238"/>
<path d="M106.374 133.336L83.428 132.294C83.428 132.294 91.3582 100.093 90.5135 99.0458C89.6149 97.9225 56.3936 106.235 49.7529 97.9944C42.9505 89.552 46.3607 77.3984 46.3607 77.3984H69.0189C69.0189 77.3984 68.5696 80.4402 68.8751 81.8914C68.8751 81.8914 100.776 77.012 107.713 80.6873C109.061 81.4107 114.003 85.4724 114.084 89.3229C114.52 106.329 106.374 133.336 106.374 133.336Z" fill="#455A64"/>
<path d="M106.604 129.181C103.881 128.839 101.154 128.632 98.4176 128.426C95.6813 128.219 92.9451 128.057 90.2089 127.954C88.6633 127.891 87.1177 127.905 85.5721 127.851C85.5641 127.853 85.5573 127.859 85.5524 127.865C85.5475 127.872 85.5449 127.88 85.5449 127.889C85.5449 127.897 85.5475 127.905 85.5524 127.912C85.5573 127.919 85.5641 127.924 85.5721 127.927C86.9469 128.026 88.3173 128.201 89.6922 128.309L93.7628 128.605C96.4991 128.785 99.2353 128.938 101.972 129.104C103.513 129.198 105.054 129.248 106.599 129.284C106.611 129.281 106.621 129.275 106.628 129.266C106.635 129.257 106.64 129.245 106.64 129.234C106.641 129.222 106.637 129.211 106.631 129.201C106.624 129.192 106.615 129.184 106.604 129.181Z" fill="#263238"/>
<path d="M94.0485 96.7583C89.6409 96.902 85.2557 97.2839 80.8705 97.7153C76.4853 98.1466 72.0732 98.6139 67.6521 98.9014C65.4595 99.0407 63.2579 99.1306 61.0563 99.1441C59.2277 99.2225 57.3974 99.0318 55.6243 98.5779C53.8638 98.0634 52.3591 96.9096 51.4053 95.343C50.4465 93.7552 49.8184 91.9901 49.5587 90.1535C48.9791 86.4378 49.5587 82.6412 50.2372 78.9749C50.3225 78.5256 50.4079 78.0763 50.4888 77.5911C50.4888 77.5506 50.4304 77.5327 50.4169 77.5911C49.5183 81.2888 48.6781 85.0944 48.9477 88.9135C49.0579 90.7875 49.5149 92.6248 50.2956 94.332C50.9997 95.9909 52.2107 97.3843 53.7552 98.3128C55.3322 99.2114 57.1968 99.4765 59.0075 99.5664C61.1192 99.6742 63.2579 99.5664 65.3696 99.472C69.8896 99.2519 74.3916 98.7846 78.8846 98.3173C83.3776 97.8501 87.8481 97.3918 92.3636 97.1671C92.8623 97.1402 93.3611 97.1222 93.8598 97.1042C93.1768 101.148 87.3943 125.221 87.0709 127.127C87.0394 127.315 87.2191 127.374 87.2685 127.18C88.257 123.429 93.8688 99.3238 94.2417 96.9694C94.2477 96.942 94.247 96.9136 94.2397 96.8865C94.2324 96.8594 94.2187 96.8345 94.1998 96.8138C94.1808 96.7931 94.1572 96.7773 94.1309 96.7676C94.1046 96.7579 94.0763 96.7547 94.0485 96.7583Z" fill="#263238"/>
<path d="M111.74 148.123H62.7031V153.546H111.74V148.123Z" fill="#C0009C"/>
<path d="M19.6094 100.547H22.3905L40.3626 121.107H37.5814L19.6094 100.547Z" fill="#A6A6A6"/>
<path d="M54.6371 98.916H15.9883V100.542H54.6371V98.916Z" fill="#A6A6A6"/>
<path d="M30.0957 100.547H32.8769L50.8489 121.107H48.0677L30.0957 100.547Z" fill="#A6A6A6"/>
<path d="M47.9781 138.449C61.9424 138.449 70.0343 148.15 70.0343 159.566C70.0343 170.983 62.54 180.463 48.9216 180.463C33.8521 180.463 26.6543 168.476 26.6543 159.463C26.6543 150.45 33.8431 138.449 47.9781 138.449Z" fill="#37474F"/>
<path d="M45.8311 138.449C59.1079 138.449 66.7954 148.15 66.7954 159.566C66.7954 170.983 59.674 180.463 46.7207 180.463C32.3925 180.463 25.5586 168.458 25.5586 159.445C25.5586 150.432 32.3925 138.449 45.8311 138.449Z" fill="#263238"/>
<path d="M45.9657 146.648C54.0532 146.648 58.7394 152.561 58.7394 159.516C58.7394 166.472 54.3991 172.245 46.5094 172.245C37.775 172.245 33.6055 164.939 33.6055 159.445C33.6055 153.95 37.775 146.648 45.9657 146.648Z" fill="#C7C7C7"/>
<path d="M87.5078 112.853V111.016L40.5154 112.53V116.663C40.5154 116.663 26.9061 131.692 25.5312 147.315L72.6539 148.312L80.2246 148.123H89.5207V138.679C89.5207 138.679 82.4936 133.557 83.7247 123.093C84.1336 119.62 87.5078 112.853 87.5078 112.853Z" fill="#C0009C"/>
<path d="M68.2643 146.125C67.7745 147.023 60.6261 148.313 47.0752 148.677C34.8767 149.005 25.7649 148.735 25.0595 147.949C24.3541 147.162 26.1513 133.257 34.4094 125.726C42.6676 118.196 54.3584 117.113 62.0684 121.606C68.8484 125.547 73.9075 135.561 68.2643 146.125Z" fill="#C0009C"/>
<path opacity="0.1" d="M70.5625 132.959C69.838 129.666 68.167 126.657 65.755 124.301C63.337 121.878 60.3177 120.143 57.0071 119.273C53.3143 118.351 49.4466 118.393 45.7746 119.394C43.9369 119.876 42.1598 120.565 40.4773 121.448C38.701 122.402 37.0269 123.536 35.4811 124.831C35.0677 125.172 34.6499 125.514 34.241 125.864C34.2051 125.891 34.241 125.941 34.2949 125.914C35.8502 124.546 37.5339 123.332 39.3226 122.288C40.9548 121.356 42.6865 120.61 44.4851 120.064C48.051 118.949 51.8379 118.736 55.5064 119.444C58.822 120.11 61.8949 121.663 64.3981 123.937C66.8102 126.108 68.5842 128.897 69.5291 132.002C70.6524 135.785 70.284 139.95 69.1652 143.684C69.0169 144.187 68.8552 144.681 68.6889 145.175C68.6889 145.229 68.7518 145.247 68.7698 145.198C70.2795 141.32 71.4072 137.142 70.5625 132.959Z" fill="black"/>
<path d="M37.8996 150.108C29.7178 150.108 25.3865 149.856 23.1895 148.985L24.2094 146.419C26.7794 147.439 34.8263 147.421 47.7752 147.273C57.3408 147.161 64.3993 146.258 68.8025 144.577L69.7864 147.156C65.0239 148.953 57.835 149.906 47.8067 150.023C44.0011 150.077 40.7212 150.108 37.8996 150.108Z" fill="#DBDBDB"/>
<path d="M88.2817 112.223C88.2817 112.223 88.5962 101.943 88.2817 101.539C87.9671 101.134 40.3952 100.276 38.9709 100.402C37.5466 100.528 37.4028 112.533 37.5106 113.095C37.6185 113.656 87.0416 112.331 88.2817 112.223Z" fill="#37474F"/>
<path d="M92.7379 101.746C92.5986 101.584 86.569 101.413 86.2365 101.404C85.904 101.395 85.7872 112.354 85.9669 112.345C86.1466 112.336 92.5177 112.426 92.7289 112.192C92.9401 111.958 93.0389 102.096 92.7379 101.746Z" fill="#455A64"/>
<path d="M59.415 100.412C59.2446 100.59 59.1332 100.816 59.096 101.059C59.0396 101.315 58.9991 101.575 58.9747 101.836C58.9163 102.358 58.8848 102.888 58.8579 103.413C58.813 104.474 58.786 105.539 58.768 106.608C58.7501 107.677 58.7231 108.738 58.768 109.794C58.772 110.316 58.808 110.839 58.8759 111.357C58.9029 111.608 58.9618 111.854 59.0511 112.089C59.084 112.195 59.142 112.291 59.2203 112.37C59.2986 112.448 59.3947 112.506 59.5004 112.539C59.3818 112.535 59.2667 112.498 59.1688 112.431C59.0708 112.364 58.9941 112.271 58.9478 112.161C58.822 111.926 58.724 111.678 58.6557 111.42C58.5286 110.893 58.4459 110.357 58.4086 109.816C58.3256 108.74 58.2986 107.66 58.3277 106.581C58.3547 105.507 58.3996 104.429 58.5209 103.355C58.5792 102.818 58.6647 102.284 58.777 101.756C58.8397 101.494 58.9162 101.236 59.0062 100.983C59.078 100.763 59.2039 100.488 59.415 100.412Z" fill="#455A64"/>
<path d="M17.7775 98.8916H62.7031V70.9631H17.7775V98.8916Z" fill="#37474F"/>
<path d="M17.7769 98.8916H50.2344V70.9631H17.7769V98.8916Z" fill="#263238"/>
<path d="M35.7528 70.9609H32.2617V98.8895H35.7528V70.9609Z" fill="#C0009C"/>
<path d="M50.2393 68.377H16.8652V70.9604H50.2393V68.377Z" fill="#37474F"/>
<path d="M63.7089 68.377H50.2344V70.9604H63.7089V68.377Z" fill="#263238"/>
<path d="M36.0464 68.377H31.9668V70.9604H36.0464V68.377Z" fill="#C0009C"/>
<path d="M22.5356 68.4932H55.3301V48.1039H22.5356V68.4932Z" fill="#37474F"/>
<path d="M22.5349 68.4932H46.2266V48.1039H22.5349L22.5349 68.4932Z" fill="#263238"/>
<path d="M35.653 48.1084H33.1055V68.4977H35.653V48.1084Z" fill="#C0009C"/>
<path d="M46.2283 46.2227H21.8672V48.1097H46.2283V46.2227Z" fill="#37474F"/>
<path d="M56.0618 46.2227H46.2266V48.1097H56.0618V46.2227Z" fill="#263238"/>
<path d="M35.8675 46.2227H32.8887V48.1097H35.8675V46.2227Z" fill="#C0009C"/>
<path d="M150.544 138.279C164.513 138.279 172.6 147.98 172.6 159.396C172.6 170.813 165.106 180.28 151.483 180.28C136.409 180.28 129.211 168.293 129.211 159.284C129.211 150.276 136.409 138.279 150.544 138.279Z" fill="#37474F"/>
<path d="M148.4 138.279C161.677 138.279 169.369 147.98 169.369 159.396C169.369 170.813 162.243 180.28 149.294 180.28C134.966 180.28 128.123 168.293 128.123 159.284C128.123 150.276 134.966 138.279 148.4 138.279Z" fill="#263238"/>
<path d="M148.532 146.479C156.619 146.479 161.31 152.392 161.31 159.347C161.31 166.303 156.969 172.076 149.075 172.076C140.345 172.076 136.176 164.771 136.176 159.28C136.176 153.79 140.345 146.479 148.532 146.479Z" fill="#C7C7C7"/>
<path d="M127.95 90.585H122.455L118.689 85.0586H125.128L127.95 90.585Z" fill="#C0009C"/>
<path d="M118.689 85.0586L120.896 88.2936L122.455 90.585H127.95L126.462 87.6735L125.123 85.0586H118.689Z" fill="#C0009C"/>
<path opacity="0.1" d="M118.689 85.0586L120.896 88.2936L126.462 87.6735L125.123 85.0586H118.689Z" fill="black"/>
<path d="M141.304 131.827L135.953 133.058L131.047 128.511L137.319 127.073L141.304 131.827Z" fill="#C0009C"/>
<path d="M131.047 128.511L133.918 131.175L135.949 133.058L141.309 131.827L139.206 129.324L137.319 127.073L131.047 128.511Z" fill="#C0009C"/>
<path opacity="0.1" d="M131.047 128.511L133.918 131.175L139.206 129.324L137.319 127.073L131.047 128.511Z" fill="black"/>
<path d="M171.389 140.974L166.19 143.706C166.19 143.706 151.134 140.974 141.479 143.041C131.823 145.108 129.217 150.266 129.217 150.266H124.338C124.338 150.266 128.525 135.39 135.629 129.989C142.732 124.588 154.149 125.797 160.462 129.198C166.774 132.599 171.389 140.974 171.389 140.974Z" fill="#C0009C"/>
<path opacity="0.1" d="M165.643 142.676C164.636 141.625 163.545 140.657 162.381 139.783C161.227 138.886 160.008 138.078 158.732 137.365C156.26 135.992 153.549 135.101 150.744 134.742C145.253 134.068 139.511 135.667 135.467 139.886C133.194 142.276 131.577 145.21 130.04 148.171C130.017 148.216 130.08 148.252 130.103 148.207C131.405 145.604 133.049 143.186 134.991 141.018C136.863 138.975 139.193 137.404 141.789 136.435C146.97 134.535 152.572 135.263 157.551 137.559C158.976 138.205 160.352 138.956 161.666 139.805C163.01 140.71 164.308 141.684 165.553 142.721C165.561 142.728 165.571 142.733 165.582 142.735C165.592 142.736 165.603 142.734 165.613 142.729C165.623 142.724 165.631 142.717 165.636 142.707C165.641 142.698 165.644 142.687 165.643 142.676Z" fill="black"/>
<path d="M108.512 87.6113C108.431 87.8 97.5805 89.7949 97.5805 89.7949C97.5805 89.7949 95.7833 88.5818 96.8931 87.0452L107.78 84.6953C108.198 85.0387 108.495 85.5074 108.627 86.0324C108.759 86.5574 108.719 87.1109 108.512 87.6113Z" fill="#263238"/>
<path d="M131.287 73.5833V86.4558C131.287 86.4558 124.336 85.8492 122.485 85.7863C120.634 85.7234 112.408 86.7883 112.408 86.7883L111.77 83.9038C111.77 83.9038 118.114 81.6887 120.809 79.9589C123.505 78.2291 126.61 74.9222 128.277 74.1899C129.22 73.7587 130.25 73.5512 131.287 73.5833Z" fill="#C0009C"/>
<path d="M112.436 83.541C112.849 83.966 113.161 84.479 113.348 85.0416C113.534 85.6042 113.591 86.2017 113.514 86.7895C113.514 86.7895 108.334 87.7375 108.271 87.7375C108.314 87.128 108.166 86.5202 107.848 85.9985C107.53 85.4768 107.058 85.067 106.496 84.826L112.436 83.541Z" fill="#DBDBDB"/>
<path d="M131.355 86.4568C133.236 86.4568 134.761 83.5762 134.761 80.0229C134.761 76.4695 133.236 73.5889 131.355 73.5889C129.474 73.5889 127.949 76.4695 127.949 80.0229C127.949 83.5762 129.474 86.4568 131.355 86.4568Z" fill="#DBDBDB"/>
<path d="M131.566 85.7644C133.177 85.7644 134.482 83.1936 134.482 80.0223C134.482 76.8511 133.177 74.2803 131.566 74.2803C129.956 74.2803 128.65 76.8511 128.65 80.0223C128.65 83.1936 129.956 85.7644 131.566 85.7644Z" fill="white"/>
<path d="M132.451 90.6035C133.583 92.2614 138.117 114.807 139.006 115.94C139.896 117.072 141.599 117.153 141.599 117.153L144.596 124.602C144.596 124.602 137.151 126.952 133.017 130.349C127.675 134.738 122.737 149.291 122.737 149.291C121.928 149.857 111.891 153.986 109.137 154.148C109.137 154.148 121.937 140.094 122.98 120.644C123.384 113.109 118.747 102.497 118.446 97.2397C118.114 91.5965 119.821 90.6035 122.818 90.6035H132.451Z" fill="#C0009C"/>
<path d="M108.521 155.752L106.518 153.856C117.75 141.968 121.893 123.236 121.565 118.123C121.394 115.504 120.554 112.574 119.66 109.47C118.707 106.158 117.629 102.407 117.17 98.3317C116.744 94.5486 117.17 92.1043 118.46 90.6441C119.749 89.1839 121.52 89.1884 122.697 89.1929H133.39V91.9516H122.692C121.664 91.9516 120.963 91.9875 120.518 92.4863C120.073 92.985 119.493 94.2835 119.916 98.0261C120.365 101.868 121.349 105.345 122.315 108.706C123.25 111.959 124.112 115.028 124.319 117.944C124.669 123.403 120.361 143.275 108.521 155.752Z" fill="#DBDBDB"/>
<path d="M139.062 122.091C139.691 124.409 141.673 125.883 143.488 125.389C145.303 124.895 146.269 122.617 145.635 120.303C145.002 117.989 143.021 116.506 141.205 117C139.39 117.495 138.429 119.777 139.062 122.091Z" fill="#DBDBDB"/>
<path d="M139.735 121.906C140.296 123.972 142.013 125.302 143.567 124.88C145.122 124.458 145.921 122.44 145.364 120.387C144.807 118.334 143.086 116.99 141.536 117.413C139.986 117.835 139.173 119.839 139.735 121.906Z" fill="white"/>
<path opacity="0.1" d="M131.112 121.719C130.613 119.387 130.074 117.064 129.607 114.727C129.14 112.391 128.708 110.05 128.344 107.7C127.989 105.512 127.608 103.302 127.468 101.087C127.329 98.7728 127.468 96.4364 128.592 94.3472C128.594 94.343 128.595 94.3385 128.596 94.3338C128.597 94.329 128.596 94.3243 128.595 94.3197C128.594 94.3151 128.592 94.3108 128.589 94.307C128.586 94.3032 128.582 94.3001 128.578 94.2977C128.574 94.2954 128.569 94.2939 128.565 94.2933C128.56 94.2927 128.555 94.293 128.551 94.2942C128.546 94.2955 128.542 94.2976 128.538 94.3006C128.534 94.3035 128.531 94.3071 128.529 94.3112C127.374 95.9961 126.996 98.0225 126.934 100.031C126.94 102.245 127.135 104.455 127.518 106.636C128.173 111.424 129.073 116.177 130.213 120.874C130.865 123.529 131.705 126.14 132.604 128.719C132.604 128.727 132.607 128.735 132.613 128.741C132.619 128.747 132.627 128.75 132.635 128.75C132.644 128.75 132.652 128.747 132.657 128.741C132.663 128.735 132.667 128.727 132.667 128.719C132.131 126.373 131.612 124.04 131.112 121.719Z" fill="black"/>
<path opacity="0.1" d="M89.5221 138.679V148.114H81.4706V140.971C81.4706 140.971 76.9776 138.702 76.079 130.448C75.2702 122.972 81.237 112.993 82.3692 111.182L87.4957 111.016V112.853C87.4957 112.853 84.1215 119.62 83.7126 123.093C82.495 133.557 89.5221 138.679 89.5221 138.679Z" fill="black"/>
<path d="M109.77 150.32C108.683 150.67 77.371 149.421 76.1984 148.662C76.0591 148.577 75.502 142.551 75.502 142.551L79.1233 119.417L99.6788 119.691L95.7115 139.46C95.7115 139.46 100.236 141.541 103.974 143.36C106.275 144.479 108.274 145.499 108.732 145.867C109.932 146.838 110.857 149.969 109.77 150.32Z" fill="#F7A9A0"/>
<path d="M109.775 150.32C108.683 150.671 77.3716 149.422 76.2035 148.662C76.0597 148.577 75.498 142.556 75.498 142.556L76.6168 135.426L96.3366 136.324L95.7121 139.434C95.7121 139.434 100.237 141.518 103.975 143.333C106.271 144.452 108.275 145.472 108.733 145.841C109.932 146.843 110.858 149.97 109.775 150.32Z" fill="#EBEBEB"/>
<path d="M109.751 150.361C108.646 150.707 77.1275 149.97 75.9458 149.18C75.4965 148.888 75.3348 144.291 75.2988 138.729V138.554L95.6342 138.801V139.147C95.6342 139.147 107.572 144.821 108.781 145.828C109.989 146.834 110.861 150.015 109.751 150.361Z" fill="#C7C7C7"/>
<path d="M109.427 149.126C104.121 148.874 82.6804 148.348 77.4146 148.501C77.3696 148.501 77.3696 148.532 77.4146 148.532C82.6714 148.901 104.112 149.251 109.427 149.215C109.54 149.211 109.54 149.13 109.427 149.126Z" fill="#263238"/>
<path d="M97.3294 139.24C95.2492 138.791 92.6836 139.065 91.0392 140.516C90.9718 140.575 91.0392 140.66 91.1246 140.642C93.1373 140.043 95.2084 139.662 97.3025 139.505C97.3346 139.504 97.3651 139.491 97.3885 139.468C97.4118 139.446 97.4264 139.416 97.4297 139.384C97.4329 139.352 97.4246 139.32 97.4062 139.294C97.3878 139.267 97.3606 139.248 97.3294 139.24Z" fill="#263238"/>
<path d="M98.8196 140.189C96.7394 139.74 94.1739 140.01 92.5294 141.461C92.4665 141.519 92.5294 141.609 92.6148 141.587C94.629 140.988 96.7016 140.607 98.7972 140.45C98.8143 140.452 98.8315 140.45 98.8479 140.444C98.8643 140.439 98.8794 140.431 98.8926 140.42C98.9057 140.409 98.9166 140.395 98.9245 140.38C98.9324 140.365 98.9372 140.348 98.9387 140.331C98.9402 140.314 98.9383 140.297 98.9331 140.28C98.9279 140.264 98.9195 140.249 98.9085 140.236C98.8974 140.222 98.8839 140.212 98.8687 140.204C98.8534 140.196 98.8367 140.191 98.8196 140.189Z" fill="#263238"/>
<path d="M100.304 141.132C98.2237 140.682 95.6582 140.952 94.0138 142.408C93.9509 142.462 94.0138 142.552 94.0992 142.529C96.1126 141.934 98.1835 141.554 100.277 141.397C100.309 141.395 100.34 141.382 100.363 141.36C100.386 141.338 100.401 141.308 100.404 141.276C100.408 141.244 100.399 141.212 100.381 141.185C100.362 141.159 100.335 141.14 100.304 141.132Z" fill="#263238"/>
<path d="M97.4444 136.472L74.4986 135.425C74.4986 135.425 82.4333 103.224 81.5886 102.177C80.69 101.049 50.4341 109.366 43.7889 101.126C36.9865 92.6833 43.7889 78.5527 43.7889 78.5527H67.0492C67.0492 78.5527 67.0492 81.1407 65.4677 85.0137C65.4677 85.0137 91.8417 80.1298 98.7923 83.8051C100.163 84.5329 105.083 88.5946 105.163 92.4451C105.568 109.474 97.4444 136.472 97.4444 136.472Z" fill="#455A64"/>
<path d="M97.6679 132.316C94.9452 131.974 92.2134 131.763 89.4772 131.561C86.7409 131.359 84.0092 131.193 81.2684 131.085C79.7273 131.026 78.1817 131.04 76.6361 130.981C76.6254 130.981 76.6151 130.986 76.6075 130.993C76.6 131.001 76.5957 131.011 76.5957 131.022C76.5957 131.033 76.6 131.043 76.6075 131.05C76.6151 131.058 76.6254 131.062 76.6361 131.062C78.011 131.161 79.3814 131.332 80.7562 131.44C82.1311 131.548 83.452 131.646 84.8269 131.736C87.5586 131.92 90.2949 132.069 93.0311 132.239C94.5767 132.334 96.1178 132.383 97.6634 132.419C97.6747 132.416 97.6848 132.41 97.6922 132.401C97.6996 132.392 97.7038 132.381 97.7043 132.369C97.7048 132.358 97.7016 132.346 97.695 132.336C97.6884 132.327 97.6789 132.32 97.6679 132.316Z" fill="#263238"/>
<path d="M53.518 80.4985C53.4876 80.5932 53.4485 80.685 53.4012 80.7725C53.3961 80.7789 53.3933 80.7868 53.3933 80.795C53.3933 80.8032 53.3961 80.8111 53.4012 80.8175C53.1316 81.6577 53.0193 82.5473 52.7587 83.392C52.5112 84.2886 51.9622 85.0725 51.2041 85.6115C49.6136 86.7168 47.7041 87.2155 45.853 87.6738C45.8418 87.6771 45.8321 87.6839 45.8251 87.6932C45.8182 87.7026 45.8145 87.7139 45.8145 87.7255C45.8145 87.7371 45.8182 87.7484 45.8251 87.7577C45.8321 87.767 45.8418 87.7738 45.853 87.7771C46.9201 87.7831 47.9815 87.6208 48.9981 87.2964C49.9533 87.032 50.8539 86.5999 51.6579 86.0204C52.4131 85.4488 52.9518 84.6377 53.1856 83.7199C53.2986 83.232 53.3871 82.7386 53.4506 82.2418C53.5546 81.6705 53.6162 81.0923 53.6349 80.5119C53.6283 80.5031 53.6199 80.4957 53.6104 80.4903C53.6009 80.4848 53.5903 80.4813 53.5794 80.48C53.5684 80.4788 53.5573 80.4797 53.5468 80.4829C53.5363 80.4861 53.5265 80.4914 53.518 80.4985Z" fill="#263238"/>
<path d="M69.2137 83.864C67.9485 84.2291 66.7161 84.6995 65.5294 85.2704L65.471 85.2973C65.4954 85.2241 65.5134 85.149 65.5249 85.0727C65.5249 84.9828 65.5519 84.8974 65.5699 84.8076C65.5878 84.7177 65.5699 84.6234 65.5968 84.529V84.3852C65.7497 84.3754 65.8989 84.3339 66.035 84.2636C66.1711 84.1932 66.2911 84.0954 66.3876 83.9764C66.6357 83.6316 66.8031 83.2354 66.8773 82.8172C67.0166 82.296 67.1469 81.7658 67.2592 81.2356C67.3716 80.7055 67.4929 80.054 67.5872 79.4384C67.7013 78.8561 67.7689 78.2657 67.7894 77.6727C67.7894 77.6512 67.7809 77.6307 67.7657 77.6155C67.7506 77.6003 67.73 77.5918 67.7085 77.5918C67.6871 77.5918 67.6665 77.6003 67.6513 77.6155C67.6362 77.6307 67.6277 77.6512 67.6277 77.6727C67.4884 78.2163 67.4255 78.778 67.3221 79.3261C67.2188 79.8742 67.102 80.4269 66.9762 80.975C66.8504 81.5232 66.7156 82.0713 66.5628 82.6105C66.4101 83.1497 66.2932 83.7922 65.7361 83.9584C64.5859 84.2864 65.1026 81.7119 65.152 81.1997C65.2688 80.0315 65.3407 78.8364 65.5474 77.6772C65.5474 77.6322 65.48 77.6098 65.471 77.6772C65.2194 78.742 64.9363 79.7889 64.7476 80.8672C64.6533 81.3974 64.5859 81.932 64.5275 82.4622C64.4342 82.9216 64.4716 83.3979 64.6353 83.8371C64.7066 83.9854 64.813 84.1141 64.9454 84.212C65.0777 84.3099 65.2319 84.374 65.3946 84.3987L65.3587 84.52C65.3317 84.6054 65.3048 84.6908 65.2823 84.7761C65.2598 84.8615 65.2419 84.9514 65.2239 85.0367C65.1843 85.1381 65.1705 85.2477 65.1835 85.3557C65.1935 85.386 65.2143 85.4116 65.2419 85.4276C64.7521 85.6388 64.2579 85.8499 63.7727 86.0791C63.1626 86.3187 62.5722 86.6056 62.0069 86.9373C61.9395 86.9687 62.0069 87.0586 62.0563 87.0451C62.6889 86.8676 63.3076 86.6438 63.9075 86.3756C64.523 86.142 65.1295 85.8904 65.7406 85.6343C66.951 85.1899 68.1218 84.6443 69.2407 84.0033C69.2591 83.9997 69.2754 83.989 69.2859 83.9734C69.2965 83.9578 69.3004 83.9387 69.2968 83.9202C69.2932 83.9017 69.2825 83.8854 69.2669 83.8749C69.2513 83.8644 69.2322 83.8605 69.2137 83.864Z" fill="#263238"/>
<path d="M104.483 89.5214C103.687 87.1816 102.077 85.2058 99.9453 83.9546C97.7572 82.746 95.2051 82.4225 92.7564 82.3461C89.9079 82.2607 87.0413 82.409 84.1973 82.5887C81.169 82.7774 78.1407 83.065 75.1304 83.4873C72.1201 83.9097 69.1637 84.4264 66.2028 85.0644C65.4929 85.2171 64.7875 85.4058 64.0821 85.6035C64.0281 85.6035 64.0371 85.7203 64.0821 85.7114C67.025 85.298 69.9544 84.8128 72.8973 84.4084C75.8403 84.004 78.8146 83.685 81.789 83.4604C84.7634 83.2357 87.7063 83.1099 90.6672 83.065C93.0934 83.029 95.6095 83.065 97.9144 83.8468C99.0542 84.2109 100.11 84.799 101.019 85.5766C101.912 86.3753 102.644 87.3376 103.176 88.4117C104.389 90.7974 104.501 93.5337 104.622 96.1756C104.973 104.016 99.3342 128.93 98.3323 132.933C98.3297 132.968 98.3394 133.002 98.3598 133.031C98.3802 133.059 98.4098 133.079 98.4436 133.088C98.4774 133.096 98.5132 133.093 98.5446 133.077C98.576 133.062 98.601 133.037 98.6153 133.005C99.7431 128.485 105.355 104.95 105.355 97.8784C105.359 95.0568 105.463 92.1813 104.483 89.5214Z" fill="#263238"/>
<path d="M84.9593 99.4634C80.8482 99.6071 76.7596 99.989 72.6709 100.42C68.5823 100.852 64.4622 101.319 60.3466 101.607C58.2978 101.746 56.2445 101.836 54.1912 101.849C52.484 101.929 50.7749 101.738 49.1276 101.283C47.4544 100.742 46.0482 99.5882 45.1917 98.0525C44.2928 96.4433 43.7087 94.6775 43.4709 92.8496C42.9317 89.1339 43.4709 85.3373 44.1044 81.671C44.1853 81.2217 44.2616 80.7724 44.3425 80.2917C44.3425 80.2468 44.2841 80.2288 44.2751 80.2917C43.417 83.9894 42.6487 87.795 42.9272 91.6141C43.0293 93.4805 43.4534 95.3152 44.1808 97.0371C44.8149 98.6667 45.9429 100.057 47.4068 101.013C48.9143 101.82 50.5945 102.25 52.3041 102.267C54.2828 102.341 56.2641 102.31 58.2394 102.173C62.4538 101.952 66.6503 101.485 70.8423 101.018C75.0343 100.551 79.1993 100.092 83.3958 99.8677C83.8451 99.8453 84.3258 99.8228 84.7886 99.8093C84.1551 103.831 78.7635 127.922 78.4624 129.827C78.431 130.016 78.6017 130.074 78.6467 129.886C79.5453 126.129 84.8021 102.029 85.148 99.67C85.154 99.6432 85.1535 99.6154 85.1465 99.5888C85.1394 99.5623 85.126 99.5378 85.1075 99.5175C85.089 99.4972 85.0659 99.4817 85.0401 99.4723C85.0143 99.4629 84.9866 99.4598 84.9593 99.4634Z" fill="#263238"/>
<path d="M42.4551 81.4246C42.518 81.5145 73.2547 83.8778 73.5782 83.5902C74.0275 83.1814 70.9857 51.6899 68.2405 47.071C67.6519 46.0871 65.4009 45.5704 63.4284 45.5883C62.9149 45.5858 62.4021 45.6295 61.8963 45.7186H61.8469C61.4387 45.7881 61.0452 45.9263 60.6832 46.1275C54.7794 49.8118 48.4802 64.3601 46.8942 68.7633C44.2658 76.024 42.2259 81.1011 42.4551 81.4246Z" fill="#C0009C"/>
<path d="M66.8254 51.0866C65.2977 51.0866 62.7187 48.6199 62.2065 46.306C62.1706 46.1443 62.8041 44.7649 63.487 43.0486C63.9004 42.0017 64.3362 40.8335 64.6552 39.7373C64.7181 39.5081 71.0488 43.408 71.0488 43.408C70.2579 44.6664 69.6242 46.0168 69.1617 47.4293C69.1201 47.5763 69.0915 47.7266 69.0763 47.8786C69.0781 47.904 69.0781 47.9295 69.0763 47.955C68.955 48.8671 68.4563 51.1091 66.8254 51.0866Z" fill="#F7A9A0"/>
<path d="M69.0771 47.8935C69.0789 47.9189 69.0789 47.9444 69.0771 47.9699C68.8347 47.9345 68.5957 47.8789 68.3627 47.8036C64.319 46.5366 64.7413 41.154 64.9121 39.8105C66.0847 40.3407 71.063 43.405 71.063 43.405C70.2728 44.6643 69.6377 46.0145 69.1714 47.4262C69.1278 47.5792 69.0962 47.7355 69.0771 47.8935Z" fill="#263238"/>
<path d="M65.22 31.3179C64.1102 33.7352 64.4516 41.2025 66.0197 43.0537C68.2977 45.7495 72.5211 46.5627 74.9428 43.7141C77.2882 40.9509 76.6726 31.2415 74.8754 29.4937C72.2201 26.9237 66.8644 27.755 65.22 31.3179Z" fill="#F7A9A0"/>
<path d="M71.7235 36.6377C71.7235 36.6377 71.6876 36.6647 71.6876 36.6871C71.7235 37.1858 71.6876 37.7699 71.2383 37.9542C71.2383 37.9542 71.2383 37.9856 71.2383 37.9811C71.7909 37.8823 71.8359 37.1095 71.7235 36.6377Z" fill="#263238"/>
<path d="M71.2524 36.1342C70.4436 36.1028 70.4481 37.7293 71.1985 37.7562C71.9488 37.7832 71.9353 36.1567 71.2524 36.1342Z" fill="#263238"/>
<path d="M74.635 36.7188C74.635 36.7188 74.6754 36.7412 74.6709 36.7637C74.6709 37.2624 74.7248 37.842 75.1786 38.0082C75.1786 38.0082 75.1786 38.0397 75.1786 38.0352C74.6215 37.9588 74.5316 37.1905 74.635 36.7188Z" fill="#263238"/>
<path d="M75.0845 36.1932C75.8887 36.1303 75.9561 37.7523 75.2058 37.8062C74.4554 37.8601 74.406 36.2381 75.0845 36.1932Z" fill="#263238"/>
<path d="M70.6151 35.3936C70.8272 35.3301 71.0357 35.2551 71.2396 35.1689C71.4721 35.1242 71.6826 35.0023 71.8372 34.823C71.8754 34.7571 71.8909 34.6804 71.8812 34.6049C71.8714 34.5293 71.837 34.4591 71.7833 34.4051C71.6609 34.3156 71.5167 34.2604 71.3658 34.2454C71.2149 34.2304 71.0627 34.256 70.9251 34.3197C70.6256 34.404 70.3688 34.5981 70.2062 34.8634C70.1735 34.9258 70.1593 34.9963 70.1655 35.0665C70.1716 35.1367 70.1977 35.2037 70.2407 35.2595C70.2838 35.3153 70.3419 35.3576 70.4083 35.3814C70.4746 35.4051 70.5464 35.4094 70.6151 35.3936Z" fill="#263238"/>
<path d="M75.7109 35.3714C75.492 35.3292 75.2759 35.2737 75.0639 35.2051C74.8286 35.1814 74.6084 35.0784 74.4393 34.9131C74.3938 34.8529 74.3691 34.7796 74.3691 34.7041C74.3691 34.6287 74.3938 34.5553 74.4393 34.4952C74.5534 34.3947 74.6924 34.3267 74.8418 34.2982C74.9912 34.2697 75.1455 34.2819 75.2885 34.3335C75.5938 34.391 75.8664 34.5609 76.0523 34.8097C76.0901 34.8673 76.1107 34.9343 76.1119 35.0031C76.1131 35.0719 76.0947 35.1396 76.059 35.1984C76.0232 35.2572 75.9716 35.3046 75.91 35.3352C75.8483 35.3659 75.7793 35.3784 75.7109 35.3714Z" fill="#263238"/>
<path d="M71.2654 41.3062C71.3867 41.423 71.508 41.5847 71.7147 41.6027C71.9015 41.5971 72.0851 41.5528 72.2538 41.4724C72.2538 41.4724 72.2853 41.4724 72.2763 41.4994C72.2045 41.5983 72.1073 41.676 71.995 41.7242C71.8827 41.7725 71.7595 41.7895 71.6383 41.7735C71.5348 41.7471 71.4417 41.6901 71.3712 41.6099C71.3006 41.5298 71.2559 41.4302 71.2429 41.3242C71.2115 41.3017 71.2474 41.2882 71.2654 41.3062Z" fill="#263238"/>
<path d="M73.3231 40.3902C73.1119 40.6686 72.8315 40.887 72.5098 41.0237C72.3337 41.0921 72.1407 41.1046 71.9572 41.0596C71.5573 40.9563 71.5438 40.6103 71.6157 40.2688C71.6586 40.1027 71.7188 39.9416 71.7955 39.7881C72.2271 40.147 72.7626 40.3581 73.3231 40.3902Z" fill="#263238"/>
<path d="M72.5098 41.0224C72.3337 41.0908 72.1407 41.1033 71.9572 41.0583C71.5573 40.955 71.5438 40.609 71.6157 40.2676C71.828 40.2744 72.0317 40.3527 72.1939 40.4897C72.3562 40.6266 72.4675 40.8143 72.5098 41.0224Z" fill="#FF9BBC"/>
<path d="M75.948 31.9612C75.6739 31.3232 75.3549 30.6807 74.9685 30.5504C74.5821 30.4201 74.335 31.3636 73.4589 31.422C72.2817 31.5029 71.7111 30.4201 70.0622 30.3032C67.6898 30.1415 66.6475 32.1004 66.5935 35.4792C66.5441 38.4805 64.7289 38.7636 64.7289 38.7636C64.7289 38.7636 63.6282 32.1454 65.4928 29.9528C67.3574 27.7602 71.6392 26.8077 74.5147 28.8835C75.5616 29.6428 75.948 31.9612 75.948 31.9612Z" fill="#263238"/>
<path d="M66.2424 37.5863C66.2424 37.5863 64.863 35.0387 63.7263 35.5015C62.5896 35.9643 63.4342 39.5452 64.6249 40.1428C64.7741 40.2324 64.9399 40.2909 65.1123 40.3148C65.2847 40.3386 65.4601 40.3274 65.628 40.2816C65.796 40.2358 65.9529 40.1566 66.0894 40.0485C66.2258 39.9405 66.339 39.806 66.4221 39.6531L66.2424 37.5863Z" fill="#F7A9A0"/>
<path d="M63.9961 36.5107V36.5422C64.8363 36.9915 65.2047 37.8901 65.4339 38.7572C65.3928 38.6631 65.3319 38.579 65.2552 38.5107C65.1785 38.4424 65.088 38.3915 64.9897 38.3616C64.8915 38.3317 64.7879 38.3235 64.6862 38.3375C64.5845 38.3515 64.487 38.3874 64.4005 38.4427C64.3735 38.4427 64.4005 38.4967 64.4005 38.4922C64.5612 38.4614 64.7275 38.4806 64.8769 38.5473C65.0264 38.614 65.1517 38.7249 65.2362 38.8651C65.3723 39.1032 65.4838 39.3546 65.5686 39.6154C65.6001 39.6963 65.7484 39.6738 65.7259 39.5795V39.557C65.8787 38.4337 65.1867 36.7624 63.9961 36.5107Z" fill="#263238"/>
<path d="M75.665 29.9883C74.9686 29.8221 71.1091 29.9389 69.3748 30.6847C67.6405 31.4306 64.5583 33.9242 64.401 34.0545C64.2438 34.1848 63.4485 27.8227 68.611 26.6635C74.2317 25.3965 75.665 29.9883 75.665 29.9883Z" fill="#C0009C"/>
<path d="M64.6992 33.794C64.6992 33.794 68.1094 29.301 70.0055 28.2676C71.9015 27.2342 76.1474 26.6591 78.7758 27.8183C80.8201 28.7169 75.8239 31.3498 75.8239 31.3498C75.7766 31.1342 75.6797 30.9327 75.5409 30.7611C75.402 30.5895 75.2251 30.4526 75.0242 30.3614C73.7481 29.8537 71.3219 30.2445 69.9381 30.7073C68.1948 31.2959 64.6992 33.794 64.6992 33.794Z" fill="#C0009C"/>
<path opacity="0.2" d="M64.6992 33.8162C64.6992 33.8162 68.1094 29.2963 70.0055 28.2674C71.9015 27.2385 76.1474 26.6589 78.7758 27.8181C80.8201 28.7167 75.8239 31.3496 75.8239 31.3496C75.7766 31.134 75.6797 30.9324 75.5409 30.7608C75.402 30.5892 75.2251 30.4524 75.0242 30.3611C73.7481 29.8534 71.3219 30.2443 69.9381 30.7071C68.1948 31.2956 64.6992 33.8162 64.6992 33.8162Z" fill="black"/>
<path d="M58.7404 54.5296C58.4528 63.3898 61.7237 79.9825 64.132 81.1102C71.9049 84.7406 84.984 84.9697 89.4636 85.0102C91.3956 85.0102 94.361 71.2705 92.4469 70.4977C91.1754 69.9855 71.9993 69.981 71.6623 69.2981C71.3253 68.6152 66.7559 58.7485 64.7835 53.285C62.1641 46.0198 58.9066 49.3267 58.7404 54.5296Z" fill="#F7A9A0"/>
<path d="M90.3879 70.3135C90.3879 70.3135 96.2603 70.6729 100.084 71.0863C102.223 71.3154 105.848 72.0388 107.336 72.9239C109.582 74.2718 118.047 81.227 116.402 83.3207C114.911 85.2123 108.387 78.2976 108.387 78.2976C108.387 78.2976 115.576 84.6911 113.374 86.6456C111.173 88.6 104.837 79.7982 104.837 79.7982C104.837 79.7982 112.089 86.5377 109.488 88.1912C107.524 89.4357 101.337 81.7931 101.337 81.7931C101.337 81.7931 107.533 87.634 105.565 88.9819C103.391 90.4961 97.2398 83.797 97.2398 83.797C91.655 86.4389 87.9168 85.41 85.3423 84.3631C84.7088 84.1295 90.3879 70.3135 90.3879 70.3135Z" fill="#F7A9A0"/>
<path d="M106.037 75.9248C106.909 76.6436 107.798 77.367 108.603 78.1713C109.407 78.9755 110.189 79.7932 110.917 80.6604C111.891 81.7758 112.735 82.9982 113.433 84.3042C112.026 82.0577 109.187 79.1822 108.378 78.3869C107.569 77.5917 106.81 76.756 106.006 75.9607C105.983 75.9338 106.015 75.9068 106.037 75.9248Z" fill="#263238"/>
<path d="M103.111 78.7816C104.185 79.7476 105.286 80.6732 106.319 81.6886C107.352 82.704 108.233 83.7509 109.19 84.8337C109.262 84.9146 109.19 84.928 109.114 84.8337C108.116 83.7958 107.114 82.9107 106.108 81.8818C105.101 80.8529 104.126 79.7835 103.084 78.7951C103.066 78.7906 103.093 78.7681 103.111 78.7816Z" fill="#263238"/>
<path d="M100.143 80.7814C101.828 82.2267 103.36 83.8422 104.713 85.6024C104.78 85.6877 104.69 85.6967 104.614 85.6024C103.126 83.9714 101.972 82.6819 100.094 80.8353C100.08 80.8128 100.143 80.7544 100.143 80.7814Z" fill="#263238"/>
<path d="M106.595 72.2134C105.199 71.617 103.718 71.2455 102.205 71.1126C98.9435 70.7127 95.6636 70.4521 92.3837 70.214C89.1038 69.9759 85.7745 69.7647 82.4676 69.6434C80.6075 69.5715 78.7474 69.5161 76.8873 69.4772C75.0272 69.4412 74.6408 69.5086 72.7717 69.5311C72.7223 69.5311 72.7268 69.5985 72.7717 69.603C76.0292 69.7737 77.8264 69.9085 81.0838 70.0792C84.3412 70.25 87.5897 70.4432 90.8381 70.6678C94.0866 70.8925 97.2811 71.1171 100.489 71.4765C102.041 71.5818 103.579 71.83 105.085 72.2179C106.561 72.7598 107.93 73.5567 109.129 74.5722C110.504 75.655 115.658 80.6108 116.129 81.2533C116.188 81.3297 116.21 81.3072 116.179 81.2084C115.806 79.865 109.61 73.6197 106.595 72.2134Z" fill="#263238"/>
<path d="M68.018 60.2493L58.4613 65.6678C58.4613 65.6678 58.057 53.5906 58.9421 50.0052C59.9395 45.9615 61.7817 47.3633 63.8574 50.7241C65.9332 54.0848 68.018 60.2493 68.018 60.2493Z" fill="#C0009C"/>
<path opacity="0.1" d="M68.018 60.2493L58.4613 65.6678C58.4613 65.6678 58.057 53.5906 58.9421 50.0052C59.9395 45.9615 61.7817 47.3633 63.8574 50.7241C65.9332 54.0848 68.018 60.2493 68.018 60.2493Z" fill="black"/>
<path d="M66.6998 58.7024C65.3923 59.2281 61.6811 61.3578 61.0655 61.7037C60.742 61.8834 59.475 62.6697 59.1515 62.8494C59.1111 62.8719 59.1515 62.9303 59.192 62.9079C59.8165 62.5664 60.4725 62.2878 61.1015 61.9508C61.7305 61.6139 65.5945 59.583 66.7267 58.7473C66.731 58.7431 66.7338 58.7375 66.7345 58.7315C66.7353 58.7255 66.734 58.7194 66.7309 58.7143C66.7278 58.7091 66.723 58.7051 66.7174 58.7029C66.7118 58.7008 66.7055 58.7006 66.6998 58.7024Z" fill="#263238"/>
<path d="M66.5098 55.7788C66.3615 55.2172 66.2088 54.6601 66.038 54.1029C66.1324 54.5163 66.2402 54.9296 66.348 55.343C66.0021 54.5612 65.6471 53.7884 65.2607 53.0381H65.2383C65.6561 54.2557 66.1369 55.4508 66.5862 56.6595C67.0355 57.8681 67.4848 59.0228 67.9341 60.2044C67.7319 60.3617 67.5342 60.5145 67.3275 60.6537C67.3192 60.6591 67.3133 60.6676 67.3112 60.6772C67.3091 60.6869 67.3109 60.6971 67.3163 60.7054C67.3217 60.7137 67.3301 60.7196 67.3398 60.7217C67.3495 60.7238 67.3596 60.722 67.368 60.7166C67.6151 60.5908 67.8622 60.465 68.1183 60.3527C68.1479 60.3415 68.1722 60.3196 68.1864 60.2913C68.2005 60.263 68.2035 60.2303 68.1947 60.1999C67.6915 58.7307 67.1343 57.2391 66.5098 55.7788Z" fill="#263238"/>
<path d="M49.7319 8.37988C49.3589 4.6417 46.78 0.916992 42.251 0.916992C37.722 0.916992 35.1476 4.65967 34.7746 8.37988C34.204 14.1534 38.095 19.3833 42.251 24.1548C46.407 19.4012 50.3025 14.1714 49.7319 8.37988ZM42.251 12.5314C41.4404 12.5314 40.648 12.291 39.974 11.8405C39.3001 11.3901 38.7749 10.7499 38.4649 10.0008C38.1549 9.25184 38.074 8.42772 38.2324 7.63274C38.3909 6.83775 38.7816 6.10763 39.3551 5.53475C39.9286 4.96187 40.6592 4.57196 41.4543 4.41436C42.2495 4.25676 43.0735 4.33855 43.8222 4.64938C44.5709 4.9602 45.2105 5.48611 45.6602 6.16055C46.11 6.83499 46.3495 7.62766 46.3486 8.43829C46.351 8.97769 46.2467 9.51225 46.0418 10.0112C45.8369 10.5102 45.5354 10.9637 45.1546 11.3458C44.7738 11.7278 44.3212 12.0308 43.8229 12.2374C43.3246 12.444 42.7904 12.55 42.251 12.5494V12.5314Z" fill="#C0009C"/>
</svg>
