<svg width="46" height="46" viewBox="0 0 46 46" fill="none" xmlns="http://www.w3.org/2000/svg">
<circle cx="23" cy="23" r="23" fill="url(#paint0_linear_0_1)"/>
<path d="M29.8772 18.1984C29.7651 21.9418 28.152 24.883 25.0379 27.0219C24.7634 27.21 24.4538 27.351 24.1498 27.4924C23.3867 27.8476 22.621 27.8358 21.8507 27.495C20.7001 26.9855 19.7628 26.2024 18.9292 25.2911C17.5395 23.7648 16.627 21.9977 16.2867 19.9696C15.9988 18.2558 16.0714 16.5486 16.6426 14.8916C17.2687 13.0778 18.5194 11.8764 20.3972 11.3613C22.1754 10.8734 23.9682 10.8739 25.7356 11.3977C27.7851 12.0051 28.9901 13.4252 29.5338 15.4313C29.7786 16.3343 29.873 17.2574 29.8772 18.1984ZM28.9118 17.0196C24.9491 18.6596 21.0441 18.6653 17.1146 17.0267C17.1056 17.0438 17.1001 17.0624 17.0985 17.0816C17.017 18.0433 17.049 19.0111 17.194 19.9655C17.277 20.5365 17.5441 20.9286 18.0572 21.1659C18.5552 21.3965 19.0428 21.6594 19.5662 21.8239C21.569 22.4559 23.6066 22.4764 25.6546 22.0617C26.605 21.869 27.5273 21.5887 28.349 21.0603C28.4652 20.986 28.584 20.8419 28.6083 20.7138C28.7422 19.9604 28.8791 19.2049 28.9512 18.4444C28.9948 17.9657 28.9284 17.4783 28.9118 17.0196ZM25.25 17.1918C25.4269 16.404 25.5685 15.6506 25.7688 14.9131C25.969 14.1756 26.2356 13.4432 26.4748 12.7021C24.944 11.6668 21.0114 11.6668 19.5076 12.7185C19.5047 12.7337 19.5047 12.7494 19.5076 12.7646C20.0896 14.0941 20.4221 15.4928 20.6701 16.913C20.7131 17.1605 20.8511 17.2056 21.0529 17.2143C21.8891 17.2492 22.7258 17.3091 23.562 17.3112C24.129 17.3127 24.6955 17.2343 25.25 17.1918ZM21.4694 23.1985C21.5141 24.2123 21.5571 25.226 21.6064 26.2393C21.609 26.271 21.6183 26.3019 21.6336 26.3298C21.649 26.3578 21.6701 26.3823 21.6956 26.4018C22.3471 26.781 23.0174 27.0414 23.7706 26.6719C23.9174 26.6001 24.0626 26.5248 24.2141 26.4669C24.3656 26.4089 24.405 26.3095 24.4091 26.1527C24.4283 25.5049 24.4641 24.8575 24.4947 24.2097C24.5113 23.8653 24.5305 23.5204 24.5466 23.2011L21.4694 23.1985Z" fill="white"/>
<path d="M23.4713 34.9978V30.0263C21.9405 30.1006 20.6498 29.5415 19.4489 28.6425L20.1814 27.6006C20.6068 27.8266 21.0047 28.0459 21.4098 28.2509C22.467 28.786 23.5211 28.7676 24.5912 28.2597C25.7039 27.7318 26.6662 27.0096 27.52 26.1378C27.6565 25.9984 27.741 25.9841 27.9267 26.0738C28.8278 26.5191 29.747 26.9281 30.6511 27.3684C31.2378 27.6539 31.8256 27.9439 32.3837 28.2802C33.3724 28.8767 33.8393 29.8003 33.9431 30.915C33.9809 31.3225 33.9773 31.7351 33.9981 32.1425C34.0229 32.6371 33.8082 33.0138 33.4238 33.3116C32.7743 33.8108 32.0071 34.0409 31.2259 34.2295C29.9576 34.537 28.667 34.7051 27.3665 34.7964C26.1946 34.8784 25.0213 34.9322 23.8484 34.9967C23.7301 35.0034 23.6113 34.9978 23.4713 34.9978Z" fill="white"/>
<path d="M18.3612 25.9933C18.5028 26.1409 18.6724 26.3321 18.8607 26.5099C19.049 26.6878 19.2456 26.8518 19.4588 27.0399L18.2548 28.7614C18.8306 29.6102 20.8086 30.6132 22.5391 30.9263V34.9752C22.488 34.9874 22.4359 34.9953 22.3835 34.9988C19.9039 34.9342 17.4305 34.8046 14.9971 34.2813C14.219 34.1142 13.4606 33.8902 12.7826 33.4582C12.2566 33.123 11.9485 32.674 12.0071 32.0293C12.0201 31.8847 11.9998 31.7376 12.0149 31.5941C12.0631 31.1452 12.0839 30.689 12.1824 30.2508C12.364 29.4441 12.8205 28.8019 13.5218 28.3437C13.7909 28.1584 14.0725 27.9916 14.3648 27.8445C15.6782 27.2259 16.9984 26.6227 18.3612 25.9933Z" fill="white"/>
<defs>
<linearGradient id="paint0_linear_0_1" x1="-11.6949" y1="-8.625" x2="28.5605" y2="55.0532" gradientUnits="userSpaceOnUse">
<stop stop-color="#E200B2"/>
<stop offset="1" stop-color="#5B015B"/>
</linearGradient>
</defs>
</svg>
