<svg width="46" height="46" viewBox="0 0 46 46" fill="none" xmlns="http://www.w3.org/2000/svg">
<circle cx="23" cy="23" r="23" fill="url(#paint0_linear_0_1)"/>
<path d="M12.946 25.8153V21.5118C12.946 19.2809 12.946 17.05 12.946 14.8191C12.9549 13.7008 13.642 13.0229 14.7862 13.0157C16.3384 13.0056 17.8892 13.0157 19.5349 13.0157V16.1721H24.9885V13.0056H27.4653C28.2814 13.0056 29.0976 12.9884 29.9138 13.0143C30.8042 13.0416 31.5224 13.636 31.5284 14.4823C31.5595 18.1237 31.5417 21.7651 31.5417 25.3648C30.5653 25.3648 29.6126 25.3648 28.6643 25.3648C27.8437 25.3648 27.2293 25.7174 27.0943 26.2931C26.9592 26.8688 27.348 27.4446 28.133 27.767C28.4976 27.9126 28.8779 28.0178 29.2668 28.0807C29.6553 28.1268 30.0462 28.1518 30.4377 28.1556C30.2418 29.1947 29.3351 29.7474 28.001 29.651L27.7309 30.2886H20.2754L20.0558 29.7014C18.5228 29.6424 17.901 29.2797 17.533 28.1901C17.996 28.1412 18.4546 28.1268 18.8983 28.0462C19.3093 27.9708 19.7084 27.8435 20.0854 27.6677C20.6449 27.3927 21.0782 26.9667 20.8972 26.2931C20.725 25.6483 20.1834 25.3763 19.5393 25.3979C18.0346 25.4497 16.5313 25.5418 15.0295 25.6267C14.3721 25.6555 13.7133 25.7404 12.946 25.8153ZM22.2951 20.3834C22.9614 20.3834 23.6307 20.3949 24.297 20.3834C25.1354 20.3633 25.6964 19.8379 25.6949 19.1068C25.6841 18.7676 25.5418 18.4448 25.2964 18.2028C25.0511 17.9608 24.7207 17.8175 24.3712 17.8013C22.9629 17.7697 21.5516 17.774 20.1433 17.8013C19.7952 17.8157 19.4657 17.9572 19.2207 18.1975C18.9757 18.4377 18.8335 18.759 18.8226 19.0967C18.8226 19.8063 19.3494 20.3359 20.1433 20.3662C20.8645 20.4036 21.5828 20.382 22.301 20.382L22.2951 20.3834Z" fill="white"/>
<path d="M28.5456 30.4009C29.5844 30.3231 30.3531 29.7834 30.9303 28.9429C31.5076 28.1023 31.2197 27.5597 30.1809 27.4402C29.5072 27.3625 28.8083 27.2819 28.1835 27.0473C27.6389 26.8429 27.6641 26.4846 27.9876 26.2327L28.9596 26.7969L29.3618 26.0369C29.807 26.06 30.4644 26.0672 31.1129 26.1348C32.6725 26.2946 34.2366 26.3162 35.7696 26.8156C36.66 27.1034 37.7195 26.9595 38.7034 26.9883C39.0952 27.0027 39.4869 26.9883 39.9974 26.9883C39.9974 28.1397 40.0108 29.2509 39.9767 30.362C39.9767 30.4771 39.665 30.6988 39.5315 30.6772C37.8457 30.4109 36.7 31.3306 35.5396 32.2921C34.5364 33.1254 33.9903 33.1053 32.815 32.518C32.0463 32.1338 31.2271 31.8445 30.4213 31.5336C30.313 31.4918 30.1468 31.5753 30.0118 31.6113C29.0338 31.8776 28.5263 31.4803 28.5456 30.4009Z" fill="white"/>
<path d="M8.00292 26.9768C9.16191 26.9768 10.1962 27.0099 11.2276 26.9638C11.79 26.9394 12.3391 26.7638 12.9 26.6789C14.8619 26.4054 16.8252 26.1434 18.7885 25.8757L18.6875 26.2025C18.8819 26.4097 19.0808 26.7782 19.2722 26.7782C19.5245 26.7782 19.7723 26.473 20.1404 26.2168C20.3615 26.4371 20.3333 26.8127 19.891 27.0157C19.4162 27.2344 18.8671 27.3035 18.3433 27.4158C18.0331 27.4791 17.6977 27.4431 17.3935 27.5223C16.7999 27.6748 16.6174 28.1671 16.932 28.7097C17.4811 29.6553 18.2527 30.3145 19.4177 30.3649C19.5661 31.2356 19.0867 31.8992 18.3789 31.6602C17.6057 31.3997 17.0789 31.8416 16.469 32.0201C15.5296 32.2964 14.6274 32.6893 13.694 32.9887C13.5322 33.0405 13.2695 32.9038 13.1004 32.7915C12.7715 32.5802 12.4639 32.3393 12.1818 32.0719C11.1786 31.0932 10.0389 30.5002 8.55644 30.6714C8.39172 30.6902 8.03705 30.4282 8.03112 30.2857C7.9866 29.2163 8.00292 28.1426 8.00292 26.9768Z" fill="white"/>
<path d="M12.0794 24.8236C11.3211 23.3771 9.93209 23.2505 8.55348 23.0519C8.35462 23.0231 8.04002 22.7755 8.03409 22.6201C7.9866 21.5939 8.00292 20.5662 8.00292 19.4249C9.40825 19.7861 10.7112 20.1172 12.0097 20.4698C12.0687 20.5023 12.1187 20.5483 12.1554 20.6037C12.1921 20.6591 12.2144 20.7223 12.2204 20.7879C12.2352 22.0933 12.2308 23.3987 12.2308 24.7042L12.0794 24.8236Z" fill="white"/>
<path d="M20.2383 15.5445V13.0632H24.2584V15.5445H20.2383Z" fill="white"/>
<path d="M22.2802 18.485C22.9198 18.485 23.5609 18.485 24.2005 18.485C24.6709 18.4764 25.0404 18.6807 24.9514 19.1298C24.9039 19.3745 24.4914 19.7142 24.2302 19.7271C22.9035 19.7876 21.5709 19.789 20.2457 19.7271C19.9949 19.7142 19.7649 19.3169 19.5245 19.0981C19.7783 18.8952 20.0127 18.5541 20.2902 18.5224C20.9432 18.426 21.6154 18.485 22.2802 18.485Z" fill="white"/>
<defs>
<linearGradient id="paint0_linear_0_1" x1="-11.6949" y1="-8.625" x2="28.5605" y2="55.0532" gradientUnits="userSpaceOnUse">
<stop stop-color="#E200B2"/>
<stop offset="1" stop-color="#5B015B"/>
</linearGradient>
</defs>
</svg>
