<svg width="46" height="46" viewBox="0 0 46 46" fill="none" xmlns="http://www.w3.org/2000/svg">
<circle cx="23" cy="23" r="23" fill="url(#paint0_linear_0_1)"/>
<path d="M22.0194 36C22.4232 35.7745 22.542 35.4287 22.5358 34.9844C22.5198 33.2751 22.5291 31.5658 22.5291 29.8555V29.5C22.7635 29.7316 22.9546 29.9154 23.14 30.1048C23.472 30.4523 23.9047 30.6909 24.3794 30.7883C24.5973 30.8366 24.8196 30.8628 25.0429 30.8665C27.2631 30.8723 29.4837 30.8731 31.7046 30.8691C32.9811 30.8655 34 29.8352 34 28.5732C33.9974 27.3306 32.9708 26.3069 31.7082 26.3033C29.8409 26.2976 27.9735 26.2976 26.1062 26.3033C26.0307 26.3068 25.9554 26.2937 25.8857 26.2651C25.8159 26.2365 25.7535 26.193 25.7029 26.1378C24.3427 24.7591 22.9856 23.3773 21.6109 22.0128C20.3829 20.7941 18.8967 20.3579 17.2215 20.8342C15.5462 21.3105 14.4917 22.4434 14.0972 24.1268C14.0177 24.4686 14.011 24.8317 14.0099 25.1851C14.0037 28.4686 14.0099 31.7521 14.0006 35.0367C14.0006 35.4963 14.1483 35.8213 14.5868 35.999L22.0194 36Z" fill="white"/>
<path d="M15.9774 10C15.5277 10.1214 15.0959 10.2763 14.7499 10.6053C14.3048 11.0283 14.0234 11.5326 14.0161 12.147C14.0037 13.1708 13.9826 14.1961 14.0265 15.2178C14.1024 16.9799 15.6087 18.644 17.4275 19.0345C20.0162 19.59 22.4485 17.9132 22.7981 15.3315C22.8038 15.2904 22.8167 15.2503 22.8338 15.1792C23.202 15.1792 23.5686 15.1792 23.9353 15.1792C24.4517 15.1792 24.8075 14.8588 24.8007 14.4078C24.794 13.966 24.4424 13.6593 23.9404 13.6578C23.5815 13.6578 23.2226 13.6578 22.8389 13.6578C22.8389 13.2444 22.8389 12.8575 22.8389 12.4705C22.8389 11.1852 22.2048 10.3722 20.9447 10.0401C20.9224 10.0297 20.9017 10.0162 20.8833 10H15.9774Z" fill="white"/>
<path d="M29.8574 17.8203C29.8574 18.2616 29.8667 18.6745 29.8574 19.0873C29.8424 19.6352 29.3968 19.9826 28.8902 19.8551C28.7268 19.8133 28.5823 19.7191 28.4795 19.5875C28.3766 19.4559 28.3213 19.2944 28.3221 19.1284C28.3164 18.7059 28.3221 18.2834 28.3221 17.8421C28.2537 17.8317 28.1847 17.8247 28.1156 17.8213C27.5217 17.8213 26.9278 17.8183 26.334 17.8213C25.8547 17.8239 25.5304 18.1199 25.5284 18.5907C25.5211 20.3934 25.5211 22.196 25.5284 23.9984C25.5284 24.4813 25.8552 24.7748 26.3546 24.7753C28.1792 24.7753 30.0039 24.7753 31.8285 24.7753C32.3263 24.7753 32.6579 24.4574 32.6589 23.9704C32.662 22.1843 32.662 20.3986 32.6589 18.6135C32.6589 18.1402 32.3243 17.8234 31.8425 17.8213C31.1913 17.8203 30.5463 17.8203 29.8574 17.8203Z" fill="white"/>
<defs>
<linearGradient id="paint0_linear_0_1" x1="-11.6949" y1="-8.625" x2="28.5605" y2="55.0532" gradientUnits="userSpaceOnUse">
<stop stop-color="#E200B2"/>
<stop offset="1" stop-color="#5B015B"/>
</linearGradient>
</defs>
</svg>
