<svg width="46" height="46" viewBox="0 0 46 46" fill="none" xmlns="http://www.w3.org/2000/svg">
<circle cx="23" cy="23" r="23" fill="url(#paint0_linear_0_1)"/>
<path d="M28.1113 16.0626C27.7531 16.9134 27.1914 16.4182 26.5372 16.1828C26.5372 16.4393 26.4834 16.6406 26.5473 16.7949C26.702 17.1699 26.9828 17.5044 27.0888 17.8875C27.4369 19.1393 28.2829 19.6961 29.5846 19.6523C29.8722 19.6302 30.1552 19.5696 30.4255 19.4721C31.3656 19.1734 32.299 18.8584 33.2425 18.5483C33.6731 19.4331 33.5217 20.128 33.2139 20.8115C32.7548 21.8311 31.9139 20.917 31.1958 21.2093C31.6112 21.9253 32.0266 22.638 32.4403 23.354C32.6724 23.755 32.891 24.1658 33.1265 24.5619C33.5856 25.3298 34.1709 26.0994 32.8288 26.7991C34.2314 26.8251 35.407 26.9956 36.3387 28.0054L35.6189 28.5639C36.5557 31.0269 35.6576 33.0043 33.2476 33.7982C31.5136 34.3697 30.0252 33.5969 29.3962 31.751L28.5066 32.0757C28.4426 31.8256 28.3888 31.6048 28.3249 31.3516C28.2261 31.3277 28.1254 31.3114 28.0239 31.3029C25.782 31.3029 23.5402 31.3029 21.2967 31.2736C20.916 31.2593 20.5442 31.158 20.2119 30.9782C19.4971 30.5999 18.853 30.7703 18.5301 31.4944C17.965 32.7381 17.0064 33.5531 15.6458 33.8843C13.5957 34.386 12.2351 33.2349 12.114 30.8466L10.5264 30.772C10.782 30.1501 10.9569 29.6046 11.2244 29.1062C11.7726 28.0632 12.6767 27.2346 13.7841 26.7602C14.2651 26.5491 14.7376 26.3072 14.2987 25.6237C14.1742 25.4305 14.3306 25.0668 14.3643 24.7113C14.228 24.6886 14.0904 24.674 13.9522 24.6674C12.3259 24.6674 12.5597 24.7648 12.7985 23.2988C13.0239 21.9123 13.3434 20.5388 13.5822 19.1571C13.6916 18.5207 13.9489 18.2496 14.6771 18.2788C16.2445 18.3389 17.817 18.295 19.3861 18.2999C19.6603 18.2999 19.9327 18.3259 20.3111 18.3437C19.9411 20.3391 19.5863 22.2613 19.2196 24.2453H20.8022C20.1884 23.0536 20.7265 21.9626 21.1604 20.8748C22.1393 18.4265 22.8422 17.4946 24.9983 15.5886C24.4534 14.5268 24.625 13.189 25.3885 12.4909C26.0124 11.921 26.8836 11.8414 27.8103 12.283C28.6058 12.6581 28.9354 13.2572 28.8093 14.155L27.2385 13.702C26.6986 14.7005 26.7625 14.8693 28.1113 16.0626ZM28.3014 30.0527C29.3475 29.452 30.0471 28.6987 30.1665 27.2846C30.3347 25.3867 30.2136 23.4693 30.2287 21.5616C30.2287 20.9268 29.9294 20.7352 29.2936 20.7742C27.8574 20.8635 26.4682 20.7742 25.6811 19.326C25.6677 19.3032 25.5903 19.313 25.449 19.2967L23.9707 22.1948C24.3189 22.2841 24.5325 22.3344 24.7427 22.3945C25.7047 22.664 26.6768 22.9091 27.627 23.2176C28.2526 23.4206 28.4544 23.906 28.2778 24.5164C28.1584 24.9304 28.0188 25.3412 27.8692 25.7471C27.4369 26.9339 26.9946 28.1175 26.559 29.2945L28.3014 30.0527ZM24.4753 24.7924C24.3357 25.536 24.334 25.5328 23.5335 25.7925C23.4342 25.8234 23.2997 25.877 23.2644 25.9549C22.8237 26.9599 22.3091 27.9454 22.0013 28.9877C21.7928 29.6891 22.3377 30.1583 23.0491 30.2979C23.4631 30.3645 23.8845 30.3776 24.3021 30.3368C24.3879 30.3206 24.4685 30.2849 24.5372 30.2327C24.6059 30.1805 24.6608 30.1132 24.6973 30.0365C25.2119 28.3918 25.7064 26.7391 26.2193 25.0197L24.4753 24.7924ZM34.0296 29.2994L31.5674 30.5658C30.703 31.009 30.6811 31.7948 31.5204 32.3517C32.2839 32.8533 33.4393 32.6228 34.1339 31.811C34.8285 30.9993 34.8268 30.0771 34.0296 29.301V29.2994ZM17.2318 30.8564H13.6159C13.5621 31.889 14.0649 32.5189 14.9613 32.6147C15.9704 32.7218 16.9795 31.9539 17.2318 30.8564Z" fill="white"/>
<path d="M7.32593 25.6578C7.56307 25.5555 7.79852 25.3704 8.03734 25.3656C9.57114 25.3363 11.1061 25.3363 12.6421 25.3656C12.8288 25.3656 13.0121 25.5766 13.1954 25.6903C13.0508 25.7877 12.9062 25.9679 12.7598 25.9695C10.9822 25.989 9.20283 25.9809 7.42516 25.9809L7.32593 25.6578Z" fill="white"/>
<path d="M10.9485 27.895C10.6492 28.0217 10.4238 28.197 10.1951 28.2003C8.63101 28.2246 7.06862 28.2214 5.50454 28.2003C5.33636 28.2003 5.16818 28.0152 5 27.9161C5.13286 27.8074 5.26572 27.6044 5.39859 27.6044C7.15439 27.6044 8.91187 27.6174 10.6677 27.6369C10.7131 27.6369 10.7568 27.7051 10.9485 27.895Z" fill="white"/>
<path d="M12.0165 22.8815C11.7709 22.9887 11.5288 23.1819 11.2815 23.1884C9.85873 23.216 8.43592 23.2095 7.01312 23.1884C6.84494 23.1884 6.67676 23.026 6.50858 22.9286C6.62967 22.8069 6.74908 22.5812 6.87185 22.5796C8.55365 22.5552 10.2355 22.5633 11.9173 22.5633L12.0165 22.8815Z" fill="white"/>
<path d="M10.1278 20.6946C10.3179 20.5842 10.4978 20.4073 10.6996 20.3797C11.085 20.3299 11.4753 20.3255 11.8618 20.3667C12.04 20.3845 12.1981 20.5388 12.3764 20.6297C12.2183 20.7401 12.0686 20.9349 11.9055 20.9463C11.3572 20.9869 10.8056 20.9625 10.254 20.9625L10.1278 20.6946Z" fill="white"/>
<defs>
<linearGradient id="paint0_linear_0_1" x1="-11.6949" y1="-8.625" x2="28.5605" y2="55.0532" gradientUnits="userSpaceOnUse">
<stop stop-color="#E200B2"/>
<stop offset="1" stop-color="#5B015B"/>
</linearGradient>
</defs>
</svg>
